<?xml version="1.0" standalone="no"?>
<!DOCTYPE svg PUBLIC "-//W3C//DTD SVG 20010904//EN"
 "http://www.w3.org/TR/2001/REC-SVG-20010904/DTD/svg10.dtd">
<svg version="1.0" xmlns="http://www.w3.org/2000/svg"
 width="700.000000pt" height="700.000000pt" viewBox="0 0 700.000000 700.000000"
 preserveAspectRatio="xMidYMid meet">
<metadata>
Created by potrace 1.11, written by Peter Selinger 2001-2013
</metadata>
<g transform="translate(0.000000,700.000000) scale(0.100000,-0.100000)"
fill="#000000" stroke="none">
<path d="M0 3500 l0 -3500 3500 0 3500 0 0 3500 0 3500 -3500 0 -3500 0 0
-3500z m3500 2053 l0 -208 -613 -269 c-743 -327 -877 -390 -941 -447 -73 -65
-94 -134 -61 -199 19 -38 101 -102 179 -143 34 -17 822 -367 1751 -777 l1690
-745 3 -208 c1 -114 0 -207 -4 -207 -15 0 -3538 1557 -3604 1593 -310 168
-410 302 -410 545 0 220 117 401 343 530 63 36 1639 740 1660 742 4 0 7 -93 7
-207z m0 -551 l0 -209 -571 -252 -572 -253 -92 41 c-161 71 -265 136 -265 167
0 18 64 70 123 101 39 20 1361 609 1375 612 1 1 2 -93 2 -207z m-7 -763 c-8
-7 -478 -215 -500 -221 -12 -3 -473 193 -473 202 0 3 219 102 488 220 l487
216 3 -205 c1 -113 -1 -208 -5 -212z m-1923 -222 c62 -58 155 -121 265 -182
39 -21 879 -395 1868 -830 989 -436 1801 -795 1803 -798 2 -2 3 -96 2 -209
l-3 -204 -1760 776 c-968 426 -1799 796 -1847 822 -248 133 -362 252 -397 416
-17 81 -13 262 6 262 3 0 31 -24 63 -53z m107 -640 c38 -25 109 -67 158 -94
50 -27 897 -404 1882 -838 l1793 -790 0 -207 0 -208 -22 9 c-111 43 -3523
1553 -3588 1588 -177 95 -311 208 -359 301 -45 88 -63 231 -45 344 l7 38 53
-49 c30 -27 84 -69 121 -94z m133 -632 c58 -33 142 -76 188 -95 45 -19 82 -37
82 -40 0 -4 -519 -236 -572 -256 -17 -6 -18 8 -18 200 l0 207 83 38 c78 37 83
38 107 23 14 -9 72 -44 130 -77z m668 -307 c158 -70 230 -105 220 -111 -7 -5
-281 -127 -608 -271 l-595 -262 -3 204 c-1 113 -1 207 2 209 4 5 737 331 746
332 3 1 110 -45 238 -101z m633 -279 c127 -56 228 -103 227 -104 -4 -4 -1791
-792 -1825 -806 l-23 -9 0 208 0 207 683 302 c375 166 688 302 695 302 8 1
117 -45 243 -100z"/>
</g>
</svg>
