<?xml version="1.0" encoding="utf-8"?>
<!-- Generator: Adobe Illustrator 16.0.0, SVG Export Plug-In . SVG Version: 6.00 Build 0)  -->
<!DOCTYPE svg PUBLIC "-//W3C//DTD SVG 1.0//EN" "http://www.w3.org/TR/2001/REC-SVG-20010904/DTD/svg10.dtd">
<svg version="1.0" id="Layer_1" xmlns="http://www.w3.org/2000/svg" xmlns:xlink="http://www.w3.org/1999/xlink" x="0px" y="0px"
	 width="150px" height="150px" viewBox="0 0 150 150" enable-background="new 0 0 150 150" xml:space="preserve">
<g id="layer1">
	<path fill="#FFFFFF" d="M70.147,82.455c0-1.455,0.088-1.543,1.544-1.543c1.234,0,1.544,0.176,1.544,0.881
		c0,0.662-0.31,0.883-1.104,0.883c-0.705,0-1.103,0.264-1.103,0.662c0,0.352-0.177,0.662-0.441,0.662
		C70.367,84,70.147,83.293,70.147,82.455z M72.221,81.971c-0.133-0.133-0.529-0.178-0.839-0.045
		c-0.353,0.133-0.221,0.266,0.266,0.266C72.132,82.234,72.396,82.102,72.221,81.971z"/>
	<path fill="#FFFFFF" d="M74.117,82.412c0-1.5,0.044-1.545,1.456-1.412c1.234,0.131,1.412,0.309,1.5,1.588
		c0.044,1.455-0.573,1.852-1.544,0.881c-0.397-0.396-0.529-0.396-0.529,0C75,83.779,74.823,84,74.559,84
		C74.338,84,74.117,83.293,74.117,82.412z M76.19,81.971c-0.132-0.133-0.529-0.178-0.838-0.045
		c-0.353,0.133-0.221,0.266,0.265,0.266C76.103,82.234,76.367,82.102,76.19,81.971z"/>
	<path fill="#FFFFFF" d="M77.646,82.455c0-1.588,0-1.588,1.677-1.455c1.5,0.131,1.632,0.264,1.632,1.455s-0.132,1.324-1.632,1.455
		C77.646,84.043,77.646,84.043,77.646,82.455z M80.294,82.455c0-0.354-0.398-0.662-0.883-0.662s-0.883,0.309-0.883,0.662
		s0.398,0.662,0.883,0.662S80.294,82.809,80.294,82.455z"/>
	<path fill="#FFFFFF" d="M81.749,83.338c-0.133-0.398-0.088-0.838,0.088-1.016c0.178-0.176,0.441-0.043,0.529,0.266
		c0.354,0.926,1.016,0.572,1.016-0.574c0-0.617,0.221-1.102,0.44-1.102c0.265,0,0.441,0.705,0.441,1.543
		c0,1.367-0.132,1.545-1.103,1.545C82.543,84,81.926,83.689,81.749,83.338z"/>
	<path fill="#FFFFFF" d="M85.146,82.455c0-1.455,0.089-1.543,1.545-1.543c0.838,0,1.543,0.131,1.543,0.264
		c0,0.354-1.059,1.324-1.764,1.633c-0.397,0.131-0.178,0.264,0.572,0.264C88.808,83.117,88.498,84,86.69,84
		C85.234,84,85.146,83.91,85.146,82.455z"/>
	<path fill="#FFFFFF" d="M88.852,83.381c-0.529-1.367,0.044-2.25,1.499-2.381c1.06-0.088,1.412,0.043,1.412,0.572
		c0,0.486-0.264,0.619-1.103,0.398s-1.103-0.09-1.103,0.484s0.264,0.705,1.103,0.484c0.794-0.221,1.103-0.088,1.103,0.398
		C91.763,84.219,89.204,84.264,88.852,83.381z"/>
	<path fill="#FFFFFF" d="M93.527,82.896c0-0.705-0.265-1.104-0.661-1.104c-0.354,0-0.662-0.176-0.662-0.441
		c0-0.221,0.794-0.439,1.764-0.439c0.971,0,1.766,0.219,1.766,0.439c0,0.266-0.309,0.441-0.662,0.441
		c-0.396,0-0.662,0.398-0.662,1.104c0,0.617-0.176,1.104-0.441,1.104C93.748,84,93.527,83.514,93.527,82.896z"/>
	<path fill="#FFFFFF" d="M98.38,82.455c0-1.721,0.221-1.854,1.412-0.838c0.705,0.705,0.793,0.705,1.059,0
		c0.484-1.236,1.059-0.795,1.059,0.838c0,0.838-0.177,1.545-0.441,1.545c-0.221,0-0.441-0.178-0.441-0.354
		c0-0.178-0.396-0.354-0.882-0.354s-0.882,0.176-0.882,0.354c0,0.176-0.178,0.354-0.441,0.354C98.601,84,98.38,83.293,98.38,82.455z
		"/>
	<path fill="#FFFFFF" d="M103.101,82.588c1.102-1.854,1.543-1.941,2.47-0.309c0.927,1.631,0.75,1.984-0.573,1.189
		c-0.795-0.439-1.059-0.439-1.191,0c-0.133,0.266-0.484,0.531-0.883,0.531C102.394,84,102.394,83.779,103.101,82.588z"/>
	<path fill="#FFFFFF" d="M106.761,82.455c0-1.721,0.221-1.854,1.412-0.793c0.75,0.66,0.794,0.66,0.794,0
		c0-0.441,0.221-0.75,0.441-0.75c0.265,0,0.44,0.705,0.44,1.588v1.588l-1.102-0.707c-0.971-0.617-1.104-0.662-1.104-0.043
		c0,0.352-0.177,0.662-0.441,0.662C106.981,84,106.761,83.293,106.761,82.455z"/>
	<path fill="#FFFFFF" d="M110.731,83.559c0-0.662,1.367-2.646,1.809-2.646s1.854,2.646,1.588,2.955
		c-0.132,0.088-0.661-0.088-1.191-0.398c-0.793-0.439-1.059-0.439-1.19,0C111.481,84.131,110.731,84.176,110.731,83.559z"/>
	<path fill="#FFFFFF" d="M114.702,82.455c0-1.455,0.088-1.543,1.543-1.543c1.456,0,1.545,0.088,1.545,1.543S117.701,84,116.245,84
		C114.79,84,114.702,83.91,114.702,82.455z M116.511,82.809c-0.485-0.221-0.485-0.309,0-0.617c0.484-0.311,0.44-0.398-0.133-0.398
		c-0.441,0-0.794,0.309-0.794,0.662s0.353,0.662,0.794,0.617C116.907,83.072,116.951,82.984,116.511,82.809z"/>
	<path fill="#FFFFFF" d="M118.672,82.455c0-1.455,0.089-1.543,1.544-1.543c0.838,0,1.545,0.131,1.545,0.264
		c0,0.354-1.061,1.324-1.766,1.633c-0.396,0.131-0.176,0.264,0.574,0.264c1.764,0.045,1.455,0.928-0.354,0.928
		C118.761,84,118.672,83.91,118.672,82.455z"/>
	<path fill="#FFFFFF" d="M122.2,82.455c0-1.676,0.441-1.941,1.324-0.883c0.529,0.619,0.662,0.619,1.324,0
		c1.102-0.971,1.322-0.838,1.322,0.883c0,0.838-0.176,1.545-0.441,1.545c-0.221,0-0.441-0.311-0.441-0.707
		c0-0.617-0.131-0.617-0.705-0.133c-0.574,0.441-0.75,0.441-1.102-0.088c-0.311-0.484-0.398-0.484-0.398,0.178
		c0,0.396-0.176,0.75-0.441,0.75C122.421,84,122.2,83.293,122.2,82.455z"/>
	<path fill="#FFFFFF" d="M126.612,82.455c0-1.455,0.088-1.543,1.545-1.543c0.838,0,1.543,0.131,1.543,0.264
		c0,0.354-1.059,1.324-1.764,1.633c-0.398,0.131-0.178,0.264,0.572,0.264c1.766,0.045,1.455,0.928-0.352,0.928
		C126.7,84,126.612,83.91,126.612,82.455z"/>
	<path fill="#FFFFFF" d="M130.583,82.412v-1.59l1.102,0.707c0.971,0.617,1.104,0.662,1.104,0.043c0-0.352,0.221-0.66,0.441-0.66
		c0.264,0,0.441,0.705,0.441,1.543c0,1.721-0.221,1.854-1.412,0.795c-0.75-0.662-0.795-0.662-0.795,0c0,0.439-0.176,0.75-0.439,0.75
		C130.804,84,130.583,83.293,130.583,82.412z"/>
	<path fill="#FFFFFF" d="M135.435,82.896c0-0.705-0.264-1.104-0.662-1.104c-0.352,0-0.66-0.176-0.66-0.441
		c0-0.221,0.793-0.439,1.764-0.439s1.766,0.219,1.766,0.439c0,0.266-0.311,0.441-0.662,0.441c-0.398,0-0.662,0.398-0.662,1.104
		c0,0.617-0.176,1.104-0.441,1.104C135.655,84,135.435,83.514,135.435,82.896z"/>
	<path fill="#FFFFFF" d="M12.358,75c0-7.411,0.089-8.602,0.706-8.822c0.397-0.133,4.72-0.265,9.661-0.265
		c7.102,0,9.043,0.132,9.439,0.618c0.354,0.396,0.485,2.47,0.397,6.264l-0.132,5.69h-7.5h-7.499v-3.529v-3.528l4.984-0.133
		l4.941-0.132v1.367v1.323h-3.529c-3.485,0-3.529,0-3.529,1.103v1.103h4.632h4.632V72.53V69h-7.278h-7.278v5.955v5.957h26.688
		h26.688v1.322v1.324H40.37H12.358V75z"/>
	<path fill="#FFFFFF" d="M37.106,73.059c-1.985-3.396-3.573-6.265-3.573-6.396c0-0.177,0.838-0.309,1.896-0.309h1.853l2.162,3.97
		c1.191,2.206,2.294,3.971,2.426,3.971c0.133,0,1.235-1.809,2.383-3.971l2.117-3.97h1.765c1.015,0,1.72,0.177,1.632,0.353
		c-0.088,0.177-1.632,3.044-3.44,6.396C41.87,81.264,41.915,81.264,37.106,73.059z"/>
	<path fill="#FFFFFF" d="M45.973,78.572c0.089-0.309,1.633-3.175,3.441-6.395l3.309-5.823h1.765h1.764l3.309,5.823
		c1.809,3.176,3.353,6.043,3.441,6.395c0.132,0.398-0.397,0.574-1.633,0.574c-1.632,0-1.896-0.133-2.559-1.543l-0.749-1.545h-3.618
		h-3.617l-0.926,1.545c-0.75,1.322-1.147,1.543-2.471,1.543C46.326,79.146,45.885,78.971,45.973,78.572z M55.546,71.559
		c-0.529-1.059-1.015-1.94-1.059-2.029c-0.089-0.088-0.618,0.75-1.235,1.854l-1.147,2.028h2.206h2.161L55.546,71.559z"/>
	<path fill="#FFFFFF" d="M63.53,72.75v-6.396h1.367c1.015,0,2.382,0.838,5.955,3.793l4.588,3.794v-3.794v-3.793h1.545h1.543v6.396
		v6.396H77.47c-0.705,0-2.734-1.412-5.822-3.97l-4.809-4.014l-0.133,4.014l-0.132,3.97h-1.5H63.53V72.75z"/>
	<path fill="#FFFFFF" d="M85.146,74.074V69h-2.867h-2.867v-1.323v-1.323h7.279h7.277v1.323V69h-2.867h-2.867v5.073v5.073H86.69
		h-1.545V74.074z"/>
	<path fill="#FFFFFF" d="M90.439,78.75c0-0.221,1.544-3.133,3.397-6.441l3.396-5.999l1.764,0.132l1.766,0.133l3.439,5.955
		c1.897,3.265,3.441,6.087,3.441,6.263c0,0.221-0.794,0.354-1.721,0.354c-1.5,0-1.896-0.221-2.559-1.324
		c-0.75-1.322-0.793-1.322-4.543-1.322s-3.794,0-4.544,1.322c-0.661,1.061-1.103,1.324-2.338,1.324
		C91.101,79.146,90.439,78.971,90.439,78.75z M100.101,71.647c-0.574-0.97-1.147-1.764-1.279-1.764
		c-0.133,0-0.706,0.794-1.279,1.764l-0.971,1.765h2.25h2.25L100.101,71.647z"/>
	<path fill="#FFFFFF" d="M108.085,72.75v-6.396h7.278h7.278v1.323V69h-5.514h-5.514v3.529v3.529h3.97c3.927,0,3.97,0,3.97-1.103
		c0-1.059-0.088-1.103-2.867-1.103h-2.867V72.53v-1.323h4.412h4.41v3.97v3.97h-7.278h-7.278V72.75z"/>
	<path fill="#FFFFFF" d="M123.966,72.75v-6.396h6.838h6.838v1.323V69h-5.074h-5.072v1.103v1.104h5.072h5.074v1.323v1.323h-5.074
		h-5.072v1.103v1.103h5.072h5.074v1.545v1.543h-6.838h-6.838V72.75z"/>
</g>
</svg>
