<?xml version="1.0" encoding="utf-8"?>
<!-- Generator: Adobe Illustrator 16.0.0, SVG Export Plug-In . SVG Version: 6.00 Build 0)  -->
<!DOCTYPE svg PUBLIC "-//W3C//DTD SVG 1.0//EN" "http://www.w3.org/TR/2001/REC-SVG-20010904/DTD/svg10.dtd">
<svg version="1.0" id="Layer_1" xmlns="http://www.w3.org/2000/svg" xmlns:xlink="http://www.w3.org/1999/xlink" x="0px" y="0px"
	 width="150px" height="150px" viewBox="0 0 150 150" enable-background="new 0 0 150 150" xml:space="preserve">
<path fill="#969696" d="M68.851,627.669c0-4,0-4,3.8-3.8c3.601,0.1,3.601,0.1,0.5,0.5c-2.899,0.399-3.3,0.8-3.3,3.3
	c0,2.6,0.4,2.9,3.8,3.3l3.7,0.4l-4.2,0.1l-4.3,0.2V627.669z"/>
<path fill="#969696" d="M712.65,630.969c1.2-0.2,3.2-0.2,4.5,0c1.2,0.2,0.2,0.4-2.3,0.4S711.351,631.169,712.65,630.969z"/>
<path fill="#969696" d="M747.851,627.669c0-4,0-4,3.8-3.8c3.601,0.1,3.601,0.1,0.5,0.5c-2.899,0.399-3.3,0.8-3.3,3.3
	c0,2.6,0.4,2.9,3.8,3.3l3.7,0.4l-4.2,0.1l-4.3,0.2V627.669z"/>
<path fill="#969696" d="M79.95,630.269c0.2-0.199,1.5-0.899,2.9-1.5c2.4-1.1,2.4-1.1,0.6,0.301
	C81.851,630.369,78.551,631.469,79.95,630.269z"/>
<path fill="#969696" d="M703.65,629.969c0.7-0.3,1.601-0.2,1.9,0.101c0.399,0.3-0.2,0.6-1.3,0.5
	C703.15,630.569,702.851,630.269,703.65,629.969z"/>
<path fill="#969696" d="M759.851,630.369c0-0.3,1.2-1.2,2.6-2.2c1.5-0.9,2.301-1.2,2-0.6
	C763.751,628.669,759.851,631.069,759.851,630.369z"/>
<path fill="#969696" d="M85.851,627.269c0-0.199,0.8-1,1.8-1.699c1.5-1.301,1.601-1.2,0.3,0.399
	C86.65,627.569,85.851,628.069,85.851,627.269z"/>
<path fill="#969696" d="M734.851,622.969c1.3-1.8,2.5-3.3,2.7-3.3c0.8,0-1.7,3.8-3.3,5.1
	C733.15,625.669,733.351,624.969,734.851,622.969z"/>
<path fill="#969696" d="M712.65,623.969c1.2-0.2,3-0.2,4,0c0.9,0.3-0.1,0.5-2.3,0.4C712.15,624.369,711.351,624.169,712.65,623.969z
	"/>
<path fill="#969696" d="M81.351,620.669c1-1.1,2-2,2.3-2s-0.3,0.9-1.3,2s-2,2-2.3,2S80.351,621.769,81.351,620.669z"/>
<path fill="#969696" d="M699.851,621.669c-0.8-0.5-1-1-0.5-1c0.6,0,1.7,0.5,2.5,1s1.1,1,0.5,1
	C701.851,622.669,700.65,622.169,699.851,621.669z"/>
<path fill="#969696" d="M725.65,619.969c1.7-1.7,3.2-3.7,3.2-4.399c0-0.7,0.3-0.9,0.6-0.601c1,0.9-2.3,5.4-4.8,6.8
	C723.051,622.669,723.351,622.069,725.65,619.969z"/>
<path fill="#969696" d="M90.851,620.769c0-0.6,0.4-1.3,1-1.6s0.7,0.1,0.4,0.9C91.551,621.869,90.851,622.169,90.851,620.769z"/>
<path fill="#969696" d="M762.45,617.369c0.301-1,0.9-1.5,1.2-1.2s0,1.1-0.7,1.8C761.95,618.869,761.851,618.769,762.45,617.369z"/>
<path fill="#969696" d="M771.45,617.369c0.301-1,0.9-1.5,1.2-1.2s0,1.1-0.7,1.8C770.95,618.869,770.851,618.769,771.45,617.369z"/>
<path fill="#969696" d="M84.851,615.669c0.6-1.1,1.3-2,1.6-2c0.2,0,0,0.9-0.6,2s-1.3,2-1.6,2
	C84.051,617.669,84.251,616.769,84.851,615.669z"/>
<path fill="#969696" d="M772.851,613.769c0-0.6,0.4-1.3,1-1.6s0.7,0.1,0.4,0.9C773.551,614.869,772.851,615.169,772.851,613.769z"/>
<path fill="#969696" d="M87.851,609.769c0-0.6,0.4-1.3,1-1.6s0.7,0.1,0.4,0.9C88.551,610.869,87.851,611.169,87.851,609.769z"/>
<path fill="#969696" d="M775.45,608.369c0.301-1,0.9-1.5,1.2-1.2s0,1.1-0.7,1.8C774.95,609.869,774.851,609.769,775.45,608.369z"/>
<path fill="#969696" d="M-178.149,580.269v-25.5l-4.7-0.399l-4.8-0.3l5.3-0.2l5.2-0.2v26c0,14.3-0.2,26-0.5,26
	S-178.149,594.169-178.149,580.269z"/>
<path fill="#969696" d="M218.251,582.669c0-12.9,0.199-18.2,0.3-11.7c0.2,6.4,0.2,17,0,23.5
	C218.45,600.869,218.251,595.569,218.251,582.669z"/>
<path fill="#969696" d="M305.251,573.169c0-18.1,0.199-25.7,0.3-16.8c0.2,8.899,0.2,23.7,0,33
	C305.45,598.569,305.251,591.369,305.251,573.169z"/>
<path fill="#969696" d="M440.251,589.669c0-9.1,0.199-12.8,0.3-8.2c0.2,4.5,0.2,11.9,0,16.5
	C440.45,602.469,440.251,598.769,440.251,589.669z"/>
<path fill="#969696" d="M476.251,587.169c0-10.4,0.199-14.6,0.3-9.2c0.2,5.4,0.2,13.9,0,19
	C476.45,602.069,476.251,597.669,476.251,587.169z"/>
<path fill="#969696" d="M491.051,579.969l-0.2-26.3l5.3,0.2l5.2,0.2l-4.7,0.3l-4.8,0.399l-0.3,25.7l-0.2,25.7L491.051,579.969z"/>
<path fill="#969696" d="M776.851,605.169c0-0.5,0.5-1.7,1-2.5s1-1,1-0.5c0,0.6-0.5,1.7-1,2.5S776.851,605.769,776.851,605.169z"/>
<path fill="#969696" d="M-307.749,603.069c-1.801-1.4-1.801-1.4,0.6-0.301c3.1,1.4,3.6,1.9,2.4,1.9
	C-305.35,604.669-306.649,603.969-307.749,603.069z"/>
<path fill="#969696" d="M-277.149,603.669c0.8-0.5,2-1,2.5-1c0.6,0,0.3,0.5-0.5,1s-1.9,1-2.5,1
	C-278.149,604.669-277.949,604.169-277.149,603.669z"/>
<path fill="#969696" d="M-2.149,604.369c0-0.2,1.5-1.4,3.3-2.7c2-1.5,2.7-1.7,1.8-0.6C1.65,602.669-2.149,605.169-2.149,604.369z"/>
<path fill="#969696" d="M47.751,602.969c-1.301-1.6-1.2-1.7,0.399-0.399c0.9,0.699,1.7,1.5,1.7,1.699
	C49.851,605.069,49.051,604.569,47.751,602.969z"/>
<path fill="#969696" d="M166.851,603.669c-0.8-0.5-1.2-1.1-1-1.4c0.3-0.199,1.4,0.2,2.4,1
	C170.45,604.769,169.251,605.169,166.851,603.669z"/>
<path fill="#969696" d="M191.851,604.269c0-0.199,0.7-0.699,1.6-1c0.801-0.3,1.2-0.199,0.9,0.4
	C193.751,604.669,191.851,605.069,191.851,604.269z"/>
<path fill="#969696" d="M337.351,603.669c-0.3-0.6,0.1-0.7,0.9-0.4c1.8,0.7,2.1,1.4,0.699,1.4
	C338.351,604.669,337.65,604.269,337.351,603.669z"/>
<path fill="#969696" d="M362.95,604.269c0.2-0.199,1.5-0.899,2.9-1.5c2.4-1.1,2.4-1.1,0.6,0.301
	C364.851,604.369,361.551,605.469,362.95,604.269z"/>
<path fill="#969696" d="M389.851,603.669c-0.9-0.6-1-1-0.3-1c0.6,0,1.5,0.5,1.8,1C392.15,604.869,391.751,604.869,389.851,603.669z"
	/>
<path fill="#969696" d="M560.351,603.669c-0.3-0.6,0.1-0.7,0.9-0.4c1.8,0.7,2.1,1.4,0.699,1.4
	C561.351,604.669,560.65,604.269,560.351,603.669z"/>
<path fill="#969696" d="M644.351,603.669c-0.3-0.6,0.1-0.7,0.9-0.4c1.8,0.7,2.1,1.4,0.699,1.4
	C645.351,604.669,644.65,604.269,644.351,603.669z"/>
<path fill="#969696" d="M668.851,604.269c0-0.199,0.7-0.699,1.6-1c0.801-0.3,1.2-0.199,0.9,0.4
	C670.751,604.669,668.851,605.069,668.851,604.269z"/>
<path fill="#969696" d="M769.051,602.669c0-1.4,0.2-1.9,0.5-1.2c0.2,0.601,0.2,1.8,0,2.5
	C769.251,604.569,769.051,604.069,769.051,602.669z"/>
<path fill="#969696" d="M-27.249,601.969c-1.301-1.7-1.301-1.7,0.6-0.3c1.1,0.8,2.2,1.6,2.4,1.7c0.199,0.2,0,0.3-0.601,0.3
	C-25.449,603.669-26.55,602.869-27.249,601.969z"/>
<path fill="#969696" d="M417.851,603.269c0-0.199,0.7-0.699,1.6-1c0.801-0.3,1.2-0.199,0.9,0.4
	C419.751,603.669,417.851,604.069,417.851,603.269z"/>
<path fill="#969696" d="M698.351,600.669c-1.6-1.6-2.7-3.1-2.4-3.3c0.2-0.2,1.7,1.1,3.2,3
	C702.751,604.469,702.251,604.669,698.351,600.669z"/>
<path fill="#969696" d="M198.45,599.569c1.601-2,3.101-3.4,3.301-3.2c0.3,0.2-1,1.8-2.9,3.6l-3.4,3.2L198.45,599.569z"/>
<path fill="#969696" d="M555.251,599.469l-2.9-3.3l3.3,2.9c3,2.8,3.7,3.6,2.9,3.6C558.351,602.669,556.95,601.169,555.251,599.469z"
	/>
<path fill="#969696" d="M588.851,602.269c0-0.199,0.8-1,1.8-1.699c1.5-1.301,1.601-1.2,0.3,0.399
	C589.65,602.569,588.851,603.069,588.851,602.269z"/>
<path fill="#969696" d="M639.751,599.969l-2.4-2.8l2.8,2.4c1.5,1.399,2.7,2.6,2.7,2.8
	C642.851,603.169,642.051,602.469,639.751,599.969z"/>
<path fill="#969696" d="M-108.249,599.969c-1.301-1.6-1.2-1.7,0.399-0.399c0.9,0.699,1.7,1.5,1.7,1.699
	C-106.149,602.069-106.949,601.569-108.249,599.969z"/>
<path fill="#969696" d="M162.251,599.469l-1.9-2.3l2.3,1.9c1.2,1.1,2.2,2.1,2.2,2.3
	C164.851,602.169,164.051,601.569,162.251,599.469z"/>
<path fill="#969696" d="M331.251,598.469l-1.9-2.3l2.3,1.9c2.101,1.8,2.7,2.6,1.9,2.6
	C333.351,600.669,332.351,599.669,331.251,598.469z"/>
<path fill="#969696" d="M383.351,598.069c-0.9-1.5-1.2-2.301-0.6-2c1.1,0.699,3.5,4.6,2.8,4.6
	C385.251,600.669,384.351,599.469,383.351,598.069z"/>
<path fill="#969696" d="M-28.149,599.269c0-0.199,0.8-1,1.8-1.699c1.5-1.301,1.601-1.2,0.3,0.399
	C-27.35,599.569-28.149,600.069-28.149,599.269z"/>
<path fill="#969696" d="M55.851,598.169c-0.7-0.9-1.1-1.7-0.9-2c0.301-0.2,1,0.5,1.7,1.5
	C58.051,600.069,57.65,600.269,55.851,598.169z"/>
<path fill="#969696" d="M418.051,597.069c-0.7-0.801-0.8-1.4-0.3-1.4c1,0,2.5,1.9,2,2.5
	C419.551,598.269,418.751,597.869,418.051,597.069z"/>
<path fill="#969696" d="M725.15,595.369c1.8-1.8,3.4-3.101,3.601-3c0.6,0.399-5.101,6.3-6,6.3
	C722.351,598.669,723.45,597.169,725.15,595.369z"/>
<path fill="#969696" d="M170.751,595.969c-1.301-1.6-1.2-1.7,0.399-0.399c0.9,0.699,1.7,1.5,1.7,1.699
	C172.851,598.069,172.051,597.569,170.751,595.969z"/>
<path fill="#969696" d="M364.251,596.269c2-1.6,3.699-1.3,3.5,0.7c0,0.9-0.2,0.9-0.601,0c-0.3-1-1-1-2.6-0.2
	C362.45,597.769,362.45,597.669,364.251,596.269z"/>
<path fill="#969696" d="M563.251,595.469l-1.9-2.3l2.3,1.9c2.101,1.8,2.7,2.6,1.9,2.6
	C565.351,597.669,564.351,596.669,563.251,595.469z"/>
<path fill="#969696" d="M581.851,597.269c0-0.199,0.8-1,1.8-1.699c1.5-1.301,1.601-1.2,0.3,0.399
	C582.65,597.569,581.851,598.069,581.851,597.269z"/>
<path fill="#969696" d="M647.751,595.969c-1.301-1.6-1.2-1.7,0.399-0.399c1.601,1.3,2.101,2.1,1.3,2.1
	C649.251,597.669,648.45,596.869,647.751,595.969z"/>
<path fill="#969696" d="M-303.249,594.969c-1.301-1.6-1.2-1.7,0.399-0.399c1.601,1.3,2.101,2.1,1.3,2.1
	C-301.749,596.669-302.55,595.869-303.249,594.969z"/>
<path fill="#969696" d="M-278.649,594.669c1-1.1,2-2,2.3-2s-0.3,0.9-1.3,2s-2,2-2.3,2S-279.649,595.769-278.649,594.669z"/>
<path fill="#969696" d="M191.45,594.169c2.4-3.9,2.4-4,2.4-2.8c0,0.6-0.9,2.1-2.1,3.399l-2,2.4L191.45,594.169z"/>
<path fill="#969696" d="M340.751,594.969c-1.301-1.6-1.2-1.7,0.399-0.399c1.601,1.3,2.101,2.1,1.3,2.1
	C342.251,596.669,341.45,595.869,340.751,594.969z"/>
<path fill="#969696" d="M393.251,594.469l-1.9-2.3l2.3,1.9c2.101,1.8,2.7,2.6,1.9,2.6
	C395.351,596.669,394.351,595.669,393.251,594.469z"/>
<path fill="#969696" d="M594.95,594.669c1.4-3.1,1.9-3.6,1.9-2.4c0,0.601-0.7,1.9-1.6,3
	C593.851,597.069,593.851,597.069,594.95,594.669z"/>
<path fill="#969696" d="M678.95,594.669c1.4-3.1,1.9-3.6,1.9-2.4c0,0.601-0.7,1.9-1.6,3
	C677.851,597.069,677.851,597.069,678.95,594.669z"/>
<path fill="#969696" d="M-267.149,595.169c0-0.5,0.5-1.7,1-2.5s1-1,1-0.5c0,0.6-0.5,1.7-1,2.5S-267.149,595.769-267.149,595.169z"/>
<path fill="#969696" d="M-101.149,593.669c-0.6-1.1-0.8-2-0.6-2c0.3,0,1,0.9,1.6,2s0.8,2,0.6,2
	C-99.85,595.669-100.55,594.769-101.149,593.669z"/>
<path fill="#969696" d="M103.45,593.369c0.301-1,0.9-1.5,1.2-1.2s0,1.1-0.7,1.8C102.95,594.869,102.851,594.769,103.45,593.369z"/>
<path fill="#969696" d="M327.45,593.169c-0.899-2.6-0.699-3.2,0.5-1.2c0.601,1,0.9,2.101,0.601,2.3
	C328.351,594.569,327.851,594.069,327.45,593.169z"/>
<path fill="#969696" d="M781.851,594.169c0-0.5,0.5-1.7,1-2.5s1-1,1-0.5c0,0.6-0.5,1.7-1,2.5S781.851,594.769,781.851,594.169z"/>
<path fill="#969696" d="M-144.649,592.669c0.3-0.5,0.8-1,1.1-1c0.2,0,0.4,0.5,0.4,1c0,0.6-0.5,1-1.1,1
	C-144.749,593.669-144.949,593.269-144.649,592.669z"/>
<path fill="#969696" d="M669.851,592.169c0-0.5,0.5-1.7,1-2.5s1-1,1-0.5c0,0.6-0.5,1.7-1,2.5S669.851,592.769,669.851,592.169z"/>
<path fill="#969696" d="M337.351,590.569c-0.4-0.601-0.5-1.2-0.2-1.5c0.2-0.301,0.7,0.199,1,1.1
	C338.851,591.869,338.251,592.169,337.351,590.569z"/>
<path fill="#969696" d="M-5.55,588.969c-0.6-1.399-0.5-1.5,0.5-0.6c0.7,0.7,1,1.5,0.7,1.8S-5.249,589.969-5.55,588.969z"/>
<path fill="#969696" d="M633.15,589.169c-0.3-0.9-0.3-1.8-0.1-2.1c0.3-0.301,0.8,0.399,1.1,1.6
	C634.751,590.969,634.051,591.369,633.15,589.169z"/>
<path fill="#969696" d="M772.95,589.969c-0.1-0.6-0.399-2-0.699-3c-0.5-1.7-0.5-1.7,0.6,0c0.6,1,0.9,2.3,0.6,3
	C773.15,590.869,772.95,590.869,772.95,589.969z"/>
<path fill="#969696" d="M763.351,588.569c-0.4-0.601-0.5-1.2-0.2-1.5c0.2-0.301,0.7,0.199,1,1.1
	C764.851,589.869,764.251,590.169,763.351,588.569z"/>
<path fill="#969696" d="M155.95,587.069c0-1.101,0.301-1.4,0.601-0.601c0.3,0.7,0.2,1.601-0.101,1.9
	C156.15,588.769,155.851,588.169,155.95,587.069z"/>
<path fill="#969696" d="M83.45,586.169c-0.899-2.6-0.699-3.2,0.5-1.2c0.601,1,0.9,2.101,0.601,2.3
	C84.351,587.569,83.851,587.069,83.45,586.169z"/>
<path fill="#969696" d="M643.051,585.669c0-1.4,0.2-1.9,0.5-1.2c0.2,0.601,0.2,1.8,0,2.5
	C643.251,587.569,643.051,587.069,643.051,585.669z"/>
<path fill="#969696" d="M-147.649,585.569c-0.4-0.601-0.5-1.2-0.2-1.5c0.2-0.301,0.7,0.199,1,1.1
	C-146.149,586.869-146.749,587.169-147.649,585.569z"/>
<path fill="#969696" d="M-104.949,584.669c0-1.4,0.2-1.9,0.5-1.2c0.2,0.601,0.2,1.8,0,2.5
	C-104.749,586.569-104.949,586.069-104.949,584.669z"/>
<path fill="#969696" d="M106.851,586.169c0-0.5,0.5-1.7,1-2.5s1-1,1-0.5c0,0.6-0.5,1.7-1,2.5S106.851,586.769,106.851,586.169z"/>
<path fill="#969696" d="M-12.85,582.569c-2.399-1.7-4.3-3.2-4.3-3.5c0-0.301,2,0.899,4.5,2.6s4.5,3.3,4.5,3.5
	C-8.149,585.869-8.35,585.769-12.85,582.569z"/>
<path fill="#969696" d="M0.45,580.869c-3.6-4.2-3.6-4.4-0.699-1.7c2.8,2.5,5.8,6.6,4.899,6.5
	C4.45,585.569,2.551,583.469,0.45,580.869z"/>
<path fill="#969696" d="M205.95,583.069c0-1.101,0.301-1.4,0.601-0.601c0.3,0.7,0.2,1.601-0.101,1.9
	C206.15,584.769,205.851,584.169,205.95,583.069z"/>
<path fill="#969696" d="M-318.949,581.169c0-1.6,0.2-2.2,0.5-1.2c0.2,0.9,0.2,2.3,0,3
	C-318.749,583.569-318.949,582.869-318.949,581.169z"/>
<path fill="#969696" d="M325.15,579.169c0-2.7,0.2-3.8,0.4-2.2c0.2,1.5,0.2,3.7,0,5C325.351,583.169,325.15,581.969,325.15,579.169z
	"/>
<path fill="#969696" d="M547.95,582.069c0-1.101,0.301-1.4,0.601-0.601c0.3,0.7,0.2,1.601-0.101,1.9
	C548.15,583.769,547.851,583.169,547.95,582.069z"/>
<path fill="#969696" d="M690.95,582.069c0-1.101,0.301-1.4,0.601-0.601c0.3,0.7,0.2,1.601-0.101,1.9
	C691.15,583.769,690.851,583.169,690.95,582.069z"/>
<path fill="#969696" d="M632.15,579.169c0-2.2,0.2-3,0.4-1.7c0.2,1.2,0.2,3,0,4C632.251,582.369,632.051,581.369,632.15,579.169z"/>
<path fill="#969696" d="M683.15,579.169c0-2.2,0.2-3,0.4-1.7c0.2,1.2,0.2,3,0,4C683.251,582.369,683.051,581.369,683.15,579.169z"/>
<path fill="#969696" d="M-262.749,557.669c0-13.5,0.199-19,0.3-12.2c0.2,6.7,0.2,17.7,0,24.5
	C-262.55,576.669-262.749,571.169-262.749,557.669z"/>
<path fill="#969696" d="M388.051,579.169c0-1.6,0.2-2.2,0.5-1.2c0.2,0.9,0.2,2.3,0,3
	C388.251,581.569,388.051,580.869,388.051,579.169z"/>
<path fill="#969696" d="M558.051,579.169c0-1.6,0.2-2.2,0.5-1.2c0.2,0.9,0.2,2.3,0,3
	C558.251,581.569,558.051,580.869,558.051,579.169z"/>
<path fill="#969696" d="M599.051,579.169c0-1.6,0.2-2.2,0.5-1.2c0.2,0.9,0.2,2.3,0,3
	C599.251,581.569,599.051,580.869,599.051,579.169z"/>
<path fill="#969696" d="M-308.749,557.169c0-13.2,0.199-18.5,0.3-11.7c0.2,6.8,0.2,17.601,0,24
	C-308.55,575.869-308.749,570.369-308.749,557.169z"/>
<path fill="#969696" d="M-272.749,557.169c0-13.2,0.199-18.5,0.3-11.7c0.2,6.8,0.2,17.601,0,24
	C-272.55,575.869-272.749,570.369-272.749,557.169z"/>
<path fill="#969696" d="M-160.55,578.169c-0.899-2.6-0.699-3.2,0.5-1.2c0.601,1,0.9,2.101,0.601,2.3
	C-159.649,579.569-160.149,579.069-160.55,578.169z"/>
<path fill="#969696" d="M548.051,576.669c0-1.4,0.2-1.9,0.5-1.2c0.2,0.601,0.2,1.8,0,2.5
	C548.251,578.569,548.051,578.069,548.051,576.669z"/>
<path fill="#969696" d="M-21.249,575.969c-1.301-1.6-1.2-1.7,0.399-0.399c1.601,1.3,2.101,2.1,1.3,2.1
	C-19.749,577.669-20.55,576.869-21.249,575.969z"/>
<path fill="#969696" d="M690.95,576.069c0-1.101,0.301-1.4,0.601-0.601c0.3,0.7,0.2,1.601-0.101,1.9
	C691.15,577.769,690.851,577.169,690.95,576.069z"/>
<path fill="#969696" d="M-8.149,573.569c-2.2-1.801-2.2-1.9-0.3-1c1.2,0.6,2.5,1.6,2.8,2.1
	C-4.749,576.169-5.35,575.869-8.149,573.569z"/>
<path fill="#969696" d="M111.851,575.169c0-0.5,0.5-1.7,1-2.5s1-1,1-0.5c0,0.6-0.5,1.7-1,2.5S111.851,575.769,111.851,575.169z"/>
<path fill="#969696" d="M-71.05,573.069c0-1.101,0.301-1.4,0.601-0.601c0.3,0.7,0.2,1.601-0.101,1.9
	C-70.85,574.769-71.149,574.169-71.05,573.069z"/>
<path fill="#969696" d="M335.851,572.969c0-1.3,0.3-1.399,0.8-0.6s4.7,1.3,12.7,1.6l12,0.3l-12.7,0.2
	C337.051,574.669,335.851,574.469,335.851,572.969z"/>
<path fill="#969696" d="M558.95,573.069c0-1.101,0.301-1.4,0.601-0.601c0.3,0.7,0.2,1.601-0.101,1.9
	C559.15,574.769,558.851,574.169,558.95,573.069z"/>
<path fill="#969696" d="M500.95,572.069c0-1.101,0.301-1.4,0.601-0.601c0.3,0.7,0.2,1.601-0.101,1.9
	C501.15,573.769,500.851,573.169,500.95,572.069z"/>
<path fill="#969696" d="M766.351,571.569c-0.4-0.601-0.5-1.2-0.2-1.5c0.2-0.301,0.7,0.199,1,1.1
	C767.851,572.869,767.251,573.169,766.351,571.569z"/>
<path fill="#969696" d="M-127.149,571.169c0-0.5,0.5-1.7,1-2.5s1-1,1-0.5c0,0.6-0.5,1.7-1,2.5S-127.149,571.769-127.149,571.169z"/>
<path fill="#969696" d="M-203.05,569.069c0-1.101,0.301-1.4,0.601-0.601c0.3,0.7,0.2,1.601-0.101,1.9
	C-202.85,570.769-203.149,570.169-203.05,569.069z"/>
<path fill="#969696" d="M156.45,569.369c0.301-1,0.9-1.5,1.2-1.2s0,1.1-0.7,1.8C155.95,570.869,155.851,570.769,156.45,569.369z"/>
<path fill="#969696" d="M378.851,570.169c0-0.5,0.5-1.7,1-2.5s1-1,1-0.5c0,0.6-0.5,1.7-1,2.5S378.851,570.769,378.851,570.169z"/>
<path fill="#969696" d="M669.851,567.669c-0.6-1.1-0.8-2-0.6-2c0.3,0,1,0.9,1.6,2s0.8,2,0.6,2
	C671.15,569.669,670.45,568.769,669.851,567.669z"/>
<path fill="#969696" d="M783.851,569.169c0-0.5,0.5-1.7,1-2.5s1-1,1-0.5c0,0.6-0.5,1.7-1,2.5S783.851,569.769,783.851,569.169z"/>
<path fill="#969696" d="M-237.149,567.969c0-0.6,0.8-1.7,1.8-2.399c1.601-1.301,1.601-1.301,0.2,0.6c-0.8,1.1-1.6,2.2-1.7,2.4
	C-237.05,568.769-237.149,568.569-237.149,567.969z"/>
<path fill="#969696" d="M501.851,567.769c0-0.6,0.4-1.3,1-1.6s0.7,0.1,0.4,0.9C502.551,568.869,501.851,569.169,501.851,567.769z"/>
<path fill="#969696" d="M525.351,567.569c-0.4-0.601-0.5-1.2-0.2-1.5c0.2-0.301,0.7,0.199,1,1.1
	C526.851,568.869,526.251,569.169,525.351,567.569z"/>
<path fill="#969696" d="M549.851,568.069c0-0.601,0.7-1.9,1.6-3c1.4-1.801,1.4-1.801,0.301,0.6
	C550.351,568.769,549.851,569.269,549.851,568.069z"/>
<path fill="#969696" d="M793.45,567.369c0.301-1,0.9-1.5,1.2-1.2s0,1.1-0.7,1.8C792.95,568.869,792.851,568.769,793.45,567.369z"/>
<path fill="#969696" d="M-48.149,566.769c0-0.899,4.9-5.6,5.3-5c0.101,0.2-1,1.601-2.5,3.101S-48.149,567.169-48.149,566.769z"/>
<path fill="#969696" d="M358.45,566.169c-0.899-2.6-0.699-3.2,0.5-1.2c0.601,1,0.9,2.101,0.601,2.3
	C359.351,567.569,358.851,567.069,358.45,566.169z"/>
<path fill="#969696" d="M392.851,565.169c1.3-1.4,2.6-2.5,2.8-2.5c0.3,0-0.5,1.1-1.8,2.5s-2.6,2.5-2.8,2.5
	C390.751,567.669,391.551,566.569,392.851,565.169z"/>
<path fill="#969696" d="M645.65,566.069c1.101-2.2,4.101-5,4.5-4.301c0.101,0.2-1.1,1.801-2.7,3.4
	C645.45,567.169,644.95,567.469,645.65,566.069z"/>
<path fill="#969696" d="M704.751,565.869c0.5-1,1.8-2.5,2.699-3.3c1.101-0.9,0.9-0.2-0.6,1.899
	C704.251,567.969,703.251,568.669,704.751,565.869z"/>
<path fill="#969696" d="M753.45,566.169c-0.899-2.6-0.699-3.2,0.5-1.2c0.601,1,0.9,2.101,0.601,2.3
	C754.351,567.569,753.851,567.069,753.45,566.169z"/>
<path fill="#969696" d="M-166.55,564.169c-0.899-2.6-0.699-3.2,0.5-1.2c0.601,1,0.9,2.101,0.601,2.3
	C-165.649,565.569-166.149,565.069-166.55,564.169z"/>
<path fill="#969696" d="M-217.05,562.669c-1.3-1.1-1.899-2-1.399-2c0.6,0,1.8,0.9,2.8,2
	C-213.35,565.169-213.949,565.169-217.05,562.669z"/>
<path fill="#969696" d="M171.751,562.769c1.3-1.199,2.8-2.1,3.399-2.1c1.2,0,1.101,0-2.8,2.4l-3,1.699L171.751,562.769z"/>
<path fill="#969696" d="M522.751,562.969c-1.301-1.6-1.2-1.7,0.399-0.399c1.601,1.3,2.101,2.1,1.3,2.1
	C524.251,564.669,523.45,563.869,522.751,562.969z"/>
<path fill="#969696" d="M-74.55,561.969c-0.6-1.399-0.5-1.5,0.5-0.6c0.7,0.7,1,1.5,0.7,1.8S-74.249,562.969-74.55,561.969z"/>
<path fill="#969696" d="M444.851,563.269c0-0.3,1.4-1.199,3-2.1c1.7-0.9,3-1.3,3-1.1c0,0.3-1.3,1.199-3,2.1
	C446.251,563.069,444.851,563.469,444.851,563.269z"/>
<path fill="#969696" d="M460.65,562.069c-3.8-2-3.6-2.801,0.2-0.9c1.7,0.9,3,1.8,3,2
	C463.851,563.869,463.751,563.769,460.65,562.069z"/>
<path fill="#969696" d="M564.551,562.569c0.7-0.7,1.5-1,1.8-0.7s-0.2,0.899-1.2,1.2C563.751,563.669,563.65,563.569,564.551,562.569
	z"/>
<path fill="#969696" d="M-231.449,561.569c0.7-0.7,1.5-1,1.8-0.7s-0.2,0.899-1.2,1.2
	C-232.249,562.669-232.35,562.569-231.449,561.569z"/>
<path fill="#969696" d="M341.851,561.669c0.8-0.5,2-1,2.5-1c0.6,0,0.3,0.5-0.5,1s-1.9,1-2.5,1
	C340.851,562.669,341.051,562.169,341.851,561.669z"/>
<path fill="#969696" d="M354.851,561.669c-0.9-0.6-1-1-0.3-1c0.6,0,1.5,0.5,1.8,1C357.15,562.869,356.751,562.869,354.851,561.669z"
	/>
<path fill="#969696" d="M412.15,561.669c-3.399-1.4-2.8-2.1,0.7-0.9c1.7,0.601,3,1.301,3,1.5
	C415.851,562.869,414.65,562.669,412.15,561.669z"/>
<path fill="#969696" d="M507.551,561.569c0.7-0.7,1.5-1,1.8-0.7s-0.2,0.899-1.2,1.2C506.751,562.669,506.65,562.569,507.551,561.569
	z"/>
<path fill="#969696" d="M579.851,561.669c-0.8-0.5-1-1-0.5-1c0.6,0,1.7,0.5,2.5,1s1.1,1,0.5,1
	C581.851,562.669,580.65,562.169,579.851,561.669z"/>
<path fill="#969696" d="M663.851,561.669c-0.9-0.6-1-1-0.3-1c0.6,0,1.5,0.5,1.8,1C666.15,562.869,665.751,562.869,663.851,561.669z"
	/>
<path fill="#969696" d="M722.251,561.069c-1.801-1.4-1.801-1.5,0.399-0.4c1.2,0.6,2.2,1.3,2.2,1.5
	C724.851,562.969,724.351,562.769,722.251,561.069z"/>
<path fill="#969696" d="M2.851,559.969c1.2-1.8,1.2-2.399-0.1-4c-1.301-1.6-1.301-1.7,0.399-0.399c2.101,1.699,2.2,3.5,0,5.199
	C1.65,562.069,1.65,561.969,2.851,559.969z"/>
<path fill="#969696" d="M161.251,560.869c0.8-1.3,6.6-5.601,6.6-4.9c0,0.3-1.7,1.7-3.7,3.3
	C162.15,560.769,160.851,561.569,161.251,560.869z"/>
<path fill="#969696" d="M197.351,559.069c-1.8-1.601-2.2-2.2-0.9-1.5c1.801,0.899,5.301,4.199,4.301,4.1
	C200.551,561.569,199.051,560.469,197.351,559.069z"/>
<path fill="#969696" d="M385.351,559.669c1-1.1,2-2,2.3-2s-0.3,0.9-1.3,2s-2,2-2.3,2S384.351,560.769,385.351,559.669z"/>
<path fill="#969696" d="M417.95,559.669c1.4-3.1,1.9-3.6,1.9-2.4c0,0.601-0.7,1.9-1.6,3
	C416.851,562.069,416.851,562.069,417.95,559.669z"/>
<path fill="#969696" d="M555.351,559.669c1-1.1,2-2,2.3-2s-0.3,0.9-1.3,2s-2,2-2.3,2S554.351,560.769,555.351,559.669z"/>
<path fill="#969696" d="M-224.85,559.969c0.9-0.2,2.3-0.2,3,0c0.601,0.3-0.1,0.5-1.8,0.5
	C-225.249,560.469-225.85,560.269-224.85,559.969z"/>
<path fill="#969696" d="M-109.149,560.269c0-0.199,0.8-1,1.8-1.699c1.5-1.301,1.601-1.2,0.3,0.399
	C-108.35,560.569-109.149,561.069-109.149,560.269z"/>
<path fill="#969696" d="M-24.149,560.369c0-0.2,1.5-1.601,3.3-3.3l3.2-2.9l-2.9,3.3C-23.35,560.469-24.149,561.169-24.149,560.369z"
	/>
<path fill="#969696" d="M108.851,560.169c0-0.5,0.5-1.7,1-2.5s1-1,1-0.5c0,0.6-0.5,1.7-1,2.5S108.851,560.769,108.851,560.169z"/>
<path fill="#969696" d="M183.65,559.969c0.7-0.3,1.601-0.2,1.9,0.101c0.399,0.3-0.2,0.6-1.3,0.5
	C183.15,560.569,182.851,560.269,183.65,559.969z"/>
<path fill="#969696" d="M404.15,559.969c0.9-0.2,2.5-0.2,3.5,0c0.9,0.3,0.101,0.5-1.8,0.5S403.15,560.269,404.15,559.969z"/>
<path fill="#969696" d="M453.15,559.969c0.9-0.2,2.3-0.2,3,0c0.601,0.3-0.1,0.5-1.8,0.5
	C452.751,560.469,452.15,560.269,453.15,559.969z"/>
<path fill="#969696" d="M513.15,559.969c0.9-0.2,2.3-0.2,3,0c0.601,0.3-0.1,0.5-1.8,0.5
	C512.751,560.469,512.15,560.269,513.15,559.969z"/>
<path fill="#969696" d="M638.851,560.269c0-0.199,0.8-1,1.8-1.699c1.5-1.301,1.601-1.2,0.3,0.399
	C639.65,560.569,638.851,561.069,638.851,560.269z"/>
<path fill="#969696" d="M730.45,558.969c-0.6-1.399-0.5-1.5,0.5-0.6c0.7,0.7,1,1.5,0.7,1.8S730.751,559.969,730.45,558.969z"/>
<path fill="#969696" d="M-209.149,556.469c-1.9-1.6-2.6-2.6-1.5-2c1.8,0.9,6.4,5.3,5.4,5.2
	C-205.449,559.569-207.249,558.169-209.149,556.469z"/>
<path fill="#969696" d="M-50.149,557.269c0-2.3-0.4-2.5-4.7-2.899l-4.8-0.3l5.1-0.2c4.801-0.2,5.2,0,5.601,2.3
	c0.3,1.4,0.1,2.8-0.3,3.1C-49.749,559.569-50.149,558.669-50.149,557.269z"/>
<path fill="#969696" d="M36.95,556.969c-0.1-3.2,0-3.3,3.7-3.1c3.601,0.1,3.601,0.1,0.5,0.5c-2.6,0.3-3.3,0.899-3.6,3.1
	C37.15,559.869,37.15,559.869,36.95,556.969z"/>
<path fill="#969696" d="M209.95,556.969c-0.1-3.2,0-3.3,3.801-3.3h4l0.399-4.7l0.3-4.8l0.2,5.3l0.2,5.2h-3.9c-3.6,0-4,0.3-4.399,2.8
	C210.15,559.969,210.15,559.969,209.95,556.969z"/>
<path fill="#969696" d="M331.851,559.269c0-0.3,0.9-1,2-1.6s2-0.8,2-0.6c0,0.3-0.9,1-2,1.6S331.851,559.469,331.851,559.269z"/>
<path fill="#969696" d="M440.051,544.469l0.2-15.3l0.3,14.8c0.3,10.601,0.7,14.601,1.5,14.101c0.7-0.4,0.8-0.301,0.399,0.399
	C440.45,561.769,439.851,558.569,440.051,544.469z"/>
<path fill="#969696" d="M500.851,559.369c0-0.3,1.2-1.2,2.6-2.2c1.5-0.9,2.301-1.2,2-0.6
	C504.751,557.669,500.851,560.069,500.851,559.369z"/>
<path fill="#969696" d="M531.251,557.469l-1.9-2.3l2.3,1.9c2.101,1.8,2.7,2.6,1.9,2.6
	C533.351,559.669,532.351,558.669,531.251,557.469z"/>
<path fill="#969696" d="M701.351,557.669c1-1.1,2-2,2.3-2s-0.3,0.9-1.3,2s-2,2-2.3,2S700.351,558.769,701.351,557.669z"/>
<path fill="#969696" d="M361.251,556.469l-1.9-2.3l2.3,1.9c2.101,1.8,2.7,2.6,1.9,2.6
	C363.351,558.669,362.351,557.669,361.251,556.469z"/>
<path fill="#969696" d="M797.851,558.169c0-0.5,0.5-1.7,1-2.5s1-1,1-0.5c0,0.6-0.5,1.7-1,2.5S797.851,558.769,797.851,558.169z"/>
<path fill="#969696" d="M-235.149,557.269c0-0.3,0.9-1,2-1.6s2-0.8,2-0.6c0,0.3-0.9,1-2,1.6S-235.149,557.469-235.149,557.269z"/>
<path fill="#969696" d="M-32.749,555.469l-1.9-2.3l2.3,1.9c1.2,1.1,2.2,2.1,2.2,2.3C-30.149,558.169-30.949,557.569-32.749,555.469z
	"/>
<path fill="#969696" d="M-130.149,556.069c0-1.301,1.8-3.9,2.4-3.4c0.199,0.3-0.2,1.4-1,2.4
	C-129.55,556.169-130.149,556.669-130.149,556.069z"/>
<path fill="#969696" d="M-47.149,556.269c0-0.3,0.9-1,2-1.6s2-0.8,2-0.6c0,0.3-0.9,1-2,1.6S-47.149,556.469-47.149,556.269z"/>
<path fill="#969696" d="M-245.85,553.969c1.5-0.2,3.9-0.2,5.5,0c1.5,0.2,0.2,0.4-2.8,0.4S-247.449,554.169-245.85,553.969z"/>
<path fill="#969696" d="M19.15,553.969c1.5-0.2,3.9-0.2,5.5,0c1.5,0.2,0.2,0.4-2.8,0.4S17.551,554.169,19.15,553.969z"/>
<path fill="#969696" d="M56.551,553.969c1.8-0.2,5-0.2,7,0c2.1,0.2,0.7,0.4-3.2,0.4C56.551,554.369,54.851,554.169,56.551,553.969z"
	/>
<path fill="#969696" d="M230.551,553.969c1.8-0.2,5-0.2,7,0c2.1,0.2,0.7,0.4-3.2,0.4
	C230.551,554.369,228.851,554.169,230.551,553.969z"/>
<path fill="#969696" d="M342.551,553.569c0.7-0.7,1.5-1,1.8-0.7s-0.2,0.899-1.2,1.2C341.751,554.669,341.65,554.569,342.551,553.569
	z"/>
<path fill="#969696" d="M464.351,553.669c-0.3-0.6,0.1-0.7,0.9-0.4c1.8,0.7,2.1,1.4,0.699,1.4
	C465.351,554.669,464.65,554.269,464.351,553.669z"/>
<path fill="#969696" d="M508.851,554.269c0-0.199,0.9-0.6,2-0.899s1.8-0.101,1.4,0.399
	C511.751,554.669,508.851,555.069,508.851,554.269z"/>
<path fill="#969696" d="M579.851,553.669c-0.9-0.6-1-1-0.3-1c0.6,0,1.5,0.5,1.8,1C582.15,554.869,581.751,554.869,579.851,553.669z"
	/>
<path fill="#969696" d="M734.15,553.969c1.5-0.2,3.9-0.2,5.5,0c1.5,0.2,0.2,0.4-2.8,0.4S732.551,554.169,734.15,553.969z"/>
<path fill="#969696" d="M-161.35,552.969c0.7-0.3,1.601-0.2,1.9,0.101c0.399,0.3-0.2,0.6-1.3,0.5
	C-161.85,553.569-162.149,553.269-161.35,552.969z"/>
<path fill="#969696" d="M112.65,552.969c0.601-0.2,1.8-0.2,2.5,0c0.601,0.3,0.101,0.5-1.3,0.5S111.95,553.269,112.65,552.969z"/>
<path fill="#969696" d="M-187.249,541.969c-1.301-1.6-1.2-1.7,0.399-0.399c0.9,0.699,1.7,1.5,1.7,1.699
	C-185.149,544.069-185.949,543.569-187.249,541.969z"/>
<path fill="#969696" d="M24.851,543.269c0-0.199,0.8-1,1.8-1.699c1.5-1.301,1.601-1.2,0.3,0.399
	C25.65,543.569,24.851,544.069,24.851,543.269z"/>
<path fill="#969696" d="M-178.149,542.169c0-0.5,0.5-1.7,1-2.5s1-1,1-0.5c0,0.6-0.5,1.7-1,2.5S-178.149,542.769-178.149,542.169z"/>
<path fill="#969696" d="M218.95,541.069c0-1.101,0.301-1.4,0.601-0.601c0.3,0.7,0.2,1.601-0.101,1.9
	C219.15,542.769,218.851,542.169,218.95,541.069z"/>
<path fill="#969696" d="M224.65,532.969c1.3-1.3,2.8-2.3,3.5-2.3s0.3,0.6-0.8,1.2c-1.1,0.6-2.7,1.6-3.5,2.2
	C222.95,534.669,223.351,534.169,224.65,532.969z"/>
<path fill="#969696" d="M-186.949,533.069c1-1,2-1.601,2.2-1.301c0.3,0.301-0.5,1.101-1.7,1.801
	C-188.55,534.869-188.55,534.769-186.949,533.069z"/>
<path fill="#969696" d="M25.45,533.169c-1.1-0.8-1.5-1.5-0.899-1.5c0.6,0,1.6,0.7,2.3,1.5
	C28.45,535.069,27.95,535.069,25.45,533.169z"/>
<path fill="#969696" d="M-179.149,532.669c-0.9-0.6-1-1-0.3-1c0.6,0,1.5,0.5,1.8,1C-176.85,533.869-177.249,533.869-179.149,532.669
	z"/>
<path fill="#969696" d="M17.551,532.569c0.7-0.7,1.5-1,1.8-0.7s-0.2,0.899-1.2,1.2C16.751,533.669,16.65,533.569,17.551,532.569z"/>
<path fill="#969696" d="M240.851,531.669c-0.9-0.6-1-1-0.3-1c0.6,0,1.5,0.5,1.8,1C243.15,532.869,242.751,532.869,240.851,531.669z"
	/>
<path fill="#969696" d="M-284.85,503.969c1.5-0.2,3.7-0.2,5,0c1.2,0.2,0,0.4-2.8,0.4
	C-285.35,504.369-286.449,504.169-284.85,503.969z"/>
<path fill="#969696" d="M-243.649,503.469c-2.6-1.399-6.5-5-6.5-5.899c0-0.4,1.3,0.5,2.8,1.899c1.5,1.5,3.7,3.2,4.7,3.9
	C-240.149,504.869-240.949,504.969-243.649,503.469z"/>
<path fill="#969696" d="M-238.85,503.969c0.9-0.2,2.3-0.2,3,0c0.601,0.3-0.1,0.5-1.8,0.5
	C-239.249,504.469-239.85,504.269-238.85,503.969z"/>
<path fill="#969696" d="M-172.85,503.969c0.9-0.2,2.5-0.2,3.5,0c0.9,0.3,0.101,0.5-1.8,0.5S-173.85,504.269-172.85,503.969z"/>
<path fill="#969696" d="M-119.649,503.669c-0.3-0.6,0.1-0.7,0.9-0.4c1.8,0.7,2.1,1.4,0.699,1.4
	C-118.649,504.669-119.35,504.269-119.649,503.669z"/>
<path fill="#969696" d="M-113.35,503.969c1.2-0.2,3-0.2,4,0c0.9,0.3-0.1,0.5-2.3,0.4
	C-113.85,504.369-114.649,504.169-113.35,503.969z"/>
<path fill="#969696" d="M23.65,503.969c1.2-0.2,3-0.2,4,0c0.9,0.3-0.1,0.5-2.3,0.4C23.15,504.369,22.351,504.169,23.65,503.969z"/>
<path fill="#969696" d="M205.351,503.669c-0.3-0.6,0.1-0.7,0.9-0.4c1.8,0.7,2.1,1.4,0.699,1.4
	C206.351,504.669,205.65,504.269,205.351,503.669z"/>
<path fill="#969696" d="M210.15,503.969c0.9-0.2,2.5-0.2,3.5,0c0.9,0.3,0.101,0.5-1.8,0.5S209.15,504.269,210.15,503.969z"/>
<path fill="#969696" d="M256.851,504.069c3.7-0.801,8.8-0.9,8.4-0.2c-0.301,0.399-2.601,0.7-5.2,0.7
	C257.45,504.469,256.051,504.269,256.851,504.069z"/>
<path fill="#969696" d="M335.15,503.969c0.9-0.2,2.3-0.2,3,0c0.601,0.3-0.1,0.5-1.8,0.5
	C334.751,504.469,334.15,504.269,335.15,503.969z"/>
<path fill="#969696" d="M340.551,503.569c0.7-0.7,1.5-1,1.8-0.7s-0.2,0.899-1.2,1.2C339.751,504.669,339.65,504.569,340.551,503.569
	z"/>
<path fill="#969696" d="M-232.149,503.269c0-0.199,0.7-0.699,1.6-1c0.801-0.3,1.2-0.199,0.9,0.4
	C-230.249,503.669-232.149,504.069-232.149,503.269z"/>
<path fill="#969696" d="M-162.449,502.569c0.7-0.7,1.5-1,1.8-0.7s-0.2,0.899-1.2,1.2
	C-163.249,503.669-163.35,503.569-162.449,502.569z"/>
<path fill="#969696" d="M115.251,477.669c0-14.6,0.199-20.5,0.3-13.2c0.2,7.2,0.2,19.2,0,26.5
	C115.45,498.169,115.251,492.269,115.251,477.669z"/>
<path fill="#969696" d="M125.251,477.669c0-14.6,0.199-20.5,0.3-13.2c0.2,7.2,0.2,19.2,0,26.5
	C125.45,498.169,125.251,492.269,125.251,477.669z"/>
<path fill="#969696" d="M185.251,484.669c0-10.7,0.199-15.1,0.3-9.7c0.2,5.3,0.2,14.101,0,19.5
	C185.45,499.769,185.251,495.369,185.251,484.669z"/>
<path fill="#969696" d="M219.851,503.269c0-0.3,0.9-1,2-1.6s2-0.8,2-0.6c0,0.3-0.9,1-2,1.6S219.851,503.469,219.851,503.269z"/>
<path fill="#969696" d="M300.051,465.469l-0.2-38.8l5.3,0.2l5.2,0.2l-4.7,0.3l-4.8,0.399l-0.3,38.2l-0.2,38.2L300.051,465.469z"/>
<path fill="#969696" d="M327.851,502.669c-0.8-0.5-1-1-0.5-1c0.6,0,1.7,0.5,2.5,1s1.1,1,0.5,1
	C329.851,503.669,328.65,503.169,327.851,502.669z"/>
<path fill="#969696" d="M-125.649,501.669c-0.3-0.6,0.1-0.7,0.9-0.4c1.8,0.7,2.1,1.4,0.699,1.4
	C-124.649,502.669-125.35,502.269-125.649,501.669z"/>
<path fill="#969696" d="M-157.35,499.769c1.3-1.1,3.2-3,4.3-4.3l2-2.3l-1.6,2.7c-0.9,1.5-2.8,3.399-4.3,4.3l-2.7,1.6
	L-157.35,499.769z"/>
<path fill="#969696" d="M197.251,499.469l-1.9-2.3l2.3,1.9c1.2,1.1,2.2,2.1,2.2,2.3
	C199.851,502.169,199.051,501.569,197.251,499.469z"/>
<path fill="#969696" d="M344.851,501.369c0-0.2,1.5-1.601,3.3-3.3l3.2-2.9l-2.9,3.3C345.65,501.469,344.851,502.169,344.851,501.369
	z"/>
<path fill="#969696" d="M-225.649,498.669c1-1.1,2-2,2.3-2s-0.3,0.9-1.3,2s-2,2-2.3,2S-226.649,499.769-225.649,498.669z"/>
<path fill="#969696" d="M-306.249,497.969c-1.301-1.7-1.301-1.7,0.6-0.3c1.1,0.8,2.2,1.6,2.4,1.7c0.199,0.2,0,0.3-0.601,0.3
	C-304.449,499.669-305.55,498.869-306.249,497.969z"/>
<path fill="#969696" d="M-263.149,499.269c0-0.199,0.7-0.699,1.6-1c0.801-0.3,1.2-0.199,0.9,0.4
	C-261.249,499.669-263.149,500.069-263.149,499.269z"/>
<path fill="#969696" d="M-186.249,497.969c-1.301-1.6-1.2-1.7,0.399-0.399c0.9,0.699,1.7,1.5,1.7,1.699
	C-184.149,500.069-184.949,499.569-186.249,497.969z"/>
<path fill="#969696" d="M-95.55,498.369c0.301-1,0.9-1.5,1.2-1.2s0,1.1-0.7,1.8C-96.05,499.869-96.149,499.769-95.55,498.369z"/>
<path fill="#969696" d="M6.251,497.469l-1.9-2.3l2.3,1.9c1.2,1.1,2.2,2.1,2.2,2.3C8.851,500.169,8.051,499.569,6.251,497.469z"/>
<path fill="#969696" d="M226.851,497.669c0.6-1.1,1.3-2,1.6-2c0.2,0,0,0.9-0.6,2s-1.3,2-1.6,2
	C226.051,499.669,226.251,498.769,226.851,497.669z"/>
<path fill="#969696" d="M352.051,497.669c0-1.4,0.2-1.9,0.5-1.2c0.2,0.601,0.2,1.8,0,2.5
	C352.251,499.569,352.051,499.069,352.051,497.669z"/>
<path fill="#969696" d="M362.051,496.169c0-1.6,0.2-2.2,0.5-1.2c0.2,0.9,0.2,2.3,0,3
	C362.251,498.569,362.051,497.869,362.051,496.169z"/>
<path fill="#969696" d="M-172.85,496.969c0.9-0.2,2.3-0.2,3,0c0.601,0.3-0.1,0.5-1.8,0.5
	C-173.249,497.469-173.85,497.269-172.85,496.969z"/>
<path fill="#969696" d="M-112.85,496.969c0.9-0.2,2.5-0.2,3.5,0c0.9,0.3,0.101,0.5-1.8,0.5S-113.85,497.269-112.85,496.969z"/>
<path fill="#969696" d="M27.65,496.969c0.7-0.3,1.601-0.2,1.9,0.101c0.399,0.3-0.2,0.6-1.3,0.5
	C27.15,497.569,26.851,497.269,27.65,496.969z"/>
<path fill="#969696" d="M210.65,496.969c0.601-0.2,1.8-0.2,2.5,0c0.601,0.3,0.101,0.5-1.3,0.5S209.95,497.269,210.65,496.969z"/>
<path fill="#969696" d="M-311.749,493.469l-2.9-3.3l3.3,2.9c1.7,1.699,3.2,3.1,3.2,3.3
	C-308.149,497.169-308.949,496.469-311.749,493.469z"/>
<path fill="#969696" d="M-262.149,494.669c-0.6-1.1-0.8-2-0.6-2c0.3,0,1,0.9,1.6,2s0.8,2,0.6,2
	C-260.85,496.669-261.55,495.769-262.149,494.669z"/>
<path fill="#969696" d="M-122.749,492.269c-2.4-2.399-4.4-4.899-4.4-5.6s1,0.2,2.3,2.1c1.2,1.801,3.8,4.4,5.601,5.601
	c1.899,1.3,2.8,2.3,2.1,2.3S-120.35,494.669-122.749,492.269z"/>
<path fill="#969696" d="M32.65,495.969c0.7-0.3,1.601-0.2,1.9,0.101c0.399,0.3-0.2,0.6-1.3,0.5
	C32.15,496.569,31.851,496.269,32.65,495.969z"/>
<path fill="#969696" d="M204.851,495.669c-0.9-0.6-1-1-0.3-1c0.6,0,1.5,0.5,1.8,1C207.15,496.869,206.751,496.869,204.851,495.669z"
	/>
<path fill="#969696" d="M334.251,495.069c-1.801-1.4-1.801-1.5,0.399-0.4c1.2,0.6,2.2,1.3,2.2,1.5
	C336.851,496.969,336.351,496.769,334.251,495.069z"/>
<path fill="#969696" d="M340.851,496.269c0-0.199,0.7-0.699,1.6-1c0.801-0.3,1.2-0.199,0.9,0.4
	C342.751,496.669,340.851,497.069,340.851,496.269z"/>
<path fill="#969696" d="M-181.85,493.469c-1.1-1.3-2.3-3-2.7-3.8c-0.399-0.8,0.101-0.4,1.2,0.9c1.101,1.399,2.8,3.1,3.8,3.8
	s1.301,1.3,0.801,1.3C-179.35,495.669-180.749,494.669-181.85,493.469z"/>
<path fill="#969696" d="M198.251,493.969c1.6-2,3.6-2.3,3.6-0.6c0,0.399-0.3,0.3-0.7,0c-0.3-0.4-1.6,0.1-2.7,1
	C196.351,496.169,196.351,496.169,198.251,493.969z"/>
<path fill="#969696" d="M270.351,493.669c1-1.1,2-2,2.3-2s-0.3,0.9-1.3,2s-2,2-2.3,2S269.351,494.769,270.351,493.669z"/>
<path fill="#969696" d="M-134.649,493.569c-0.4-0.601-0.5-1.2-0.2-1.5c0.2-0.301,0.7,0.199,1,1.1
	C-133.149,494.869-133.749,495.169-134.649,493.569z"/>
<path fill="#969696" d="M-241.55,491.969c-0.6-1.399-0.5-1.5,0.5-0.6c0.7,0.7,1,1.5,0.7,1.8S-241.249,492.969-241.55,491.969z"/>
<path fill="#969696" d="M252.351,492.569c-0.4-0.601-0.5-1.2-0.2-1.5c0.2-0.301,0.7,0.199,1,1.1
	C253.851,493.869,253.251,494.169,252.351,492.569z"/>
<path fill="#969696" d="M-252.05,491.069c0-1.101,0.301-1.4,0.601-0.601c0.3,0.7,0.2,1.601-0.101,1.9
	C-251.85,492.769-252.149,492.169-252.05,491.069z"/>
<path fill="#969696" d="M-161.149,490.769c0-0.6,0.4-1.3,1-1.6s0.7,0.1,0.4,0.9C-160.449,491.869-161.149,492.169-161.149,490.769z"
	/>
<path fill="#969696" d="M12.751,489.969c-1.301-1.6-1.2-1.7,0.399-0.399c1.601,1.3,2.101,2.1,1.3,2.1
	C14.251,491.669,13.45,490.869,12.751,489.969z"/>
<path fill="#969696" d="M-242.05,488.069c0-1.101,0.301-1.4,0.601-0.601c0.3,0.7,0.2,1.601-0.101,1.9
	C-241.85,489.769-242.149,489.169-242.05,488.069z"/>
<path fill="#969696" d="M0.45,488.169c-0.3-0.9-0.6-2.4-0.5-3.3c0-0.9,0.5-0.4,1,1.2C1.851,489.269,1.551,490.869,0.45,488.169z"/>
<path fill="#969696" d="M330.95,488.069c0-1.101,0.301-1.4,0.601-0.601c0.3,0.7,0.2,1.601-0.101,1.9
	C331.15,489.769,330.851,489.169,330.95,488.069z"/>
<path fill="#969696" d="M-316.649,487.569c-0.4-0.601-0.5-1.2-0.2-1.5c0.2-0.301,0.7,0.199,1,1.1
	C-315.149,488.869-315.749,489.169-316.649,487.569z"/>
<path fill="#969696" d="M218.851,487.769c0-0.8-1.7-2.899-3.7-4.899c-3.6-3.3-3.6-3.4-0.5-1.3c3.3,2.3,5.8,5.8,4.8,6.899
	C219.15,488.769,218.851,488.469,218.851,487.769z"/>
<path fill="#969696" d="M-304.249,485.969c-1.301-1.6-1.2-1.7,0.399-0.399c1.601,1.3,2.101,2.1,1.3,2.1
	C-302.749,487.669-303.55,486.869-304.249,485.969z"/>
<path fill="#969696" d="M-252.05,486.069c0-1.101,0.301-1.4,0.601-0.601c0.3,0.7,0.2,1.601-0.101,1.9
	C-251.85,487.769-252.149,487.169-252.05,486.069z"/>
<path fill="#969696" d="M275.251,468.169c0-9.3,0.199-13.3,0.3-8.8c0.2,4.5,0.2,12.2,0,17
	C275.45,481.169,275.251,477.569,275.251,468.169z"/>
<path fill="#969696" d="M334.351,480.769c1.9-2.199,6.6-5.1,8.2-5.1c0.399,0.1-0.5,0.8-2.2,1.7c-1.6,0.8-4.1,2.5-5.5,3.7l-2.5,2.1
	L334.351,480.769z"/>
<path fill="#969696" d="M-247.649,477.669c1-1.1,2-2,2.3-2s-0.3,0.9-1.3,2s-2,2-2.3,2S-248.649,478.769-247.649,477.669z"/>
<path fill="#969696" d="M-138.949,476.169c0-1.6,0.2-2.2,0.5-1.2c0.2,0.9,0.2,2.3,0,3
	C-138.749,478.569-138.949,477.869-138.949,476.169z"/>
<path fill="#969696" d="M-0.949,476.669c0-1.4,0.2-1.9,0.5-1.2c0.2,0.601,0.2,1.8,0,2.5C-0.749,478.569-0.949,478.069-0.949,476.669
	z"/>
<path fill="#969696" d="M352.051,475.669c0-1.9,0.2-2.7,0.5-1.7c0.2,0.9,0.2,2.5,0,3.5
	C352.251,478.369,352.051,477.569,352.051,475.669z"/>
<path fill="#969696" d="M-37.35,474.969c1.2-0.2,3.2-0.2,4.5,0c1.2,0.2,0.2,0.4-2.3,0.4S-38.649,475.169-37.35,474.969z"/>
<path fill="#969696" d="M330.251,474.269c1.1-0.899,2.399-1.6,3-1.6c1.199,0,0.699,0.5-2.4,1.9
	C328.45,475.669,328.45,475.669,330.251,474.269z"/>
<path fill="#969696" d="M201.751,471.969c-1.301-1.6-1.2-1.7,0.399-0.399c1.601,1.3,2.101,2.1,1.3,2.1
	C203.251,473.669,202.45,472.869,201.751,471.969z"/>
<path fill="#969696" d="M-321.85,467.169c0-2.7,0.2-3.8,0.4-2.2c0.2,1.5,0.2,3.7,0,5
	C-321.649,471.169-321.85,469.969-321.85,467.169z"/>
<path fill="#969696" d="M-234.149,470.269c0-0.199,0.9-0.6,2-0.899s1.8-0.101,1.4,0.399
	C-231.249,470.669-234.149,471.069-234.149,470.269z"/>
<path fill="#969696" d="M210.751,466.969l-2.4-2.8l2.8,2.4c1.5,1.399,2.7,2.6,2.7,2.8
	C213.851,470.169,213.051,469.469,210.751,466.969z"/>
<path fill="#969696" d="M-37.85,467.969c0.9-0.2,2.3-0.2,3,0c0.601,0.3-0.1,0.5-1.8,0.5
	C-38.249,468.469-38.85,468.269-37.85,467.969z"/>
<path fill="#969696" d="M99.95,467.069c0-1.101,0.301-1.4,0.601-0.601c0.3,0.7,0.2,1.601-0.101,1.9
	C100.15,468.769,99.851,468.169,99.95,467.069z"/>
<path fill="#969696" d="M-104.05,466.069c0-1.101,0.301-1.4,0.601-0.601c0.3,0.7,0.2,1.601-0.101,1.9
	C-103.85,467.769-104.149,467.169-104.05,466.069z"/>
<path fill="#969696" d="M65.45,466.369c0.301-1,0.9-1.5,1.2-1.2s0,1.1-0.7,1.8C64.95,467.869,64.851,467.769,65.45,466.369z"/>
<path fill="#969696" d="M-212.05,464.069c0-1.101,0.301-1.4,0.601-0.601c0.3,0.7,0.2,1.601-0.101,1.9
	C-211.85,465.769-212.149,465.169-212.05,464.069z"/>
<path fill="#969696" d="M-24.649,463.669c1-1.1,2-2,2.3-2s-0.3,0.9-1.3,2s-2,2-2.3,2S-25.649,464.769-24.649,463.669z"/>
<path fill="#969696" d="M199.051,463.669c0-1.4,0.2-1.9,0.5-1.2c0.2,0.601,0.2,1.8,0,2.5
	C199.251,465.569,199.051,465.069,199.051,463.669z"/>
<path fill="#969696" d="M-12.149,462.669c0.6-1.1,1.3-2,1.6-2c0.2,0,0,0.9-0.6,2s-1.3,2-1.6,2
	C-12.949,464.669-12.749,463.769-12.149,462.669z"/>
<path fill="#969696" d="M86.95,461.269l-2.399-3.1l2.8,2.7c1.6,1.5,2.7,2.899,2.4,3.1C89.551,464.269,88.251,462.969,86.95,461.269z
	"/>
<path fill="#969696" d="M-310.05,462.069c0-1.101,0.301-1.4,0.601-0.601c0.3,0.7,0.2,1.601-0.101,1.9
	C-309.85,463.769-310.149,463.169-310.05,462.069z"/>
<path fill="#969696" d="M-161.649,462.569c-0.4-0.601-0.5-1.2-0.2-1.5c0.2-0.301,0.7,0.199,1,1.1
	C-160.149,463.869-160.749,464.169-161.649,462.569z"/>
<path fill="#969696" d="M66.851,463.269c0-0.199,0.8-1,1.8-1.699c1.5-1.301,1.601-1.2,0.3,0.399
	C67.65,463.569,66.851,464.069,66.851,463.269z"/>
<path fill="#969696" d="M171.751,460.969l-2.4-2.8l2.8,2.4c1.5,1.399,2.7,2.6,2.7,2.8
	C174.851,464.169,174.051,463.469,171.751,460.969z"/>
<path fill="#969696" d="M348.851,460.469c-1.5-2.1-1.7-2.8-0.6-1.899c1.6,1.3,4.1,5.1,3.3,5.1
	C351.351,463.669,350.15,462.169,348.851,460.469z"/>
<path fill="#969696" d="M-246.249,460.969c-1.301-1.6-1.2-1.7,0.399-0.399c1.4,1.1,2,1.1,3.5,0c1.5-1.301,1.601-1.2,0.3,0.399
	c-0.699,0.9-1.699,1.7-2.1,1.7S-245.55,461.869-246.249,460.969z"/>
<path fill="#969696" d="M-125.149,462.269c0-0.199,0.8-1,1.8-1.699c1.5-1.301,1.601-1.2,0.3,0.399
	C-124.35,462.569-125.149,463.069-125.149,462.269z"/>
<path fill="#969696" d="M12.851,462.269c0-0.199,0.8-1,1.8-1.699c1.5-1.301,1.601-1.2,0.3,0.399
	C13.65,462.569,12.851,463.069,12.851,462.269z"/>
<path fill="#969696" d="M327.45,461.869c-0.199-0.4,0.4-0.8,1.4-0.8s1.6,0.399,1.4,0.8c-0.301,0.399-0.9,0.8-1.4,0.8
	S327.751,462.269,327.45,461.869z"/>
<path fill="#969696" d="M223.45,459.869c-0.199-0.4,0.4-0.8,1.4-0.8s1.6,0.399,1.4,0.8c-0.301,0.399-0.9,0.8-1.4,0.8
	S223.751,460.269,223.45,459.869z"/>
<path fill="#969696" d="M-215.649,456.069c-0.9-1.5-1.2-2.301-0.6-2c1.1,0.699,3.5,4.6,2.8,4.6
	C-213.749,458.669-214.649,457.469-215.649,456.069z"/>
<path fill="#969696" d="M-185.649,456.669c1-1.1,2-2,2.3-2s-0.3,0.9-1.3,2s-2,2-2.3,2S-186.649,457.769-185.649,456.669z"/>
<path fill="#969696" d="M-154.05,456.469c-1.399-2.3-1.399-2.3,0.801-0.399c2.199,2,2.5,2.6,1.3,2.6
	C-152.35,458.669-153.249,457.669-154.05,456.469z"/>
<path fill="#969696" d="M6.351,456.669c1-1.1,2-2,2.3-2s-0.3,0.9-1.3,2s-2,2-2.3,2S5.351,457.769,6.351,456.669z"/>
<path fill="#969696" d="M211.751,457.369c0.5-0.5,2.1-0.7,3.699-0.5c2.7,0.3,2.601,0.399-0.8,0.899
	C212.45,458.069,211.251,457.869,211.751,457.369z"/>
<path fill="#969696" d="M-309.149,456.769c0-0.6,0.4-1.3,1-1.6s0.7,0.1,0.4,0.9C-308.449,457.869-309.149,458.169-309.149,456.769z"
	/>
<path fill="#969696" d="M-232.85,456.969c0.9-0.2,2.3-0.2,3,0c0.601,0.3-0.1,0.5-1.8,0.5
	C-233.249,457.469-233.85,457.269-232.85,456.969z"/>
<path fill="#969696" d="M-172.35,456.969c0.601-0.2,1.8-0.2,2.5,0c0.601,0.3,0.101,0.5-1.3,0.5S-173.05,457.269-172.35,456.969z"/>
<path fill="#969696" d="M-115.35,456.969c0.601-0.2,1.8-0.2,2.5,0c0.601,0.3,0.101,0.5-1.3,0.5S-116.05,457.269-115.35,456.969z"/>
<path fill="#969696" d="M22.65,456.969c0.601-0.2,1.8-0.2,2.5,0c0.601,0.3,0.101,0.5-1.3,0.5S21.95,457.269,22.65,456.969z"/>
<path fill="#969696" d="M149.851,457.269c0-0.199,0.8-1,1.8-1.699c1.5-1.301,1.601-1.2,0.3,0.399
	C150.65,457.569,149.851,458.069,149.851,457.269z"/>
<path fill="#969696" d="M341.15,456.969c0.9-0.2,2.5-0.2,3.5,0c0.9,0.3,0.101,0.5-1.8,0.5S340.15,457.269,341.15,456.969z"/>
<path fill="#969696" d="M35.95,454.669c-1.3-1.1-1.899-2-1.399-2c0.6,0,1.8,0.9,2.8,2C39.65,457.169,39.051,457.169,35.95,454.669z"
	/>
<path fill="#969696" d="M65.851,456.269c0-0.199,0.8-1,1.8-1.699c1.5-1.301,1.601-1.2,0.3,0.399
	C66.65,456.569,65.851,457.069,65.851,456.269z"/>
<path fill="#969696" d="M94.251,454.469l-1.9-2.3l2.3,1.9c1.2,1.1,2.2,2.1,2.2,2.3C96.851,457.169,96.051,456.569,94.251,454.469z"
	/>
<path fill="#969696" d="M325.851,456.269c0-0.199,0.8-1,1.8-1.699c1.5-1.301,1.601-1.2,0.3,0.399
	C326.65,456.569,325.851,457.069,325.851,456.269z"/>
<path fill="#969696" d="M355.95,454.669c-1.3-1.1-1.899-2-1.399-2c0.6,0,1.8,0.9,2.8,2
	C359.65,457.169,359.051,457.169,355.95,454.669z"/>
<path fill="#969696" d="M-19.949,452.669c0-1.9,0.2-2.7,0.5-1.7c0.2,0.9,0.2,2.5,0,3.5
	C-19.749,455.369-19.949,454.569-19.949,452.669z"/>
<path fill="#969696" d="M203.051,454.069c1-1,2-1.601,2.2-1.301c0.3,0.301-0.5,1.101-1.7,1.801
	C201.45,455.869,201.45,455.769,203.051,454.069z"/>
<path fill="#969696" d="M-244.449,453.569c0.7-0.7,1.5-1,1.8-0.7s-0.2,0.899-1.2,1.2
	C-245.249,454.669-245.35,454.569-244.449,453.569z"/>
<path fill="#969696" d="M-8.949,451.669c0-1.9,0.2-2.7,0.5-1.7c0.2,0.9,0.2,2.5,0,3.5C-8.749,454.369-8.949,453.569-8.949,451.669z"
	/>
<path fill="#969696" d="M154.551,453.569c0.7-0.7,1.5-1,1.8-0.7s-0.2,0.899-1.2,1.2C153.751,454.669,153.65,454.569,154.551,453.569
	z"/>
<path fill="#969696" d="M178.851,453.669c-0.9-0.6-1-1-0.3-1c0.6,0,1.5,0.5,1.8,1C181.15,454.869,180.751,454.869,178.851,453.669z"
	/>
<path fill="#969696" d="M226.851,453.669c-0.9-0.6-1-1-0.3-1c0.6,0,1.5,0.5,1.8,1C229.15,454.869,228.751,454.869,226.851,453.669z"
	/>
<path fill="#969696" d="M-307.149,451.669c0.6-1.1,1.3-2,1.6-2c0.2,0,0,0.9-0.6,2s-1.3,2-1.6,2
	C-307.949,453.669-307.749,452.769-307.149,451.669z"/>
<path fill="#969696" d="M-104.649,452.669c-0.3-0.6,0.1-0.7,0.9-0.4c1.8,0.7,2.1,1.4,0.699,1.4
	C-103.649,453.669-104.35,453.269-104.649,452.669z"/>
<path fill="#969696" d="M-232.35,449.969c1.2-0.2,3-0.2,4,0c0.9,0.3-0.1,0.5-2.3,0.4
	C-232.85,450.369-233.649,450.169-232.35,449.969z"/>
<path fill="#969696" d="M-170.85,449.969c0.9-0.2,2.3-0.2,3,0c0.601,0.3-0.1,0.5-1.8,0.5
	C-171.249,450.469-171.85,450.269-170.85,449.969z"/>
<path fill="#969696" d="M-114.85,449.969c0.9-0.2,2.3-0.2,3,0c0.601,0.3-0.1,0.5-1.8,0.5
	C-115.249,450.469-115.85,450.269-114.85,449.969z"/>
<path fill="#969696" d="M22.15,449.969c0.9-0.2,2.5-0.2,3.5,0c0.9,0.3,0.101,0.5-1.8,0.5S21.15,450.269,22.15,449.969z"/>
<path fill="#969696" d="M81.15,449.969c0.9-0.2,2.3-0.2,3,0c0.601,0.3-0.1,0.5-1.8,0.5C80.751,450.469,80.15,450.269,81.15,449.969z
	"/>
<path fill="#969696" d="M166.15,449.969c0.9-0.2,2.5-0.2,3.5,0c0.9,0.3,0.101,0.5-1.8,0.5S165.15,450.269,166.15,449.969z"/>
<path fill="#969696" d="M215.15,449.969c0.9-0.2,2.3-0.2,3,0c0.601,0.3-0.1,0.5-1.8,0.5
	C214.751,450.469,214.15,450.269,215.15,449.969z"/>
<path fill="#969696" d="M341.15,449.969c0.9-0.2,2.5-0.2,3.5,0c0.9,0.3,0.101,0.5-1.8,0.5S340.15,450.269,341.15,449.969z"/>
<path fill="#969696" d="M-317.149,449.069c0-0.601,1.5-2.601,3.3-4.5c1.7-2,2.5-2.601,1.601-1.5c-0.9,1.199-2.301,3.199-3.2,4.6
	C-316.449,448.969-317.149,449.669-317.149,449.069z"/>
<path fill="#969696" d="M-21.05,447.069c0-1.101,0.301-1.4,0.601-0.601c0.3,0.7,0.2,1.601-0.101,1.9
	C-20.85,448.769-21.149,448.169-21.05,447.069z"/>
<path fill="#969696" d="M-25.149,441.569c-2.2-1.801-2.2-1.9-0.3-1c1.2,0.6,2.5,1.6,2.8,2.1
	C-21.749,444.169-22.35,443.869-25.149,441.569z"/>
<path fill="#969696" d="M-296.449,440.569c0.7-0.7,1.5-1,1.8-0.7s-0.2,0.899-1.2,1.2
	C-297.249,441.669-297.35,441.569-296.449,440.569z"/>
<path fill="#969696" d="M118.65,440.969c0.601-0.2,1.8-0.2,2.5,0c0.601,0.3,0.101,0.5-1.3,0.5S117.95,441.269,118.65,440.969z"/>
<path fill="#969696" d="M122.851,441.269c0-0.199,0.8-1,1.8-1.699c1.5-1.301,1.601-1.2,0.3,0.399
	C123.65,441.569,122.851,442.069,122.851,441.269z"/>
<path fill="#969696" d="M114.851,438.669c-0.6-1.1-0.8-2-0.6-2c0.3,0,1,0.9,1.6,2s0.8,2,0.6,2
	C116.15,440.669,115.45,439.769,114.851,438.669z"/>
<path fill="#969696" d="M-308.149,438.269c0-0.3,0.9-1,2-1.6s2-0.8,2-0.6c0,0.3-0.9,1-2,1.6S-308.149,438.469-308.149,438.269z"/>
<path fill="#969696" d="M-19.149,434.169c-1.4-0.8-2-1.4-1.4-1.5c0.5,0,1.9,0.7,3,1.5
	C-15.149,435.969-15.949,436.069-19.149,434.169z"/>
<path fill="#969696" d="M-300.149,433.269c0-0.199,0.7-0.699,1.6-1c0.801-0.3,1.2-0.199,0.9,0.4
	C-298.249,433.669-300.149,434.069-300.149,433.269z"/>
<path fill="#969696" d="M-46.35,430.969c3.4-0.2,9-0.2,12.5,0c3.4,0.2,0.601,0.3-6.3,0.3S-49.85,431.169-46.35,430.969z"/>
<path fill="#969696" d="M119.65,428.969c0.601-0.2,1.8-0.2,2.5,0c0.601,0.3,0.101,0.5-1.3,0.5S118.95,429.269,119.65,428.969z"/>
<path fill="#5A5A5A" d="M69.851,627.769c0-2.6,0.4-2.899,4.2-3.399c2.3-0.3,5.3-1.4,6.6-2.4c2.3-1.7,9.3-12.8,8.9-14.2
	c0-0.3,0.2-1.6,0.7-2.899c0.899-2.601-0.5-6.5-8.9-25.7c-10.5-23.9-10.6-24-5.8-24.8c1.3-0.2,2.5-0.601,2.899-0.9
	c0.9-0.899,3.4,0.2,3.4,1.5s4.2,11.9,5,12.7c0.3,0.3,0.6,1.3,0.8,2.3s1.2,3.9,2.3,6.5c1.2,2.601,2.2,5.4,2.4,6.2s1.2,4,2.3,7
	c1.9,5.4,1.9,5.4,2.7,2.5c1-3.7,0.9-3.4,2.4-7c0.6-1.6,2.1-5.5,3.3-8.5c7.1-18.6,9.3-23,11.5-23c3.2,0,5.3,1,5.3,2.6
	c0,0.7-1.4,4.4-3.1,8.101c-8.101,17.8-13.101,28.899-13.301,29.8c-1.1,4.4-12.399,27.2-14.899,30.1c-3.2,3.801-9,6.4-14.2,6.4
	C70.051,630.669,69.851,630.569,69.851,627.769z"/>
<path fill="#5A5A5A" d="M701.851,629.669c0-0.4-1.2-1-2.7-1.3c-4.8-1.101-5.7-2.101-4.3-4.8c1.8-3.301,3.1-4,4.6-2.4
	c1.801,1.8,14,3.8,18.5,3c9.101-1.6,13.801-8.4,13.801-20.5v-6.5l-2,2.8c-4.5,5.9-15.801,8.4-23.7,5.2
	c-12.601-5.3-18.101-22.8-11.9-37.6c1.7-4,7.7-10.301,12.2-12.601c3.6-1.899,12.7-2.5,16.7-1.1c1.5,0.5,4.1,2.3,5.8,3.8l3,2.8
	v-2.899c0-2.801,0.1-2.9,5-2.9h5.1l-0.399,27.3c-0.2,14.9-0.601,28.601-1.101,30.2c-1.699,6.8-9.6,16.5-13.399,16.5
	c-0.7,0-1.2,0.4-1.2,0.9s-5.4,0.899-12,0.899C707.251,630.369,701.851,630.069,701.851,629.669z M725.751,596.269
	c1.6-1.5,3.6-5,4.5-7.8c3.3-10.3,1.199-20.6-5.301-26c-2.6-2.3-3.899-2.6-8.6-2.5c-6.9,0.3-10.4,2.8-12.8,9.3
	c-3.101,8.301-1.101,21.9,3.899,27.2C711.551,600.569,721.351,600.469,725.751,596.269z"/>
<path fill="#5A5A5A" d="M748.851,627.669c0-2.5,0.4-3,2.4-3c3.6,0,7.1-1.6,9.5-4.2c2.199-2.2,9.1-15.8,9.1-17.6
	c0-0.5-1.2-3.601-2.7-6.8c-1.5-3.301-2.8-6.2-2.8-6.5c0-0.301-1.2-3.301-2.7-6.5c-3.8-8.4-10.7-24.7-11-26.301
	c-0.2-0.8,1.3-1.8,4-2.6c4.2-1.3,4.3-1.3,5.7,1.5c0.8,1.6,2.2,5,3.1,7.7c0.9,2.6,2.2,6.2,2.9,7.8c1.8,4.3,5.1,13.3,6.5,17.8
	c0.6,2,1.5,3.7,2,3.7c0.4,0,2.4-4.4,4.4-9.7c1.899-5.399,5.1-13.6,7.1-18.3c1.9-4.6,3.5-9,3.5-9.7c0-1.3,1.4-1.8,3.5-1.3
	c0.6,0.1,1.8,0.4,2.9,0.6c2.899,0.601,2.899,0.9-0.101,7.601c-1.5,3.5-2.8,6.5-2.899,6.8c0,0.7-12.101,27.4-21,46.9
	c-4.9,10.699-10.301,15.1-18.301,15.1C748.95,630.669,748.851,630.569,748.851,627.669z"/>
<path fill="#5A5A5A" d="M-99.85,604.569c-6.2-2.4-11.7-8.301-13.5-14.301c-1.7-5.899-1.8-17.399,0-21.6
	c3.9-9.5,11.8-15.2,21.601-15.5c3.3-0.1,6.6,0,7.1,0.4c0.6,0.3,1.6,0.6,2.4,0.8c4.8,0.7,10.8,11.5,11.3,20.399l0.3,5.4l-17.2,0.3
	l-17.3,0.2v2.6c0,4.601,4.5,11.7,9,14.301c3.4,1.899,5.2,2.199,9.9,1.8c3.1-0.2,7.1-1.2,8.8-2c3-1.601,3.2-1.601,4.7,0.8
	c1.5,2.3,1.399,2.5-1.2,4.3C-80.55,606.969-91.35,607.869-99.85,604.569z M-79.149,573.269c0-4-1.6-8-4.2-10.699
	c-2.5-2.4-3.8-2.9-7.8-2.9c-4.1,0-5.5,0.5-8.4,3c-1.8,1.7-3.699,4.3-4,5.8c-0.399,1.5-0.899,3.5-1.199,4.5
	c-0.5,1.601,0.6,1.7,12.5,1.7C-81.749,574.669-79.149,574.369-79.149,573.269z"/>
<path fill="#5A5A5A" d="M-20.149,605.369c-1.9-0.601-4.5-2-5.7-3l-2.2-2l2.101-2.8l2.1-2.801l2.9,2.101
	c3.2,2.3,8.6,3.3,12.399,2.399c2.7-0.699,5.2-5.1,4.601-8.3c-0.4-2.399-5.101-7-12.4-12c-5.8-4-8.1-7.399-8.399-12.5
	c-0.2-3.3,0.399-4.7,3.199-7.8c1.9-2.1,4.7-4.2,6.2-4.8c4.2-1.4,13.7-0.7,16.601,1.2c2.899,1.8,3.1,2.8,1.399,5.5
	c-1,1.699-1.399,1.699-4.399,0.5c-4.801-2-9.601-1.801-12.2,0.6c-1.2,1.2-2.2,2.4-2.2,2.8c0.1,2.2,3.2,5.601,8.9,9.9
	c7.899,5.899,12,10.899,12.699,15.399c1.4,8.5-6.1,16.101-16.399,16.5C-14.149,606.469-18.249,606.069-20.149,605.369z"/>
<path fill="#5A5A5A" d="M51.15,604.669c-6-3.6-6.7-6.4-7.1-26.7l-0.4-18.3h-2.899c-2.4,0-2.9-0.4-2.9-2.5s0.5-2.5,3-2.5h3v-6.3v-6.3
	l4.4-1.601c2.399-0.899,4.699-1.399,5-1.1c0.3,0.399,0.6,3.899,0.6,8v7.3h6.5c6.3,0,6.5,0.1,6.5,2.5s-0.2,2.5-6.5,2.5h-6.5v17.3
	c0,21.5,0.3,22.2,8.3,22.2c4,0,6.101,0.5,6.7,1.5c1.5,2.4,1.2,3-2.5,4.6C61.551,607.269,54.95,607.069,51.15,604.669z"/>
<path fill="#5A5A5A" d="M171.351,604.769c-10.6-4.8-14.7-11.5-15.1-24.3c-0.301-7.8-0.101-9.3,2.3-13.8c4.8-9.2,12.8-13.9,23.3-13.6
	c9.1,0.3,16.1,4.399,20.6,12.199c3.801,6.4,4.7,12.4,3.101,20.7C202.65,601.569,185.251,611.169,171.351,604.769z M189.051,597.169
	c9.5-6.5,9-29.7-0.9-35.5c-4-2.4-9-2.6-13.899-0.5c-7.801,3.2-11,19.3-6,30.2c2.8,6,6.199,8.2,12.6,8.3
	C184.051,599.669,186.45,598.969,189.051,597.169z"/>
<path fill="#5A5A5A" d="M340.15,604.269c-10.3-4.899-14.8-13.5-14-26.8c0.5-9,1-10.899,3.8-14.7c2.5-3.399,8.801-7.899,12.2-8.8
	c3.7-1,12.101-1,14.8-0.1c4.7,1.6,9.5,7.3,11.301,13.6c0.899,3.2,1.6,7.5,1.6,9.5v3.7h-16.9c-15.3,0-17,0.2-17.3,1.8
	c-1,4.2,3.8,12.3,8.9,15.4c3.7,2.1,14.5,1.899,18.899-0.5c3.101-1.601,3.101-1.601,4.301,1c0.6,1.399,1,2.7,0.899,2.8
	c-2.8,2.4-10.5,4.9-16.3,5.2C346.45,606.669,344.551,606.369,340.15,604.269z M360.551,570.469c-1.101-8.3-7.5-12.399-15.4-10
	c-4.3,1.3-8.2,6.101-8.899,11.101l-0.5,3.1h12.699h12.7L360.551,570.469z"/>
<path fill="#5A5A5A" d="M396.851,605.969c-6.2-2.3-10-4.7-12.6-8c-4.9-6.1-5-6.5-6.101-15.899c-1.3-11.5,6.4-24.101,16.8-27.601
	c5.4-1.8,17-1.7,21.2,0.2c3,1.5,3.2,1.9,1.601,5.4c-1.101,2.3-1.301,2.3-4.301,1.1c-3.8-1.6-14.8-1.3-15.399,0.3
	c-0.2,0.7-0.9,1.2-1.601,1.2c-1.8,0-5.3,4-7,8.1c-1.899,4.5-1.399,14.301,0.9,19.301c2.8,5.899,7.6,8.899,14.7,9.199
	c3.899,0.2,7.1-0.199,8.899-1.199c3.801-1.9,4.4-1.801,5.7,1c0.8,1.899,0.7,2.6-0.899,3.899c-1,0.9-1.9,1.5-1.9,1.2
	c0-0.2-1.9,0.2-4.1,1C408.65,606.669,399.851,607.069,396.851,605.969z"/>
<path fill="#5A5A5A" d="M563.251,604.269c-9.7-4.5-14.9-13.899-14.601-26.3c0.4-14.3,11.5-25.399,25-24.8c7.4,0.4,9.2,0.9,13.9,3.8
	c7.6,4.8,11.3,12.4,11.3,23.3c0,6.9-3.9,16.301-8.6,20.5C583.45,606.869,572.051,608.369,563.251,604.269z M580.851,598.169
	c5.1-2.6,7.8-9.5,7.8-19.3c-0.1-3.7-0.399-7.101-0.7-7.7c-0.3-0.5-0.6-1.6-0.699-2.2c-0.101-0.7-1.301-2.6-2.601-4.2
	c-5.6-7.1-16.7-6.699-22.3,0.801c-2.6,3.6-5,12.899-4.1,15.8c0.3,1,0.8,3.3,1.1,5.2c1.4,8.3,6.3,13,13.8,13.1
	C575.751,599.669,579.251,598.969,580.851,598.169z"/>
<path fill="#5A5A5A" d="M647.851,604.569c-6.7-3-12.2-8.9-13.8-14.9c-1.101-4.1-1.3-16-0.3-19.6c1.399-5.4,7-11.7,13-14.7
	c7.1-3.5,17.699-3,24.399,1.2c11.3,6.899,15.101,22.399,8.8,35.6c-1.5,3.3-3.899,7-5.199,8.2
	C667.95,606.569,656.251,608.369,647.851,604.569z M664.351,598.369c2.8-1.4,6.4-5.7,7.3-8.7c0.9-3.2,0.9-15.6,0-19.5
	c-0.399-1.6-2.3-4.5-4.2-6.3c-2.8-2.8-4.3-3.5-8.3-3.8c-11-0.9-16.399,6-16.399,20.8c0.1,7,2,12,6.3,15.899
	c2.7,2.601,3.8,3,8.2,2.801C660.051,599.469,663.251,598.869,664.351,598.369z"/>
<path fill="#5A5A5A" d="M-248.149,580.169v-25.5h5c4.7,0,5,0.2,5,2.5v2.5l5.1-3.2c4.2-2.5,6.301-3.2,11.5-3.3
	c6.801-0.3,10.101,0.9,14.601,5.2c3.6,3.5,4.8,11.1,4.8,31.1v16.2h-5h-5l-0.1-17.7c0-9.8-0.2-18.7-0.4-19.7
	c-1.7-9-14.5-11.3-21.6-3.899l-3.4,3.399l-0.3,19l-0.4,18.9h-4.899h-4.9V580.169z"/>
<path fill="#5A5A5A" d="M-187.149,580.169v-25.5h4.5h4.5v25.5v25.5h-4.5h-4.5V580.169z"/>
<path fill="#5A5A5A" d="M-149.05,603.469c-0.5-1.3-0.899-2.6-1-3.1c0-0.4-1.199-2.9-2.6-5.601c-1.3-2.8-3.5-7.8-4.9-11.3
	c-1.3-3.5-3.3-8.3-4.399-10.8c-6.101-13.6-7.2-16.4-6.4-17.2c0.4-0.399,2.601-1.1,4.9-1.399c4-0.5,4.1-0.5,5.6,3.8
	c1.4,4,9.101,24.399,10.4,27.8c0.8,1.9,0.8,2,1.7,5.3c0.5,1.5,1.1,2.7,1.5,2.7c0.3,0,2-4.2,3.699-9.3c7-20.2,12.101-31.4,14.4-30.8
	c2.3,0.5,4.4,0.899,5.2,1c1,0.1,0.399,2.1-2.101,7.6c-2.1,4.6-6.699,15.1-10.899,25c-0.9,2.1-1.7,4.2-1.8,4.5
	c0,0.3-1.601,3.5-3.4,7.3c-3,5.9-3.8,6.7-6.2,6.7C-147.35,605.669-148.449,604.969-149.05,603.469z"/>
<path fill="#5A5A5A" d="M-59.149,580.169v-25.5h4.5c4.2,0,4.5,0.2,4.5,2.5v2.6l4-3.3c5-4,9.8-4.3,13.4-0.899
	c2.5,2.3,2.5,2.5,0.8,5.3c-1.3,2.2-2.2,2.8-3.7,2.3c-5-1.6-8.3-1.3-10.3,0.8c-2.9,3.3-3.4,6.7-3.2,25l0.1,16.7h-5.1h-5V580.169z"/>
<path fill="#5A5A5A" d="M16.851,580.169v-25.5h5h5v25.5v25.5h-5h-5V580.169z"/>
<path fill="#5A5A5A" d="M218.851,582.669v-23h-4c-3.6,0-4-0.2-4-2.5c0-2.2,0.4-2.5,3.9-2.5h3.8l0.5-7.6c0.6-8.9,2.3-11.801,9-15.2
	c3.399-1.7,5.5-2.2,8-1.7c5.3,1,6.2,1.9,4.899,4.4c-0.899,1.6-2.1,2.1-5.199,2.1c-5.9,0-7.301,1.9-7.7,10.7l-0.4,7.3h6.601
	c6.399,0,6.6,0.1,6.6,2.5s-0.2,2.5-6.5,2.5h-6.5v23v23h-4.5h-4.5V582.669z"/>
<path fill="#5A5A5A" d="M430.851,567.669v-38h4.5h4.5v15c0,13.7,0.6,17.1,2.5,14c1.5-2.5,9.2-5.3,14.9-5.5
	c7.699-0.2,12.699,2.1,16,7.7c2.399,4,2.5,4.7,2.6,24.5l0.1,20.3h-4.5h-4.399l-0.4-18.7c-0.399-24.2-1.3-26.3-11.8-26.8
	c-4.7-0.3-7.4,0.6-10.1,3.4c-3.9,4.1-4.4,6.399-4.7,24.399l-0.4,17.7h-4.399h-4.4V567.669z"/>
<path fill="#5A5A5A" d="M491.851,580.169v-25.5h4.5c4.2,0,4.5,0.2,4.5,2.6c0,2.601,0.1,2.601,2.3,1c1.2-0.899,3.3-2.1,4.7-2.699
	c1.4-0.601,3.2-1.4,4-1.801c1.2-0.6,9.4-0.699,13.7-0.199c1.3,0.1,8.8,6.3,9,7.399c0.1,0.4,0.6,3,1.2,5.8
	c0.6,2.7,1.1,12.601,1.1,21.9v17h-5h-5l-0.1-17.7c0-9.8-0.2-18.6-0.4-19.6c-0.7-3.7-3.6-6.601-7.5-7.7c-5.7-1.5-10.2-0.4-14.1,3.6
	l-3.4,3.5l-0.3,19l-0.4,18.9h-4.399h-4.4V580.169z"/>
<path fill="#5A5A5A" d="M610.851,567.669v-38.1l4.8,0.3l4.7,0.3v37.5v37.5l-4.7,0.3l-4.8,0.3V567.669z"/>
<path fill="#5A5A5A" d="M-186.449,541.869c-2.5-2.8-2.101-6.9,0.8-8.8c4.6-3,10.5,0.699,9,5.6
	C-178.249,543.569-183.449,545.269-186.449,541.869z"/>
<path fill="#5A5A5A" d="M17.851,542.169c-0.7-0.8-1.3-2.9-1.4-4.7c-0.1-2.5,0.5-3.5,2.7-4.8c2.4-1.3,3-1.3,5.5,0
	c5.3,3,3.3,11-2.8,11C20.351,543.669,18.551,542.969,17.851,542.169z"/>
<path fill="#5A5A5A" d="M-197.149,490.169v-38.5h5h5v3.7v3.7l2.8-2.7c8-7.7,23.5-7.601,30.5,0.3c4.8,5.4,7.101,11.6,7.101,19.5
	c0,16.1-11.2,28.5-25.101,27.9c-5.8-0.301-8.5-1.4-12.5-5.2l-2.8-2.601v16.2v16.2h-5h-5V490.169z M-164.149,494.869
	c6.6-4.8,9.1-19.5,5-29c-1.8-4.2-3-5.5-6.6-7.2c-10.2-5-19.601,2.3-21.101,16.3c-0.7,6.601,1.7,15.4,4.9,18.4
	C-176.949,497.869-169.149,498.569-164.149,494.869z"/>
<path fill="#5A5A5A" d="M-244.55,501.969c-5.8-3.7-7.899-9.6-6.199-17.8c0.899-4.8,6.1-9.5,13.399-12c2.601-1,5.4-2,6.2-2.3
	s1.8-0.601,2.3-0.7c0.4-0.2,0.8-0.3,1-0.5c0.101-0.1,1-0.3,2-0.5c5.5-1,5.9-3.6,1.3-8.4c-2.399-2.5-3.5-2.899-7.5-2.699
	c-2.8,0.1-6.199,1.1-8.6,2.5l-3.9,2.3l-1.8-2.2c-2.3-2.8-1.7-3.7,4.601-6.6c10.3-4.801,23-2.4,27.699,5.199
	c2.2,3.7,2.4,5.101,2.9,23.4c0.3,10.7,0.9,20.1,1.4,20.8c0.6,1-0.301,1.2-4.5,1c-5.301-0.3-5.4-0.399-6.4-4.2l-1.1-3.899l-3.5,3
	C-232.35,504.569-238.55,505.769-244.55,501.969z M-229.85,495.469c2.8-1.7,4.8-4.3,6.9-9.3c2-4.7,2.399-12.5,0.6-12.5
	c-2.3,0-11.8,3.4-11.8,4.2c0,0.5-0.4,0.7-0.9,0.3c-0.5-0.3-2.3,1.1-3.899,3.1C-245.749,489.569-238.85,500.469-229.85,495.469z"/>
<path fill="#5A5A5A" d="M-118.649,503.369c-0.8-0.4-1.5-0.5-1.5-0.2c0,0.8-7.6-3.2-10.1-5.3c-1.101-0.9-3.301-3.9-4.7-6.7
	c-2.4-4.4-2.7-6.1-2.7-14.5c0-8.5,0.3-10,2.7-14c3.2-5.6,6.1-8.1,11.6-10.3c9.8-3.9,19.9-1.3,25.2,6.399c2.7,4,3.3,5.9,3.7,12.301
	l0.5,7.6h-17.101c-15.6,0-17.1,0.2-17.1,1.8c0,7.7,6.7,15.601,14.2,16.7c3.2,0.5,6.1,0.1,10.7-1.5c6.5-2.2,8-1.8,8.1,1.7
	C-95.149,501.469-113.649,506.269-118.649,503.369z M-102.749,470.869c1-1.601-1.5-8.2-3.9-10.601c-3.5-3.6-7.6-4.1-12.9-1.8
	c-4.3,2-6.6,5-7.899,11c-0.5,2.2-0.5,2.2,11.8,2.2C-108.85,471.669-103.05,471.269-102.749,470.869z"/>
<path fill="#5A5A5A" d="M16.15,502.869c-10.3-3-16.6-13.9-16.2-28c0.4-15.5,10.801-25.101,25.801-24c10.6,0.8,16.8,8.2,17.899,21.5
	l0.5,6.3h-17.1c-9.4,0-17.3,0.4-17.601,0.8c-1.1,1.8,1.7,8.5,4.9,12.101c5.8,6.399,15,7.6,23.1,3.1l3.2-1.9l1.2,3
	c0.7,1.601,1.1,3.101,0.9,3.2C33.551,504.169,24.95,505.469,16.15,502.869z M34.851,468.769c0-3.399-3.7-9.1-7-10.899
	c-5.2-2.7-12.8,0.6-16.1,6.899c-3.5,6.9-3.4,6.9,10.6,6.9h12.5V468.769z"/>
<path fill="#5A5A5A" d="M207.351,503.869c-0.3-0.3-2.8-0.9-4.7-1.101c-0.3-0.1-2.1-1.3-3.8-2.699l-3.1-2.7l2.199-2.3
	c2.2-2.4,2.2-2.4,5.301-0.5c4.5,2.699,8.3,3.3,12.199,2.1c2.7-0.9,3.5-1.8,4-4.6c1-5.101-0.6-7.601-8.3-12.9
	c-9.1-6.3-11.5-9.5-11.6-15c0-2.5,0.7-5.4,1.6-6.9c4.101-6.3,16-8.5,23.7-4.6c4,2,4,2.1,2.4,4.5c-1.9,2.9-1.7,2.9-5.2,1.2
	c-7.101-3.5-13.7-1-13,4.899c0.2,2.101,2.2,4.2,8.3,8.9c11.7,8.9,14.6,15.2,10.8,23.2c-1.5,3.3-7.7,8.1-9.5,7.5
	c-0.5-0.101-0.8,0.1-0.8,0.6C217.851,504.169,208.051,504.569,207.351,503.869z"/>
<path fill="#5A5A5A" d="M252.15,503.469c-4.3-1.1-8.7-5.7-10.1-10.5c-0.7-2.5-1.2-11.1-1.2-22.7v-18.6h5h5v18.4
	c0,10.199,0.4,19.6,1,21c2,5.199,10.3,7.5,16.4,4.5c6.1-2.9,7.1-6.4,7.399-26.101l0.4-17.8h4.399h4.4v26v26h-5c-4.7,0-5-0.2-5-2.5
	c0-3.1-0.3-3.1-4.5-0.2c-2.3,1.601-5.1,2.4-8.7,2.601c-2.8,0.1-5.399,0.3-5.7,0.5C255.65,504.269,253.95,503.969,252.15,503.469z"/>
<path fill="#5A5A5A" d="M329.251,502.369c-5-2.601-7.2-6.7-7.2-13.601c0-9.6,4.8-13.899,21.3-19.1c9.5-3,10.6-5,5.6-10.1
	c-2.8-2.801-3.6-3-8-2.601c-2.8,0.3-6.6,1.5-8.699,2.8l-3.7,2.2l-1.8-2.2c-1.9-2.3-1.9-2.3,0.5-4.199c6.899-5.4,19-6.601,26-2.601
	c7.3,4.2,8,6,8.3,22c0.399,17.9,0.8,24.7,1.8,27c0.6,1.5,0.1,1.7-4.3,1.7c-5.3,0-6.2-0.8-6.2-5.6c0-3.301-2-3-5.6,0.699
	C342.15,504.169,335.45,505.569,329.251,502.369z M345.15,494.269c3.7-3.399,6.4-9.3,7.2-15.8l0.7-5.6l-6.8,1.899
	c-8.301,2.301-11.301,4.301-13.7,9.2c-1.601,3.101-1.7,4.2-0.7,7.2c0.6,1.9,1.9,3.9,2.8,4.5
	C337.65,497.369,342.45,496.769,345.15,494.269z"/>
<path fill="#5A5A5A" d="M54.851,477.669v-26h5c4.7,0,5,0.2,5,2.5c0,2.8,1.2,3.2,3,1c0.7-0.8,1.9-1.5,2.6-1.5
	c0.801,0,1.4-0.4,1.4-0.8c0-1,0.7-1.2,9.1-1.8c6.9-0.601,9.801,0.3,14.5,4.3c3.9,3.399,4.7,7.899,5.2,28.6l0.4,19.7h-5h-5l-0.4-20.1
	l-0.3-20.101l-3.3-2.899c-4.101-3.7-10.7-4-15.9-0.801c-2.8,1.801-6.399,6.5-6.3,8.4c0,0.3,0,8.4,0,18v17.5h-5h-5V477.669z"/>
<path fill="#5A5A5A" d="M115.851,477.669v-26h4.5h4.5v26v26h-4.5h-4.5V477.669z"/>
<path fill="#5A5A5A" d="M139.851,477.669v-26h5c4.9,0,5,0,5,3.2c0,2.899,0.1,3,1.8,1.5c6.101-5.5,18.101-7.3,25.101-3.7
	c4,2,7.8,6.9,8.1,10.5c0.1,1.1,0.2,10.7,0.1,21.3l-0.1,19.2h-4.4h-4.5l-0.3-20.1l-0.3-20.101l-3.3-2.899
	c-6.101-5.5-16.4-3.301-20.3,4.3c-1.7,3.2-1.9,6-1.9,21.3v17.5h-5h-5V477.669z"/>
<path fill="#5A5A5A" d="M300.851,465.669v-38h4.5h4.5v38v38h-4.5h-4.5V465.669z"/>
<path fill="#5A5A5A" d="M119.551,440.769c-1.601-0.3-3.5-1.8-4.4-3.199c-1.399-2.4-1.399-2.801,0.2-5.2c2.4-3.7,7.7-3.8,10.1-0.2
	C128.251,436.469,124.65,441.769,119.551,440.769z"/>
<g>
	<g>
		<path fill="#FFFFFF" d="M64.166,132.944c-1.505-0.492-2.981-1.422-3.557-2.215c-1.258-1.751-1.449-3.01-1.586-10.449l-0.109-7.057
			h1.367h1.396l0.109,6.783c0.055,3.72,0.191,7.139,0.301,7.577c0.301,1.285,1.395,2.734,2.407,3.228
			c1.887,0.875,5.251,0.164,6.072-1.313c0.164-0.301,0.383-0.602,0.492-0.684c0.465-0.383,0.766-3.966,0.766-9.491v-6.1h1.23h1.23
			v7.139c0,6.729-0.026,7.194-0.602,8.534c-1.176,2.79-3.173,4.048-6.646,4.185C65.834,133.136,64.549,133.081,64.166,132.944z"/>
		<path fill="#FFFFFF" d="M105.113,124.165v-8.754h-3.145h-3.146v-1.094v-1.094h7.66h7.658v1.121v1.095l-3.146-0.082l-3.145-0.083
			v8.835v8.808h-1.367h-1.369V124.165z"/>
		<path fill="#FFFFFF" d="M44.365,133.546c-0.027-0.027-0.465-0.137-0.984-0.219c-2.653-0.465-5.498-2.735-6.729-5.388
			c-0.711-1.532-0.793-2.024-0.793-4.459c0.027-2.407,0.109-2.899,0.738-4.103c1.505-2.872,3.747-4.896,6.1-5.498
			c1.888-0.465,2.899-0.656,3.802-0.656c1.477,0,4.239,0.738,5.252,1.45c0.902,0.601,0.93,1.012,0.191,1.859
			c-0.356,0.41-0.492,0.383-1.806-0.273c-1.203-0.603-1.777-0.711-3.61-0.711c-2.653,0.026-3.474,0.219-4.677,1.121
			c-0.931,0.711-2.298,2.38-2.407,2.927c-0.055,0.191-0.191,0.574-0.328,0.875c-0.246,0.575-0.301,4.295-0.082,5.196
			c0.629,2.299,2.051,4.131,4.103,5.226c1.45,0.793,5.443,0.738,7.057-0.11c0.656-0.354,1.203-0.602,1.231-0.547
			c0.027,0.056,0.273,0.41,0.52,0.821c0.438,0.684,0.41,0.738-0.164,1.094c-0.82,0.52-2.079,1.013-3.063,1.203
			C47.894,133.491,44.475,133.655,44.365,133.546z"/>
		<path fill="#FFFFFF" d="M81.301,123.07v-9.847h3.775c3.582,0,3.855,0.027,5.277,0.767c2.08,1.038,2.764,2.27,2.654,4.841
			c-0.082,1.586-0.219,2.105-0.902,3.146c-1.313,1.914-2.764,2.735-5.197,2.927l-2.051,0.164v-0.848c0-0.794,0.081-0.821,1.34-1.013
			c0.711-0.082,1.695-0.41,2.188-0.711c1.148-0.712,2.053-2.735,1.834-4.157c-0.357-2.216-1.697-3.2-4.404-3.2h-1.504v8.889v8.89
			h-1.505h-1.505V123.07z"/>
	</g>
	<g>
		<path fill="#FFFFFF" d="M55.587,53.573c-0.053-5.838,0.051-6.897,0.619-5.968c0.104,0.181,0.078,0.207-0.104,0.104
			c-0.232-0.129-0.311,1.472-0.388,5.968l-0.052,6.15L55.587,53.573z"/>
		<path fill="#FFFFFF" d="M68.04,58.251c-0.465-0.362-0.465-0.388,0.104-0.104c0.311,0.155,0.568,0.335,0.568,0.387
			C68.712,58.741,68.583,58.689,68.04,58.251z"/>
		<path fill="#FFFFFF" d="M66.878,57.45c-0.336-0.413-0.31-0.439,0.103-0.104c0.414,0.335,0.543,0.543,0.337,0.543
			C67.266,57.889,67.06,57.682,66.878,57.45z"/>
		<path fill="#FFFFFF" d="M65.844,56.674c-0.335-0.413-0.31-0.439,0.104-0.104c0.413,0.336,0.542,0.543,0.335,0.543
			C66.232,57.114,66.024,56.907,65.844,56.674z"/>
		<path fill="#FFFFFF" d="M63.131,54.479l-0.491-0.595l0.595,0.491c0.31,0.284,0.568,0.543,0.568,0.595
			C63.803,55.176,63.596,55.02,63.131,54.479z"/>
		<path fill="#FFFFFF" d="M61.581,53.187l-0.491-0.595l0.595,0.491c0.31,0.284,0.568,0.542,0.568,0.593
			C62.253,53.884,62.046,53.729,61.581,53.187z"/>
		<path fill="#FFFFFF" d="M60.159,51.765c-0.336-0.413-0.31-0.439,0.104-0.104c0.231,0.181,0.438,0.388,0.438,0.439
			C60.702,52.308,60.495,52.178,60.159,51.765z"/>
		<path fill="#FFFFFF" d="M58.868,50.474c-0.336-0.414-0.311-0.439,0.103-0.104c0.233,0.181,0.439,0.388,0.439,0.439
			C59.41,51.017,59.204,50.886,58.868,50.474z"/>
		<path fill="#FFFFFF" d="M57.446,49.052l-0.49-0.593l0.594,0.49c0.543,0.466,0.697,0.672,0.49,0.672
			C57.989,49.62,57.731,49.362,57.446,49.052z"/>
		<path fill="#FFFFFF" d="M63.234,48.872c-2.3-0.62-4.237-1.576-6.925-3.333c-2.816-1.886-2.766-1.834-5.529-4.521
			c-2.145-2.093-2.273-2.558-0.258-1.059c1.472,1.136,5.399,2.894,7.983,3.591c2.3,0.646,2.868,0.698,5.427,0.569
			c2.972-0.155,4.831-0.595,9.173-2.249c7.234-2.739,11.059-3.385,16.563-2.868c4.573,0.413,8.914,1.705,13.409,3.927
			c2.119,1.06,8.863,5.168,8.708,5.297c-0.052,0.078-1.034-0.336-2.145-0.904c-6.873-3.41-14.935-5.116-20.826-4.418
			c-3.307,0.388-5.968,1.24-11.032,3.539C71.658,49.207,67.239,49.956,63.234,48.872z"/>
		<path fill="#FFFFFF" d="M90.546,35.952c-0.361-0.335-6.227-3.256-7.493-3.721c-0.568-0.207-2.196-0.801-3.616-1.318
			c-7.003-2.583-13.928-3.514-20.026-2.738c-3.308,0.439-8.397,2.042-14.728,4.651c-4.703,1.937-9.742,3.1-13.41,3.1
			c-3.334,0-6.59-1.007-10.879-3.385c-1.42-0.8-4.004-2.687-5.891-4.314c-3.075-2.688-7.752-7.7-7.441-8.01
			c0.077-0.052,0.748,0.413,1.498,1.033c3.334,2.817,6.925,4.807,11.576,6.435c2.402,0.852,2.531,0.852,6.718,0.852
			c4.729-0.025,6.071-0.284,14.082-2.815c11.886-3.748,20.904-3.85,30.878-0.362c3.927,1.37,13.617,6.46,15.528,8.14
			c0.207,0.206,0.466,0.361,0.544,0.361c0.206,0,3.306,2.093,3.306,2.222C91.191,36.262,90.779,36.185,90.546,35.952z"/>
		<path fill="#FFFFFF" d="M91.425,31.869c-0.233-0.284-0.259-0.361-0.052-0.232c0.258,0.129,0.336-1.499,0.414-7.519l0.051-7.699
			l0.078,7.958c0.025,4.366,0,7.932-0.054,7.932C91.813,32.309,91.605,32.103,91.425,31.869z"/>
		<path fill="#FFFFFF" d="M89.615,29.802l-0.879-0.981l0.982,0.877c0.518,0.491,0.957,0.93,0.957,0.982
			C90.676,30.888,90.469,30.681,89.615,29.802z"/>
		<path fill="#FFFFFF" d="M86.515,27.219c-0.336-0.439-0.336-0.439,0.155-0.078c0.284,0.207,0.569,0.414,0.621,0.439
			c0.051,0.052,0,0.078-0.156,0.078C86.98,27.658,86.696,27.451,86.515,27.219z"/>
		<path fill="#FFFFFF" d="M85.353,26.469c-0.466-0.361-0.466-0.388,0.104-0.104c0.311,0.155,0.567,0.337,0.567,0.388
			C86.023,26.96,85.896,26.908,85.353,26.469z"/>
		<path fill="#FFFFFF" d="M65.302,18.95c1.188-0.052,3.049-0.052,4.134,0c1.085,0.025,0.13,0.078-2.144,0.078
			C65.018,19.028,64.113,18.975,65.302,18.95z"/>
		<path fill="#FFFFFF" d="M75.637,18.691c0.155-0.05,0.465-0.05,0.646,0c0.155,0.079,0.026,0.13-0.336,0.13
			C75.586,18.821,75.456,18.77,75.637,18.691z"/>
		<path fill="#FFFFFF" d="M78.996,18.434c0.182-0.078,0.414-0.052,0.491,0.025c0.104,0.078-0.051,0.155-0.336,0.13
			C78.867,18.589,78.79,18.511,78.996,18.434z"/>
		<path fill="#FFFFFF" d="M81.322,18.175c0.181-0.077,0.413-0.052,0.49,0.026c0.104,0.077-0.052,0.154-0.335,0.129
			C81.193,18.33,81.115,18.253,81.322,18.175z"/>
		<path fill="#FFFFFF" d="M90.624,16.624c0.181-0.077,0.413-0.052,0.491,0.027c0.103,0.077-0.053,0.155-0.336,0.129
			C90.494,16.78,90.417,16.703,90.624,16.624z"/>
		<path fill="#FFFFFF" d="M89.513,98.947c-7.106-2.688-14.47-6.822-18.655-10.465c-0.853-0.775-1.629-1.396-1.705-1.396
			c-0.078,0-0.775-0.67-1.552-1.471c-0.748-0.828-1.834-1.965-2.351-2.533c-0.543-0.568-1.24-1.447-1.576-1.938
			c-0.336-0.492-0.802-1.139-1.06-1.447c-1.576-1.73-5.168-9.612-5.685-12.455c-0.077-0.362-0.31-1.343-0.517-2.222
			c-0.311-1.163-0.439-3.488-0.543-8.941c-0.078-4.057-0.104-7.647-0.052-7.983c0.104-0.543,0.336-0.361,2.429,1.783
			c1.293,1.318,3.153,3.075,4.135,3.928c1.008,0.827,2.223,1.886,2.713,2.299c2.48,2.119,6.641,4.521,9.38,5.427
			c2.248,0.749,7.184,0.929,10.646,0.388c3.591-0.569,3.85-0.621,5.297-1.189l1.292-0.516V79.98c0,10.879-0.025,19.768-0.052,19.742
			C91.605,99.723,90.65,99.359,89.513,98.947z"/>
		<path fill="#FFFFFF" d="M90.158,30.293c-2.584-2.713-4.521-4.057-8.372-5.892c-2.79-1.318-7.312-2.842-9.973-3.358
			c-0.362-0.078-1.293-0.286-2.067-0.491c-1.317-0.336-2.196-0.491-4.264-0.8c-0.414-0.052-1.653-0.286-2.713-0.466l-1.938-0.361
			l3.618,0.129c3.669,0.155,12.661-0.232,16.33-0.698c1.111-0.154,2.532-0.31,3.179-0.388c0.646-0.052,1.446-0.181,1.809-0.232
			c0.361-0.077,1.473-0.31,2.455-0.517c1.007-0.207,2.195-0.439,2.66-0.516l0.827-0.13v7.597c0,4.186-0.025,7.623-0.052,7.623
			C91.605,31.792,90.934,31.12,90.158,30.293z"/>
	</g>
</g>
</svg>
