<?xml version="1.0" encoding="utf-8"?>
<!-- Generator: Adobe Illustrator 16.0.0, SVG Export Plug-In . SVG Version: 6.00 Build 0)  -->
<!DOCTYPE svg PUBLIC "-//W3C//DTD SVG 1.1//EN" "http://www.w3.org/Graphics/SVG/1.1/DTD/svg11.dtd">
<svg version="1.1" id="Layer_1" xmlns="http://www.w3.org/2000/svg" xmlns:xlink="http://www.w3.org/1999/xlink" x="0px" y="0px"
	 width="150px" height="150px" viewBox="0 0 150 150" enable-background="new 0 0 150 150" xml:space="preserve">
<path fill="#FFFFFF" d="M130.898,22.972c-0.418-0.19-0.491-0.381-0.188-0.723c0.569-0.685,0.304-0.799-4.033-1.674
	c-8.868-1.788-24.317-2.131-24.317-0.532c0,0.229-0.074,0.532-0.19,0.646c-0.112,0.076-2.7,0.457-5.78,0.761
	c-11.113,1.18-23.214,3.349-30.938,5.518c-6.887,1.941-10.16,3.12-19.674,7.041c-9.095,3.728-11.797,5.06-17.999,8.79
	c-4.719,2.816-6.507,3.615-8.068,3.615c-1.293,0-1.446,0.875-0.494,2.817c0.836,1.75,3.159,3.805,6.202,5.479
	c1.904,1.027,2.626,1.066,3.463,0.114c0.107-0.118,0.188-0.215,0.258-0.302c2.117,1.64,3.571,2.547,4.042,2.547
	c0.38,0,0.989,0.267,1.408,0.571c0.646,0.494,0.913,0.341,2.93-1.446c0.899-0.826,1.497-1.48,1.741-1.891
	c0.106,0.063,0.213,0.102,0.314,0.102c0.304,0,0.57,0.229,0.57,0.533s0.381,0.837,0.876,1.179c0.457,0.305,0.798,0.723,0.723,0.875
	c-0.038,0.152,0.305,0.343,0.762,0.381c0.494,0.076,1.104,0.304,1.332,0.533c0.266,0.227,0.723,0.304,1.065,0.188
	c0.305-0.15,0.646-0.035,0.799,0.192c0.152,0.229,0.571,0,1.066-0.571c0.418-0.533,1.18-1.141,1.674-1.37
	c0.156-0.083,0.287-0.182,0.398-0.295c0.074,0.236,0.168,0.481,0.287,0.751c0.723,1.599,2.169,2.931,3.196,2.931
	c0.342,0,0.952,0.344,1.332,0.762c0.875,0.951,1.028,0.951,3.577-0.23c2.797-1.28,3.655-1.661,3.955-2.197
	c0.467,1.234,1.195,2.767,1.868,3.836c0.761,1.255,1.561,1.597,2.017,0.875c0.152-0.228,1.294-0.916,2.55-1.56
	c7.42-3.769,20.854-7.498,36.075-10.047c3.232-0.571,6.051-1.18,6.277-1.37c0.19-0.19,0.57-0.343,0.838-0.343
	c0.305,0,1.027-0.38,1.637-0.836c0.875-0.61,1.027-0.953,0.724-1.334c-0.306-0.341-0.306-0.646,0-1.027
	c0.397-0.474,0.384-0.703-0.534-0.944c0.275-0.087,0.381-0.223,0.381-0.426c0-0.38-0.684-0.685-2.093-0.988
	c-1.56-0.343-1.788-0.458-0.95-0.495c0.646-0.038,1.484-0.304,1.864-0.609c0.456-0.342,1.597-0.571,2.931-0.571
	c1.217,0,2.322-0.152,2.436-0.38c0.113-0.19,0.798-0.38,1.521-0.38c1.371,0,2.131-0.609,1.18-0.99
	c-0.305-0.115-0.494-0.533-0.417-0.951c0.188-0.915-0.154-1.104-2.778-1.523c-1.229-0.194-2.538-0.338-3.834-0.434
	c2.288-0.171,2.385-0.328,2.463-0.822c0.113-0.761,0.874-1.75,1.219-1.636c0.152,0.038,0.303-0.077,0.381-0.305
	c0.037-0.19-0.115-0.38-0.381-0.38c-0.686,0-0.838-0.952-0.154-0.989c1.107-0.115,1.297-0.153,1.562-0.42
	c0.154-0.151,0.649-0.114,1.029,0.115c0.53,0.305,0.875,0.305,1.18,0c0.609-0.609-1.864-1.522-3.616-1.293
	c-0.797,0.114-1.636,0.038-1.902-0.152c-0.303-0.229-1.293-0.305-2.473-0.153c-1.252,0.188-1.834,0.169-2.088-0.055
	c0.063-0.033,0.122-0.063,0.186-0.097c1.104-0.571,2.474-0.952,3.424-0.952c0.875,0,2.283-0.19,3.12-0.381
	c0.84-0.227,2.399-0.456,3.503-0.57c3.386-0.38,5.136-0.76,5.063-1.141c-0.039-0.19,0.34-0.495,0.797-0.647
	c1.522-0.571,0.268-1.028-4.793-1.827c-0.973-0.149-1.984-0.276-3.021-0.382c1.255-0.182,2.863-0.449,4.732-0.798
	c1.143-0.19,2.588-0.38,3.194-0.38c0.61,0,1.332-0.152,1.599-0.381c0.268-0.229,1.065-0.266,1.789-0.152
	C131.052,24.037,132.04,23.391,130.898,22.972z M105.822,48.926c-0.838,0.532-1.254,0.571-2.739,0.19
	c-2.931-0.763-5.022-2.894-6.013-6.241c-0.19-0.647-0.305-0.647-1.713,0.114c-0.836,0.418-1.599,0.914-1.75,1.141
	c-0.114,0.19-0.914,0.38-1.711,0.38c-1.783,0-2.371-0.661-3.393-4.091c-0.102-0.009-0.246-0.005-0.436,0.009
	c0.139-0.104,0.248-0.216,0.34-0.332c-0.773-2.508-0.788-2.51-1.954-2.322c-0.687,0.114-3.198,0.571-5.634,0.989
	s-7.116,0.952-10.463,1.217l-6.013,0.42l-2.209,2.333c-0.229,0.332-0.603,0.768-1.064,1.206c-0.206,0.203-0.414,0.379-0.623,0.543
	c-1.433,1.427-1.816,1.537-2.65,1.32c-1.293-0.304-2.853-1.331-4.642-2.968l-1.294-1.179l-0.608,0.951
	c-2.208,3.31-5.975,7.915-7.002,8.638c-0.263,0.175-0.542,0.322-0.828,0.454c-0.329,0.219-0.628,0.327-1.01,0.375
	c-1.089,0.293-2.302,0.321-3.604,0.085c-1.903-0.343-3.311-1.104-3.121-1.674c0.076-0.228,1.066-0.723,2.246-1.104
	c2.93-0.989,4.68-2.665,7.345-6.964c3.958-6.431,5.479-7.116,9.133-4.111c2.74,2.207,3.462,2.055,5.708-1.217l1.521-2.283
	l7.23-0.229c7.878-0.266,13.586-1.026,17.085-2.207c3.236-1.142,3.844-0.647,5.557,4.643c0.457,1.408,0.875,2.549,0.952,2.549
	c0.038,0,0.875-0.457,1.865-0.989c1.255-0.723,2.056-0.913,2.853-0.723c0.836,0.18,1.363,0.474,1.996,1.369
	c0.047,0.015,0.094,0.032,0.143,0.044c-0.016,0.024-0.034,0.046-0.047,0.07c0,0.005,0,0.013,0,0.018
	c0.408,0.608,0.869,1.474,1.486,2.723c1.561,3.082,1.941,3.462,4.147,4.146C106.926,46.793,107.309,47.935,105.822,48.926z"/>
<g enable-background="new    ">
	<path fill="#FFFFFF" d="M31.508,87.133c-0.285,0.136-0.841,0.24-1.532,0.24c-2.583,0-3.813-2.132-3.813-5
		c0-3.813,2.117-5.3,4.084-5.3c0.69,0,1.171,0.135,1.366,0.271l-0.331,1.651c-0.225-0.105-0.48-0.195-0.916-0.195
		c-1.111,0-2.117,0.961-2.117,3.469c0,2.417,0.916,3.363,2.117,3.363c0.33,0,0.706-0.075,0.946-0.15L31.508,87.133z"/>
	<path fill="#FFFFFF" d="M34.558,77.163v10.12H32.59v-10.12H34.558z"/>
	<path fill="#FFFFFF" d="M37.411,78.98h-1.787v-1.817h5.555v1.817h-1.802v8.303h-1.967V78.98z"/>
	<path fill="#FFFFFF" d="M43.853,87.283v-3.874l-2.222-6.246h2.102l0.69,2.418c0.18,0.646,0.375,1.396,0.525,2.146h0.03
		c0.12-0.735,0.285-1.472,0.465-2.192l0.601-2.372h2.042l-2.267,6.171v3.949H43.853z"/>
	<path fill="#FFFFFF" d="M57.127,82.043c0,3.813-1.352,5.36-3.273,5.36c-2.297,0-3.198-2.433-3.198-5.21
		c0-2.763,1.096-5.15,3.333-5.15C56.437,77.043,57.127,79.73,57.127,82.043z M52.698,82.224c0,2.297,0.436,3.468,1.231,3.468
		c0.826,0,1.142-1.501,1.142-3.559c0-1.771-0.271-3.378-1.156-3.378C53.133,78.755,52.698,80.046,52.698,82.224z"/>
	<path fill="#FFFFFF" d="M58.375,77.163h4.399v1.712h-2.433v2.598h2.282v1.637h-2.282v4.174h-1.967V77.163z"/>
	<path fill="#FFFFFF" d="M71.5,87.133c-0.285,0.136-0.841,0.24-1.531,0.24c-2.583,0-3.814-2.132-3.814-5
		c0-3.813,2.117-5.3,4.084-5.3c0.691,0,1.172,0.135,1.366,0.271l-0.33,1.651c-0.225-0.105-0.48-0.195-0.916-0.195
		c-1.11,0-2.117,0.961-2.117,3.469c0,2.417,0.916,3.363,2.117,3.363c0.331,0,0.706-0.075,0.946-0.15L71.5,87.133z"/>
	<path fill="#FFFFFF" d="M74.429,84.971l-0.45,2.313h-1.907l2.192-10.12h2.357l1.968,10.12h-1.907l-0.436-2.313H74.429z
		 M76.066,83.439l-0.332-2.117c-0.104-0.615-0.24-1.621-0.33-2.297H75.36c-0.105,0.676-0.255,1.727-0.36,2.313l-0.375,2.102H76.066z
		"/>
	<path fill="#FFFFFF" d="M79.7,77.313c0.557-0.12,1.307-0.195,2.057-0.195c1.172,0,2.088,0.165,2.748,0.781
		c0.602,0.525,0.871,1.366,0.871,2.222c0,1.096-0.33,1.862-0.855,2.433c-0.631,0.66-1.652,0.961-2.463,0.961
		c-0.135,0-0.27,0-0.391,0v3.769H79.7V77.313z M81.667,81.908c0.09,0.029,0.195,0.029,0.316,0.029c0.99,0,1.441-0.705,1.441-1.651
		c0-0.886-0.361-1.576-1.277-1.576c-0.18,0-0.359,0.03-0.48,0.075V81.908z"/>
	<path fill="#FFFFFF" d="M90.843,82.839H88.53v2.732h2.611v1.712h-4.578v-10.12h4.398v1.712H88.53v2.327h2.313V82.839z"/>
	<path fill="#FFFFFF" d="M95.8,78.98h-1.787v-1.817h5.555v1.817h-1.801v8.303H95.8V78.98z"/>
	<path fill="#FFFFFF" d="M106.386,82.043c0,3.813-1.352,5.36-3.273,5.36c-2.297,0-3.199-2.433-3.199-5.21
		c0-2.763,1.098-5.15,3.334-5.15C105.694,77.043,106.386,79.73,106.386,82.043z M101.956,82.224c0,2.297,0.436,3.468,1.23,3.468
		c0.826,0,1.143-1.501,1.143-3.559c0-1.771-0.271-3.378-1.156-3.378C102.392,78.755,101.956,80.046,101.956,82.224z"/>
	<path fill="#FFFFFF" d="M108.685,87.283l-1.727-10.12h2.041l0.496,4.039c0.135,1.156,0.225,2.313,0.346,3.544h0.045
		c0.135-1.246,0.359-2.343,0.57-3.559l0.721-4.024h1.592l0.676,3.994c0.18,1.142,0.359,2.268,0.48,3.589h0.029
		c0.135-1.321,0.256-2.402,0.391-3.574l0.496-4.009h1.922l-1.787,10.12h-2.027l-0.6-3.318c-0.166-0.931-0.316-2.087-0.451-3.318
		h-0.029c-0.182,1.217-0.346,2.343-0.557,3.334l-0.676,3.303H108.685z"/>
	<path fill="#FFFFFF" d="M117.831,87.283v-10.12h1.801l1.563,3.964c0.299,0.781,0.795,2.087,1.08,2.958h0.031
		c-0.061-1.065-0.195-2.822-0.195-4.685v-2.237h1.727v10.12h-1.803l-1.547-3.844c-0.33-0.855-0.795-2.132-1.02-3.048h-0.031
		c0.045,1.021,0.121,2.582,0.121,4.609v2.282H117.831z"/>
</g>
<g enable-background="new    ">
	<path fill="#FFFFFF" d="M30.849,100.942v10.12h-1.967v-10.12H30.849z"/>
	<path fill="#FFFFFF" d="M32.38,109.051c0.406,0.225,1.097,0.391,1.667,0.391c0.931,0,1.382-0.48,1.382-1.142
		c0-0.735-0.451-1.096-1.307-1.651c-1.382-0.841-1.907-1.907-1.907-2.823c0-1.621,1.081-2.973,3.198-2.973
		c0.661,0,1.291,0.181,1.592,0.36l-0.315,1.696c-0.285-0.18-0.721-0.345-1.291-0.345c-0.841,0-1.246,0.51-1.246,1.051
		c0,0.601,0.3,0.916,1.396,1.576c1.336,0.812,1.831,1.832,1.831,2.898c0,1.847-1.366,3.063-3.348,3.063
		c-0.812,0-1.606-0.21-1.938-0.405L32.38,109.051z"/>
	<path fill="#FFFFFF" d="M40.489,100.942v10.12h-1.967v-10.12H40.489z"/>
	<path fill="#FFFFFF" d="M45.52,111.063l-0.646-1.861c-0.195-0.586-0.36-1.156-0.54-1.803h-0.03c-0.165,0.646-0.33,1.262-0.48,1.832
		l-0.541,1.832h-1.951l1.892-5.18l-1.816-4.94h2.057l0.586,1.877c0.165,0.525,0.3,1.051,0.465,1.622h0.03
		c0.165-0.616,0.285-1.097,0.42-1.652l0.511-1.847h1.967l-1.892,5.03l1.997,5.09H45.52z"/>
	<path fill="#FFFFFF" d="M52.638,106.618h-2.312v2.732h2.612v1.712h-4.579v-10.12h4.398v1.712h-2.432v2.327h2.312V106.618z"/>
	<path fill="#FFFFFF" d="M54.276,100.942h1.967v4.55h0.03c0.165-0.421,0.33-0.871,0.495-1.307l1.352-3.243h2.162l-2.268,4.399
		l2.297,5.721h-2.146l-1.472-4.189l-0.45,0.826v3.363h-1.967V100.942z"/>
	<path fill="#FFFFFF" d="M66.95,105.822c0,3.813-1.352,5.36-3.273,5.36c-2.297,0-3.198-2.433-3.198-5.21
		c0-2.763,1.097-5.15,3.334-5.15C66.26,100.822,66.95,103.51,66.95,105.822z M62.521,106.003c0,2.297,0.436,3.468,1.231,3.468
		c0.826,0,1.142-1.501,1.142-3.559c0-1.771-0.271-3.378-1.156-3.378C62.956,102.534,62.521,103.825,62.521,106.003z"/>
	<path fill="#FFFFFF" d="M70.36,109.051c0.405,0.225,1.096,0.391,1.667,0.391c0.931,0,1.381-0.48,1.381-1.142
		c0-0.735-0.45-1.096-1.306-1.651c-1.382-0.841-1.907-1.907-1.907-2.823c0-1.621,1.081-2.973,3.198-2.973
		c0.66,0,1.291,0.181,1.592,0.36l-0.315,1.696c-0.285-0.18-0.721-0.345-1.292-0.345c-0.84,0-1.246,0.51-1.246,1.051
		c0,0.601,0.301,0.916,1.396,1.576c1.337,0.812,1.832,1.832,1.832,2.898c0,1.847-1.366,3.063-3.349,3.063
		c-0.811,0-1.606-0.21-1.937-0.405L70.36,109.051z"/>
	<path fill="#FFFFFF" d="M78.109,108.75l-0.45,2.313h-1.907l2.192-10.12h2.357l1.967,10.12H80.36l-0.435-2.313H78.109z
		 M79.746,107.219l-0.331-2.117c-0.104-0.615-0.24-1.621-0.33-2.297H79.04c-0.105,0.676-0.255,1.727-0.36,2.313l-0.375,2.102H79.746
		z"/>
	<path fill="#FFFFFF" d="M83.155,109.051c0.404,0.225,1.096,0.391,1.666,0.391c0.932,0,1.381-0.48,1.381-1.142
		c0-0.735-0.449-1.096-1.305-1.651c-1.383-0.841-1.908-1.907-1.908-2.823c0-1.621,1.082-2.973,3.199-2.973
		c0.66,0,1.291,0.181,1.592,0.36l-0.316,1.696c-0.285-0.18-0.721-0.345-1.291-0.345c-0.84,0-1.246,0.51-1.246,1.051
		c0,0.601,0.301,0.916,1.396,1.576c1.336,0.812,1.832,1.832,1.832,2.898c0,1.847-1.367,3.063-3.35,3.063
		c-0.811,0-1.605-0.21-1.936-0.405L83.155,109.051z"/>
	<path fill="#FFFFFF" d="M93.577,106.618h-2.313v2.732h2.611v1.712h-4.578v-10.12h4.398v1.712h-2.432v2.327h2.313V106.618z"/>
	<path fill="#FFFFFF" d="M95.214,100.942h1.967v4.55h0.031c0.164-0.421,0.33-0.871,0.494-1.307l1.352-3.243h2.162l-2.268,4.399
		l2.299,5.721h-2.148l-1.471-4.189l-0.451,0.826v3.363h-1.967V100.942z"/>
	<path fill="#FFFFFF" d="M103.849,108.75l-0.449,2.313h-1.908l2.193-10.12h2.357l1.967,10.12h-1.908l-0.436-2.313H103.849z
		 M105.485,107.219l-0.33-2.117c-0.105-0.615-0.24-1.621-0.33-2.297h-0.045c-0.105,0.676-0.256,1.727-0.361,2.313l-0.375,2.102
		H105.485z"/>
	<path fill="#FFFFFF" d="M109.12,101.093c0.557-0.12,1.307-0.195,2.057-0.195c1.172,0,2.088,0.165,2.748,0.781
		c0.602,0.525,0.871,1.366,0.871,2.222c0,1.096-0.33,1.862-0.855,2.433c-0.631,0.66-1.652,0.961-2.463,0.961
		c-0.135,0-0.27,0-0.391,0v3.769h-1.967V101.093z M111.087,105.688c0.09,0.029,0.195,0.029,0.316,0.029
		c0.99,0,1.441-0.705,1.441-1.651c0-0.886-0.361-1.576-1.277-1.576c-0.18,0-0.359,0.03-0.48,0.075V105.688z"/>
	<path fill="#FFFFFF" d="M116.96,108.75l-0.451,2.313h-1.906l2.191-10.12h2.357l1.967,10.12h-1.906l-0.436-2.313H116.96z
		 M118.597,107.219l-0.33-2.117c-0.105-0.615-0.24-1.621-0.332-2.297h-0.045c-0.104,0.676-0.254,1.727-0.359,2.313l-0.375,2.102
		H118.597z"/>
</g>
<g enable-background="new    ">
	<path fill="#FFFFFF" d="M28.084,123.537h-1.796v-0.648h4.371v0.648h-1.805v5.255h-0.771V123.537z"/>
	<path fill="#FFFFFF" d="M32.079,122.889v2.47h2.854v-2.47h0.771v5.903h-0.771v-2.768h-2.854v2.768h-0.763v-5.903H32.079z"/>
	<path fill="#FFFFFF" d="M37.791,122.889v5.903h-0.763v-5.903H37.791z"/>
	<path fill="#FFFFFF" d="M39.017,127.863c0.342,0.211,0.841,0.386,1.366,0.386c0.78,0,1.235-0.412,1.235-1.007
		c0-0.552-0.315-0.867-1.112-1.174c-0.964-0.342-1.56-0.841-1.56-1.673c0-0.92,0.763-1.604,1.91-1.604
		c0.604,0,1.042,0.141,1.305,0.289l-0.21,0.622c-0.193-0.104-0.587-0.28-1.121-0.28c-0.806,0-1.112,0.481-1.112,0.885
		c0,0.552,0.358,0.823,1.174,1.139c0.998,0.386,1.506,0.867,1.506,1.734c0,0.91-0.674,1.699-2.066,1.699
		c-0.569,0-1.191-0.167-1.507-0.377L39.017,127.863z"/>
	<path fill="#FFFFFF" d="M49.424,128.6c-0.28,0.14-0.841,0.28-1.56,0.28c-1.664,0-2.916-1.052-2.916-2.987
		c0-1.848,1.252-3.101,3.083-3.101c0.735,0,1.199,0.158,1.401,0.263l-0.185,0.622c-0.289-0.14-0.7-0.245-1.19-0.245
		c-1.385,0-2.304,0.885-2.304,2.435c0,1.445,0.832,2.374,2.269,2.374c0.464,0,0.937-0.097,1.243-0.245L49.424,128.6z"/>
	<path fill="#FFFFFF" d="M51.142,122.889v5.903h-0.763v-5.903H51.142z"/>
	<path fill="#FFFFFF" d="M53.594,123.537h-1.796v-0.648h4.37v0.648h-1.804v5.255h-0.771V123.537z"/>
	<path fill="#FFFFFF" d="M58.386,128.792v-2.505l-1.865-3.398h0.866l0.833,1.629c0.228,0.447,0.402,0.806,0.586,1.218h0.018
		c0.167-0.386,0.368-0.771,0.596-1.218l0.85-1.629h0.867l-1.979,3.39v2.514H58.386z"/>
	<path fill="#FFFFFF" d="M64.316,128.792l-1.497-5.903h0.806l0.7,2.986c0.176,0.736,0.333,1.472,0.438,2.041h0.018
		c0.096-0.587,0.28-1.287,0.481-2.05l0.788-2.978h0.797l0.719,2.995c0.166,0.701,0.323,1.401,0.411,2.023h0.018
		c0.123-0.648,0.289-1.305,0.473-2.041l0.78-2.978h0.779l-1.673,5.903h-0.797l-0.745-3.074c-0.184-0.753-0.307-1.331-0.385-1.927
		H66.41c-0.105,0.587-0.236,1.165-0.456,1.927l-0.841,3.074H64.316z"/>
	<path fill="#FFFFFF" d="M75.81,125.779c0,2.032-1.235,3.109-2.742,3.109c-1.559,0-2.653-1.209-2.653-2.996
		c0-1.874,1.165-3.101,2.741-3.101C74.767,122.792,75.81,124.027,75.81,125.779z M71.229,125.875c0,1.262,0.684,2.392,1.883,2.392
		c1.209,0,1.893-1.112,1.893-2.452c0-1.174-0.613-2.4-1.884-2.4C71.859,123.414,71.229,124.579,71.229,125.875z"/>
	<path fill="#FFFFFF" d="M76.801,122.968c0.385-0.079,0.937-0.123,1.462-0.123c0.816,0,1.342,0.149,1.709,0.482
		c0.297,0.263,0.465,0.665,0.465,1.121c0,0.779-0.492,1.296-1.113,1.506v0.026c0.455,0.157,0.727,0.578,0.867,1.191
		c0.193,0.823,0.332,1.393,0.455,1.62h-0.787c-0.098-0.166-0.229-0.675-0.395-1.41c-0.176-0.814-0.49-1.121-1.184-1.147h-0.718
		v2.558h-0.762V122.968z M77.563,125.656h0.779c0.815,0,1.331-0.446,1.331-1.121c0-0.762-0.551-1.095-1.357-1.104
		c-0.367,0-0.631,0.035-0.753,0.07V125.656z"/>
	<path fill="#FFFFFF" d="M81.515,122.889h0.762v2.847h0.025c0.158-0.228,0.316-0.438,0.465-0.631l1.805-2.216h0.945l-2.137,2.505
		l2.303,3.398H84.78l-1.943-2.899l-0.561,0.648v2.251h-0.762V122.889z"/>
	<path fill="#FFFFFF" d="M86.157,127.863c0.342,0.211,0.84,0.386,1.365,0.386c0.779,0,1.236-0.412,1.236-1.007
		c0-0.552-0.316-0.867-1.113-1.174c-0.963-0.342-1.559-0.841-1.559-1.673c0-0.92,0.762-1.604,1.908-1.604
		c0.605,0,1.043,0.141,1.307,0.289l-0.211,0.622c-0.193-0.104-0.586-0.28-1.121-0.28c-0.807,0-1.111,0.481-1.111,0.885
		c0,0.552,0.357,0.823,1.172,1.139c1,0.386,1.508,0.867,1.508,1.734c0,0.91-0.676,1.699-2.068,1.699
		c-0.568,0-1.189-0.167-1.506-0.377L86.157,127.863z"/>
	<path fill="#FFFFFF" d="M92.438,122.889h3.178v0.64H93.2v1.962h2.232v0.631H93.2v2.671h-0.762V122.889z"/>
	<path fill="#FFFFFF" d="M101.749,125.779c0,2.032-1.234,3.109-2.742,3.109c-1.559,0-2.652-1.209-2.652-2.996
		c0-1.874,1.164-3.101,2.74-3.101C100.706,122.792,101.749,124.027,101.749,125.779z M97.169,125.875
		c0,1.262,0.684,2.392,1.883,2.392c1.209,0,1.893-1.112,1.893-2.452c0-1.174-0.613-2.4-1.885-2.4
		C97.8,123.414,97.169,124.579,97.169,125.875z"/>
	<path fill="#FFFFFF" d="M102.741,122.968c0.385-0.079,0.936-0.123,1.461-0.123c0.816,0,1.342,0.149,1.709,0.482
		c0.297,0.263,0.465,0.665,0.465,1.121c0,0.779-0.492,1.296-1.113,1.506v0.026c0.455,0.157,0.727,0.578,0.867,1.191
		c0.193,0.823,0.332,1.393,0.455,1.62h-0.787c-0.098-0.166-0.229-0.675-0.395-1.41c-0.176-0.814-0.49-1.121-1.184-1.147h-0.717
		v2.558h-0.762V122.968z M103.503,125.656h0.779c0.814,0,1.33-0.446,1.33-1.121c0-0.762-0.551-1.095-1.357-1.104
		c-0.367,0-0.631,0.035-0.752,0.07V125.656z"/>
	<path fill="#FFFFFF" d="M110.222,128.792v-2.505l-1.865-3.398h0.867l0.832,1.629c0.227,0.447,0.402,0.806,0.586,1.218h0.018
		c0.166-0.386,0.367-0.771,0.596-1.218l0.85-1.629h0.867l-1.98,3.39v2.514H110.222z"/>
	<path fill="#FFFFFF" d="M118.376,125.779c0,2.032-1.234,3.109-2.742,3.109c-1.559,0-2.652-1.209-2.652-2.996
		c0-1.874,1.164-3.101,2.74-3.101C117.333,122.792,118.376,124.027,118.376,125.779z M113.796,125.875
		c0,1.262,0.684,2.392,1.883,2.392c1.209,0,1.893-1.112,1.893-2.452c0-1.174-0.613-2.4-1.885-2.4
		C114.427,123.414,113.796,124.579,113.796,125.875z"/>
	<path fill="#FFFFFF" d="M120.13,122.889v3.495c0,1.322,0.586,1.883,1.375,1.883c0.875,0,1.436-0.578,1.436-1.883v-3.495h0.771
		v3.442c0,1.813-0.955,2.558-2.234,2.558c-1.209,0-2.119-0.692-2.119-2.522v-3.478H120.13z"/>
</g>
<rect x="23.043" y="93.875" fill="#FFFFFF" width="103.914" height="1"/>
</svg>
