<?xml version="1.0" encoding="utf-8"?>
<!-- Generator: Adobe Illustrator 16.0.0, SVG Export Plug-In . SVG Version: 6.00 Build 0)  -->
<!DOCTYPE svg PUBLIC "-//W3C//DTD SVG 1.0//EN" "http://www.w3.org/TR/2001/REC-SVG-20010904/DTD/svg10.dtd">
<svg version="1.0" id="Layer_1" xmlns="http://www.w3.org/2000/svg" xmlns:xlink="http://www.w3.org/1999/xlink" x="0px" y="0px"
	 width="150px" height="150px" viewBox="0 0 150 150" enable-background="new 0 0 150 150" xml:space="preserve">
<g>
	<path fill="#FFFFFF" d="M51.08,73.705c-2.257,0-4.107,1.85-4.107,4.514v0.074c0,2.664,1.85,4.551,4.107,4.551
		c2.257,0,4.071-1.887,4.071-4.551v-0.074C55.151,75.592,53.337,73.705,51.08,73.705z"/>
	<path fill="#FFFFFF" d="M27.548,27.549v94.902h94.904V27.549H27.548z M62.07,88.283h-7.03v-2.664
		c-1.369,1.666-3.108,3.109-6.105,3.109c-4.736,0-8.844-3.959-8.844-10.361v-0.074c0-6.512,4.07-10.472,8.807-10.472
		c3.034,0,4.811,1.369,6.143,2.886v-9.436h7.03V88.283z M85.676,88.283h-7.029V77.441c0-2.182-1.148-3.367-2.813-3.367
		c-1.703,0-2.96,1.185-2.96,3.367v10.842h-7.031V61.272h7.031v9.731c1.295-1.665,3.144-3.182,5.994-3.182
		c4.256,0,6.809,2.812,6.809,7.364V88.283z M102.176,88.283l-4.033-6.809l-1.813,2.109v4.699h-7.031V61.272h7.031v13.69l5.439-6.697
		h7.955l-6.955,8.03l7.141,11.988H102.176z"/>
</g>
</svg>
