<?xml version="1.0" encoding="utf-8"?>
<!-- Generator: Adobe Illustrator 16.0.0, SVG Export Plug-In . SVG Version: 6.00 Build 0)  -->
<!DOCTYPE svg PUBLIC "-//W3C//DTD SVG 1.0//EN" "http://www.w3.org/TR/2001/REC-SVG-20010904/DTD/svg10.dtd">
<svg version="1.0" id="Layer_1" xmlns="http://www.w3.org/2000/svg" xmlns:xlink="http://www.w3.org/1999/xlink" x="0px" y="0px"
	 width="150px" height="150px" viewBox="0 0 150 150" enable-background="new 0 0 150 150" xml:space="preserve">
<g id="layer1">
	<path fill="#FFFFFF" d="M13.762,107.583V97.184h3.374c2.403,0,3.42,0.186,3.467,0.601c0,0.278,0.786,2.635,1.71,5.177
		s1.802,5.039,1.941,5.547c0.555,2.265,0.647,2.356,1.294,1.155c0.369-0.647,0.647-1.525,0.693-1.941
		c0-0.463,0.277-1.479,0.646-2.312c0.37-0.831,1.109-3.05,1.664-4.853l1.063-3.374h3.143h3.188v10.399v10.399h-2.08h-2.033
		l-0.139-7.025l-0.139-7.071l-1.479,4.391c-0.786,2.403-1.895,5.592-2.45,7.071c-0.97,2.588-1.017,2.635-2.772,2.635
		c-1.664,0-1.756-0.093-2.496-2.173c-0.462-1.248-0.971-2.818-1.202-3.604c-0.508-1.756-1.571-4.576-2.496-6.702
		c-0.693-1.524-0.693-1.294-0.739,5.454v7.025h-2.08h-2.08V107.583z"/>
	<path fill="#FFFFFF" d="M38.026,117.196c0.185-0.462,0.74-1.987,1.248-3.374c0.509-1.386,1.063-2.958,1.294-3.466
		c0.462-1.063,2.08-5.177,3.05-7.719c2.126-5.686,1.941-5.454,4.622-5.454c2.357,0,2.449,0.047,2.912,1.525
		c0.693,2.403,2.773,7.904,3.281,8.735c0.231,0.463,0.462,1.108,0.462,1.479c0,0.37,0.278,1.247,0.647,1.987
		c0.786,1.479,1.942,4.483,2.357,6.054c0.277,1.018,0.231,1.063-2.126,0.925l-2.45-0.139l-0.739-2.172l-0.693-2.219h-3.975h-3.928
		l-0.693,2.219l-0.647,2.172l-2.496,0.139C37.934,118.028,37.703,117.936,38.026,117.196z M50.274,109.339
		c0-0.184-0.462-1.756-0.971-3.466c-1.109-3.513-1.895-4.206-1.802-1.525c0,0.139-0.277,0.832-0.601,1.525
		c-0.37,0.692-0.786,1.803-0.971,2.542c-0.277,1.248-0.277,1.248,2.034,1.248C49.21,109.663,50.274,109.524,50.274,109.339z"/>
	<path fill="#FFFFFF" d="M59.979,107.583V97.184h6.932h6.933l1.479,1.341c1.433,1.294,1.526,1.525,1.526,4.437
		c0,2.819-0.14,3.189-1.295,4.021l-1.247,0.925l1.016,0.786c0.74,0.646,1.064,1.57,1.341,3.788c0.139,1.618,0.462,3.514,0.646,4.253
		c0.323,1.248,0.323,1.248-1.988,1.248c-2.264,0-2.264,0-2.587-1.711c-0.139-0.97-0.278-2.403-0.278-3.188
		c0-2.312-1.618-3.421-4.991-3.421h-2.865v4.159v4.16H62.29h-2.311V107.583z M71.626,105.642c0.462-0.415,0.832-1.387,0.832-2.264
		c0-2.219-1.479-3.052-4.945-2.866l-2.68,0.139l-0.138,2.911l-0.139,2.866h3.096C69.916,106.428,71.025,106.196,71.626,105.642z"/>
	<path fill="#FFFFFF" d="M80.776,107.583V97.184h2.312h2.311v3.929c0,2.173,0.093,3.929,0.23,3.929c0.324,0,6.888-6.933,7.071-7.44
		c0.186-0.508,6.102-0.556,6.102-0.048c0,0.186-1.664,1.942-3.697,3.977c-3.652,3.604-3.652,3.604-3.005,4.898
		c0.37,0.738,0.971,1.572,1.294,1.941c0.324,0.324,1.018,1.248,1.525,1.987c0.462,0.786,1.757,2.587,2.82,4.114
		c1.108,1.478,1.987,2.864,1.987,3.095c0,0.231-1.249,0.417-2.773,0.417h-2.728l-1.756-2.635c-0.97-1.433-1.941-2.911-2.219-3.328
		c-0.23-0.415-0.831-1.34-1.341-2.033l-0.831-1.293l-1.34,1.246c-1.248,1.203-1.341,1.526-1.341,4.669v3.374h-2.311h-2.312V107.583z
		"/>
	<path fill="#FFFFFF" d="M101.575,107.583V97.184h7.856h7.856v1.849v1.804l-5.407,0.138l-5.454,0.139l-0.138,1.941l-0.14,1.941
		l4.991,0.139l4.992,0.139l0.139,1.849l0.139,1.849h-4.991h-4.992l-0.138,2.403l-0.14,2.404l5.685,0.138l5.685,0.139l0.14,1.987
		l0.139,1.941h-8.088h-8.134V107.583z"/>
	<path fill="#FFFFFF" d="M125.146,109.432v-8.551h-3.005h-3.004v-1.849v-1.849h8.551h8.55v1.849v1.849h-3.235h-3.234v8.551v8.551
		h-2.312h-2.311V109.432z"/>
	<path fill="#FFFFFF" d="M13.762,81.009v-10.63h2.311h2.311v8.55v8.551h5.084h5.084v2.08v2.079h-7.395h-7.395V81.009z"/>
	<path fill="#FFFFFF" d="M35.715,90.667c-3.836-1.986-5.592-5.499-5.223-10.676c0.231-3.697,1.479-6.192,3.975-8.088
		c1.895-1.433,2.219-1.524,5.777-1.524c3.004,0,4.113,0.185,5.315,0.924c2.311,1.433,3.697,3.189,4.483,5.731
		c1.756,5.776-0.231,11.276-4.945,13.726C42.694,92.009,38.165,91.961,35.715,90.667z M43.387,86.879
		c1.987-1.341,2.912-3.883,2.542-7.025c-0.323-2.773-1.386-4.346-3.651-5.454c-1.433-0.693-1.988-0.785-3.281-0.323
		c-2.08,0.693-3.004,1.756-3.698,4.528C33.589,85.03,38.581,90.112,43.387,86.879z"/>
	<path fill="#FFFFFF" d="M57.853,89.929c-0.416-0.925-0.786-2.034-0.878-2.404c-0.092-0.414-1.294-4.205-2.727-8.457
		c-1.433-4.252-2.588-7.95-2.588-8.181c0-0.277,0.971-0.508,2.265-0.508c2.218,0,2.218,0,2.958,1.986
		c0.878,2.404,1.756,5.27,1.895,6.009c0.046,0.323,0.324,1.202,0.601,1.941c0.277,0.786,0.647,1.941,0.786,2.681
		c0.462,2.125,1.202,1.432,1.895-1.757c0.139-0.647,2.542-7.995,3.097-9.566c0.417-1.156,0.693-1.294,2.727-1.294
		c2.403,0,2.773,0.462,1.756,2.356c-0.277,0.509-0.555,1.294-0.647,1.71c-0.093,0.416-0.924,2.959-1.849,5.639
		c-0.878,2.681-1.941,5.962-2.311,7.303c-1.109,4.021-1.34,4.252-3.975,4.252C58.639,91.639,58.5,91.592,57.853,89.929z"/>
	<path fill="#FFFFFF" d="M71.996,81.009v-10.63h7.856h7.857v2.079v2.08h-5.546h-5.546v2.08v2.079h5.084h5.084v1.85v1.849h-5.084
		h-5.084v2.542v2.542h5.546h5.546v2.08v2.079h-7.857h-7.856V81.009z"/>
	<path fill="#FFFFFF" d="M90.944,81.054V70.379h6.24c7.116,0,8.965,0.554,10.167,3.05c1.202,2.589,0.646,5.917-1.34,7.534
		c-0.647,0.554-0.601,0.693,0.277,1.433c0.554,0.415,1.017,1.063,1.063,1.432c0.047,0.369,0.231,1.804,0.416,3.19
		c0.186,1.386,0.462,3.05,0.601,3.604c0.23,1.063,0.186,1.108-1.987,0.924l-2.218-0.138l-0.601-3.19
		c-0.786-4.298-1.387-4.898-5.038-4.898h-2.912l-0.139,4.067l-0.139,4.021l-2.172,0.138l-2.219,0.139V81.054z M102.776,78.929
		c0.831-1.155,0.831-2.542-0.092-3.836c-0.602-0.878-1.109-1.017-3.929-1.017h-3.189v3.05v3.051l3.281-0.186
		C101.39,79.854,102.269,79.622,102.776,78.929z"/>
	<path fill="#FFFFFF" d="M123.482,91.315c-1.618-0.324-3.884-2.59-4.577-4.529c-0.323-1.018-0.508-1.987-0.369-2.173
		c0.093-0.231,1.063-0.369,2.125-0.369c1.757,0,2.035,0.138,2.497,1.387c1.063,2.864,6.192,3.65,7.81,1.155
		c1.11-1.665,0.231-2.82-2.957-3.745c-7.856-2.309-8.412-2.771-8.412-6.886c0-3.004,0-3.004,1.941-4.39
		c1.711-1.249,2.219-1.387,5.499-1.387c4.392,0,6.471,0.831,7.534,3.096c1.295,2.681,1.017,3.374-1.201,3.374
		c-1.711,0-2.173-0.23-3.281-1.618c-1.063-1.34-1.572-1.616-3.052-1.616c-1.107,0-2.032,0.322-2.494,0.831
		c-1.804,1.941-0.463,3.328,4.066,4.298c3.652,0.74,4.991,1.479,6.424,3.328c0.833,1.11,1.202,2.125,1.202,3.467
		c0,1.063-0.138,1.941-0.369,1.941c-0.186,0-0.555,0.462-0.786,1.063c-0.786,1.756-4.159,3.097-7.626,3.05
		C125.793,91.546,124.035,91.408,123.482,91.315z"/>
	<path fill="#FFFFFF" d="M111.742,79.114c0-0.51,0.416-1.479,0.925-2.127c0.509-0.646,0.924-1.387,0.924-1.571
		c0-0.23-0.415-0.416-0.924-0.416c-0.786,0-0.925-0.323-0.925-2.311v-2.311h2.079h2.08v3.28c0,3.097-0.092,3.375-1.571,4.853
		C112.527,80.315,111.742,80.501,111.742,79.114z"/>
	<path fill="#FFFFFF" d="M45.698,63.907c-2.958-1.063-4.437-1.986-6.286-3.928c-1.849-1.987-2.403-3.004-3.466-6.378
		c-1.433-4.529-1.479-4.483,2.45-4.483c7.487,0,11.185,2.542,13.356,9.243c0.462,1.387,0.832,3.421,0.832,4.529v1.941h-2.172
		C49.165,64.786,47.085,64.416,45.698,63.907z"/>
	<path fill="#FFFFFF" d="M54.526,61.505c0.416-7.303,4.483-11.646,11.785-12.617c3.143-0.416,5.222,0.046,5.222,1.108
		c0,1.063-1.571,5.869-2.496,7.673c-1.848,3.651-8.272,7.163-13.125,7.163h-1.572L54.526,61.505z"/>
	<path fill="#FFFFFF" d="M82.486,64.186c-5.269-1.896-8.55-6.101-9.474-12.294c-0.509-3.235-0.416-5.084,0.554-9.244
		c0.879-3.743,3.929-7.163,8.226-9.243c2.45-1.201,3.374-1.387,6.702-1.387c2.126,0,3.836,0.186,3.836,0.416
		c0,0.231,0.555,0.509,1.294,0.647c2.126,0.416,5.501,3.004,6.979,5.361c4.251,6.609,3.696,16.592-1.248,21.86
		c-3.097,3.328-6.056,4.529-11.047,4.529C86.092,64.786,83.457,64.508,82.486,64.186z M92.563,57.899
		c3.559-2.219,5.084-9.705,2.958-14.65c-1.156-2.773-2.034-3.744-4.068-4.575c-3.558-1.479-7.948-0.186-9.937,2.957
		c-1.756,2.773-2.402,6.471-1.709,9.66c0.97,4.298,2.727,6.517,6.008,7.579C87.571,59.425,90.852,58.963,92.563,57.899z"/>
	<path fill="#FFFFFF" d="M13.762,48.656V32.942h11.092h11.092v3.004v3.005H28.32h-7.625v3.466v3.466h6.609h6.563l-0.139,2.773
		l-0.185,2.773h-6.424h-6.424v6.47v6.471h-3.466h-3.466V48.656z"/>
	<path fill="#FFFFFF" d="M108.045,48.702v-15.76h8.273c9.982,0,12.063,0.509,15.298,3.697c2.032,1.941,2.865,3.467,4.112,7.441
		c0.647,2.033,0.693,8.135,0.047,8.504c-0.23,0.138-0.462,0.878-0.462,1.571s-0.231,1.479-0.51,1.756
		c-0.276,0.277-0.508,0.832-0.601,1.202c-0.23,1.617-3.235,4.622-5.777,5.823c-2.449,1.155-3.004,1.201-11.461,1.34l-8.92,0.186
		V48.702z M122.973,58.315c2.449-0.646,4.853-2.912,5.408-5.084c0.831-3.051,0.462-8.411-0.648-10.444
		c-1.708-3.051-3.466-3.836-8.41-3.836h-4.346v9.612c0,5.315,0.14,9.798,0.324,9.938C115.763,59.009,121.032,58.87,122.973,58.315z"
		/>
	<path fill="#FFFFFF" d="M43.803,48.194c-0.416-0.231-1.895-0.463-3.374-0.556c-1.432-0.045-2.634-0.322-2.634-0.508
		c0-1.063,1.525-6.239,2.126-7.117c0.369-0.601,0.554-1.063,0.416-1.063s0.416-0.74,1.248-1.664c1.756-1.941,4.344-3.698,6.101-4.16
		c0.647-0.138,1.202-0.462,1.202-0.693c0-0.23,1.987-0.416,4.39-0.416c2.635,0,4.391,0.186,4.391,0.463s0.323,0.462,0.74,0.462
		c2.079,0,7.117,4.252,8.457,7.164c0.878,1.848,2.126,6.654,1.849,6.886c-0.092,0.046-1.71,0.324-3.513,0.555
		c-3.281,0.416-3.374,0.416-3.374-0.555c0-0.555-0.323-1.895-0.693-3.004c-1.756-4.899-6.424-7.21-10.907-5.314
		c-2.773,1.155-4.113,3.143-5.223,7.764C44.589,48.147,44.358,48.518,43.803,48.194z"/>
</g>
</svg>
