<?xml version="1.0" encoding="utf-8"?>
<!-- Generator: Adobe Illustrator 16.0.0, SVG Export Plug-In . SVG Version: 6.00 Build 0)  -->
<!DOCTYPE svg PUBLIC "-//W3C//DTD SVG 1.0//EN" "http://www.w3.org/TR/2001/REC-SVG-20010904/DTD/svg10.dtd">
<svg version="1.0" id="Layer_1" xmlns="http://www.w3.org/2000/svg" xmlns:xlink="http://www.w3.org/1999/xlink" x="0px" y="0px"
	 width="150px" height="150px" viewBox="0 0 150 150" enable-background="new 0 0 150 150" xml:space="preserve">
<g>
	<g>
		<path fill="#FFFFFF" d="M48.053,80.449c-4.216-1.355-7.295-4.068-9.274-8.248c-1.576-3.263-1.943-7.038-1.063-10.301
			c0.55-2.126,17.412-41.532,18.402-43.035c1.063-1.613,1.76-1.687,14.187-1.687c11.034,0,11.73,0.037,11.511,0.66
			c-0.146,0.33-1.576,3.775-3.227,7.624l-3.005,7.038l-2.2,0.147c-1.906,0.146-2.31,0.329-3.079,1.246
			c-0.477,0.623-3.006,6.048-5.609,12.061c-4.289,9.934-4.729,11.18-4.619,12.756c0.147,1.797,0.66,2.493,2.383,3.189
			c0.513,0.22,6.635,0.366,14.736,0.366h13.93l1.173-1.063l1.21-1.063l0.109-6.269l0.146-6.268h9.312h9.312v10.007
			c0,10.521-0.184,12.097-1.797,15.213c-1.686,3.298-5.242,6.269-8.98,7.515c-1.613,0.549-4.473,0.623-26.943,0.586
			C55.421,80.926,49.189,80.816,48.053,80.449z"/>
		<path fill="#FFFFFF" d="M74.042,47.018c0.11-0.33,3.043-7.147,6.489-15.213l6.268-14.626h12.977h12.977v7.698v7.698h-6.305h-6.342
			l-1.613,3.775c-0.879,2.053-2.346,5.425-3.225,7.515l-1.65,3.739h-9.896C74.813,47.605,73.823,47.532,74.042,47.018z"/>
	</g>
	<g id="layer1">
		<path fill="#FFFFFF" d="M18.308,130.309c-0.709-0.305-1.013-0.648-1.175-1.277c-0.081-0.406-0.02-0.467,0.547-0.467
			c0.506,0,0.709,0.121,0.892,0.508c0.324,0.729,1.52,0.77,2.107,0.061c0.547-0.607,0.162-1.055-1.256-1.439
			c-1.946-0.547-2.695-1.621-1.905-2.736c0.993-1.418,3.79-1.357,4.336,0.082c0.304,0.77,0.243,0.891-0.385,0.891
			c-0.405,0-0.608-0.121-0.689-0.404c-0.223-0.83-1.925-0.932-2.229-0.121c-0.223,0.566,0.081,0.912,0.952,1.135
			c2.229,0.588,2.918,1.215,2.655,2.41C21.875,130.268,19.848,130.977,18.308,130.309z"/>
		<path fill="#FFFFFF" d="M24.267,130.207c-0.446-0.365-0.487-0.547-0.547-2.838c-0.081-2.432-0.081-2.451-0.567-2.451
			c-0.345,0-0.487-0.123-0.487-0.406c0-0.305,0.142-0.404,0.507-0.404c0.446,0,0.506-0.082,0.506-0.689
			c0-0.527,0.102-0.709,0.467-0.811c0.729-0.184,0.75-0.162,0.75,0.689c0,0.789,0.02,0.811,0.709,0.811
			c0.567,0,0.709,0.08,0.709,0.404s-0.142,0.406-0.709,0.406h-0.709v2.006c0,2.432,0.061,2.654,0.831,2.654
			c0.487,0,0.588,0.082,0.588,0.506c0,0.447-0.081,0.508-0.79,0.508C25.057,130.592,24.55,130.43,24.267,130.207z"/>
		<path fill="#FFFFFF" d="M33.487,130.287c-0.932-0.467-1.094-1.053-1.094-3.748v-2.432h0.608h0.607v2.309
			c0,1.926,0.061,2.373,0.365,2.758c0.506,0.627,1.581,0.607,2.046-0.041c0.507-0.711,0.588-1.135,0.608-3.141l0.02-1.885h0.608
			h0.608v3.141v3.141h-0.608c-0.466,0-0.608-0.08-0.608-0.404c0-0.508-0.162-0.508-0.689-0.021
			C35.352,130.531,34.257,130.672,33.487,130.287z"/>
		<path fill="#FFFFFF" d="M41.33,130.449c-1.358-0.262-2.046-1.297-2.046-3.1c0-1.945,0.79-3.08,2.27-3.344
			c1.418-0.244,2.533,0.404,2.837,1.682c0.101,0.385,0.04,0.445-0.466,0.445c-0.446,0-0.648-0.121-0.791-0.506
			c-0.284-0.77-1.074-1.055-1.722-0.629c-0.649,0.426-0.913,1.094-0.913,2.311c0,1.742,0.953,2.736,2.047,2.168
			c0.284-0.162,0.587-0.467,0.648-0.709c0.082-0.283,0.264-0.406,0.709-0.406c0.527,0,0.588,0.061,0.507,0.467
			c-0.162,0.629-0.669,1.176-1.418,1.48C42.323,130.592,42.181,130.611,41.33,130.449z"/>
		<path fill="#FFFFFF" d="M46.68,130.348c-0.669-0.385-0.709-0.566-0.709-3.039v-2.391h-0.506c-0.365,0-0.506-0.102-0.506-0.406
			s0.142-0.404,0.506-0.404c0.446,0,0.506-0.082,0.506-0.689c0-0.527,0.102-0.709,0.466-0.811c0.73-0.184,0.75-0.162,0.75,0.689
			c0,0.789,0.02,0.811,0.709,0.811c0.567,0,0.709,0.08,0.709,0.404s-0.142,0.406-0.709,0.406h-0.729l0.061,2.289l0.061,2.27
			l0.668,0.061c0.567,0.063,0.669,0.143,0.608,0.508c-0.041,0.344-0.223,0.465-0.77,0.486
			C47.409,130.572,46.903,130.49,46.68,130.348z"/>
		<path fill="#FFFFFF" d="M51.26,130.408c-0.264-0.061-0.689-0.385-0.912-0.688c-0.365-0.508-0.426-0.932-0.506-3.102l-0.061-2.512
			h0.608h0.607l0.081,2.432c0.061,2.715,0.243,3.121,1.398,3.08c1.236-0.041,1.479-0.547,1.581-3.182l0.061-2.33h0.587h0.588v3.141
			v3.141h-0.608c-0.486,0-0.608-0.08-0.608-0.445v-0.426l-0.446,0.406C53.104,130.389,51.989,130.611,51.26,130.408z"/>
		<path fill="#FFFFFF" d="M63.601,130.43c-1.276-0.346-2.027-1.48-2.027-3.08c0-1.217,0.365-2.148,1.096-2.816
			c0.425-0.406,0.77-0.508,1.621-0.508c1.824-0.02,2.634,0.689,2.898,2.615l0.122,0.91H65.04h-2.248v0.488
			c0,0.566,0.749,1.498,1.215,1.561c0.871,0.1,1.256-0.063,1.581-0.629c0.243-0.445,0.487-0.609,0.912-0.609
			c0.608,0,0.649,0.143,0.304,0.912C66.398,130.146,64.777,130.734,63.601,130.43z M65.891,126.053
			c-0.243-1.236-1.783-1.621-2.634-0.648c-0.831,0.973-0.648,1.135,1.135,1.135C65.973,126.539,65.973,126.539,65.891,126.053z"/>
		<path fill="#FFFFFF" d="M70.147,130.369c-1.601-0.467-2.229-2.797-1.317-5.066c0.506-1.277,2.756-1.764,3.769-0.811l0.527,0.486
			v-1.844v-1.865h0.608h0.607v4.561v4.559h-0.607c-0.486,0-0.608-0.08-0.608-0.445v-0.426l-0.446,0.406
			C72.113,130.43,71.019,130.611,70.147,130.369z M72.011,129.578c0.608-0.242,1.115-1.277,1.115-2.33
			c0-1.055-0.506-2.088-1.115-2.33c-0.831-0.305-1.094-0.244-1.743,0.385c-0.506,0.527-0.588,0.75-0.588,1.783
			c0,1.357,0.304,2.066,1.013,2.432C71.302,129.82,71.343,129.842,72.011,129.578z"/>
		<path fill="#FFFFFF" d="M27.731,127.248v-3.141h0.608c0.526,0,0.608,0.08,0.608,0.525v0.527l0.365-0.426
			c0.344-0.445,1.54-0.891,1.743-0.668c0.061,0.061,0.122,0.324,0.122,0.588c0,0.385-0.102,0.467-0.608,0.467
			c-0.385,0-0.811,0.182-1.115,0.506c-0.466,0.465-0.506,0.629-0.506,2.635v2.127H28.34h-0.608V127.248z"/>
		<path fill="#FFFFFF" d="M57.319,127.248v-3.141h0.607c0.527,0,0.608,0.08,0.608,0.525c0,0.527,0,0.527,0.364,0.123
			c0.365-0.426,1.541-0.893,1.743-0.709c0.062,0.08,0.122,0.344,0.122,0.607c0,0.385-0.102,0.467-0.588,0.467
			c-0.324,0-0.79,0.182-1.053,0.385c-0.446,0.363-0.487,0.566-0.547,2.633l-0.082,2.25h-0.587h-0.587V127.248z"/>
		<path fill="#FFFFFF" d="M13.282,116.203c-1.925-0.486-3.485-1.865-4.073-3.607c-0.466-1.316-0.466-7.883,0-9.221
			c0.446-1.297,1.662-2.613,2.959-3.201c1.52-0.67,3.729-0.67,5.107,0c1.621,0.791,2.857,2.289,3.263,3.91l0.142,0.568h-1.236
			c-1.215,0-1.256-0.02-1.54-0.648c-0.648-1.459-1.581-2.047-3.181-2.047c-1.014,0-1.297,0.08-1.946,0.607
			c-1.277,1.033-1.358,1.338-1.358,5.432c0,3.08,0.061,3.748,0.365,4.357c0.506,1.033,1.621,1.682,2.878,1.682
			c2.006,0,3.303-1.217,3.485-3.305l0.122-1.215h-1.763h-1.743V108.4v-1.113h2.959h2.958l-0.081,2.594
			c-0.081,2.857-0.324,3.607-1.621,4.844C17.66,116,15.106,116.648,13.282,116.203z"/>
		<path fill="#FFFFFF" d="M44.754,116.162c-1.864-0.426-3.526-1.965-4.073-3.809c-0.385-1.277-0.365-7.721,0-8.816
			c0.932-2.756,3.871-4.357,6.829-3.75c2.148,0.428,3.648,1.725,4.357,3.75c0.405,1.135,0.405,7.781,0,8.916
			c-0.648,1.885-2.128,3.223-4.033,3.67C46.518,116.447,46.031,116.447,44.754,116.162z M48.18,113.508
			c1.216-0.729,1.438-1.58,1.438-5.512c0-2.918-0.061-3.566-0.385-4.277c-1.074-2.391-4.722-2.391-5.876,0
			c-0.385,0.771-0.426,1.238-0.426,4.236c0,2.635,0.081,3.547,0.324,4.195C43.984,113.975,46.315,114.623,48.18,113.508z"/>
		<path fill="#FFFFFF" d="M60.845,116.203c-2.006-0.406-3.85-2.229-4.317-4.256c-0.121-0.506-0.222-3.404-0.222-6.525v-5.635h1.317
			h1.317v5.898c0,6.566,0.041,6.83,1.337,7.822c0.932,0.709,2.735,0.73,3.831,0.061c1.418-0.871,1.519-1.336,1.519-7.943v-5.838
			h1.317h1.317v5.33c0,2.92-0.081,5.816-0.182,6.465c-0.365,2.209-2.188,4.094-4.479,4.602
			C62.547,116.426,62.021,116.426,60.845,116.203z"/>
		<path fill="#FFFFFF" d="M25.097,107.977v-8.229l4.114,0.061l4.094,0.082l0.973,0.607c1.175,0.75,1.925,1.803,2.168,3.141
			c0.203,1.115,0.02,2.613-0.426,3.182c-0.587,0.811-1.499,1.682-1.702,1.682c-0.122,0-0.385,0.123-0.588,0.264
			c-0.324,0.242-0.223,0.527,1.5,3.85l1.864,3.588h-1.439h-1.439l-1.722-3.445l-1.723-3.445H29.15h-1.621v3.445v3.445h-1.216h-1.216
			V107.977z M32.778,106.799c1.175-0.607,1.601-2.27,0.932-3.545c-0.487-0.953-1.398-1.236-3.932-1.236h-2.249v2.533v2.533h2.33
			C31.521,107.084,32.373,107.002,32.778,106.799z"/>
		<path fill="#FFFFFF" d="M72.923,107.977v-8.229l3.911,0.08c3.669,0.063,3.952,0.082,4.885,0.568
			c1.742,0.893,2.594,2.33,2.594,4.357c0,2.045-0.852,3.465-2.594,4.357c-0.872,0.424-1.338,0.506-3.668,0.566l-2.696,0.082v3.221
			v3.223H74.14h-1.216V107.977z M80.686,107.023c0.81-0.527,1.195-1.236,1.195-2.25c0-2.066-1.095-2.756-4.397-2.756h-2.128v2.756
			v2.756l2.391-0.061C79.59,107.408,80.26,107.307,80.686,107.023z"/>
		<path fill="#FFFFFF" d="M94.405,107.996v-8.209h5.269h5.269v1.115v1.115h-4.053h-4.053v2.533v2.533h3.444h3.445v1.113v1.115
			h-3.445h-3.444v3.445v3.445H95.62h-1.215V107.996z"/>
		<path fill="#FFFFFF" d="M108.591,107.996v-8.209h1.216h1.215v8.209v8.207h-1.215h-1.216V107.996z"/>
		<path fill="#FFFFFF" d="M119.393,115.859c-0.082-0.203-1.298-3.871-2.696-8.168l-2.574-7.801l1.217-0.063
			c0.669-0.041,1.276,0.021,1.337,0.143c0.062,0.102,0.953,2.797,1.946,5.979l1.823,5.795l1.074-3.383
			c0.608-1.885,1.46-4.561,1.904-6l0.831-2.574h1.317c0.952,0,1.277,0.063,1.217,0.264c-0.041,0.123-1.257,3.832-2.695,8.209
			l-2.614,7.943h-0.974C119.757,116.203,119.492,116.123,119.393,115.859z"/>
		<path fill="#FFFFFF" d="M129.868,107.996v-8.209h5.169h5.168v1.115v1.115h-3.953h-3.951v2.432v2.432h3.445h3.445v1.115v1.115
			h-3.445h-3.445v2.43v2.434h3.951h3.953v1.113v1.115h-5.168h-5.169V107.996z"/>
	</g>
	<path fill="#FFFFFF" d="M90.736,132.232c-0.81-0.811-0.79-1.438,0.021-1.438c0.446,0,0.669,0.121,0.831,0.486
		c0.385,0.83,1.52,0.973,2.31,0.283c0.365-0.346,0.548-0.75,0.649-1.48l0.121-1.012L94,129.66c-0.629,0.506-0.812,0.566-1.805,0.486
		c-0.871-0.082-1.194-0.203-1.56-0.65c-0.913-1.033-1.054-2.816-0.366-4.193c0.649-1.297,2.818-1.744,3.811-0.811
		c0.527,0.486,0.527,0.486,0.527,0.061c0-0.365,0.121-0.445,0.628-0.445h0.628l-0.08,3.404c-0.061,2.857-0.143,3.484-0.447,4.012
		c-0.506,0.852-1.499,1.297-2.877,1.297C91.487,132.82,91.264,132.74,90.736,132.232z M93.897,128.889
		c0.608-0.607,0.812-1.641,0.527-2.695c-0.284-1.012-0.607-1.316-1.54-1.336c-1.337-0.041-2.067,1.336-1.641,3.1
		C91.588,129.355,92.945,129.842,93.897,128.889z"/>
	<path fill="#FFFFFF" d="M127.498,132.578c0.061-0.143,0.283-0.709,0.507-1.277l0.385-1.014l-1.276-3.039
		c-0.71-1.662-1.297-3.061-1.297-3.08c0-0.041,0.304-0.061,0.668-0.061c0.649,0,0.649,0.02,1.562,2.33
		c0.506,1.277,0.952,2.33,1.032,2.33c0.062,0,0.527-1.033,1.034-2.27c0.891-2.168,0.952-2.291,1.561-2.352
		c0.344-0.039,0.628-0.039,0.628,0c0,0.041-0.811,1.986-1.804,4.316c-1.783,4.217-1.824,4.258-2.451,4.318
		C127.559,132.842,127.417,132.781,127.498,132.578z"/>
	<path fill="#FFFFFF" d="M99.248,130.449c-1.358-0.223-2.311-2.473-1.803-4.297c0.547-2.006,2.674-2.816,4.438-1.66
		c0.588,0.385,1.033,1.377,1.033,2.352v0.707h-2.229c-2.492,0-2.614,0.082-1.844,1.359c0.629,0.992,2.148,0.973,2.614-0.041
		c0.183-0.385,0.385-0.508,0.851-0.508c0.608,0,0.608,0,0.345,0.648C102.187,130.146,100.829,130.734,99.248,130.449z
		 M101.7,126.336c0-0.506-0.527-1.215-1.055-1.398c-0.952-0.324-1.782,0.143-2.046,1.154c-0.102,0.426-0.061,0.447,1.499,0.447
		C100.971,126.539,101.7,126.457,101.7,126.336z"/>
	<path fill="#FFFFFF" d="M112.866,130.408c-0.263-0.061-0.688-0.385-0.912-0.688c-0.364-0.508-0.425-0.912-0.485-3.102l-0.082-2.512
		h0.608h0.608l0.08,2.432c0.061,2.715,0.243,3.121,1.398,3.08c1.236-0.041,1.479-0.547,1.581-3.182l0.061-2.33h0.588h0.588v3.141
		v3.141h-0.607c-0.487,0-0.608-0.08-0.608-0.445v-0.426l-0.446,0.406C114.71,130.389,113.596,130.611,112.866,130.408z"/>
	<path fill="#FFFFFF" d="M122.756,130.207c-0.426-0.346-0.467-0.568-0.547-2.838c-0.081-2.432-0.102-2.451-0.567-2.451
		c-0.344,0-0.487-0.123-0.487-0.406c0-0.305,0.144-0.404,0.508-0.404c0.445,0,0.506-0.082,0.506-0.689
		c0-0.527,0.102-0.709,0.467-0.811c0.729-0.184,0.749-0.162,0.749,0.689v0.811h0.811c0.669,0,0.812,0.061,0.812,0.404
		c0,0.346-0.143,0.406-0.812,0.406h-0.811v1.945c0,2.168,0.184,2.715,0.912,2.715c0.406,0,0.507,0.102,0.507,0.506
		c0,0.447-0.081,0.508-0.791,0.508C123.546,130.592,123.04,130.43,122.756,130.207z"/>
	<path fill="#FFFFFF" d="M79.611,127.248v-3.141h0.607h0.608v3.141v3.141h-0.608h-0.607V127.248z"/>
	<path fill="#FFFFFF" d="M82.854,127.248v-3.141h0.607c0.487,0,0.608,0.08,0.608,0.445c0,0.426,0,0.426,0.526-0.061
		c0.771-0.73,2.291-0.689,3.061,0.08c0.548,0.549,0.567,0.629,0.648,3.182l0.061,2.635h-0.608h-0.607l-0.061-2.391
		c-0.061-1.662-0.162-2.514-0.364-2.736c-0.426-0.527-1.682-0.445-2.209,0.121c-0.406,0.426-0.446,0.689-0.446,2.736v2.27h-0.608
		h-0.607V127.248z"/>
	<path fill="#FFFFFF" d="M104.537,127.248v-3.141h0.608c0.486,0,0.607,0.08,0.607,0.445c0,0.426,0,0.426,0.527-0.061
		c0.771-0.73,2.29-0.689,3.06,0.08c0.547,0.549,0.568,0.629,0.648,3.182l0.062,2.635h-0.629h-0.628v-2.168
		c0-2.676-0.202-3.182-1.297-3.264c-0.588-0.061-0.892,0.041-1.257,0.385c-0.466,0.428-0.486,0.588-0.486,2.758v2.289h-0.607h-0.608
		V127.248z"/>
	<path fill="#FFFFFF" d="M118.926,127.248v-3.141h0.506h0.508v3.141v3.141h-0.508h-0.506V127.248z"/>
	<path fill="#FFFFFF" d="M79.408,121.979c0-0.668,0.041-0.709,0.709-0.709c0.669,0,0.71,0.041,0.71,0.709
		c0,0.67-0.041,0.709-0.71,0.709C79.449,122.688,79.408,122.648,79.408,121.979z"/>
	<path fill="#FFFFFF" d="M118.724,121.979c0-0.668,0.04-0.709,0.708-0.709c0.67,0,0.71,0.041,0.71,0.709
		c0,0.67-0.04,0.709-0.71,0.709C118.764,122.688,118.724,122.648,118.724,121.979z"/>
</g>
</svg>
