<?xml version="1.0" encoding="utf-8"?>
<!-- Generator: Adobe Illustrator 16.0.0, SVG Export Plug-In . SVG Version: 6.00 Build 0)  -->
<!DOCTYPE svg PUBLIC "-//W3C//DTD SVG 1.0//EN" "http://www.w3.org/TR/2001/REC-SVG-20010904/DTD/svg10.dtd">
<svg version="1.0" id="Layer_1" xmlns="http://www.w3.org/2000/svg" xmlns:xlink="http://www.w3.org/1999/xlink" x="0px" y="0px"
	 width="150px" height="150px" viewBox="0 0 150 150" enable-background="new 0 0 150 150" xml:space="preserve">
<g>
	<g id="layer1">
		<path fill="#FFFFFF" d="M17.962,105.555c-3.905-1.77-4.269-7.186-0.677-9.58c1.562-1.092,2.291-1.197,5.414-1.041
			c2.967,0.156,3.748,0.418,4.529,1.406c1.614,1.979,1.301,2.654-1.354,2.654c-1.302,0-2.343-0.207-2.343-0.469
			c0-0.936-1.718-1.092-2.916-0.311c-1.354,0.885-1.718,3.227-0.625,4.32c0.781,0.781,3.853,0.832,4.321,0.104
			c0.208-0.313-0.364-0.52-1.25-0.52c-1.354,0-1.614-0.209-1.614-1.303c0-1.25,0.104-1.301,3.384-1.301h3.384v2.498
			c0,2.238-0.156,2.604-1.406,3.176C24.521,106.23,19.889,106.439,17.962,105.555z"/>
		<path fill="#FFFFFF" d="M91.366,105.918c-2.29-0.467-3.28-2.498-3.28-6.975V94.83h2.344h2.342v3.904
			c0,3.176,0.156,4.01,0.833,4.27c1.823,0.676,2.552-0.574,2.708-4.479l0.156-3.695h2.289h2.344v3.332
			c0,4.529-0.781,6.508-2.916,7.393C96.52,106.23,93.813,106.387,91.366,105.918z"/>
		<path fill="#FFFFFF" d="M30.821,100.297V94.83h4.113c4.894,0,6.612,0.521,7.445,2.342c0.521,1.146,0.416,1.563-0.417,2.709
			l-1.041,1.404l1.301,2.031l1.354,2.029l2.447-5.258l2.446-5.258h2.291h2.291l2.238,4.842c1.197,2.604,2.291,5.102,2.447,5.467
			c0.208,0.416-0.417,0.623-2.135,0.623c-1.666,0-2.499-0.26-2.707-0.779c-0.208-0.521-1.041-0.781-2.291-0.781
			s-2.083,0.26-2.291,0.781c-0.208,0.625-1.302,0.779-5.102,0.779H38.37l-0.989-1.77c-1.458-2.707-2.395-2.811-2.395-0.313
			c0,2.082,0,2.082-2.083,2.082h-2.083V100.297z M51.645,101.232c0-0.26-0.208-0.729-0.468-1.145
			c-0.365-0.572-0.573-0.469-1.042,0.416c-0.521,0.938-0.468,1.094,0.469,1.094C51.176,101.598,51.645,101.441,51.645,101.232z
			 M38.109,98.525c0-0.52-1.25-1.092-2.395-1.092c-0.417,0-0.729,0.363-0.729,0.781c0,0.52,0.521,0.779,1.562,0.779
			C37.433,98.994,38.109,98.787,38.109,98.525z"/>
		<path fill="#FFFFFF" d="M58.933,100.297V94.83h2.238c1.978,0.053,2.343,0.26,4.269,2.707l2.083,2.604l0.156-2.656l0.156-2.654
			h2.083h2.03v5.467v5.465h-2.187c-2.03,0-2.447-0.26-4.425-2.445l-2.187-2.5l-0.052,2.5v2.445h-2.083h-2.082V100.297z"/>
		<path fill="#FFFFFF" d="M74.55,100.297V94.83h4.114c6.352,0,8.121,1.094,6.976,4.217c-0.417,1.145-0.417,1.51,0.156,1.719
			c1.041,0.416,0.886,3.123-0.208,4.111c-0.781,0.678-2.031,0.885-5.986,0.885H74.55V100.297z M82.1,102.379
			c0-0.26-0.781-0.572-1.666-0.678c-1.301-0.154-1.718,0.053-1.718,0.678s0.417,0.832,1.718,0.676
			C81.318,102.951,82.1,102.691,82.1,102.379z M81.215,98.369c-0.365-1.041-2.499-1.197-2.499-0.207
			c0,0.572,0.469,0.832,1.354,0.832C80.902,98.994,81.318,98.734,81.215,98.369z"/>
		<path fill="#FFFFFF" d="M103.705,100.297V94.83h2.082h2.082v5.467v5.465h-2.082h-2.082V100.297z"/>
		<path fill="#FFFFFF" d="M110.992,100.297V94.83h2.082h2.084v3.904v3.904h3.123h3.123v1.563v1.561h-5.205h-5.207V100.297z"/>
		<path fill="#FFFFFF" d="M122.967,100.244v-5.518l4.686,0.207c4.268,0.156,4.789,0.262,6.09,1.615
			c1.197,1.197,1.459,1.873,1.459,4.061c0,2.238-0.209,2.811-1.459,3.904c-1.301,1.094-1.926,1.248-6.143,1.248h-4.633V100.244z
			 M130.15,102.535c0.365-0.365,0.625-1.25,0.625-1.979c0-1.563-0.885-2.604-2.188-2.604c-0.779,0-0.936,0.469-0.936,2.604
			s0.156,2.604,0.936,2.604C129.109,103.16,129.785,102.898,130.15,102.535z"/>
	</g>
	<g id="layer2">
		<path fill="#FFFFFF" d="M62.662,81.398L52.093,74.84v-10.1v-10.1l10.672-5.154c5.883-2.811,10.776-5.154,10.933-5.154
			c0.156,0,0.26,4.321,0.26,9.631v9.631h-3.905h-3.904v-2.499c0-1.406-0.156-2.655-0.312-2.863
			c-0.157-0.156-1.562,0.313-3.124,1.093l-2.812,1.354v5.362v5.362l2.187,1.354c3.175,2.03,3.749,1.926,3.957-0.729
			c0.156-2.187,0.104-2.291-1.926-3.072c-1.197-0.468-2.134-1.146-2.134-1.562c0-0.521,1.301-0.676,5.987-0.676h5.987v10.672
			c0,5.883-0.156,10.672-0.365,10.619C73.333,88.01,68.44,84.99,62.662,81.398z"/>
		<path fill="#FFFFFF" d="M76.041,65.99V43.813l10.932,5.466l10.934,5.466v3.488c0,3.228-0.105,3.644-1.666,5.206l-1.666,1.718
			l1.666,1.718c1.51,1.562,1.666,2.031,1.666,4.842v3.124l-10.516,6.455c-5.779,3.592-10.674,6.611-10.934,6.664
			C76.25,88.063,76.041,78.172,76.041,65.99z M87.963,72.706c2.029-1.25,2.135-1.458,2.135-3.905v-2.603h-3.125H83.85v3.8
			C83.85,75.152,83.953,75.256,87.963,72.706z M90.098,62.138c0-1.25-0.418-1.666-2.813-2.812c-1.561-0.781-2.967-1.25-3.123-1.093
			c-0.156,0.208-0.313,1.458-0.313,2.863v2.499h3.123C90.045,63.595,90.098,63.595,90.098,62.138z"/>
	</g>
</g>
</svg>
