<?xml version="1.0" encoding="utf-8"?>
<!-- Generator: Adobe Illustrator 16.0.0, SVG Export Plug-In . SVG Version: 6.00 Build 0)  -->
<!DOCTYPE svg PUBLIC "-//W3C//DTD SVG 1.0//EN" "http://www.w3.org/TR/2001/REC-SVG-20010904/DTD/svg10.dtd">
<svg version="1.0" id="Layer_1" xmlns="http://www.w3.org/2000/svg" xmlns:xlink="http://www.w3.org/1999/xlink" x="0px" y="0px"
	 width="150px" height="150px" viewBox="0 0 150 150" enable-background="new 0 0 150 150" xml:space="preserve">
<g>
	<path fill="#FFFFFF" d="M78.973,109.485v-0.049c0-1.801-1.296-2.785-3.48-2.785h-4.296v5.641h4.32
		C77.629,112.292,78.973,111.188,78.973,109.485z"/>
	<polygon fill="#FFFFFF" points="52.788,114.093 58.572,114.093 55.668,107.372 	"/>
	<path fill="#FFFFFF" d="M94.5,106.388c-3.336,0-5.664,2.664-5.664,5.93v0.047c0,3.266,2.376,5.977,5.712,5.977
		c3.337,0,5.665-2.664,5.665-5.928v-0.049C100.213,109.101,97.836,106.388,94.5,106.388z"/>
	<path fill="#FFFFFF" d="M56.484,79.388c-3.336,0-5.665,2.664-5.665,5.93v0.047c0,3.266,2.377,5.977,5.713,5.977
		s5.664-2.664,5.664-5.928v-0.049C62.196,82.101,59.82,79.388,56.484,79.388z"/>
	<path fill="#FFFFFF" d="M12.813,12.813v124.373h124.373V12.813H12.813z M95.459,76.964h2.952v16.801h-2.952V76.964z M30.443,76.964
		h2.952v14.113h8.833v2.688H30.443V76.964z M41.749,120.765l-5.737-7.561l-2.616,2.689v4.871h-2.952v-16.801h2.952v8.449
		l7.993-8.449h3.624l-6.984,7.225l7.297,9.576H41.749z M61.356,120.765l-1.704-4.055h-7.944l-1.729,4.055h-3.023l7.393-16.92h2.736
		l7.393,16.92H61.356z M65.293,85.364c0,4.729-3.648,8.689-8.809,8.689s-8.761-3.912-8.761-8.641v-0.049
		c0-4.729,3.648-8.688,8.809-8.688s8.761,3.912,8.761,8.641V85.364z M79.021,120.765l-4.128-5.855h-3.696v5.855h-2.953v-16.801
		h7.489c2.112,0,3.769,0.625,4.849,1.68c0.888,0.912,1.392,2.16,1.392,3.625v0.047c0,2.762-1.656,4.418-4.008,5.09l4.536,6.359
		H79.021z M79.884,94.03c-4.368,0-7.152-2.521-7.152-7.393v-9.674h2.952v9.553c0,3.121,1.608,4.801,4.249,4.801
		c2.616,0,4.224-1.584,4.224-4.68v-9.674h2.952v9.529C87.108,91.509,84.276,94.03,79.884,94.03z M103.309,112.364
		c0,4.729-3.648,8.689-8.809,8.689s-8.761-3.912-8.761-8.641v-0.049c0-4.729,3.648-8.688,8.809-8.688
		c5.161,0,8.761,3.912,8.761,8.641V112.364z M112.164,86.661c-3.576-0.865-5.593-1.92-5.593-5.018v-0.047
		c0-2.881,2.4-4.873,5.736-4.873c2.448,0,4.393,0.744,6.097,2.113l-1.584,2.23c-1.513-1.127-3.024-1.727-4.561-1.727
		c-1.729,0-2.736,0.887-2.736,1.992v0.047c0,1.297,0.769,1.873,3.984,2.641c3.553,0.863,5.4,2.137,5.4,4.92v0.049
		c0,3.145-2.472,5.016-6,5.016c-2.568,0-4.993-0.887-7.009-2.688l1.776-2.113c1.607,1.393,3.216,2.186,5.304,2.186
		c1.824,0,2.977-0.84,2.977-2.113v-0.047C115.956,88.028,115.284,87.38,112.164,86.661z M119.557,120.765h-11.785v-16.801h2.952
		v14.113h8.833V120.765z"/>
</g>
</svg>
