<?xml version="1.0" encoding="utf-8"?>
<!-- Generator: Adobe Illustrator 16.0.0, SVG Export Plug-In . SVG Version: 6.00 Build 0)  -->
<!DOCTYPE svg PUBLIC "-//W3C//DTD SVG 1.0//EN" "http://www.w3.org/TR/2001/REC-SVG-20010904/DTD/svg10.dtd">
<svg version="1.0" id="Layer_1" xmlns="http://www.w3.org/2000/svg" xmlns:xlink="http://www.w3.org/1999/xlink" x="0px" y="0px"
	 width="150px" height="150px" viewBox="0 0 150 150" enable-background="new 0 0 150 150" xml:space="preserve">
<g id="layer2">
	<path fill="#FFFFFF" d="M6.149,75V41.952H75h68.851V75v33.049H75H6.149V75z M45.256,78.236c0.964-2.892,1.997-5.095,2.272-4.958
		c0.207,0.207,0.62,1.928,0.895,3.924c0.826,6.059,1.102,6.748,2.892,6.748c1.377,0,1.583-0.275,1.239-1.859
		c-0.207-1.102-0.895-5.164-1.515-9.157c-1.17-6.954-1.308-7.229-3.03-7.436c-1.652-0.207-1.927,0.138-3.649,5.508
		c-1.033,3.167-2.134,5.921-2.341,6.265c-0.275,0.276-1.377-2.271-2.479-5.714c-1.859-5.714-2.134-6.197-3.787-6.197
		c-1.722,0-1.791,0.207-3.03,7.436c-0.688,4.063-1.377,8.193-1.583,9.295c-0.344,1.652-0.138,1.859,1.377,1.859
		c1.584,0,1.721-0.346,2.548-5.508c0.482-3.03,1.102-5.509,1.308-5.509c0.275,0,1.17,2.272,2.065,5.026
		c0.826,2.686,1.652,5.369,1.79,5.783c0.207,0.619,0.757,0.689,1.79,0.344C43.123,83.676,44.017,82.092,45.256,78.236z
		 M62.882,83.883c2.203-1.033,3.167-3.857,3.167-9.296c0-4.2-0.069-4.406-1.721-4.406c-1.583,0-1.652,0.206-1.859,5.232
		c-0.138,4.13-0.482,5.438-1.377,6.06c-0.895,0.551-1.583,0.551-2.41,0c-0.964-0.621-1.308-1.93-1.445-6.06
		c-0.207-5.026-0.276-5.232-1.859-5.232c-1.652,0-1.721,0.138-1.721,5.508c0,5.163,0.138,5.714,1.791,7.229
		C57.443,84.777,60.128,85.121,62.882,83.883z M100.888,83.951c1.309-0.551,2.065-0.551,2.616,0
		c0.345,0.344,1.652,0.688,2.754,0.688c2.066,0,2.066,0-2.34-4.475c-3.512-3.512-4.889-4.476-6.473-4.476h-2.066l2.204,2.272
		c2.479,2.547,2.272,3.236-0.688,3.236c-2.616,0-6.059-3.305-6.059-5.853c0-3.925,2.479-6.472,6.402-6.541
		c3.58,0,5.99,2.41,5.99,6.059c0,2.755,1.377,4.751,2.754,3.925c1.24-0.758,0.826-6.679-0.688-9.089
		c-3.787-6.196-13.771-5.646-16.869,0.964C84.639,78.58,92.625,87.049,100.888,83.951z M116.242,83.605
		c2.271-1.1,2.822-2.271,2.822-5.439c0-2.546-1.239-3.923-4.957-5.438c-2.686-1.102-3.305-2.479-1.722-3.855
		c0.688-0.551,1.309-0.482,2.272,0.275c1.515,1.17,4.406,1.377,4.406,0.344c0-1.583-3.442-4.131-5.508-4.131
		c-2.271,0-5.508,2.616-5.508,4.406c0,2.272,1.721,4.544,4.063,5.508c3.373,1.309,4.682,2.891,3.717,4.406
		c-0.963,1.584-3.236,1.859-4.338,0.482c-0.895-1.033-4.131-1.445-4.131-0.482c0,1.102,2.272,3.719,3.719,4.27
		C113.213,84.846,114.107,84.777,116.242,83.605z M70.869,74.656v-9.295l-1.721,1.102c-1.652,1.102-1.722,1.308-1.722,9.295v8.193
		h1.722h1.721V74.656z M77.065,78.855c0-3.855,0.276-5.164,1.032-5.508c0.551-0.207,1.033-1.033,1.033-1.79
		s-0.482-1.377-1.033-1.377c-0.688,0-1.032-0.758-1.032-2.41v-2.41l-1.721,1.102c-0.964,0.62-1.721,1.722-1.721,2.41
		c0,0.757-0.275,1.308-0.688,1.308c-0.344,0-0.688,0.757-0.688,1.721s0.344,1.721,0.688,1.721c0.413,0,0.688,2.203,0.688,5.164
		c0,5.025,0.069,5.164,1.721,5.164C76.997,83.951,77.065,83.813,77.065,78.855z M83.262,77.065v-6.885h-1.721H79.82v6.885v6.886
		h1.721h1.721V77.065z M83.262,66.738c0-1.033-0.481-1.377-1.721-1.377s-1.721,0.344-1.721,1.377s0.481,1.377,1.721,1.377
		S83.262,67.771,83.262,66.738z"/>
</g>
</svg>
