<?xml version="1.0" encoding="utf-8"?>
<!-- Generator: Adobe Illustrator 16.0.0, SVG Export Plug-In . SVG Version: 6.00 Build 0)  -->
<!DOCTYPE svg PUBLIC "-//W3C//DTD SVG 1.0//EN" "http://www.w3.org/TR/2001/REC-SVG-20010904/DTD/svg10.dtd">
<svg version="1.0" id="Layer_1" xmlns="http://www.w3.org/2000/svg" xmlns:xlink="http://www.w3.org/1999/xlink" x="0px" y="0px"
	 width="150px" height="150px" viewBox="0 0 150 150" enable-background="new 0 0 150 150" xml:space="preserve">
<g>
	<g id="layer1">
		<path fill="#FFFFFF" d="M28.999,100.617c-3.217-0.691-5.076-3.121-5.076-6.648c0.024-2.145,1.311-4.314,3.622-5.981l0.882-0.644
			l-0.477-0.691c-1.263-1.834-1.716-3.074-1.716-4.504c0-1.572,0.357-2.502,1.43-3.502c1.096-1.049,2.359-1.454,4.48-1.454
			c2.883,0,4.48,0.835,5.386,2.812c1.072,2.336,0.119,5.123-2.431,7.149c-0.524,0.429-0.857,0.857-0.786,1.048
			c0.167,0.477,2.812,4.051,3.002,4.074c0.095,0,0.286-0.619,0.429-1.357c0.167-0.763,0.334-1.525,0.382-1.668
			c0.119-0.453,3.884-0.429,4.051,0.023c0.262,0.668-0.405,3.17-1.287,4.934l-0.93,1.834l1.525,2.098l1.501,2.121l-2.55,0.07
			c-2.74,0.072-2.549,0.145-3.55-1.238c-0.31-0.477-0.333-0.477-0.858,0.047C34.67,100.402,31.31,101.117,28.999,100.617z
			 M33.741,96.305c0.405-0.311,0.644-0.645,0.572-0.859c-0.071-0.166-0.905-1.404-1.835-2.717l-1.716-2.383l-0.905,0.882
			c-1.906,1.86-1.621,4.456,0.62,5.481C31.381,97.139,32.835,96.947,33.741,96.305z M32.859,84.104
			c1.311-1.311,1.406-2.885,0.214-3.646c-0.477-0.334-0.786-0.357-1.477-0.191c-1.144,0.287-1.645,1.192-1.263,2.313
			c0.333,0.905,1.263,2.312,1.549,2.312C31.977,84.89,32.43,84.531,32.859,84.104z"/>
		<path fill="#FFFFFF" d="M69.913,100.713c-3.908-0.764-5.36-2.74-5.647-7.697c-0.405-7.459,1.883-10.748,7.53-10.748
			c3.502,0,5.6,1.145,6.72,3.646c0.523,1.144,0.571,1.549,0.571,5.29c0,3.265-0.071,4.29-0.429,5.267
			c-0.929,2.693-3.003,4.1-6.315,4.266C71.343,100.783,70.247,100.76,69.913,100.713z M72.702,96.16
			c0.357-0.549,0.429-1.215,0.429-4.719c0-4.265-0.143-4.955-1.072-5.193c-1.001-0.263-1.454,0.5-1.716,2.883
			c-0.261,2.502,0.024,6.721,0.525,7.316C71.343,97.02,72.226,96.875,72.702,96.16z"/>
		<path fill="#FFFFFF" d="M89.097,100.498c-0.524-0.191-1.239-0.691-1.597-1.121l-0.667-0.762v0.881v0.883h-2.979h-2.978
			l0.047-11.605l0.072-11.629h2.978h2.979l0.071,3.432c0.048,3.074,0.095,3.384,0.405,2.955c0.905-1.287,3.67-1.668,5.527-0.763
			c1.788,0.857,2.551,2.478,2.932,6.053c0.286,2.788-0.071,7.005-0.738,8.792C94.172,100.236,91.718,101.428,89.097,100.498z
			 M89.239,95.875c0.548-0.43,0.571-0.619,0.644-3.908c0.096-4.242-0.19-5.242-1.43-5.123c-0.549,0.047-0.858,0.238-1.072,0.666
			c-0.382,0.739-0.429,6.84-0.048,7.793C87.762,96.424,88.358,96.59,89.239,95.875z"/>
		<path fill="#FFFFFF" d="M101.416,100.26c-1.334-0.406-2.453-1.287-3.026-2.359c-0.262-0.477-0.547-0.857-0.643-0.857
			c-0.406,0-0.715-2.932-0.644-6.291c0.095-3.527,0.118-3.646,0.882-5.195c0.69-1.43,1.93-2.764,2.239-2.455
			c0.071,0.072,0.596-0.047,1.168-0.262c1.334-0.477,4.503-0.549,6.053-0.095c1.596,0.452,3.05,1.905,3.574,3.622
			c0.215,0.69,0.453,2.359,0.524,3.717l0.144,2.43h-4.338h-4.313v1.74c0,2.121,0.357,2.789,1.548,2.789
			c1.002,0,1.55-0.691,1.55-1.955v-0.904h2.621h2.621v0.666c0,2.455-1.645,4.742-3.836,5.387
			C106.015,100.688,102.822,100.713,101.416,100.26z M106.087,87.964c-0.119-1.573-0.5-2.121-1.502-2.121
			c-1,0-1.382,0.548-1.501,2.121l-0.095,1.452h1.596h1.598L106.087,87.964z"/>
		<path fill="#FFFFFF" d="M137.185,100.379c-2.216-0.525-3.646-2.121-4.027-4.457l-0.167-1.023h2.55h2.525l0.144,0.666
			c0.238,0.977,0.786,1.479,1.668,1.479c0.953,0,1.525-0.525,1.525-1.432c0-0.881-0.786-1.5-2.813-2.168
			c-3.359-1.096-4.79-2.168-5.29-3.979c-0.715-2.574,0.357-5.076,2.621-6.244c2.098-1.072,5.839-1.119,7.983-0.096
			c1.12,0.525,2.216,1.883,2.406,2.956c0.071,0.452,0.19,1.024,0.263,1.263c0.096,0.357-0.119,0.405-2.407,0.405
			c-2.383,0-2.502-0.024-2.668-0.524c-0.383-1.311-1.407-1.74-2.432-1.001c-0.714,0.501-0.714,1.645,0.023,2.097
			c0.287,0.168,1.574,0.668,2.86,1.096c2.646,0.858,3.789,1.692,4.479,3.217c0.501,1.074,0.572,2.646,0.191,4.051
			c-0.382,1.336-2.121,3.004-3.766,3.527C141.545,100.641,138.614,100.736,137.185,100.379z"/>
		<path fill="#FFFFFF" d="M46.561,88.678V76.979l5.671,0.119c6.172,0.095,6.958,0.237,8.317,1.43
			c1.287,1.144,1.811,2.525,1.811,4.813c0,2.836-0.738,4.314-2.549,5.123l-0.905,0.43l0.691,0.144
			c0.761,0.166,1.692,1.048,2.239,2.049c0.19,0.382,0.334,1.763,0.405,3.933c0.072,3.168,0.333,4.646,0.786,4.646
			c0.119,0,0.215,0.166,0.215,0.357c0,0.309-0.525,0.357-3.313,0.357c-2.931,0-3.336-0.049-3.479-0.406
			c-0.096-0.238-0.262-2.025-0.333-4.002c-0.215-4.529-0.381-4.886-2.431-4.886h-0.93v4.647v4.646h-3.098h-3.098V88.678z
			 M55.473,86.176c0.524-0.523,0.62-0.857,0.62-1.93c0-1.645-0.262-2.145-1.382-2.455c-1.978-0.547-1.954-0.572-1.954,2.383v2.622
			h1.048C54.592,86.796,54.973,86.652,55.473,86.176z"/>
		<path fill="#FFFFFF" d="M126.413,100.068c-0.452-0.166-1.048-0.596-1.311-0.953c-0.476-0.666-0.5-0.953-0.571-11.032
			l-0.072-10.343h2.884h2.859v2.502v2.503h1.072h1.072v2.025v2.025h-1.072h-1.072v4.479c0,3.17,0.095,4.576,0.286,4.766
			c0.167,0.168,0.644,0.287,1.072,0.287h0.81l-0.071,1.977l-0.071,1.955l-2.502,0.047
			C128.248,100.33,126.89,100.236,126.413,100.068z"/>
		<path fill="#FFFFFF" d="M113.045,91.441v-8.696h2.74h2.717l0.071,1.382l0.071,1.357l0.597-1.023
			c0.69-1.24,1.715-1.907,3.192-2.098l1.097-0.166v2.74v2.74h-1.406c-0.953,0-1.62,0.119-2.05,0.405
			c-1.167,0.762-1.31,1.571-1.31,7.054v5.004h-2.86h-2.859V91.441z"/>
		<path fill="#FFFFFF" d="M106.444,75.906l-1.263-0.096v-2.026c0-1.93,0.023-2.025,0.477-1.882c0.644,0.19,1.811-0.071,2.263-0.525
			c0.191-0.19,0.358-0.619,0.358-0.977c0-0.5-2.574-10.056-4.409-16.299l-0.333-1.144h2.955c2.598,0,2.955,0.048,3.051,0.428
			c0.07,0.215,0.476,2.789,0.905,5.696c0.429,2.931,0.81,5.266,0.857,5.219c0.071-0.048,0.429-2.288,0.81-4.957
			c0.358-2.645,0.739-5.194,0.811-5.6l0.143-0.786h2.86c2.621,0,2.859,0.048,2.74,0.428c-0.072,0.215-1.192,4.599-2.526,9.699
			c-2.692,10.39-3.05,11.343-4.789,12.201C110.233,75.834,108.47,76.049,106.444,75.906z"/>
		<path fill="#FFFFFF" d="M91.193,70.854c-1.264-0.333-2.264-1.048-2.787-2.049c-0.691-1.311-0.717-5.028-0.048-6.387
			c0.596-1.215,2.239-2.145,5.004-2.812c2.311-0.548,3.241-1.144,3.241-2.025c0-1.215-1.573-1.74-2.24-0.762
			c-0.215,0.286-0.382,0.787-0.382,1.072c0,0.548-0.048,0.548-2.74,0.548h-2.74v-1c0.023-3.241,2.932-5.386,6.982-5.124
			c3.526,0.215,5.171,1.001,6.123,2.908c0.572,1.167,0.597,1.334,0.716,7.864c0.071,3.669,0.189,6.792,0.285,6.934
			c0.119,0.191-0.5,0.31-2.002,0.429c-3.645,0.238-3.764,0.238-3.764-0.453s-0.287-0.763-0.74-0.215
			C95.34,70.711,92.813,71.259,91.193,70.854z M96.03,66.041c0.286-0.333,0.453-0.953,0.524-2.05l0.119-1.573l-0.69,0.167
			c-1.74,0.405-2.574,1.787-1.907,3.146C94.529,66.684,95.34,66.803,96.03,66.041z"/>
		<path fill="#FFFFFF" d="M51.708,70.591c-0.381-0.119-0.953-0.453-1.287-0.762c-1.191-1.096-1.239-1.525-1.239-9.604V52.72h2.979
			h2.979v6.338c0,3.909,0.095,6.506,0.238,6.792c0.358,0.644,1.525,0.596,2.002-0.071c0.333-0.453,0.381-1.525,0.381-6.792V52.72
			h2.979h2.978v8.816v8.817h-2.859h-2.86v-1.001v-1.024l-0.5,0.763C56.569,70.544,53.9,71.235,51.708,70.591z"/>
		<path fill="#FFFFFF" d="M24.638,58.796V47.239h4.385h4.385l0.238,1.144c0.144,0.62,0.644,3.455,1.144,6.291
			c0.5,2.859,0.953,5.124,1.025,5.051c0.071-0.071,0.644-2.883,1.239-6.243l1.072-6.125l4.456-0.071l4.457-0.047v11.558v11.557
			h-2.979H41.08l-0.048-7.792l-0.071-7.769l-1.43,7.721l-1.43,7.72l-2.288,0.071l-2.264,0.072l-1.43-7.673l-1.406-7.673
			l-0.071,7.673l-0.048,7.649h-2.979h-2.979V58.796z"/>
		<path fill="#FFFFFF" d="M65.624,61.536v-8.841l2.931,0.072l2.907,0.071l0.072,0.905l0.07,0.882l0.644-0.739
			c0.739-0.905,2.24-1.62,3.336-1.644h0.763v2.836v2.835l-1.239-0.047c-0.691,0-1.597,0.119-1.978,0.286
			c-1.358,0.573-1.43,0.858-1.501,6.792l-0.095,5.409h-2.956h-2.955V61.536z"/>
		<path fill="#FFFFFF" d="M77.063,61.536V52.72h2.859h2.86v1.144v1.12l0.5-0.763c0.667-1.048,1.859-1.74,3.288-1.907l1.215-0.143
			v2.86v2.835h-1.477c-3.098,0-3.288,0.405-3.288,7.244v5.242h-2.979h-2.979V61.536z"/>
	</g>
	<polygon fill="#FFFFFF" points="82.829,106.355 69.569,119.615 32.608,119.615 6.473,93.48 6.473,56.52 32.608,30.384 
		69.569,30.384 86.423,47.239 91.142,47.239 70.951,27.048 31.226,27.048 3.137,55.138 3.137,94.863 31.226,122.951 70.951,122.951 
		87.547,106.355 	"/>
</g>
</svg>
