<?xml version="1.0" encoding="utf-8"?>
<!-- Generator: Adobe Illustrator 16.0.0, SVG Export Plug-In . SVG Version: 6.00 Build 0)  -->
<!DOCTYPE svg PUBLIC "-//W3C//DTD SVG 1.0//EN" "http://www.w3.org/TR/2001/REC-SVG-20010904/DTD/svg10.dtd">
<svg version="1.0" id="Layer_1" xmlns="http://www.w3.org/2000/svg" xmlns:xlink="http://www.w3.org/1999/xlink" x="0px" y="0px"
	 width="150px" height="150px" viewBox="0 0 150 150" enable-background="new 0 0 150 150" xml:space="preserve">
<path fill="#FFFFFF" d="M69.957,85.716c-3.092-7.041-3.185-7.228-3.874-7.581c-0.373-0.186-0.727-0.298-0.783-0.261
	c-0.074,0.093,0.838,2.645,3.911,10.932c0.782,2.085,1.378,3.836,1.34,3.873c-0.074,0.095-3.5-0.465-3.612-0.578
	c-0.038-0.035-0.354-1.19-0.708-2.55c-0.354-1.378-1.192-4.508-1.826-6.966c-0.651-2.458-1.247-4.748-1.322-5.084
	c-0.13-0.67-1.434-1.751-1.546-1.285c-0.019,0.132,0.615,3.595,1.435,7.674c0.819,4.098,1.453,7.469,1.396,7.522
	c-0.037,0.057-0.838-0.148-1.75-0.446c-1.565-0.502-1.676-0.577-1.77-1.099c-0.168-1.023-1.397-13.669-1.397-14.377
	c0-0.54-0.13-0.819-0.67-1.322c-0.373-0.354-0.708-0.596-0.745-0.56c-0.056,0.038,0.056,3.129,0.205,6.854
	c0.168,3.725,0.28,7.263,0.242,7.86l-0.056,1.08l-1.583-0.821l-1.583-0.837L55.3,86.85c0.019-0.502,0.224-4.078,0.429-7.971
	l0.409-7.04L55.616,71.3c-0.279-0.298-0.54-0.503-0.577-0.484c-0.074,0.094-0.354,2.216-0.801,6.09
	c-0.912,7.784-1.098,9.35-1.154,9.404c-0.149,0.148-2.942-2.048-2.942-2.31c0-0.167,0.335-1.807,0.727-3.648
	c0.409-1.844,1.117-5.16,1.601-7.357c0.484-2.197,0.913-4.06,0.95-4.134c0.093-0.149-0.689-1.453-0.875-1.453
	c-0.112,0-0.335,0.745-2.496,8.474c-1.788,6.369-1.862,6.612-1.956,6.612c-0.055,0-0.67-0.578-1.378-1.286l-1.266-1.285l1.508-3.873
	c0.838-2.142,2.161-5.494,2.924-7.469l1.396-3.557l-0.373-0.727l-0.373-0.707l-0.913,1.956c-0.502,1.079-1.602,3.463-2.458,5.308
	c-2.496,5.494-3.222,6.983-3.334,6.983c-0.186,0-2.16-2.794-2.123-2.98c0.037-0.094,1.005-1.788,2.16-3.762
	c4.47-7.58,5.717-9.776,5.717-10.057c0-0.148-0.092-0.539-0.205-0.856c-0.205-0.596-0.223-0.577-4.582,5.959
	c-2.402,3.613-4.395,6.593-4.413,6.631c-0.037,0.036-0.466-0.708-0.932-1.64l-0.875-1.676l5.047-6.127
	c5.14-6.295,5.308-6.519,4.917-7.542c-0.074-0.187-1.713,1.471-5.438,5.493c-2.924,3.166-5.382,5.698-5.456,5.624
	c-0.168-0.187-1.1-3.034-1.081-3.314c0-0.093,2.663-2.533,5.903-5.419c5.829-5.159,5.904-5.233,5.96-5.997
	c0.037-0.429,0.018-0.783-0.056-0.783c-0.056,0-2.849,2.179-6.202,4.824c-3.352,2.645-6.146,4.768-6.221,4.712
	c-0.148-0.149-0.633-3.538-0.502-3.631c0.038-0.038,3.054-1.975,6.686-4.303c6.295-4.041,6.611-4.264,6.76-4.897
	c0.224-1.118,1.043-1.49-7.989,3.594c-2.98,1.676-5.513,3.055-5.643,3.055c-0.149,0-0.205-0.484-0.167-1.807l0.056-1.825
	l4.861-2.142c2.682-1.174,5.94-2.607,7.244-3.166c2.253-0.968,2.402-1.062,2.701-1.769c0.186-0.41,0.298-0.782,0.26-0.82
	c-0.018-0.038-2.085,0.708-4.581,1.621c-8.083,3.017-10.094,3.743-10.187,3.668c-0.13-0.13,0.354-3.333,0.54-3.52
	c0.094-0.093,1.397-0.484,2.924-0.875c1.508-0.41,4.693-1.229,7.039-1.844c2.365-0.615,4.526-1.192,4.842-1.266
	c0.521-0.149,1.379-1.229,1.155-1.472c-0.056-0.056-3.519,0.578-7.691,1.416c-4.171,0.837-7.598,1.49-7.635,1.453
	c-0.13-0.112,0.875-3.092,1.117-3.353c0.168-0.167,1.155-0.335,2.831-0.465c1.435-0.13,3.8-0.354,5.29-0.503
	c1.489-0.167,3.836-0.41,5.214-0.54c2.383-0.242,2.514-0.279,2.923-0.782c0.242-0.298,0.428-0.615,0.428-0.708
	c0-0.093-0.521-0.111-1.155-0.056c-1.899,0.187-14.303,0.577-14.414,0.447c-0.056-0.056,0.261-0.801,0.708-1.657l0.801-1.546
	l1.024,0.038c0.559,0.037,4.153,0.242,7.971,0.465l6.946,0.41l0.578-0.577l0.558-0.578l-0.708-0.111
	c-0.41-0.056-2.607-0.316-4.917-0.596c-5.773-0.652-9.908-1.173-10-1.248c-0.112-0.111,1.825-2.756,2.104-2.868
	c0.13-0.056,2.831,0.465,5.978,1.155c3.166,0.689,6.593,1.434,7.636,1.676l1.918,0.41l0.689-0.466l0.67-0.465l-1.098-0.336
	c-0.596-0.167-2.943-0.838-5.196-1.471c-7.803-2.179-8.846-2.476-8.846-2.588c0-0.074,0.577-0.688,1.285-1.396l1.266-1.266
	l0.727,0.316c0.391,0.168,2.328,0.932,4.265,1.677c1.955,0.763,4.953,1.918,6.667,2.588l3.128,1.229l0.745-0.317
	c0.41-0.148,0.689-0.354,0.596-0.428c-0.13-0.112-3.892-1.863-12.906-5.997l-1.397-0.633l1.211-0.894
	c2.03-1.508,1.173-1.77,8.771,2.682c6.127,3.576,6.816,3.948,7.393,3.836c0.373-0.056,0.727-0.168,0.801-0.242
	c0.094-0.093-2.737-2.086-6.276-4.433c-3.538-2.365-6.481-4.339-6.518-4.414c-0.056-0.074,0.652-0.502,1.564-0.968l1.657-0.838
	l6.109,5.028c5.941,4.861,6.146,5.01,6.946,5.01c0.466,0,0.783-0.074,0.745-0.186c-0.037-0.112-2.569-2.514-5.662-5.363
	c-3.072-2.831-5.624-5.233-5.68-5.327c-0.056-0.149,2.756-1.192,3.278-1.229c0.111,0,2.588,2.681,5.494,5.959l5.289,5.959h0.819
	c0.634,0,0.781-0.055,0.651-0.224c-0.11-0.13-2.291-2.905-4.879-6.164c-2.57-3.26-4.637-5.997-4.6-6.072
	c0.111-0.167,3.128-0.651,3.445-0.559c0.13,0.056,2.142,3.054,4.451,6.686c4.152,6.481,4.247,6.592,4.954,6.742
	c0.41,0.093,0.764,0.13,0.8,0.093c0.058-0.075-0.576-1.229-5.474-9.908l-2.086-3.725l0.596-0.167
	c0.521-0.13,3.072-0.037,3.186,0.111c0.055,0.056,4.617,10.504,5.679,12.944c0.577,1.359,0.727,1.564,1.284,1.75
	c0.337,0.112,0.672,0.167,0.727,0.093c0.095-0.093-0.539-1.899-3.778-10.596c-0.783-2.124-1.38-3.93-1.305-3.986
	c0.112-0.13,3.146,0.298,3.427,0.484c0.149,0.093,0.707,2.178,3.296,12.031l0.875,3.352l0.727,0.41
	c0.392,0.224,0.727,0.372,0.727,0.317c0-0.038-0.67-3.409-1.491-7.468c-0.818-4.079-1.47-7.562-1.453-7.729
	c0.058-0.279,0.225-0.261,1.696,0.223c0.913,0.298,1.676,0.559,1.713,0.596c0.038,0.037,0.41,3.613,0.857,7.971
	c0.819,8.269,0.782,8.026,1.713,8.585c0.279,0.168,0.316,0.075,0.316-1.117c0-0.727-0.129-4.209-0.298-7.766
	c-0.149-3.539-0.224-6.5-0.169-6.556c0.075-0.075,0.821,0.242,1.696,0.689c1.303,0.652,1.563,0.875,1.563,1.249
	c0,0.726-0.726,13.501-0.818,14.507c-0.095,0.838-0.037,0.987,0.465,1.546c0.316,0.354,0.597,0.596,0.615,0.559
	c0.036-0.019,0.187-1.266,0.372-2.756c0.167-1.49,0.503-4.414,0.763-6.518c0.243-2.105,0.503-4.377,0.56-5.066
	c0.075-0.708,0.205-1.266,0.278-1.266c0.113,0,2.441,1.657,2.85,2.048c0.075,0.075-0.241,1.881-0.708,4.022
	c-0.465,2.142-1.061,4.861-1.32,6.034c-0.263,1.173-0.634,2.924-0.857,3.874l-0.372,1.714l0.427,0.652
	c0.243,0.354,0.504,0.577,0.56,0.503c0.056-0.075,0.262-0.67,0.429-1.341c0.187-0.67,0.949-3.39,1.693-6.052
	c0.746-2.663,1.51-5.382,1.695-6.053c0.169-0.67,0.393-1.285,0.484-1.397c0.188-0.205,2.569,2.086,2.569,2.477
	c0,0.13-1.247,3.464-2.793,7.412c-1.525,3.93-2.793,7.282-2.793,7.449c0,0.317,0.54,1.453,0.651,1.341
	c0.038-0.037,0.838-1.732,1.77-3.78c0.95-2.048,2.18-4.73,2.757-5.959c0.559-1.229,1.266-2.775,1.564-3.426l0.521-1.192l0.932,1.192
	c1.527,1.974,1.564,1.564-0.429,4.935c-6.611,11.211-6.313,10.634-6.089,11.454c0.111,0.41,0.261,0.708,0.335,0.651
	c0.093-0.055,2.067-2.979,4.432-6.518c2.347-3.538,4.302-6.443,4.358-6.443c0.055,0,0.483,0.745,0.931,1.676
	c0.744,1.527,0.801,1.695,0.521,1.993c-0.167,0.187-2.439,2.961-5.083,6.183c-3.726,4.582-4.75,5.941-4.675,6.24
	c0.056,0.224,0.11,0.54,0.11,0.726c0,0.186,0.075,0.316,0.149,0.279c0.094-0.018,2.272-2.365,4.861-5.177
	c5.791-6.295,5.754-6.239,5.886-6.108c0.073,0.075,0.371,0.856,0.67,1.769c0.445,1.341,0.503,1.676,0.297,1.825
	c-0.129,0.093-2.812,2.477-5.959,5.289l-5.718,5.103v0.82v0.819l0.429-0.335c5.214-4.154,11.863-9.368,11.938-9.368
	c0.094,0,0.392,1.453,0.577,2.794l0.111,0.838l-6.704,4.284c-6.164,3.929-6.723,4.338-6.834,4.879
	c-0.057,0.335-0.075,0.689-0.057,0.782c0.038,0.11,0.783-0.205,1.658-0.69c5.271-2.979,11.825-6.666,11.957-6.704
	c0.092-0.036,0.13,0.801,0.11,1.844l-0.056,1.919l-7.226,3.185c-6.965,3.035-7.263,3.185-7.505,3.799
	c-0.149,0.354-0.242,0.708-0.224,0.764c0.036,0.074,2.402-0.727,5.27-1.788c9.032-3.353,9.405-3.481,9.498-3.389
	s-0.391,3.221-0.54,3.463c-0.056,0.093-0.466,0.262-0.894,0.392c-0.651,0.168-7.766,2.03-13.334,3.482
	c-1.062,0.279-1.211,0.371-1.546,1.062l-0.391,0.744l0.446-0.112c2.198-0.521,14.899-2.96,14.973-2.866
	c0.149,0.148-0.8,3.239-1.043,3.389c-0.092,0.056-1.451,0.224-3.017,0.372c-1.564,0.15-4.022,0.41-5.456,0.56
	c-1.435,0.147-3.668,0.354-4.954,0.484l-2.348,0.204l-0.521,0.671l-0.522,0.651l3.987-0.13c2.196-0.074,5.735-0.205,7.877-0.317
	c2.142-0.092,3.93-0.13,3.967-0.092c0.149,0.148-1.452,3.109-1.75,3.221c-0.15,0.056-2.646-0.037-5.531-0.205
	c-2.869-0.186-6.37-0.391-7.748-0.447l-2.514-0.129l-0.56,0.502c-0.297,0.261-0.521,0.54-0.465,0.578
	c0.055,0.056,1.639,0.278,3.538,0.483c1.9,0.225,4.822,0.56,6.519,0.765c1.694,0.204,3.594,0.428,4.246,0.483
	c0.633,0.074,1.154,0.205,1.154,0.315c0,0.094-0.392,0.728-0.876,1.397c-0.503,0.671-0.948,1.305-1.005,1.397
	c-0.074,0.111-0.483,0.093-1.023-0.038c-2.999-0.651-8.271-1.806-11.212-2.458l-3.428-0.726l-0.651,0.391
	c-0.354,0.224-0.576,0.465-0.483,0.54c0.13,0.13,3.054,0.969,11.415,3.297c1.286,0.354,2.608,0.726,2.963,0.838l0.613,0.186
	l-1.267,1.285c-0.708,0.708-1.378,1.286-1.488,1.286c-0.132,0-3.018-1.099-6.445-2.442c-9.051-3.556-8.213-3.275-9.013-2.903
	c-0.373,0.186-0.633,0.373-0.578,0.447c0.113,0.093,2.495,1.21,7.301,3.407c6.462,2.941,6.853,3.147,6.611,3.446
	c-0.111,0.13-0.783,0.651-1.49,1.135l-1.268,0.856l-6.759-3.946c-3.724-2.18-6.835-3.985-6.891-4.023
	c-0.149-0.075-1.471,0.335-1.471,0.465c0,0.058,2.904,2.029,6.424,4.377c3.539,2.347,6.425,4.341,6.425,4.413
	c0,0.243-2.979,1.696-3.259,1.584c-0.13-0.036-2.83-2.196-5.995-4.787c-3.148-2.588-5.867-4.805-6.017-4.916
	c-0.186-0.148-0.559-0.187-1.098-0.111l-0.802,0.111l5.737,5.289c3.165,2.925,5.772,5.364,5.81,5.438
	c0.038,0.113-1.248,0.578-3.26,1.193c-0.111,0.035-2.588-2.609-5.493-5.885l-5.271-5.941h-0.801c-0.707,0-0.781,0.037-0.595,0.335
	c0.093,0.168,2.272,2.962,4.824,6.182c2.569,3.223,4.617,5.885,4.6,5.923c-0.076,0.057-3.111,0.597-3.428,0.597
	c-0.13,0-0.67-0.688-1.21-1.528c-8.083-12.607-7.58-11.863-8.25-11.992c-0.354-0.056-0.708-0.075-0.764,0
	c-0.056,0.055,0.708,1.547,1.713,3.313c3.185,5.645,5.474,9.76,5.605,10.078c0.094,0.277-0.073,0.315-1.732,0.315h-1.843
	L69.957,85.716z M76.549,79.587c0.504-0.093,0.577-0.205,0.689-0.987c0.055-0.465,0.279-1.731,0.484-2.812s0.688-3.8,1.098-6.034
	c0.41-2.254,0.801-4.153,0.875-4.228c0.317-0.279,0.987-0.372,0.987-0.13c0,0.372-0.726,9.292-0.93,11.509
	c-0.112,1.08-0.188,2.049-0.188,2.161c0,0.223,1.025,0.093,1.472-0.188c0.13-0.092,0.205-0.93,0.205-2.421
	c0-1.267,0.055-4.414,0.13-7.039l0.113-4.73l0.52-0.297l0.504-0.299l0.11,1.322c0.485,5.829,0.671,8.157,0.783,10.131
	c0.074,1.247,0.186,2.347,0.26,2.477c0.095,0.149,0.317,0.131,0.82-0.073c0.614-0.262,0.689-0.354,0.595-0.802
	c-0.055-0.298-0.223-1.49-0.39-2.664c-0.149-1.172-0.429-3.352-0.634-4.841c-0.205-1.49-0.466-3.464-0.596-4.414l-0.223-1.714
	l0.446-0.372c0.242-0.186,0.465-0.335,0.484-0.316c0.037,0.02,0.763,3.091,1.639,6.816c0.875,3.742,1.639,6.815,1.675,6.853
	c0.038,0.038,0.374-0.093,0.728-0.316l0.652-0.409l-0.299-0.969c-0.148-0.54-1.062-3.594-2.03-6.815l-1.769-5.867l0.428-0.428
	l0.428-0.429L86.4,63.18c2.142,5.271,3.948,9.628,4.266,10.354l0.371,0.839l0.596-0.56l0.615-0.54l-2.365-4.842
	c-3.893-8.025-3.855-7.896-3.52-8.418c0.167-0.224,0.316-0.428,0.372-0.428c0.074,0,0.671,0.969,4.376,7.077
	c1.472,2.402,2.756,4.487,2.869,4.619c0.186,0.185,0.335,0.11,0.744-0.317l0.522-0.54l-4.041-5.812
	c-3.595-5.176-4.023-5.866-3.911-6.349c0.074-0.299,0.185-0.541,0.278-0.541s2.031,2.197,4.303,4.897
	c2.271,2.682,4.319,5.084,4.543,5.307l0.41,0.448l0.429-0.689l0.409-0.67l-1.285-1.341c-0.689-0.745-2.904-3.035-4.897-5.121
	c-3.612-3.78-3.911-4.19-3.353-4.768c0.075-0.075,2.496,1.862,5.363,4.339c2.869,2.477,5.29,4.487,5.382,4.487
	c0.205,0,0.616-0.818,0.616-1.173c0-0.13-2.496-2.122-5.551-4.432c-5.103-3.874-5.53-4.246-5.586-4.823
	c-0.057-0.466,0-0.577,0.204-0.502c0.149,0.055,2.813,1.656,5.922,3.574c3.11,1.919,5.736,3.483,5.829,3.502
	c0.075,0.018,0.262-0.279,0.41-0.652l0.241-0.708l-0.781-0.446c-0.429-0.242-2.589-1.396-4.786-2.589
	c-7.729-4.135-7.171-3.762-7.039-4.582c0.056-0.354,0.483-0.205,5.176,1.769c2.813,1.173,5.698,2.384,6.406,2.7
	c1.416,0.615,1.602,0.559,1.602-0.484v-0.559L94.91,52.9c-6.368-2.216-6.648-2.346-6.871-2.886
	c-0.131-0.317-0.223-0.596-0.204-0.633c0.037-0.019,0.764,0.112,1.619,0.316c2.272,0.54,11.565,2.813,11.976,2.942
	c0.315,0.093,0.335,0.019,0.241-0.689c-0.056-0.428-0.131-0.82-0.186-0.856c-0.037-0.038-3.185-0.633-6.984-1.322
	c-6.462-1.173-6.909-1.285-7.095-1.694c-0.111-0.224-0.206-0.485-0.206-0.559c0-0.168-0.372-0.187,7.022,0.428
	c7.226,0.596,6.945,0.596,6.945-0.037c0-1.024,0.205-0.987-7.337-1.136l-7.04-0.149l-0.335-0.447
	c-0.187-0.261-0.316-0.503-0.279-0.577c0.057-0.056,0.951-0.167,1.993-0.242c3.221-0.205,11.974-0.894,12.031-0.95
	c0.036-0.038-0.075-0.373-0.225-0.745c-0.354-0.82,0.316-0.82-5.606,0c-1.937,0.26-4.712,0.651-6.146,0.837l-2.607,0.354
	l-0.445-0.447c-0.559-0.54-0.932-0.391,3.798-1.49c4.843-1.137,9.069-2.142,9.35-2.235c0.186-0.056,0.167-0.242-0.074-0.745
	c-0.168-0.354-0.392-0.652-0.503-0.652c-0.113,0-1.342,0.335-2.72,0.763c-7.766,2.347-10.521,3.147-10.801,3.147
	c-0.168,0-0.465-0.167-0.651-0.372c-0.317-0.354-0.317-0.373,0.111-0.54c0.745-0.28,12.551-5.103,12.608-5.159
	c0.129-0.094-0.783-1.192-0.971-1.192c-0.092,0-2.979,1.359-6.423,2.999c-5.215,2.514-6.313,2.979-6.704,2.849
	c-0.243-0.093-0.484-0.241-0.522-0.354c-0.019-0.093,1.137-0.913,2.608-1.788c1.452-0.894,4.134-2.514,5.958-3.613
	c1.807-1.099,3.296-2.048,3.296-2.123c0-0.261-1.135-0.969-1.359-0.838c-0.11,0.075-2.755,1.881-5.848,4.023
	c-5.585,3.855-5.623,3.874-6.201,3.65l-0.576-0.243l5.381-4.562c4.991-4.228,5.382-4.582,5.121-4.879
	c-0.465-0.521-0.949-0.577-1.471-0.167c-0.26,0.205-2.292,2.123-4.506,4.264c-5.327,5.122-5.308,5.103-5.886,4.954
	c-0.26-0.056-0.484-0.167-0.484-0.242c0-0.056,2.05-2.496,4.563-5.42l4.563-5.308l-0.688-0.298
	c-0.393-0.168-0.763-0.279-0.838-0.242c-0.057,0.056-2.03,2.589-4.376,5.662c-3.762,4.954-4.302,5.586-4.749,5.586
	c-0.298,0-0.521-0.093-0.521-0.187c0-0.111,1.638-2.849,3.631-6.108c2.458-4.004,3.558-5.941,3.391-6.016
	c-0.112-0.075-0.467-0.167-0.783-0.242c-0.541-0.112-0.577-0.074-1.416,1.527c-3.313,6.239-5.791,10.745-5.996,10.876
	c-0.373,0.242-1.117,0.186-1.006-0.075c0.316-0.801,2.625-6.37,3.874-9.312c0.802-1.918,1.471-3.539,1.471-3.595
	s-0.371-0.093-0.819-0.093h-0.8l-0.67,1.918c-0.372,1.042-1.231,3.501-1.9,5.438c-2.198,6.332-2.03,5.922-2.625,6.09
	c-0.28,0.074-0.541,0.111-0.578,0.074c-0.038-0.037,0.484-2.31,1.155-5.065c0.689-2.756,1.434-5.829,1.658-6.816l0.446-1.825h-0.801
	c-0.726,0-0.819,0.056-0.912,0.503c-0.057,0.298-0.28,1.527-0.484,2.756c-0.224,1.229-0.559,3.073-0.745,4.097
	c-0.186,1.025-0.54,2.943-0.782,4.246c-0.41,2.253-0.466,2.421-0.95,2.682c-0.298,0.149-0.559,0.242-0.596,0.205
	c-0.037-0.037,0.019-0.856,0.112-1.825c0.354-3.949,0.913-11.025,0.913-11.658c0-0.652-0.019-0.652-0.596-0.541
	c-0.335,0.075-0.67,0.187-0.745,0.261c-0.056,0.056-0.167,2.048-0.224,4.395c-0.074,2.365-0.167,5.55-0.223,7.095
	c-0.112,2.793-0.112,2.831-0.578,3.036c-0.261,0.13-0.502,0.186-0.521,0.167c-0.019-0.037-0.13-1.396-0.242-3.035
	c-0.559-7.654-0.82-10.802-0.875-10.857c-0.186-0.187-1.396,0.391-1.396,0.67c0,0.373,0.558,4.638,1.304,10.001l0.558,3.911
	l-0.428,0.316c-0.224,0.167-0.466,0.261-0.541,0.186c-0.074-0.075-0.819-3.054-1.657-6.648c-0.838-3.576-1.583-6.592-1.657-6.686
	c-0.168-0.168-1.304,0.428-1.304,0.689c0,0.092,0.894,3.147,1.993,6.778c1.788,5.959,1.955,6.63,1.732,7.059
	c-0.484,0.875-0.261,1.303-4.433-8.902c-0.782-1.937-1.472-3.501-1.546-3.501c-0.093,0-0.372,0.206-0.651,0.447l-0.521,0.428
	l0.503,1.136c0.298,0.633,1.639,3.464,3.017,6.295c1.378,2.831,2.514,5.215,2.514,5.308c0,0.242-0.428,1.1-0.54,1.1
	c-0.056,0-0.317-0.355-0.559-0.801c-1.304-2.291-6.778-11.118-6.891-11.118c-0.279,0-0.987,0.912-0.894,1.155
	c0.037,0.13,1.806,2.719,3.892,5.736c2.086,3.017,3.855,5.587,3.929,5.717c0.131,0.223-0.205,1.192-0.41,1.154
	c-0.055,0-2.123-2.383-4.581-5.307c-2.439-2.906-4.506-5.29-4.581-5.29c-0.074,0-0.298,0.28-0.503,0.633l-0.372,0.615l4.916,5.103
	c4.6,4.786,4.898,5.14,4.786,5.662c-0.055,0.316-0.13,0.596-0.167,0.633c-0.019,0.018-2.458-2.012-5.382-4.545
	c-2.943-2.533-5.364-4.563-5.401-4.525c-0.019,0.019-0.187,0.335-0.373,0.689c-0.26,0.521-0.278,0.67-0.056,0.857
	c0.131,0.111,2.7,2.085,5.699,4.357c2.98,2.272,5.438,4.228,5.419,4.358c-0.056,0.969-0.111,0.95-6.034-2.7
	c-3.166-1.938-5.866-3.576-5.978-3.632c-0.279-0.093-0.745,1.229-0.521,1.434c0.093,0.075,2.85,1.583,6.127,3.353
	c3.277,1.751,6.015,3.258,6.07,3.315c0.243,0.261,0.354,1.154,0.168,1.154c-0.112,0-3.054-1.192-6.537-2.644
	c-3.464-1.434-6.351-2.589-6.388-2.552c-0.056,0.037-0.112,0.41-0.149,0.801c-0.055,0.707-0.037,0.745,0.689,0.968
	c1.806,0.559,12.44,4.34,12.571,4.49c0.093,0.074,0.224,0.372,0.279,0.67c0.112,0.372,0.075,0.484-0.112,0.428
	c-0.149-0.056-1.136-0.298-2.216-0.558c-1.08-0.261-4.022-0.969-6.574-1.603c-2.533-0.614-4.656-1.118-4.712-1.118
	s-0.074,0.354-0.037,0.8l0.056,0.783l5.214,0.95c2.868,0.521,6.015,1.099,7.002,1.266c1.676,0.298,1.788,0.354,1.975,0.875
	c0.26,0.671,0.893,0.671-7.3-0.018c-3.576-0.299-6.519-0.521-6.556-0.485c-0.038,0.038,0,0.392,0.093,0.783l0.149,0.726l7.115,0.187
	l7.114,0.187l0.298,0.428c0.167,0.242,0.261,0.485,0.186,0.54c-0.056,0.056-2.253,0.261-4.897,0.447
	c-5.848,0.428-8.846,0.689-8.958,0.801c-0.111,0.112,0.336,1.416,0.485,1.416c0.075,0,2.179-0.279,4.693-0.634
	c9.442-1.322,9.312-1.322,9.74-0.876c0.223,0.206,0.335,0.429,0.279,0.484c-0.056,0.057-2.57,0.69-5.568,1.397
	c-3.017,0.726-6.034,1.451-6.723,1.601c-0.708,0.169-1.267,0.392-1.267,0.484c0,0.094,0.149,0.392,0.316,0.671
	c0.167,0.279,0.335,0.521,0.335,0.54c0.019,0.037,11.249-3.296,13.241-3.93c0.261-0.073,0.559,0.02,0.894,0.279l0.521,0.41
	l-1.285,0.521c-0.689,0.298-3.613,1.489-6.48,2.663c-2.869,1.173-5.233,2.197-5.252,2.29c-0.037,0.075,0.131,0.392,0.373,0.689
	l0.428,0.521l2.607-1.247c11.007-5.307,10.261-4.972,10.783-4.637c0.261,0.168,0.41,0.373,0.335,0.447
	c-0.149,0.147-7.747,4.767-10.336,6.313c-0.801,0.465-1.453,0.949-1.453,1.079c0,0.112,0.242,0.392,0.541,0.597l0.521,0.373
	l5.773-3.986c3.185-2.198,5.904-4.004,6.052-4.004c0.149,0,0.41,0.11,0.596,0.242c0.279,0.205-0.242,0.708-4.898,4.655
	c-2.868,2.44-5.271,4.507-5.326,4.601c-0.111,0.186,0.95,0.986,1.192,0.894c0.093-0.038,1.956-1.77,4.134-3.874
	c5.643-5.438,6.034-5.773,6.425-5.773c0.987,0.019,0.764,0.354-3.743,5.587c-2.515,2.925-4.563,5.346-4.563,5.401
	c0,0.074,0.316,0.223,0.689,0.354c0.838,0.316,0.316,0.876,5.494-5.959c3.576-4.711,3.818-4.991,4.396-5.01
	c0.316,0,0.596,0.038,0.596,0.074c0,0.038-0.894,1.527-1.993,3.315c-4.507,7.338-5.065,8.27-5.177,8.548
	c-0.094,0.242,0.055,0.354,0.651,0.502c0.745,0.188,0.763,0.169,1.043-0.39c0.167-0.336,1.695-3.166,3.371-6.313
	c2.942-5.494,3.091-5.736,3.613-5.736c0.298,0,0.54,0.074,0.54,0.148c0,0.15-0.075,0.317-3.221,7.878
	c-1.099,2.607-1.993,4.86-1.993,4.991c0,0.149,0.242,0.204,0.764,0.168l0.782-0.057l1.173-3.353
	c2.831-8.175,3.427-9.832,3.483-9.907c0.037-0.019,0.316-0.11,0.633-0.166l0.578-0.112l-0.913,3.687
	c-1.21,4.88-2.254,9.2-2.364,9.722C75.413,79.736,75.581,79.773,76.549,79.587z"/>
<g>
	<path fill="#FFFFFF" d="M18.94,128.137c0.083-8.713,0.125-9.904,0.459-10.928c1.191-3.637,3.761-6.311,7.25-7.543
		c1.776-0.647,5.161-0.689,6.875-0.104c3.427,1.149,6.164,3.845,7.334,7.23c0.648,1.858,0.648,5.181,0,6.978
		c-1.692,4.723-5.788,7.668-10.698,7.668c-1.671,0-3.196-0.333-5.036-1.148c-0.334-0.146-0.376,0.063-0.417,2.486l-0.063,2.633
		l-2.612,1.232c-1.441,0.689-2.737,1.254-2.883,1.254C18.919,137.895,18.877,136.098,18.94,128.137z M31.895,125.566
		c3.594-1.003,4.994-5.976,2.465-8.838c-1.17-1.317-2.465-1.901-4.179-1.901c-1.567,0.021-2.528,0.376-3.656,1.357
		c-1.129,1.003-1.776,2.487-1.776,4.096c0,1.442,0.209,2.11,0.982,3.26C26.985,125.337,29.576,126.193,31.895,125.566z"/>
	<path fill="#FFFFFF" d="M80.036,131.668l-2.904-1.399l-1.755,0.584c-4.117,1.38-8.462,0.376-11.45-2.653
		c-3.218-3.238-4.2-7.668-2.612-11.91c1.274-3.364,4.408-6.08,8.065-6.937c4.91-1.148,10.218,1.442,12.516,6.122
		c1.024,2.111,1.169,3.385,1.106,10.823l-0.063,6.771L80.036,131.668z M73.475,125.566c2.152-0.605,3.74-2.861,3.74-5.265
		c0-1.63-0.334-2.528-1.379-3.678c-1.107-1.233-2.403-1.797-4.075-1.797c-1.588,0.021-2.57,0.376-3.719,1.42
		c-1.88,1.714-2.298,4.807-0.919,6.979C68.481,125.315,70.988,126.256,73.475,125.566z"/>
	<path fill="#FFFFFF" d="M127.758,131.542c-2.59-1.231-2.861-1.315-3.342-1.065c-2.027,1.045-5.369,1.275-7.836,0.522
		c-5.369-1.65-8.713-6.958-7.836-12.411c0.668-4.241,3.572-7.605,7.732-9.026c1.713-0.585,5.098-0.543,6.873,0.104
		c3.51,1.232,6.08,3.929,7.25,7.543c0.314,0.982,0.377,2.215,0.461,8.42c0.063,5.955,0.02,7.251-0.209,7.251
		C130.705,132.88,129.305,132.273,127.758,131.542z M122.158,125.274c4.201-2.027,4.055-8.254-0.229-10.113
		c-0.982-0.418-3.26-0.418-4.221,0c-1.129,0.48-2.383,1.714-2.926,2.842c-1.316,2.779,0.166,6.395,3.07,7.479
		C118.92,125.88,121.156,125.755,122.158,125.274z"/>
	<path fill="#FFFFFF" d="M94.746,131.5c-1.547-0.188-3.721-0.772-5.057-1.399l-1.422-0.626v-2.341v-2.341l2.465,0.857
		c2.217,0.752,2.633,0.835,4.578,0.856c1.963,0,2.152-0.042,2.652-0.501c0.711-0.669,0.711-1.525,0.021-2.069
		c-0.271-0.229-1.338-0.668-2.34-0.961c-2.508-0.773-4.41-1.525-5.287-2.089c-3.406-2.236-3.928-6.623-1.107-9.361
		c1.797-1.733,3.865-2.465,6.959-2.465c2.986,0,5.348,0.731,7.563,2.34l1.004,0.71l-0.857,1.776
		c-0.459,0.961-0.877,1.797-0.92,1.839c-0.041,0.042-0.855-0.272-1.816-0.668c-2.279-0.982-4.242-1.359-5.391-1.004
		c-1.672,0.501-1.902,2.006-0.42,2.758c0.42,0.229,1.734,0.69,2.926,1.045c2.904,0.877,4.158,1.442,5.225,2.403
		c2.402,2.152,2.527,5.726,0.313,8.19C101.934,130.561,98.004,131.877,94.746,131.5z"/>
	<path fill="#FFFFFF" d="M45.644,124.856c0-7.104,0.104-7.857,1.567-10.344c2.444-4.157,8.023-6.393,12.578-5.035l0.877,0.272
		l-1.357,2.675l-1.337,2.694h-1.003c-1.066,0-2.57,0.606-3.364,1.316c-0.271,0.251-0.71,0.94-0.982,1.504
		c-0.48,1.024-0.501,1.171-0.501,7.168v6.102h-3.238h-3.238V124.856z"/>
</g>
</svg>
