<?xml version="1.0" encoding="utf-8"?>
<!-- Generator: Adobe Illustrator 16.0.0, SVG Export Plug-In . SVG Version: 6.00 Build 0)  -->
<!DOCTYPE svg PUBLIC "-//W3C//DTD SVG 1.0//EN" "http://www.w3.org/TR/2001/REC-SVG-20010904/DTD/svg10.dtd">
<svg version="1.0" id="Layer_1" xmlns="http://www.w3.org/2000/svg" xmlns:xlink="http://www.w3.org/1999/xlink" x="0px" y="0px"
	 width="150px" height="150px" viewBox="0 0 150 150" enable-background="new 0 0 150 150" xml:space="preserve">
<g>
	<path fill="#FFFFFF" d="M136.079,89.547c-0.021-0.246-0.553-0.841-0.687-0.758c-0.011,0.007-0.015,0.021-0.016,0.036
		c-0.035-0.019-0.071-0.037-0.108-0.055c-0.001-0.019-0.006-0.037-0.019-0.054c-0.031-0.052-0.093-0.071-0.145-0.041
		c0,0-0.001,0-0.002,0.001c-0.025-0.014-0.054-0.018-0.08-0.008c-0.016-0.006-0.03-0.011-0.046-0.016
		c-0.009-0.009-0.018-0.018-0.025-0.028c-0.038-0.059-0.104-0.077-0.154-0.046c-0.031-0.018-0.064-0.02-0.095-0.003
		c-0.152-0.035-0.302-0.055-0.438-0.055c-0.492,0-0.79-0.636-0.421-0.933c0.074-0.063,0.225-0.104,0.399-0.12
		c0.046,0.017,0.097,0.028,0.144,0.028c0.068,0,0.126-0.014,0.171-0.034c0.161,0.009,0.321,0.033,0.454,0.076
		c0.027,0.032,0.065,0.067,0.113,0.102c0.297,0.215,0.308,0.215,0.625-0.123c0.22-0.226,0.253-0.382,0.158-0.375
		c-0.024-0.037-0.077-0.089-0.148-0.148c0.026-0.057,0.021-0.126-0.04-0.164c-0.051-0.03-0.109-0.032-0.16-0.016
		c-0.018-0.029-0.05-0.063-0.096-0.097c-0.103-0.072-0.226-0.113-0.287-0.072c-0.004,0.002-0.007,0.006-0.011,0.008
		c-0.089-0.023-0.19-0.039-0.316-0.048c-0.005-0.031-0.02-0.062-0.053-0.083c-0.089-0.055-0.206-0.018-0.252,0.051
		c-0.005-0.004-0.011-0.008-0.019-0.011c-0.009-0.016-0.02-0.029-0.037-0.04c-0.078-0.048-0.176-0.025-0.23,0.026
		c-0.126,0.007-0.168,0.02-0.166,0.051c-0.168,0.006-0.288,0.022-0.391,0.055c-0.048-0.036-0.138-0.032-0.248,0.022
		c-0.082,0.044-0.136,0.104-0.147,0.158c-0.034,0.008-0.072,0.025-0.109,0.057c-0.061,0.052-0.098,0.125-0.09,0.185
		c-0.053,0.058-0.101,0.116-0.142,0.179c-0.036-0.034-0.081-0.04-0.127,0.006c-0.106,0.106-0.194,0.764-0.134,0.955
		c-0.019,0.042-0.017,0.091,0.012,0.132c0.041,0.072,0.081,0.153,0.092,0.205c0.01,0.041,0.021,0.103,0.03,0.133
		c0,0.019,0.024,0.021,0.054,0.015c0.078,0.146,0.186,0.281,0.322,0.397c0.009,0.032,0.025,0.066,0.055,0.101
		c0.056,0.064,0.135,0.104,0.195,0.089c0.083,0.055,0.149,0.091,0.189,0.103c0.037,0.032,0.08,0.056,0.118,0.056
		c0.055,0,0.1-0.028,0.126-0.066c0.093,0.01,0.206,0.03,0.326,0.057c0.002,0.007,0.005,0.014,0.009,0.02
		c0.041,0.051,0.103,0.092,0.153,0.092c0.044,0,0.079-0.018,0.106-0.043c0.145,0.039,0.28,0.085,0.386,0.128
		c0.024,0.021,0.051,0.044,0.083,0.069c0.059,0.046,0.111,0.082,0.158,0.11c0.021,0.033,0.037,0.067,0.05,0.101
		c-0.036,0.102-0.047,0.25-0.018,0.339c-0.02,0.041-0.043,0.08-0.073,0.118c-0.059,0.024-0.124,0.062-0.189,0.111
		c-0.041,0.027-0.078,0.058-0.11,0.087c-0.264,0.083-0.646,0.077-0.966-0.006c-0.036-0.045-0.088-0.061-0.134-0.039
		c0-0.001-0.001-0.001-0.002-0.001c-0.003-0.004-0.006-0.007-0.008-0.011c-0.061-0.068-0.156-0.115-0.233-0.11
		c-0.011-0.008-0.023-0.015-0.033-0.022l-0.081-0.065c-0.004-0.035-0.021-0.069-0.053-0.089c-0.024-0.019-0.053-0.023-0.079-0.019
		l-0.064-0.053l-0.297,0.287c-0.164,0.153-0.277,0.349-0.268,0.431c0.021,0.082,0.236,0.256,0.493,0.379
		c0.299,0.154,0.566,0.228,0.972,0.243c0.001,0.001,0.001,0.002,0.002,0.003c0.03,0.051,0.153,0.103,0.257,0.103
		c0.14,0,0.235-0.055,0.262-0.118c0.152-0.013,0.293-0.034,0.422-0.064c0.048,0.036,0.139,0.033,0.249-0.022
		c0.054-0.029,0.096-0.065,0.121-0.103c0.229-0.107,0.403-0.258,0.528-0.452c0.023,0.001,0.047-0.003,0.068-0.02
		c0.062-0.03,0.082-0.093,0.051-0.123c-0.015-0.015-0.017-0.041-0.01-0.071c0.007-0.016,0.012-0.03,0.018-0.046
		c0.011-0.022,0.024-0.045,0.043-0.067c0.062-0.071,0.083-0.185,0.041-0.246c-0.001-0.002-0.002-0.004-0.004-0.006
		c0.012-0.08,0.021-0.162,0.024-0.25c0.004-0.188,0.002-0.317-0.019-0.422C136.082,89.573,136.081,89.561,136.079,89.547z"/>
	<path fill="#FFFFFF" d="M92.826,88.317c-0.008,0-0.018,0-0.027,0c0.024-0.139,0.027-0.279,0.009-0.417
		c0.017-0.04,0.014-0.087-0.013-0.127c-0.006-0.01-0.012-0.021-0.017-0.03c-0.023-0.091-0.056-0.179-0.096-0.265
		c-0.004-0.017-0.008-0.032-0.011-0.043c0-0.01-0.008-0.015-0.019-0.017c-0.086-0.164-0.204-0.313-0.349-0.441
		c0.048-0.113-0.47-0.402-0.595-0.328c-0.236-0.063-0.549-0.069-1.232-0.055l-1.147,0.03l-0.031,2.308
		c-0.01,1.261,0,2.368,0.031,2.439c0.03,0.093,0.194,0.123,0.481,0.103l0.44-0.03l0.031-0.893l0.031-0.902l0.636-0.01
		c0.349-0.011,0.677-0.011,0.728,0c0.051,0.01,0.164-0.051,0.267-0.144c0.001-0.001,0.002-0.002,0.003-0.003
		c0.043,0.009,0.104-0.009,0.16-0.059c0.016-0.014,0.029-0.027,0.042-0.043c0.008,0.002,0.015,0.005,0.021,0.013
		c0.05,0.044,0.177-0.098,0.305-0.305c0.06,0.013,0.111-0.031,0.064-0.096c-0.002-0.003-0.002-0.006-0.002-0.011
		c0.027-0.049,0.054-0.1,0.079-0.151c0.011-0.015,0.022-0.028,0.035-0.043c0.071-0.103,0.103-0.174,0.062-0.174
		c0,0-0.001-0.001-0.002-0.001c0.016-0.042,0.03-0.083,0.043-0.123c0.003-0.009,0.005-0.018,0.008-0.026
		c0.001-0.002,0.002-0.003,0.002-0.004C92.836,88.389,92.867,88.317,92.826,88.317z M90.878,88.727h-0.574v-0.614v-0.615h0.574
		c0.33,0,0.553,0.02,0.7,0.078c0.005,0.011,0.01,0.022,0.018,0.034c0.029,0.05,0.078,0.069,0.118,0.053
		c0.028,0.028,0.051,0.062,0.067,0.1c0.01,0.073,0.01,0.177,0.002,0.286c-0.017,0.038-0.021,0.081-0.013,0.119
		c-0.02,0.163-0.057,0.316-0.104,0.375c-0.027,0.032-0.05,0.068-0.063,0.102C91.482,88.69,91.168,88.727,90.878,88.727z"/>
	<path fill="#FFFFFF" d="M107.997,88.699c0.049-0.103,0.086-0.209,0.108-0.318c0.01-0.003,0.019-0.007,0.027-0.013
		c0.109-0.063,0.088-0.387-0.004-0.436c-0.036-0.337-0.189-0.667-0.459-0.926c0.004-0.005,0.008-0.008,0.011-0.013
		c0.059-0.106-0.259-0.313-0.381-0.258c-0.272-0.146-0.491-0.16-1.434-0.142l-1.158,0.03v0.021
		c-0.113-0.013-0.205,4.471-0.103,4.736c0.039,0.088,0.088,0.11,0.153,0.051c0.069,0.044,0.199,0.057,0.38,0.042l0.39-0.03
		l0.03-0.943l0.028-0.884c0.174,0.028,0.438,0.016,0.606-0.026c0.103,0.057,0.194,0.19,0.357,0.502c0,0.037,0.02,0.08,0.064,0.131
		c0.007,0.009,0.011,0.017,0.016,0.024c0.014,0.027,0.028,0.056,0.044,0.085c0.004,0.021,0,0.034-0.019,0.034
		c-0.051,0,0,0.093,0.102,0.205c0.039,0.042,0.069,0.081,0.092,0.113l0.034,0.072c0.002,0.012-0.001,0.02-0.013,0.02
		c-0.041,0-0.041,0.052-0.01,0.103c0.026,0.041,0.068,0.062,0.107,0.061c0.003,0.044,0.018,0.097,0.046,0.154
		c0.026,0.048,0.058,0.086,0.09,0.111l0.146,0.3l0.471-0.031c0.527-0.038,0.587-0.12,0.26-0.728c0.004-0.05-0.008-0.113-0.044-0.185
		c-0.038-0.069-0.087-0.119-0.133-0.141c-0.05-0.089-0.094-0.17-0.135-0.243c0.021-0.045-0.006-0.128-0.081-0.211
		c-0.092-0.103-0.144-0.206-0.123-0.226c0.029-0.02-0.027-0.145-0.123-0.273c-0.008-0.11,0.071-0.146,0.205-0.239
		c0.064-0.047,0.122-0.098,0.176-0.151c0.035,0.024,0.084,0.028,0.122-0.002c0.051-0.031,0.071-0.093,0.041-0.144
		c-0.007-0.011-0.009-0.022-0.012-0.033c0.036-0.049,0.067-0.1,0.096-0.152C107.983,88.732,107.992,88.716,107.997,88.699z
		 M105.579,87.497h0.667c0.728,0,0.871,0.112,0.871,0.696c0,0.032-0.001,0.062-0.003,0.088c-0.006,0.005-0.012,0.01-0.018,0.016
		c-0.047,0.047-0.063,0.118-0.051,0.177c-0.033,0.04-0.082,0.072-0.15,0.103c-0.035-0.011-0.075-0.006-0.117,0.018
		c-0.062,0.031-0.358,0.052-0.656,0.041c-0.243-0.014-0.424-0.008-0.543,0.017v-0.539V87.497z"/>
	<path fill="#FFFFFF" d="M115.575,86.748v-0.123l-1.63-0.03c-1.712-0.03-1.906,0.021-1.906,0.431c0,0.348,0.204,0.472,0.788,0.472
		h0.544v1.876c0,1.322,0.041,1.917,0.123,1.999c0.072,0.072,0.246,0.123,0.39,0.123c0.482,0,0.513-0.113,0.513-2.122v-1.866
		l0.595-0.03l0.532-0.028c0.095,0.09,0.22-0.127,0.185-0.403C115.688,86.892,115.637,86.759,115.575,86.748z"/>
	<path fill="#FFFFFF" d="M52.652,84.502c-0.03-0.101-0.071-0.196-0.125-0.281c0.001-0.003,0.004-0.005,0.008-0.005
		c0.041,0-0.01-0.092-0.113-0.204c-0.008-0.01-0.015-0.018-0.022-0.026c-0.026-0.052-0.057-0.109-0.091-0.176
		c0.002-0.002,0.006-0.004,0.011-0.004c0.041,0,0-0.092-0.103-0.205c-0.014-0.015-0.026-0.029-0.038-0.044
		c-0.025-0.05-0.053-0.104-0.081-0.158c0.002-0.001,0.003-0.003,0.006-0.003c0.041,0,0.041-0.051,0.01-0.103
		c-0.026-0.038-0.063-0.059-0.101-0.06c-0.03-0.06-0.062-0.121-0.094-0.185c0.027-0.071-0.005-0.173-0.103-0.319
		c-0.054-0.081-0.103-0.136-0.145-0.17c-0.093-0.185-0.191-0.379-0.293-0.582c0.023-0.052,0.015-0.135-0.034-0.232
		c-0.04-0.073-0.093-0.125-0.143-0.144c0.019-0.053,0.017-0.112-0.011-0.153c-0.033-0.054-0.07-0.071-0.109-0.062
		c-0.002-0.006-0.005-0.012-0.008-0.017c0.026-0.044-0.008-0.142-0.098-0.24c-0.022-0.024-0.041-0.048-0.058-0.069
		c-0.019-0.038-0.038-0.077-0.058-0.115c0.002-0.006,0.005-0.01,0.013-0.01c0.041,0,0.041-0.052,0.01-0.103
		c-0.028-0.042-0.069-0.063-0.109-0.061c-0.098-0.194-0.196-0.391-0.294-0.589c0.026-0.057,0.024-0.125-0.006-0.171
		c-0.033-0.054-0.071-0.071-0.11-0.061c-0.031-0.063-0.062-0.125-0.093-0.187c0.002-0.03-0.004-0.063-0.023-0.091
		c-0.041-0.072-0.082-0.154-0.092-0.195c-0.01-0.052-0.021-0.112-0.031-0.144c0-0.023-0.035-0.023-0.073-0.009
		c-0.067-0.135-0.133-0.268-0.199-0.399c-0.003-0.045-0.017-0.098-0.046-0.155c-0.025-0.046-0.055-0.082-0.085-0.108
		c-0.028-0.056-0.056-0.111-0.083-0.167c0.024-0.045-0.011-0.141-0.099-0.237c-0.018-0.02-0.034-0.039-0.048-0.058
		c-0.022-0.045-0.044-0.089-0.066-0.133c0.002-0.003,0.006-0.005,0.011-0.005c0.042,0,0.042-0.051,0.011-0.102
		c-0.026-0.04-0.066-0.061-0.104-0.061c-0.067-0.136-0.132-0.268-0.194-0.394c0-0.036-0.009-0.083-0.029-0.142
		c-0.056-0.16-0.133-0.282-0.209-0.342c-0.07-0.142-0.134-0.273-0.192-0.392c-0.007-0.036-0.018-0.075-0.04-0.117
		c-0.017-0.03-0.036-0.058-0.056-0.079c-0.158-0.326-0.251-0.523-0.251-0.536c0-0.029,0.054-0.075,0.129-0.113
		c0.04-0.02,0.078-0.035,0.106-0.041c0.041-0.01,0.103-0.02,0.133-0.03c0.02,0,0.021-0.026,0.013-0.059
		c0.106-0.075,0.239-0.19,0.381-0.325c0.083-0.04,0.231-0.165,0.385-0.334c0.155-0.169,0.277-0.339,0.322-0.443
		c0.101-0.131,0.181-0.249,0.221-0.336c0.063-0.14,0.118-0.282,0.167-0.425c0.039-0.03,0.062-0.079,0.042-0.126
		c0.006-0.018,0.011-0.036,0.017-0.055c0.014-0.003,0.028-0.009,0.041-0.02c0.051-0.031,0.072-0.092,0.042-0.144
		c-0.001-0.001-0.001-0.002-0.001-0.004c0.017-0.031,0.02-0.064,0.002-0.095c0.011-0.02,0.026-0.039,0.05-0.055
		c0.062-0.041,0.082-0.112,0.042-0.164c-0.003-0.005-0.008-0.008-0.012-0.013c0.028-0.094,0.031-0.242,0.013-0.359
		c0.034-0.301,0.038-0.604,0.015-0.906c0.025-0.145,0.006-0.388-0.047-0.513c0.07-0.049,0.059-0.11-0.02-0.208
		c-0.062-0.082-0.082-0.143-0.051-0.143c0.041,0,0.02-0.092-0.042-0.205c-0.022-0.042-0.049-0.078-0.077-0.105
		c-0.057-0.172-0.123-0.342-0.199-0.511c-0.046-0.097-0.116-0.206-0.204-0.321c-0.028-0.086-0.187-0.287-0.402-0.509
		c-0.114-0.115-0.228-0.217-0.326-0.294c-0.031-0.048-0.084-0.107-0.166-0.178c-0.154-0.134-0.328-0.205-0.39-0.174
		c-0.002,0.001-0.003,0.004-0.004,0.005c-0.006-0.003-0.011-0.007-0.017-0.01c-0.008-0.055-0.065-0.108-0.143-0.108
		c-0.041-0.01-0.174-0.061-0.297-0.133c-0.048-0.025-0.094-0.043-0.134-0.053l-0.256-0.121h-0.154c-0.063-0.039-0.14-0.031-0.195,0
		h-0.543c0.021-0.112-6.284-0.205-6.541-0.092c-0.085,0.042-0.152,0.07-0.221,0.092h-0.21l-0.246,0.288l-0.246,0.287v0.956
		c-0.086,2.281-0.138,9.453-0.051,9.686c0.016,0.035,0.033,0.06,0.051,0.073v0.326l0.318,0.267c0.231,0.196,0.437,0.305,0.642,0.335
		c0.001,0.015,0.006,0.029,0.015,0.044c0.041,0.052,0.103,0.093,0.154,0.093c0.094,0,0.156-0.079,0.157-0.154
		c0.009-0.002,0.019-0.005,0.028-0.007c0.037,0.034,0.081,0.059,0.112,0.059c0.086,0,0.198-0.111,0.247-0.21
		c0.025-0.013,0.048-0.028,0.07-0.042c0.083,0.054,0.209-0.08,0.37-0.384c0.099-0.187,0.121-0.335,0.068-0.401
		c0.046-0.188,0.076-0.779,0.076-1.577v-1.579l2.296-0.03c1.15-0.02,2.104-0.012,2.247,0.005l0.01,0.021
		c-0.027,0.08,0.111,0.331,0.231,0.469l0.004,0.008c-0.037,0.037-0.026,0.119,0.04,0.194c0.026,0.03,0.058,0.055,0.09,0.07
		l0.072,0.146c-0.032,0.042,0.002,0.143,0.094,0.244c0.025,0.028,0.048,0.056,0.066,0.081l0.05,0.102
		c-0.001,0.007-0.004,0.012-0.013,0.012c-0.041,0-0.041,0.052-0.01,0.103c0.027,0.042,0.068,0.063,0.108,0.061
		c0.002,0.044,0.017,0.097,0.046,0.154c0.019,0.034,0.04,0.063,0.063,0.087c-0.015,0.074,0.053,0.219,0.152,0.354
		c0.113,0.144,0.175,0.267,0.134,0.267s0.01,0.093,0.112,0.205c0.018,0.02,0.033,0.038,0.047,0.055l0.073,0.148
		c-0.002,0-0.004,0.002-0.007,0.002c-0.041,0-0.041,0.051-0.01,0.103c0.025,0.037,0.061,0.058,0.098,0.06l0.014,0.03
		c0.006,0.038,0.018,0.079,0.041,0.125c0.019,0.034,0.041,0.063,0.063,0.087c-0.015,0.073,0.053,0.219,0.153,0.354
		c0.026,0.033,0.049,0.065,0.07,0.096l0.074,0.15c0,0.001,0.001,0.002,0.002,0.003c0,0.011-0.003,0.018-0.012,0.018
		c-0.041,0,0.01,0.093,0.113,0.205c0.007,0.008,0.013,0.015,0.02,0.022c0.03,0.062,0.061,0.122,0.09,0.184
		c-0.038,0.003-0.038,0.052-0.008,0.102c0.022,0.033,0.055,0.054,0.087,0.06c0.073,0.148,0.146,0.294,0.217,0.438
		c0.006,0.019,0.012,0.035,0.014,0.046c0.01,0.041,0.021,0.103,0.031,0.134c0,0.018,0.022,0.021,0.051,0.015
		c0.038,0.077,0.077,0.154,0.114,0.23c-0.001,0,0,0.001-0.001,0.001c-0.051,0,0,0.093,0.103,0.205l0,0
		c0.035,0.07,0.069,0.14,0.103,0.208c-0.029,0.009-0.028,0.053,0,0.1c0.021,0.03,0.049,0.051,0.079,0.059
		c0.083,0.166,0.162,0.326,0.237,0.478c0,0.002,0.001,0.005,0.002,0.007c0.01,0.041,0.021,0.103,0.031,0.134
		c0,0.017,0.02,0.021,0.045,0.016c0.04,0.08,0.078,0.156,0.115,0.231c-0.041,0.006,0.004,0.087,0.094,0.19
		c0.039,0.077,0.076,0.152,0.112,0.223c-0.025,0.012-0.023,0.054,0.003,0.098c0.02,0.03,0.046,0.05,0.075,0.058
		c0.187,0.374,0.308,0.612,0.335,0.66c0.027,0.048,0.065,0.12,0.108,0.202c-0.002,0.001-0.003,0.003-0.006,0.003
		c-0.041,0-0.02,0.072,0.052,0.154c0.019,0.021,0.04,0.04,0.062,0.055c0.033,0.066,0.067,0.135,0.1,0.202
		c-0.006,0.05,0.03,0.132,0.105,0.215c0.001,0.001,0.002,0.002,0.003,0.003c0.035,0.065,0.07,0.129,0.107,0.189
		c-0.002,0.001-0.004,0.002-0.007,0.002c-0.041,0-0.041,0.052-0.01,0.103c0.031,0.047,0.081,0.069,0.125,0.06
		c0.207,0.296,0.436,0.507,0.645,0.586c0.082,0.031,0.195,0.063,0.236,0.063c0.053,0.006,0.143-0.019,0.248-0.061
		c0.083,0.064,0.402-0.085,0.665-0.319c0.171-0.145,0.185-0.225,0.101-0.229c0.098-0.182,0.135-0.436,0.108-0.687
		C52.741,84.712,52.724,84.622,52.652,84.502z M47.783,70.817c0.029,0.068,0.074,0.148,0.138,0.235
		c0.063,0.081,0.13,0.152,0.191,0.203c0.043,0.12,0.072,0.259,0.087,0.429c-0.006,0.034-0.004,0.067,0.007,0.098
		c0.008,0.119,0.012,0.25,0.012,0.398c0,0.099-0.002,0.19-0.005,0.276c-0.022,0.047-0.023,0.101-0.007,0.144
		c-0.017,0.254-0.051,0.451-0.113,0.609c-0.044,0.041-0.092,0.091-0.141,0.149c-0.08,0.096-0.146,0.197-0.185,0.28
		c-0.049,0.038-0.104,0.075-0.164,0.11c-0.046,0.025-0.094,0.051-0.144,0.075c-0.052-0.02-0.133-0.008-0.226,0.038
		c-0.055,0.03-0.098,0.067-0.124,0.105c-0.01,0.002-0.021,0.006-0.03,0.008c-0.113,0.02-1.405,0.03-2.881,0.01l-2.652-0.021
		c0.076-0.582,0.047-2.863-0.044-3.534v-0.054h2.717c1.55,0,2.231,0.004,2.622,0.053c0.02,0.01,0.042,0.014,0.063,0.009
		c0.069,0.01,0.128,0.022,0.182,0.037c0.001,0.001,0.002,0.002,0.003,0.004c0.038,0.057,0.101,0.076,0.151,0.047
		c0.048,0.019,0.096,0.041,0.146,0.065C47.548,70.665,47.677,70.738,47.783,70.817z"/>
	<path fill="#FFFFFF" d="M63.679,74.322c0.02-0.112,0.071-0.276,0.113-0.369c0.099-0.217,0.047-1.669-0.05-1.996
		c0.01-0.006,0.02-0.014,0.03-0.024c0.062-0.061,0.072-0.164,0.031-0.225c-0.038-0.06-0.08-0.075-0.124-0.057
		c-0.005-0.077-0.01-0.147-0.016-0.213c0.067-0.041,0.066-0.101,0.006-0.161c-0.01-0.01-0.017-0.022-0.024-0.033
		c-0.01-0.08-0.02-0.153-0.032-0.219c0.022-0.066,0.003-0.125-0.033-0.16c-0.004-0.018-0.009-0.034-0.014-0.051
		c0.034-0.059,0.008-0.187-0.071-0.346c-0.046-0.083-0.099-0.153-0.145-0.198c-0.043-0.079-0.103-0.172-0.17-0.272
		c-0.004-0.042-0.018-0.091-0.044-0.146c-0.046-0.085-0.111-0.141-0.166-0.15c-0.034-0.044-0.067-0.088-0.101-0.132
		c0.022-0.042,0.006-0.113-0.051-0.18c-0.047-0.055-0.112-0.091-0.168-0.092c-0.154-0.18-0.281-0.308-0.324-0.308
		c-0.006,0-0.017-0.004-0.03-0.01c-0.012-0.017-0.026-0.035-0.042-0.052c-0.093-0.102-0.216-0.164-0.267-0.133c0,0,0,0,0,0
		c-0.01-0.007-0.02-0.014-0.03-0.021c-0.002-0.001-0.005-0.003-0.008-0.005c-0.01-0.032-0.026-0.065-0.054-0.097
		c-0.062-0.072-0.153-0.113-0.215-0.083c-0.005,0.003-0.006,0.008-0.01,0.012c-0.102-0.053-0.209-0.098-0.329-0.136
		c-0.103-0.071-0.225-0.112-0.286-0.071c-0.001,0-0.001,0-0.001,0c-0.176-0.034-0.384-0.059-0.64-0.077
		c0.018-0.053,0.008-0.114-0.046-0.148c-0.121-0.075-0.292,0.021-0.269,0.13c-0.026-0.001-0.053-0.002-0.079-0.003
		c0.026-0.008,0.04-0.016,0.04-0.025c0-0.102-3.517-0.205-3.773-0.102c-0.06,0.026-0.088,0.073-0.079,0.124
		c-0.579,0.023-0.932,0.074-1.23,0.181c-0.025,0.001-0.052,0.008-0.075,0.023c-0.014,0.008-0.027,0.016-0.039,0.022
		c-0.041,0.018-0.082,0.036-0.122,0.057c-0.05,0.017-0.11,0.029-0.208,0.044c-0.152,0.017-0.479,0.306-0.553,0.458
		c-0.047,0.041-0.096,0.087-0.147,0.136c-0.038-0.035-0.118-0.023-0.191,0.041c-0.072,0.062-0.113,0.154-0.082,0.216
		c0.003,0.006,0.009,0.008,0.014,0.011c-0.07,0.077-0.138,0.155-0.201,0.232c-0.051,0.01-0.12,0.063-0.192,0.156
		c-0.069,0.099-0.12,0.209-0.129,0.28c-0.046,0.079-0.071,0.139-0.065,0.171c0,0.008-0.007,0.029-0.019,0.059
		c-0.117,0.125-0.25,0.399-0.231,0.511c-0.048,0.165-0.076,0.415-0.091,0.918c-0.006-0.019-0.011-0.031-0.018-0.033
		c-0.112-0.021-0.205,4.88-0.102,5.147c0.035,0.08,0.079,0.105,0.135,0.064c0.009,0.299,0.019,0.499,0.029,0.561
		c0.024,0.145,0.081,0.316,0.162,0.5c-0.006,0.094,0.061,0.28,0.197,0.505c0.125,0.205,0.257,0.363,0.324,0.381
		c0.062,0.083,0.125,0.164,0.19,0.239c-0.017,0.048,0.018,0.14,0.101,0.23c0.088,0.099,0.204,0.158,0.259,0.137
		c0.081,0.07,0.167,0.136,0.255,0.199c0.017,0.049,0.068,0.111,0.153,0.177c0.159,0.119,0.286,0.146,0.333,0.114
		c0.044,0.021,0.087,0.044,0.132,0.064c0.01,0.026,0.024,0.052,0.047,0.078c0.062,0.071,0.153,0.112,0.215,0.082
		c0.015-0.009,0.023-0.024,0.028-0.042c0.121,0.045,0.247,0.084,0.375,0.119c0.016,0.021,0.044,0.035,0.079,0.035
		c0.051,0,0.133,0.031,0.174,0.082c0.041,0.042,0.123,0.063,0.174,0.042c0.036-0.011,0.053-0.038,0.057-0.071
		c0.151,0.015,0.341,0.027,0.571,0.038c-0.004,0.021-0.003,0.042,0.008,0.063c0.09,0.142,5.994,0.094,6.128-0.046
		c0.101-0.009,0.181-0.02,0.248-0.033c0.049,0.035,0.139,0.03,0.247-0.023c0.08-0.043,0.132-0.102,0.146-0.154
		c0.008-0.006,0.016-0.012,0.023-0.018c0.039,0.032,0.117,0.02,0.189-0.043c0.072-0.062,0.113-0.154,0.083-0.216
		c-0.003-0.005-0.009-0.007-0.013-0.01c0.004-0.005,0.008-0.01,0.011-0.016c0.036-0.011,0.08-0.047,0.124-0.107
		c0.072-0.104,0.113-0.227,0.072-0.288c-0.006-0.012-0.014-0.02-0.024-0.024c0.061-0.093,0.092-0.229,0.055-0.313
		c-0.02-0.051-0.046-0.08-0.075-0.094c-0.015-0.101-0.044-0.176-0.089-0.204c-0.061-0.04-0.082-0.112-0.051-0.163
		c0.03-0.052-0.093-0.185-0.277-0.298c-0.318-0.194-0.513-0.205-3.814-0.205c-2.428,0-3.161-0.005-3.527-0.088
		c-0.053-0.028-0.115-0.051-0.185-0.065c-0.008-0.002-0.015-0.003-0.022-0.005c-0.043-0.02-0.085-0.042-0.13-0.067
		c-0.091-0.051-0.175-0.111-0.254-0.181c-0.008-0.021-0.021-0.04-0.044-0.055c-0.01-0.006-0.02-0.011-0.03-0.015
		c-0.128-0.128-0.236-0.281-0.324-0.456c0.016-0.025-0.006-0.103-0.057-0.195c-0.018-0.033-0.039-0.063-0.061-0.087
		c-0.035-0.105-0.064-0.217-0.087-0.333c0.05-0.304,0.027-0.981-0.035-1.303c0.698,0.104,6.134,0.074,7.367-0.029
		c0.294-0.001,0.469-0.002,0.484-0.002c0.026-0.006,0.118-0.067,0.238-0.152c0.024,0.025,0.155-0.035,0.285-0.135
		c0.12-0.094,0.175-0.181,0.159-0.225c0.077-0.076,0.141-0.152,0.196-0.236C63.555,74.64,63.642,74.517,63.679,74.322z
		 M55.866,70.525c0.038,0.013,0.084,0.01,0.124-0.017c0.032-0.018,0.065-0.036,0.097-0.051c0.322-0.073,0.81-0.083,2.056-0.083
		c1.683,0,2.254,0.04,2.643,0.266c0.047,0.042,0.097,0.092,0.146,0.145c0.099,0.103,0.189,0.173,0.262,0.21
		c0.06,0.075,0.11,0.157,0.152,0.247c0.001,0.047,0.016,0.105,0.047,0.168c0.011,0.021,0.024,0.039,0.037,0.056
		c0.077,0.27,0.102,0.606,0.086,1.042l-0.041,0.738h-3.373h-3.314c0.031-0.148,0.043-0.385,0.033-0.707
		c-0.01-0.441,0.031-0.882,0.103-1.005c0.048-0.097,0.063-0.174,0.053-0.227c0.063-0.125,0.138-0.237,0.224-0.336
		c0.017-0.012,0.034-0.026,0.051-0.042c0.032-0.029,0.059-0.06,0.081-0.092c0.107-0.094,0.226-0.174,0.36-0.236
		C55.753,70.572,55.809,70.547,55.866,70.525z"/>
	<path fill="#FFFFFF" d="M90.867,79.377c0-0.441-0.041-0.543-0.328-0.8l-0.328-0.297h-3.434c-1.989-0.011-3.537-0.052-3.691-0.113
		c-0.095-0.033-0.18-0.054-0.227-0.052l-0.02-0.009c-0.11-0.056-0.208-0.108-0.295-0.162c-0.444-0.418-0.597-0.879-0.566-1.694
		l0.031-0.748l3.813-0.031c2.102-0.021,3.876-0.061,3.958-0.071c0.195-0.047,0.854-0.709,1.005-0.984l0.03-0.031l-0.001-0.039
		c0.001-0.001,0.001-0.002,0.001-0.003c0.051-0.338,0.051-2.788-0.011-3.167c-0.03-0.206-0.143-0.502-0.235-0.646
		s-0.144-0.256-0.112-0.256c0.102,0-0.349-0.625-0.759-1.056c-0.373-0.39-1.167-0.818-1.474-0.827l-0.229-0.117h-0.221
		c-0.223-0.12-1.033-0.159-2.742-0.133c-1.702,0.026-2.311,0.067-2.386,0.193c-0.103,0.014-0.181,0.031-0.246,0.051
		c-0.072-0.045-0.175-0.028-0.311,0.053c-0.134,0.072-0.267,0.144-0.298,0.144c-0.153,0.021-0.707,0.38-0.983,0.636
		c-0.317,0.298-0.861,1.138-0.902,1.384c-0.011,0.072-0.082,0.287-0.154,0.461c-0.072,0.185-0.113,0.41-0.072,0.492
		c0.027,0.071,0.059,0.109,0.092,0.117c-0.007,0.119-0.012,0.251-0.017,0.396c-0.094,0.858-0.154,4.419-0.064,4.654
		c0.023,0.051,0.049,0.079,0.08,0.083c0.004,0.097,0.009,0.187,0.014,0.27c-0.017,0.006-0.034,0.019-0.053,0.037
		c-0.133,0.133,0.134,1.046,0.421,1.466c0.092,0.144,0.194,0.339,0.235,0.431c0.123,0.349,1.271,1.139,1.814,1.261
		c0.082,0.021,0.267,0.083,0.41,0.144c0.242,0.101,0.538,0.105,0.624,0.032c0.074,0.006,0.157,0.013,0.249,0.018
		c-0.032,0.029-0.022,0.063,0.019,0.104c0.031,0.03,1.467,0.062,3.188,0.062c2.625,0,3.168-0.021,3.455-0.164
		C90.704,80.208,90.867,79.951,90.867,79.377z M87.423,70.509c0.522,0.062,1.076,0.656,1.117,1.2
		c0.011,0.246,0.051,0.482,0.082,0.533c0,0,0.001,0,0.001,0.001c0.003,0.052,0.006,0.105,0.01,0.163l0.051,0.841H85.29h-3.34
		c0.033-0.16,0.048-0.416,0.039-0.748c0-0.461,0.031-0.954,0.093-1.097c0.153-0.379,0.747-0.882,1.096-0.913
		c0.15-0.012,0.266-0.042,0.34-0.08c0.339-0.023,0.85-0.029,1.722-0.033c0.833,0,1.405,0.008,1.819,0.045
		C87.14,70.46,87.265,70.493,87.423,70.509z"/>
	<path fill="#FFFFFF" d="M105.497,74.538l0.031,5.495l0.338,0.298c0.472,0.42,1.107,0.42,1.579,0l0.338-0.298l0.031-5.413
		c0.011-2.974,0-5.485-0.041-5.567c-0.041-0.092-0.082-0.256-0.093-0.358c-0.03-0.338-0.522-0.636-1.004-0.625
		c-0.009,0-0.018,0.001-0.026,0.001c-0.022,0-0.044,0.001-0.066,0.004c-0.011,0.001-0.021,0.002-0.03,0.004
		c-0.009,0.001-0.017,0.002-0.024,0.003c-0.416,0.056-0.832,0.291-0.778,0.443l-0.172,0.129l0.002,0.199
		C105.506,69.113,105.478,70.811,105.497,74.538z"/>
	<path fill="#FFFFFF" d="M122.629,71.78c-0.031-0.041-0.071-0.194-0.082-0.348c-0.071-0.892-0.574-1.814-1.313-2.399
		c-0.276-0.226-0.543-0.41-0.594-0.41c-0.186-0.031-0.247-0.052-0.452-0.154c-0.108-0.06-0.265-0.099-0.349-0.093
		c-0.045-0.011-0.089-0.021-0.133-0.03c-0.015-0.003-0.042-0.006-0.077-0.01c-0.028-0.013-0.055-0.026-0.077-0.042
		c-0.071-0.051-0.174-0.062-0.225-0.031c-0.052,0.042-0.124,0.021-0.165-0.041c-0.04-0.062-1.261-0.103-3.444-0.103
		c-2.296,0-3.209,0.004-3.66,0.153h-0.04L112,68.295c-0.24,0.096-0.338,0.243-0.475,0.471c-0.036,0.06-0.065,0.117-0.091,0.202
		l-0.012,0.014v0.03c-0.096,0.402-0.103,1.411-0.103,5.393c0,3.742,0.031,5.382,0.113,5.536c0.062,0.123,0.236,0.328,0.379,0.441
		c0.195,0.153,0.41,0.215,0.759,0.215c0.44,0,0.533-0.041,0.811-0.349c0.275-0.315,0.341-0.515,0.19-0.566
		c0.106-0.574,0.106-1.759,0.106-4.693v-4.613h2.706c1.223,0,1.975,0.008,2.471,0.053c0.08,0.036,0.195,0.066,0.339,0.08
		c0.328,0.041,0.974,0.543,1.046,0.82c0.01,0.072,0.041,1.948,0.062,4.173c0.031,2.225,0.071,4.121,0.112,4.203
		c0.01,0.025,0.021,0.058,0.03,0.092v0.103l0.046,0.052c0.006,0.022,0.013,0.044,0.017,0.062c0.021,0.082,0.164,0.256,0.317,0.39
		c0.533,0.431,1.538,0.144,1.764-0.513c0.004-0.011,0.008-0.028,0.011-0.052l0.01-0.01l-0.001-0.063
		C122.715,78.709,122.745,71.887,122.629,71.78z"/>
	<path fill="#FFFFFF" d="M136.109,78.939c-0.018-0.037-0.038-0.073-0.061-0.108c0.01-0.011,0.021-0.023,0.03-0.039
		c0.031-0.051-0.081-0.194-0.235-0.307c-0.276-0.194-0.451-0.205-3.741-0.216c-3.641-0.01-3.773-0.021-4.286-0.491
		c-0.13-0.116-0.224-0.17-0.286-0.162c-0.025-0.038-0.049-0.078-0.07-0.119c0.008-0.078-0.009-0.198-0.063-0.354
		c-0.038-0.119-0.078-0.247-0.107-0.347c-0.012-0.178-0.01-0.374,0.005-0.597l0.049-0.766c1.34,0.055,7.166,0.039,7.783-0.024
		c0.308-0.041,0.974-0.8,1.098-1.262c0.143-0.512,0.112-2.286-0.041-2.286c-0.007,0-0.013,0.006-0.02,0.017
		c-0.003-0.083-0.007-0.161-0.011-0.233c0.051-0.032,0.071-0.185,0.03-0.338c-0.041-0.143-0.093-0.379-0.124-0.522
		c-0.021-0.144-0.111-0.338-0.204-0.431c-0.093-0.103-0.134-0.185-0.093-0.185c0.145,0-0.543-0.892-0.882-1.148
		c-0.286-0.215-0.604-0.39-0.799-0.431c-0.031-0.01-0.144-0.061-0.257-0.123c-0.112-0.062-0.277-0.103-0.358-0.092
		c-0.002,0-0.005,0-0.008,0c-0.062-0.016-0.123-0.03-0.185-0.04c-0.038-0.016-0.075-0.033-0.105-0.052
		c-0.215-0.164-4.49-0.215-4.88-0.051c-0.175,0.072-0.399,0.133-0.522,0.144c-0.112,0.01-0.277,0.061-0.359,0.113
		c-0.081,0.041-0.205,0.092-0.277,0.102c-0.573,0.093-1.783,1.456-1.876,2.112c0,0.041-0.071,0.297-0.153,0.554
		c-0.185,0.625-0.205,5.515-0.021,6.141c0.062,0.226,0.113,0.44,0.103,0.481c-0.021,0.103,0.472,1.005,0.677,1.24
		c0.06,0.071,0.11,0.105,0.156,0.114c0.087,0.104,0.167,0.184,0.235,0.228c0.006,0.049,0.042,0.104,0.111,0.161
		c0.266,0.226,1.179,0.718,1.229,0.656c0.013-0.009,0.051-0.006,0.102,0.006c0.013,0.004,0.022,0.006,0.027,0.006
		c0.067,0.019,0.152,0.049,0.24,0.091c0.304,0.13,0.63,0.149,0.703,0.059c0.074,0.007,0.155,0.013,0.244,0.018
		c-0.036,0.029-0.026,0.065,0.017,0.108c0.03,0.03,1.435,0.062,3.116,0.062c3.403,0,3.753-0.052,4.05-0.625
		c0.082-0.164,0.144-0.308,0.144-0.318c-0.01-0.021,0.021-0.113,0.052-0.205C136.351,79.322,136.229,79.009,136.109,78.939z
		 M132.487,70.426c0.102,0.029,0.296,0.091,0.476,0.154c0.335,0.097,0.699,0.398,0.841,0.67c0.005,0.01,0.01,0.019,0.015,0.029
		c0.016,0.034,0.028,0.068,0.036,0.101c0.021,0.092,0.063,0.543,0.093,0.995c0.017,0.362,0.047,0.711,0.073,0.871h-3.323h-3.383
		l-0.021-0.636c-0.008-0.266-0.01-0.555-0.007-0.74c0.04-0.091,0.085-0.213,0.14-0.367c0.042-0.123,0.073-0.234,0.093-0.326
		c0.067-0.103,0.147-0.203,0.232-0.295c0.046-0.01,0.092-0.041,0.126-0.096c0.031-0.052,0.267-0.164,0.522-0.236
		c0.12-0.035,0.215-0.072,0.287-0.107C129.601,70.365,131.564,70.358,132.487,70.426z"/>
	<path fill="#FFFFFF" d="M73.346,80.443c0.072,0.112,0.739,0.021,0.923-0.133c0.062-0.052,0.144-0.063,0.174-0.021
		c0.041,0.031,0.144,0,0.236-0.081c0.092-0.072,0.226-0.145,0.308-0.154c0.708-0.103,2-1.876,1.938-2.687
		c-0.011-0.184,0.021-0.358,0.072-0.389c0.111-0.072,0.111-5.239-0.011-5.311c-0.041-0.031-0.072-0.185-0.052-0.328
		c0.02-0.175-0.081-0.506-0.237-0.857c-0.005-0.018-0.017-0.045-0.036-0.081c-0.171-0.366-0.396-0.743-0.608-0.979
		c-0.381-0.444-1.166-0.925-1.564-1.02c-0.087-0.031-0.219-0.055-0.43-0.073c-0.001-0.004-0.002-0.01-0.005-0.014
		c-0.042-0.062-0.164-0.092-0.267-0.062c-0.103,0.031-0.226,0.01-0.256-0.041c-0.082-0.133-6.766-0.123-7.023,0.021
		c-0.026,0.012-0.051,0.026-0.073,0.041h-0.122l-0.102,0.123c-0.104-0.047-0.25,0.134-0.369,0.453l-0.031,0.039v0.051
		c-0.083,0.236-0.124,10.386-0.051,10.56c0.041,0.082,0.062,0.226,0.051,0.328c-0.021,0.195,0.646,0.748,0.799,0.656
		c0.052-0.041,0.124-0.021,0.165,0.041c0.092,0.144,6.377,0.092,6.305-0.051c-0.002-0.005-0.012-0.01-0.026-0.014
		c0.103-0.007,0.199-0.015,0.29-0.022C73.345,80.44,73.345,80.441,73.346,80.443z M73.352,70.443
		c0.078,0.034,0.184,0.063,0.282,0.076c0.441,0.041,0.943,0.595,1.025,1.107c0.042,0.236,0.062,1.61,0.052,3.045
		c-0.01,2.472-0.021,2.636-0.216,2.912c-0.44,0.625-0.769,0.687-3.742,0.687h-2.696l-0.021-3.998
		c-0.015-1.821-0.044-3.06-0.083-3.633v-0.263h2.758C72.055,70.375,72.845,70.384,73.352,70.443z"/>
	<path fill="#FFFFFF" d="M102.709,68.356c-0.062-0.044-0.114-0.081-0.177-0.109l-0.049-0.044l-0.074,0
		c-0.307-0.082-0.925-0.08-2.92-0.072c-1.589,0.01-2.982,0.041-3.116,0.072c-0.173,0.052-0.249,0.093-0.22,0.125
		c-0.199,0.016-0.341,0.036-0.439,0.058c-0.055-0.003-0.13,0.018-0.213,0.062c-0.122,0.072-0.246,0.133-0.276,0.144
		c-0.194,0.042-0.513,0.216-0.8,0.431c-0.338,0.256-1.025,1.148-0.881,1.148c0.04,0,0,0.082-0.093,0.185
		c-0.154,0.174-0.421,1.107-0.369,1.313c0.01,0.051-0.011,0.164-0.052,0.256c-0.04,0.083-0.051,1.917-0.04,4.071l0.03,3.905
		l0.338,0.349c0.298,0.308,0.41,0.359,0.821,0.349c0.422,0,0.692-0.091,0.695-0.22c0.091-0.06,0.162-0.133,0.221-0.218
		c0.105-0.046,0.236-0.188,0.221-0.29c-0.01-0.062-0.01-0.882,0-1.825l0.011-1.722h3.065c2.282,0,2.859,0,3.157-0.104h0.011
		l0.009-0.006c0.084-0.032,0.148-0.073,0.228-0.127c0.194-0.123,0.349-0.276,0.349-0.328c0.01-0.062,0.061-0.205,0.133-0.338
		c0.103-0.185,0.112-0.318,0.021-0.585c-0.123-0.369-0.626-0.871-0.871-0.871c-0.116,0-0.18,0.029-0.194,0.073
		c-0.401-0.063-1.137-0.073-3.005-0.073h-2.946c0.034-0.222,0.058-0.584,0.076-1.127c0.021-0.708,0.062-1.364,0.092-1.456
		c0.072-0.297,0.502-0.687,0.893-0.8c0.159-0.056,0.33-0.111,0.437-0.143c0.582-0.014,1.538-0.034,2.617-0.052l2.896-0.055
		c0.041,0.024,0.11,0.045,0.161,0.045c0.163,0,0.696-0.42,0.625-0.492c-0.009-0.008-0.013-0.021-0.014-0.036
		c0.042-0.059,0.069-0.116,0.087-0.183c0.039-0.065,0.051-0.146,0.023-0.2c0.001-0.055-0.001-0.116-0.005-0.186
		c-0.002-0.088-0.007-0.163-0.018-0.229C103.301,68.895,103.156,68.651,102.709,68.356z"/>
	<path fill="#FFFFFF" d="M68.917,87.146c-0.011-0.048-0.045-0.11-0.103-0.173c-0.047-0.053-0.104-0.096-0.154-0.119l-0.214-0.229
		h-1.292h-1.302l-0.03,2.308c-0.01,1.261,0,2.368,0.03,2.439c0.031,0.093,0.185,0.123,0.43,0.103l0.39-0.03l0.031-0.893l0.031-0.902
		l0.636-0.01c0.83-0.011,1.097-0.062,1.323-0.267c0.063-0.056,0.136-0.146,0.211-0.254c0.058,0.028,0.094-0.033,0.229-0.279
		c0.05-0.101,0.079-0.188,0.085-0.254c0.101-0.204,0.172-0.39,0.172-0.484C69.389,87.891,69.188,87.493,68.917,87.146z
		 M66.724,88.727v-0.614v-0.615h0.667c0.346,0,0.513,0.006,0.618,0.059c0.017,0.032,0.05,0.068,0.1,0.105
		c0.008,0.006,0.018,0.012,0.027,0.018c0.021,0.032,0.042,0.069,0.065,0.115c0.061,0.113,0.094,0.188,0.104,0.26
		c-0.016,0.04-0.018,0.083-0.007,0.121c-0.015,0.063-0.046,0.135-0.096,0.234c-0.035,0.071-0.064,0.125-0.095,0.168
		c-0.035,0.008-0.073,0.025-0.109,0.058c-0.021,0.017-0.038,0.037-0.052,0.058c-0.107,0.032-0.271,0.034-0.563,0.034H66.724z"/>
	<path fill="#FFFFFF" d="M77.02,91.076c0.002-0.048-0.032-0.121-0.096-0.196c0,0,0,0,0.001,0c0.041,0,0-0.092-0.103-0.205
		c0.041,0,0.021-0.071-0.052-0.153c-0.021-0.024-0.044-0.043-0.067-0.06c0.006-0.039-0.091-0.255-0.24-0.515l-0.271-0.492
		c0.009-0.007,0.017-0.014,0.024-0.021c0.056-0.044,0.087-0.086,0.09-0.128l0.145-0.129c0.049,0.015,0.138-0.021,0.228-0.102
		c0.026-0.024,0.049-0.05,0.069-0.076c0.011-0.008,0.022-0.017,0.032-0.026c0.104-0.093,0.165-0.216,0.134-0.268
		c-0.005-0.008-0.013-0.013-0.021-0.017c0.04-0.102,0.056-0.226,0.065-0.417c0.063-0.024,0.12-0.121,0.12-0.263
		c0-0.103-0.051-0.226-0.102-0.257c-0.005-0.003-0.01-0.004-0.014-0.005c-0.01-0.223-0.039-0.377-0.09-0.405
		c-0.017-0.011-0.034-0.029-0.054-0.053c0.01-0.043-0.009-0.104-0.059-0.162c-0.022-0.026-0.049-0.048-0.076-0.063
		c-0.006-0.014-0.012-0.026-0.016-0.039c-0.063-0.144-0.186-0.246-0.298-0.246c-0.025,0-0.05-0.002-0.073-0.006
		c-0.058-0.085-0.211-0.16-0.368-0.148c-0.025,0.002-0.049,0.006-0.07,0.011c-0.239-0.024-0.632-0.037-1.067-0.031l-1.25,0.021
		L73.54,86.75c-0.112,0.071-0.203,4.265-0.101,4.53c0.027,0.062,0.059,0.09,0.099,0.081c0.001,0.005,0.002,0.009,0.003,0.011
		c0.03,0.093,0.195,0.123,0.482,0.103l0.44-0.03l0.031-0.954l0.029-0.892c0.051,0.013,0.116,0.024,0.197,0.03
		c0.204,0.02,0.432,0.118,0.57,0.228c0.039,0.058,0.08,0.129,0.127,0.214c0,0.035,0.001,0.089,0.01,0.123
		c0,0.039,0.036,0.048,0.076,0.036c0.002,0.003,0.003,0.006,0.004,0.01c0.009,0.064,0.037,0.146,0.084,0.241
		c0.044,0.078,0.093,0.145,0.138,0.188l0.194,0.383c-0.041,0.035-0.031,0.12,0.037,0.197c0.029,0.035,0.067,0.063,0.104,0.078
		l0.06,0.117l0.44,0.03c0.554,0.041,0.719-0.103,0.462-0.39C77.024,91.082,77.022,91.079,77.02,91.076z M74.515,87.497h0.646
		c0.306,0,0.51,0.018,0.646,0.072c0.01,0.03,0.025,0.061,0.052,0.092c0.041,0.047,0.094,0.08,0.144,0.089
		c0.037,0.083,0.051,0.19,0.051,0.331c0,0.092-0.008,0.163-0.027,0.224c-0.012,0.007-0.022,0.013-0.033,0.022
		c-0.051,0.043-0.085,0.1-0.091,0.151c-0.041,0.032-0.092,0.063-0.156,0.095c-0.029,0.015-0.066,0.029-0.105,0.043
		c-0.119-0.002-0.299,0.002-0.56,0.009c-0.265,0.008-0.446,0.02-0.564,0.04v-0.553V87.497z"/>
	<path fill="#FFFFFF" d="M84.85,89.004c0-0.525-0.002-0.843-0.024-1.062c0.012-0.054,0.016-0.118,0.004-0.189
		c-0.057-0.313-0.141-0.457-0.251-0.42c-0.005-0.007-0.011-0.014-0.016-0.021c-0.123-0.167-0.242-0.299-0.369-0.401
		c-0.009-0.03-0.024-0.061-0.052-0.091c-0.061-0.072-0.153-0.112-0.215-0.083c-0.001,0.002-0.002,0.004-0.004,0.005
		c-0.187-0.087-0.402-0.13-0.672-0.143c-0.043-0.071-0.194-0.105-0.315-0.064c-0.005-0.004-0.008-0.009-0.014-0.013
		c-0.106-0.065-0.252,0-0.27,0.093c-0.074,0.01-0.141,0.023-0.204,0.042c-0.047-0.04-0.141-0.037-0.255,0.02
		c-0.07,0.038-0.12,0.089-0.142,0.138c-0.102-0.022-0.247,0.112-0.298,0.243c-0.128,0.097-0.216,0.177-0.216,0.203
		c-0.01,0.052-0.062,0.175-0.123,0.287c-0.072,0.134-0.123,0.729-0.123,1.507c0,0.744,0.004,1.066,0.064,1.286
		c-0.012,0.077,0.034,0.237,0.15,0.416c0.113,0.185,0.247,0.297,0.298,0.267c0.002-0.001,0.003-0.003,0.004-0.005
		c0.016,0.016,0.03,0.029,0.046,0.045c-0.044,0.035-0.01,0.11,0.094,0.186c0.086,0.061,0.187,0.099,0.253,0.085
		c0.132,0.063,0.334,0.106,0.555,0.129c0.003,0.011,0.005,0.021,0.013,0.032c0.03,0.051,0.153,0.103,0.257,0.103
		c0.14,0,0.236-0.056,0.262-0.119c0.241-0.01,0.456-0.046,0.578-0.106c0.023-0.013,0.048-0.028,0.072-0.043
		c0.052,0.019,0.132,0.008,0.225-0.039c0.098-0.053,0.156-0.129,0.15-0.188c0.022-0.008,0.043-0.017,0.065-0.028
		c0.137-0.078,0.171-0.138,0.101-0.215c0.035-0.039,0.069-0.081,0.102-0.123c0.039-0.001,0.093-0.039,0.146-0.112
		c0.072-0.103,0.113-0.227,0.072-0.287c-0.001-0.004-0.004-0.006-0.006-0.009C84.845,90.096,84.856,89.718,84.85,89.004z
		 M83.076,87.497c0.3,0,0.494,0.05,0.622,0.207c-0.004,0.05,0.032,0.131,0.105,0.213c0.006,0.007,0.01,0.013,0.016,0.019
		c0.035,0.107,0.062,0.239,0.081,0.4c-0.038,0.066-0.048,0.163-0.015,0.248c0.015,0.036,0.028,0.063,0.043,0.081
		c0.003,0.047,0.006,0.094,0.009,0.144c0.007,0.18,0.008,0.344,0.004,0.495c-0.074,0.07-0.113,0.256-0.056,0.407
		c0.005,0.013,0.011,0.023,0.016,0.034c-0.021,0.03-0.026,0.069-0.007,0.104c-0.009,0.049-0.018,0.096-0.027,0.139
		c-0.007,0.008-0.014,0.015-0.022,0.021c-0.06,0.039-0.079,0.106-0.044,0.157c-0.009,0.013-0.018,0.024-0.028,0.037
		c-0.069,0.086-0.121,0.174-0.151,0.246c-0.062-0.002-0.147,0.021-0.237,0.082c-0.028,0.018-0.053,0.036-0.076,0.056
		c-0.159,0.037-0.3,0.051-0.422,0.038c-0.005-0.004-0.01-0.008-0.016-0.012c-0.047-0.033-0.099-0.06-0.146-0.074
		c-0.087-0.082-0.188-0.134-0.257-0.138c-0.002-0.002-0.004-0.004-0.006-0.006c-0.002-0.021-0.009-0.04-0.021-0.059
		c-0.041-0.072-0.082-0.154-0.092-0.195c-0.011-0.052-0.031-0.103-0.042-0.133c-0.013-0.033-0.03-0.09-0.053-0.169
		c-0.005-0.028-0.01-0.059-0.014-0.089c0.046-0.063,0.053-0.149,0.016-0.204c-0.013-0.02-0.026-0.034-0.039-0.045
		c-0.014-0.22-0.015-0.474-0.003-0.765c0.002-0.031,0.004-0.059,0.006-0.088c0.002-0.002,0.004-0.003,0.005-0.004
		c0.062-0.062,0.082-0.185,0.041-0.288c-0.005-0.014-0.011-0.025-0.017-0.037c0.013-0.097,0.027-0.183,0.046-0.259
		c0.008-0.004,0.016-0.006,0.022-0.012c0.052-0.03,0.072-0.092,0.041-0.143c-0.001-0.002-0.001-0.005-0.003-0.007
		c0.01-0.019,0.014-0.037,0.012-0.057c0.02-0.042,0.041-0.079,0.065-0.112c0.008-0.008,0.016-0.017,0.021-0.026
		C82.582,87.551,82.777,87.497,83.076,87.497z"/>
	<path fill="#FFFFFF" d="M97.121,86.625l-0.03,2.308c-0.011,1.261,0,2.357,0.03,2.439c0.031,0.103,0.399,0.123,1.61,0.103
		l1.568-0.03v-0.359v-0.359h-0.021c0.012-0.105-1.843-0.192-2.286-0.119V90.06v-0.563c0.468,0.073,1.822,0.02,1.844-0.1
		c0.096,0.089,0.22-0.127,0.186-0.403c-0.021-0.153-0.071-0.287-0.133-0.297v-0.123l-0.943-0.031l-0.953-0.03V88.01v-0.503
		l1.158-0.03l1.148-0.031v-0.409v-0.411h-1.589H97.121z"/>
	<path fill="#FFFFFF" d="M119.881,86.625v0.021c-0.112-0.013-0.204,4.471-0.102,4.736c0.039,0.089,0.088,0.11,0.153,0.05
		c0.074,0.045,0.219,0.058,0.431,0.043l0.44-0.03v-2.41v-2.409h-0.461H119.881z"/>
	<path fill="#FFFFFF" d="M128.539,87.342c0.097,0.1,0.225-0.119,0.189-0.398c-0.02-0.152-0.07-0.283-0.131-0.296l-0.002-0.022
		l-1.477-0.03c-0.994-0.021-1.518,0.01-1.609,0.092c-0.195,0.164-0.216,4.491-0.021,4.686c0.092,0.093,0.544,0.123,1.62,0.103
		l1.433-0.029c0.095,0.094,0.222-0.124,0.187-0.401c-0.021-0.154-0.071-0.287-0.133-0.298v-0.021h-0.01
		c0.006-0.056-0.355-0.112-1.088-0.133l-1.097-0.03l-0.03-0.636c-0.01-0.172-0.028-0.329-0.051-0.443
		c0.355,0.088,1.696,0.045,1.85-0.068c0.023,0,0.049-0.013,0.077-0.042c0.134-0.133,0.082-0.811-0.062-0.779v-0.021l-0.943-0.031
		l-0.892-0.028c0.048-0.258,0.025-0.772-0.04-1.017h1.045C128.052,87.497,128.392,87.472,128.539,87.342z"/>
	<path fill="#FFFFFF" d="M35.69,80.043c-0.103-0.112-0.267-0.358-0.379-0.553c-0.005-0.011-0.013-0.023-0.019-0.035
		c-0.008-0.053-0.038-0.122-0.083-0.191c-0.092-0.123-0.236-0.358-0.328-0.532c-0.156-0.289-0.348-0.564-0.501-0.739
		c-0.107-0.167-0.213-0.333-0.314-0.491c-0.01-0.099-0.099-0.264-0.282-0.502c-0.041-0.056-0.076-0.091-0.104-0.113
		c-0.056-0.09-0.105-0.171-0.148-0.243c0.004-0.074-0.075-0.234-0.219-0.403c-0.164-0.204-0.308-0.42-0.328-0.481
		c-0.012-0.029-0.038-0.054-0.064-0.067c-0.022-0.033-0.045-0.069-0.069-0.108c0.022-0.067-0.018-0.182-0.091-0.265
		c-0.082-0.092-0.226-0.328-0.318-0.513c-0.083-0.156-0.171-0.258-0.24-0.271c-0.022-0.036-0.043-0.072-0.066-0.109
		c0.006-0.072-0.032-0.165-0.094-0.234c-0.082-0.092-0.226-0.328-0.318-0.513c-0.08-0.151-0.166-0.252-0.234-0.27
		c-0.028-0.042-0.055-0.082-0.078-0.114c-0.003-0.12-0.127-0.299-0.243-0.372c-0.013-0.031-0.02-0.057-0.02-0.073
		c0-0.026-0.059-0.142-0.154-0.302c-0.029-0.075-0.108-0.198-0.256-0.426c-0.39-0.574-0.759-1.179-0.769-1.23
		c-0.015-0.116-0.313-0.527-0.511-0.737c-0.089-0.142-0.168-0.27-0.235-0.381c-0.001-0.079-0.088-0.247-0.238-0.43
		c-0.061-0.075-0.112-0.144-0.154-0.205c-0.019-0.028-0.039-0.06-0.059-0.092c-0.037-0.063-0.052-0.103-0.033-0.103
		c0.031,0,0.031-0.051,0-0.102c-0.034-0.051-0.088-0.071-0.135-0.055c-0.023-0.037-0.048-0.075-0.075-0.115
		c0.037-0.019,0.044-0.067-0.005-0.148c-0.023-0.039-0.071-0.054-0.119-0.045c-0.025-0.038-0.05-0.077-0.077-0.118
		c-0.029-0.208-0.286-0.626-0.434-0.679c-0.024-0.038-0.048-0.075-0.071-0.112c0.011-0.167-0.184-0.466-0.315-0.504
		c-0.038-0.063-0.069-0.115-0.093-0.155c0.017-0.035,0.001-0.11-0.06-0.231c-0.042-0.077-0.103-0.124-0.157-0.137
		c-0.049-0.082-0.103-0.171-0.159-0.264c-0.057-0.134-0.152-0.309-0.268-0.48c-0.205-0.328-0.379-0.615-0.39-0.646
		c-0.015-0.125-0.318-0.539-0.517-0.744c-0.087-0.134-0.166-0.255-0.233-0.355c0.033-0.04,0.003-0.156-0.122-0.336
		c-0.122-0.165-0.213-0.272-0.284-0.328c-0.051-0.09-0.101-0.18-0.147-0.267c-0.071-0.13-0.141-0.251-0.208-0.364
		c-0.03-0.071-0.074-0.155-0.13-0.241c-0.144-0.205-0.256-0.41-0.256-0.451c0-0.051-0.092-0.133-0.205-0.194
		c-0.215-0.113-0.215-0.124-1.322,1.67c-0.205,0.328-0.523,0.831-0.697,1.107c-0.185,0.277-0.338,0.523-0.338,0.564
		c0,0.03-0.133,0.246-0.287,0.482c-0.267,0.4-0.574,0.871-1.282,1.989c-0.154,0.247-0.277,0.461-0.277,0.492
		s-0.164,0.276-0.359,0.554c-0.195,0.267-0.359,0.522-0.359,0.564c0,0.031-0.154,0.287-0.328,0.553
		c-0.359,0.513-0.4,0.584-0.902,1.405c-0.164,0.287-0.369,0.605-0.44,0.707c-0.574,0.893-1.917,3.045-1.917,3.086
		c0,0.031-0.164,0.276-0.358,0.553c-0.195,0.267-0.359,0.523-0.359,0.564c0,0.03-0.164,0.297-0.359,0.573
		c-0.194,0.277-0.358,0.533-0.358,0.555c0,0.03-0.41,0.707-0.923,1.517c-0.902,1.425-0.995,1.62-0.851,1.753
		c0.113,0.124,23.232,0.031,23.272-0.081c0.012-0.038-0.002-0.1-0.03-0.172C35.841,80.222,35.808,80.153,35.69,80.043z"/>
</g>
</svg>
