<?xml version="1.0" encoding="utf-8"?>
<!-- Generator: Adobe Illustrator 16.0.0, SVG Export Plug-In . SVG Version: 6.00 Build 0)  -->
<!DOCTYPE svg PUBLIC "-//W3C//DTD SVG 1.0//EN" "http://www.w3.org/TR/2001/REC-SVG-20010904/DTD/svg10.dtd">
<svg version="1.0" id="Layer_1" xmlns="http://www.w3.org/2000/svg" xmlns:xlink="http://www.w3.org/1999/xlink" x="0px" y="0px"
	 width="150px" height="150px" viewBox="0 0 150 150" enable-background="new 0 0 150 150" xml:space="preserve">
<path fill="#FFFFFF" d="M71.651,138.838c-25.192-9.365-42.431-26.202-48.567-47.518c-1.979-6.903-2.261-9.69-2.261-24.224
	c0-7.549,0.242-16.794,0.525-20.589c1.009-13.242,2.099-25.031,2.462-26.565c0.404-1.696,1.656-3.271,3.311-4.118
	c2.14-1.13,15.26-3.312,26.807-4.481c9.932-1.01,34.438-1.05,42.593-0.041c16.351,1.979,25.556,3.794,27.453,5.41
	c1.938,1.615,2.342,3.835,3.634,20.064c2.101,26.727,2.101,42.39-0.04,50.91c-3.635,14.573-10.296,25.475-21.56,35.204
	c-3.067,2.665-10.98,8.195-11.667,8.195c-0.444,0-2.705-4.319-16.996-32.499c-6.743-13.283-10.74-20.954-11.628-22.447
	c-0.687-1.09,0-1.978,2.26-3.026c5.451-2.463,9.771-2.262,19.057,0.927c7.752,2.625,11.305,3.068,16.028,1.978
	c3.351-0.807,8.963-3.432,12.799-5.934l2.582-1.735l-0.242-8.398c-0.281-8.155-1.009-20.187-1.292-20.429
	c-0.08-0.08-1.654,0.525-3.472,1.372c-7.51,3.392-15.018,4.483-22.083,3.23c-2.1-0.363-6.258-1.573-9.286-2.705
	c-11.789-4.319-15.221-5.086-21.478-4.602c-2.907,0.242-8.115,1.616-12.152,3.23c-0.565,0.201-0.686-0.201-0.848-2.906l-0.202-3.109
	l-2.019-1.858c-2.463-2.26-10.376-8.074-10.981-8.074c-0.929,0-1.252,2.301-1.252,9.286v7.186l2.624,2.1
	c3.149,2.502,3.472,3.068,11.91,19.58c3.391,6.662,7.67,15.019,9.487,18.57c19.097,37.104,27.736,54.303,27.534,54.866
	c-0.282,0.688-7.388,3.473-9.447,3.715C74.356,139.523,72.862,139.281,71.651,138.838z M50.415,88.898
	C34.832,57.771,32.086,52.482,31.884,53.452c-0.162,0.605-0.283,6.862-0.323,13.847c-0.041,13.605,0.202,15.744,2.422,22.608
	c1.13,3.472,4.32,10.053,6.379,13.16c3.794,5.733,12.676,14.011,19.096,17.805c4.966,2.908,8.922,5.005,9.124,4.804
	C68.664,125.597,60.508,109.043,50.415,88.898z M102.132,111.627c8.357-8.479,13.081-17.198,15.382-28.422
	c0.445-2.18,0.768-3.997,0.687-4.038c-0.08-0.08-1.13,0.566-2.301,1.413c-10.457,7.349-19.943,7.914-34.235,2.1
	c-2.181-0.888-2.221-0.808-0.849,1.172c0.364,0.565,3.957,7.266,7.954,14.938c8.437,16.189,8.64,16.554,9.204,16.554
	C98.217,115.343,100.073,113.646,102.132,111.627z M108.432,33.224c2.462-0.808,5.167-1.897,6.055-2.381
	c1.575-0.929,1.616-0.969,1.575-3.068c-0.041-1.171-0.242-2.303-0.445-2.504c-0.362-0.363-9.648-1.897-17.965-2.988
	c-7.832-0.968-21.397-1.413-31.491-0.968c-7.751,0.322-19.218,1.332-19.621,1.735c-0.041,0.082,1.856,1.413,4.279,2.947l4.36,2.826
	l3.23-0.564c2.018-0.363,4.763-0.525,7.468-0.404c3.997,0.162,4.804,0.363,12.92,3.109C90.344,34.84,91.11,35,98.137,34.84
	C103.626,34.718,104.232,34.637,108.432,33.224z"/>
</svg>
