<?xml version="1.0" encoding="utf-8"?>
<!-- Generator: Adobe Illustrator 16.0.0, SVG Export Plug-In . SVG Version: 6.00 Build 0)  -->
<!DOCTYPE svg PUBLIC "-//W3C//DTD SVG 1.0//EN" "http://www.w3.org/TR/2001/REC-SVG-20010904/DTD/svg10.dtd">
<svg version="1.0" id="Layer_1" xmlns="http://www.w3.org/2000/svg" xmlns:xlink="http://www.w3.org/1999/xlink" x="0px" y="0px"
	 width="150px" height="150px" viewBox="0 0 150 150" enable-background="new 0 0 150 150" xml:space="preserve">
<g>
	<g id="layer1">
		<path fill="#FFFFFF" d="M116.91,85.564c-0.478-1.228,0.683-3.956,1.706-3.956c1.022,0,0.818,2.251-0.273,3.819
			C117.456,86.588,117.319,86.588,116.91,85.564z"/>
		<path fill="#FFFFFF" d="M36.077,83.723c-2.115-0.75-4.57-2.251-5.594-3.41c-1.637-1.842-1.91-2.729-1.91-6.07
			c0-6.89,3.956-11.324,18.759-21.352c8.936-6.002,16.644-13.165,19.646-18.145c1.979-3.342,3.889-4.707,3.889-2.865
			c0,0.478-2.047,4.843-4.571,9.754c-2.456,4.912-5.525,11.187-6.753,13.984l-2.183,5.047l2.66,3.479
			c1.433,1.91,2.66,3.888,2.66,4.365c0,1.023,0,1.023,2.933-0.205c2.934-1.228,7.026-1.364,7.708-0.205
			c0.273,0.409,0.682,1.706,0.888,2.865c0.341,1.569,1.228,2.523,3.342,3.683c3.752,2.046,15.689,5.047,28.309,7.026
			c10.301,1.637,13.644,3.001,5.457,2.251c-17.189-1.501-30.15-3.888-35.539-6.48c-2.797-1.363-4.911-4.092-4.911-6.412
			c0-1.296-0.137-1.296-4.161,0.409c-2.729,1.229-3.343,1.774-3.343,3.206c0,3.001-2.524,6.071-6.685,8.118
			C51.493,85.292,41.807,85.77,36.077,83.723z M52.926,81.268c3.274-0.955,7.708-4.707,7.708-6.48c0-0.409-1.637-0.682-3.615-0.682
			c-1.979,0-3.957-0.341-4.434-0.819c-1.16-1.16-1.023-5.866,0.272-9.754c0.955-2.661,1.023-3.547,0.341-4.57
			c-0.955-1.569-0.478-2.456,0.75-1.364c0.682,0.545,1.637-0.887,4.093-6.003l3.138-6.753l-4.161,3.274
			c-2.319,1.774-7.094,5.185-10.642,7.572C36.281,62.373,32.121,66.738,30.62,72.127c-1.228,4.161,1.569,7.708,7.503,9.55
			C41.056,82.563,49.31,82.358,52.926,81.268z M60.497,70.354c0.478-0.478-3.479-7.094-3.956-6.821
			c-0.819,0.478-2.115,6.48-1.637,7.23C55.245,71.377,59.815,71.036,60.497,70.354z"/>
	</g>
	<path fill="#FFFFFF" d="M22.694,106.666v4.061h-0.322c-0.101-0.78-0.285-1.4-0.553-1.858s-0.652-0.823-1.149-1.096
		c-0.498-0.272-1.012-0.408-1.542-0.408c-0.595,0-1.089,0.183-1.482,0.548c-0.394,0.365-0.591,0.78-0.591,1.246
		c0,0.358,0.125,0.684,0.376,0.978c0.358,0.437,1.207,1.014,2.546,1.729c1.096,0.587,1.844,1.038,2.245,1.354
		c0.401,0.315,0.709,0.686,0.924,1.112c0.215,0.426,0.322,0.871,0.322,1.337c0,0.888-0.344,1.654-1.031,2.299
		s-1.572,0.967-2.653,0.967c-0.344,0-0.666-0.025-0.967-0.075c-0.179-0.028-0.55-0.135-1.112-0.316
		c-0.563-0.184-0.918-0.274-1.069-0.274c-0.144,0-0.256,0.043-0.338,0.129c-0.083,0.086-0.145,0.265-0.188,0.537h-0.312v-4.018
		h0.312c0.15,0.838,0.353,1.466,0.607,1.886c0.254,0.418,0.643,0.766,1.166,1.041c0.522,0.276,1.096,0.414,1.719,0.414
		c0.716,0,1.284-0.189,1.703-0.569s0.628-0.831,0.628-1.354c0-0.286-0.079-0.576-0.236-0.87c-0.158-0.294-0.405-0.565-0.741-0.816
		c-0.222-0.172-0.834-0.539-1.837-1.102c-1.003-0.562-1.717-1.011-2.143-1.348c-0.426-0.337-0.749-0.707-0.967-1.111
		c-0.219-0.405-0.328-0.848-0.328-1.327c0-0.845,0.322-1.572,0.967-2.181s1.468-0.913,2.471-0.913c0.623,0,1.282,0.154,1.977,0.462
		c0.322,0.144,0.551,0.215,0.688,0.215c0.143,0,0.263-0.045,0.36-0.135c0.097-0.089,0.173-0.27,0.231-0.542H22.694z"/>
	<path fill="#FFFFFF" d="M32.092,118.343v0.322h-5.027v-0.322h0.419c0.479,0,0.831-0.14,1.053-0.419
		c0.136-0.187,0.204-0.63,0.204-1.332v-7.573c0-0.595-0.036-0.988-0.107-1.182c-0.058-0.144-0.176-0.265-0.354-0.365
		c-0.258-0.144-0.523-0.215-0.795-0.215h-0.419v-0.322h5.027v0.322h-0.43c-0.473,0-0.82,0.144-1.042,0.43
		c-0.144,0.179-0.215,0.623-0.215,1.332v7.573c0,0.595,0.036,0.984,0.107,1.171c0.057,0.144,0.179,0.269,0.365,0.376
		c0.25,0.136,0.512,0.204,0.784,0.204H32.092z"/>
	<path fill="#FFFFFF" d="M45.592,106.666l0.301,3.706h-0.301c-0.308-0.924-0.702-1.618-1.182-2.084
		c-0.702-0.673-1.601-1.01-2.696-1.01c-1.49,0-2.625,0.591-3.405,1.772c-0.652,0.995-0.978,2.181-0.978,3.556
		c0,1.124,0.216,2.146,0.65,3.066c0.433,0.921,0.999,1.596,1.697,2.025s1.419,0.645,2.165,0.645c0.43,0,0.847-0.054,1.251-0.161
		c0.404-0.107,0.793-0.269,1.166-0.483v-3.395c0-0.587-0.045-0.973-0.134-1.154c-0.09-0.184-0.228-0.321-0.414-0.414
		c-0.187-0.093-0.516-0.14-0.988-0.14v-0.333h4.533v0.333h-0.215c-0.451,0-0.759,0.15-0.924,0.451
		c-0.115,0.215-0.172,0.634-0.172,1.257v3.588c-0.666,0.358-1.321,0.621-1.966,0.789c-0.645,0.169-1.361,0.253-2.148,0.253
		c-2.271,0-3.993-0.727-5.167-2.181c-0.881-1.089-1.321-2.346-1.321-3.771c0-1.031,0.247-2.02,0.741-2.965
		c0.587-1.124,1.396-1.991,2.428-2.6c0.859-0.501,1.873-0.752,3.04-0.752c0.43,0,0.818,0.036,1.166,0.107
		c0.347,0.071,0.839,0.226,1.477,0.462c0.322,0.122,0.541,0.183,0.655,0.183c0.107,0,0.2-0.05,0.279-0.15
		c0.079-0.101,0.125-0.301,0.14-0.602H45.592z"/>
	<path fill="#FFFFFF" d="M49.479,106.935h3.19l7.165,8.798v-6.757c0-0.724-0.083-1.175-0.247-1.354
		c-0.208-0.243-0.544-0.365-1.01-0.365h-0.408v-0.322h4.082v0.322h-0.408c-0.501,0-0.856,0.15-1.063,0.451
		c-0.122,0.187-0.183,0.608-0.183,1.268v9.883h-0.312l-7.734-9.442v7.219c0,0.716,0.079,1.164,0.236,1.343
		c0.215,0.243,0.551,0.365,1.01,0.365h0.419v0.322h-4.082v-0.322h0.397c0.508,0,0.863-0.15,1.063-0.451
		c0.129-0.179,0.193-0.598,0.193-1.257v-8.153c-0.337-0.401-0.593-0.664-0.768-0.789c-0.176-0.126-0.435-0.246-0.779-0.36
		c-0.165-0.05-0.419-0.075-0.763-0.075V106.935z"/>
	<path fill="#FFFFFF" d="M89.951,106.935l0.129,2.75h-0.333c-0.058-0.479-0.144-0.823-0.258-1.031
		c-0.179-0.337-0.417-0.584-0.714-0.741c-0.298-0.157-0.687-0.236-1.166-0.236h-1.654v8.959c0,0.716,0.079,1.164,0.236,1.343
		c0.215,0.243,0.552,0.365,1.01,0.365h0.408v0.322h-4.974v-0.322h0.419c0.494,0,0.845-0.15,1.053-0.451
		c0.122-0.179,0.183-0.598,0.183-1.257v-8.959h-1.407c-0.544,0-0.931,0.039-1.16,0.118c-0.301,0.107-0.559,0.316-0.773,0.629
		c-0.215,0.311-0.34,0.731-0.376,1.262H80.24l0.14-2.75H89.951z"/>
	<path fill="#FFFFFF" d="M101.164,107.257v-0.322h4.157v0.322h-0.44c-0.466,0-0.82,0.193-1.063,0.58
		c-0.122,0.179-0.183,0.595-0.183,1.246v4.759c0,1.175-0.116,2.086-0.35,2.733c-0.232,0.648-0.69,1.205-1.375,1.671
		c-0.684,0.466-1.612,0.698-2.787,0.698c-1.282,0-2.254-0.222-2.916-0.666c-0.663-0.444-1.134-1.042-1.413-1.794
		c-0.187-0.516-0.279-1.479-0.279-2.89v-4.576c0-0.724-0.099-1.197-0.296-1.424c-0.196-0.225-0.517-0.338-0.961-0.338h-0.44v-0.322
		h5.07v0.322h-0.451c-0.487,0-0.834,0.154-1.042,0.462c-0.144,0.208-0.215,0.641-0.215,1.3v5.103c0,0.458,0.041,0.981,0.123,1.568
		c0.083,0.587,0.235,1.046,0.457,1.375s0.539,0.602,0.951,0.816c0.411,0.215,0.914,0.322,1.509,0.322
		c0.767,0,1.452-0.168,2.058-0.505c0.604-0.337,1.019-0.767,1.24-1.289s0.333-1.403,0.333-2.643v-4.748
		c0-0.737-0.079-1.196-0.236-1.375c-0.222-0.258-0.555-0.387-0.999-0.387H101.164z"/>
	<path fill="#FFFFFF" d="M119.682,118.665h-3.126l-3.975-5.479c-0.294,0.007-0.533,0.011-0.72,0.011
		c-0.071,0-0.15-0.002-0.236-0.005c-0.086-0.004-0.176-0.006-0.269-0.006v3.405c0,0.737,0.079,1.196,0.236,1.375
		c0.222,0.251,0.552,0.376,0.988,0.376h0.462v0.322h-5.027v-0.322h0.44c0.494,0,0.849-0.161,1.063-0.483
		c0.122-0.179,0.183-0.602,0.183-1.268v-7.573c0-0.737-0.079-1.196-0.236-1.375c-0.229-0.258-0.565-0.387-1.01-0.387h-0.44v-0.322
		h4.275c1.246,0,2.164,0.092,2.756,0.273c0.59,0.184,1.092,0.518,1.504,1.005c0.411,0.487,0.617,1.067,0.617,1.74
		c0,0.724-0.234,1.35-0.703,1.88c-0.47,0.53-1.198,0.906-2.187,1.128l2.417,3.362c0.559,0.773,1.037,1.287,1.434,1.541
		c0.398,0.255,0.915,0.414,1.553,0.479V118.665z M111.356,112.639c0.107,0,0.202,0.002,0.284,0.005
		c0.083,0.004,0.149,0.006,0.199,0.006c1.117,0,1.961-0.243,2.529-0.73c0.57-0.487,0.854-1.103,0.854-1.848
		c0-0.73-0.229-1.325-0.688-1.783s-1.067-0.688-1.826-0.688c-0.329,0-0.78,0.054-1.354,0.161V112.639z"/>
	<path fill="#FFFFFF" d="M76.176,117.95c-0.268-0.232-0.563-0.739-0.886-1.52l-4.082-9.765h-0.312l-4.125,9.657
		c-0.358,0.845-0.684,1.407-0.978,1.687c-0.144,0.136-0.458,0.247-0.945,0.333v0.322h3.695v-0.322
		c-0.566-0.036-0.935-0.122-1.106-0.258s-0.258-0.294-0.258-0.473c0-0.229,0.1-0.569,0.301-1.021l3.104-7.229l2.933,7.068
		c0.229,0.544,0.344,0.941,0.344,1.192c0,0.193-0.08,0.356-0.242,0.489c-0.16,0.132-0.478,0.209-0.95,0.23v0.322h4.63v-0.322
		C76.819,118.314,76.445,118.184,76.176,117.95z"/>
	<path fill="#FFFFFF" d="M133.197,117.95c-0.268-0.232-0.563-0.739-0.886-1.52l-4.082-9.765h-0.312l-4.125,9.657
		c-0.358,0.845-0.684,1.407-0.978,1.687c-0.144,0.136-0.458,0.247-0.945,0.333v0.322h3.695v-0.322
		c-0.565-0.036-0.935-0.122-1.106-0.258s-0.258-0.294-0.258-0.473c0-0.229,0.101-0.569,0.301-1.021l3.104-7.229l2.933,7.068
		c0.229,0.544,0.344,0.941,0.344,1.192c0,0.193-0.08,0.356-0.242,0.489c-0.16,0.132-0.478,0.209-0.95,0.23v0.322h4.63v-0.322
		C133.841,118.314,133.467,118.184,133.197,117.95z"/>
	<rect x="15.68" y="97.415" fill="#FFFFFF" width="115.894" height="1"/>
</g>
</svg>
