<?xml version="1.0" encoding="utf-8"?>
<!-- Generator: Adobe Illustrator 16.0.0, SVG Export Plug-In . SVG Version: 6.00 Build 0)  -->
<!DOCTYPE svg PUBLIC "-//W3C//DTD SVG 1.0//EN" "http://www.w3.org/TR/2001/REC-SVG-20010904/DTD/svg10.dtd">
<svg version="1.0" id="Layer_1" xmlns="http://www.w3.org/2000/svg" xmlns:xlink="http://www.w3.org/1999/xlink" x="0px" y="0px"
	 width="150px" height="150px" viewBox="0 0 150 150" enable-background="new 0 0 150 150" xml:space="preserve">
<g id="layer1">
	<path fill="#FFFFFF" d="M18.197,83.94c0-0.113,0.205-0.522,0.454-0.909l0.455-0.749h5.339c5.681,0,6.385-0.114,6.93-1.114
		c0.341-0.658,0.272-2.112-0.136-2.703c-0.523-0.772-2.181-1.5-5.681-2.545c-5.862-1.749-7.361-2.954-7.361-5.907
		c0-1.795,0.84-3.022,2.545-3.749c0.704-0.272,1.999-0.341,7.43-0.341h6.566l-0.477,0.909l-0.5,0.909h-4.658
		c-4.908,0-5.226,0.068-6.067,1.136c-0.477,0.591-0.341,1.727,0.273,2.454c0.636,0.773,1.727,1.227,5.907,2.522
		c1.636,0.5,3.522,1.25,4.204,1.658c3.771,2.272,3.862,6.271,0.182,8.157c-0.772,0.409-1.386,0.432-8.134,0.432
		C21.469,84.1,18.197,84.031,18.197,83.94z"/>
	<path fill="#FFFFFF" d="M38.51,83.486c0.182-0.364,2.568-4.408,5.317-9.043l4.976-8.407l1.136-0.068l1.159-0.068l4.931,8.929
		c2.727,4.908,4.999,8.998,5.044,9.111c0.045,0.091-0.955,0.159-2.25,0.159l-2.34-0.022l-0.727-1.568l-0.727-1.59h-4.908
		c-2.682,0-4.885-0.068-4.885-0.159c0-0.068,0.25-0.591,0.568-1.137l0.59-0.977h3.613c2,0,3.635-0.046,3.635-0.113
		c0-0.182-3.454-7.93-3.613-8.112c-0.068-0.068-1.727,2.954-3.658,6.771L42.873,84.1h-2.341h-2.363L38.51,83.486z"/>
	<path fill="#FFFFFF" d="M67.252,83.463c-1.386-0.886-2.613-2.362-3.477-4.135c-0.682-1.409-0.705-1.591-0.705-4.316
		c0-2.75,0.023-2.909,0.727-4.34c0.841-1.681,2.613-3.612,3.931-4.294c0.818-0.432,1.364-0.455,7.226-0.455h6.316l1.023,0.636
		c1.454,0.932,3.067,2.84,3.634,4.317c0.638,1.613,0.842,4.999,0.434,6.839c-0.568,2.567-2.25,4.885-4.295,5.908
		c-0.863,0.454-1.295,0.477-7.362,0.477h-6.43L67.252,83.463z M77.045,82.396c1.227-0.159,2.885-0.863,3.59-1.545
		c2.09-1.954,2.613-7.248,1-10.247c-1.205-2.272-3.59-3.227-7.544-3.045c-2.59,0.136-4.158,0.727-5.339,2.022
		c-1.5,1.658-2.159,4.362-1.705,6.976c0.637,3.748,2.454,5.521,6.112,5.952C74.636,82.669,75.045,82.669,77.045,82.396z"/>
	<path fill="#FFFFFF" d="M97.948,75.92v-8.179h-4.771h-4.771v-0.909v-0.909h11.587h11.588v0.909v0.909h-4.771h-4.771v8.179v8.18
		h-2.045h-2.045V75.92z"/>
	<path fill="#FFFFFF" d="M109.127,83.895c0.022-0.113,2.432-4.203,5.294-9.088l5.226-8.884h1.137h1.158l2.363,4.271
		c5.339,9.61,7.498,13.564,7.498,13.746c0,0.091-1,0.159-2.227,0.159h-2.227l-0.772-1.591l-0.772-1.59h-4.84
		c-2.659,0-4.839-0.045-4.839-0.114c0-0.045,0.226-0.567,0.499-1.136l0.5-1.022h3.727c2.045,0,3.681-0.091,3.635-0.182
		c-0.022-0.113-0.886-1.999-1.886-4.226l-1.796-4.022l-0.521,0.977c-0.272,0.545-1.863,3.635-3.522,6.884l-3.021,5.907l-2.34,0.069
		C110.014,84.1,109.081,84.031,109.127,83.895z"/>
</g>
</svg>
