<?xml version="1.0" encoding="utf-8"?>
<!-- Generator: Adobe Illustrator 16.0.0, SVG Export Plug-In . SVG Version: 6.00 Build 0)  -->
<!DOCTYPE svg PUBLIC "-//W3C//DTD SVG 1.0//EN" "http://www.w3.org/TR/2001/REC-SVG-20010904/DTD/svg10.dtd">
<svg version="1.0" id="Layer_1" xmlns="http://www.w3.org/2000/svg" xmlns:xlink="http://www.w3.org/1999/xlink" x="0px" y="0px"
	 width="150px" height="150px" viewBox="0 0 150 150" enable-background="new 0 0 150 150" xml:space="preserve">
<g id="layer1">
	<path fill="#FFFFFF" d="M44.782,140.83c-1.547-1.721-1.458-6.361,0.22-8.039c1.105-1.105,3.976-1.148,4.948-0.045
		c0.442,0.441,0.751,1.369,0.751,1.988c0,0.971-0.177,1.193-1.148,1.193c-0.796,0-1.237-0.266-1.37-0.885
		c-0.442-1.723-1.236-0.619-1.369,1.9c-0.089,2.076,0,2.518,0.574,2.518c0.397,0,0.84-0.396,0.971-0.928
		c0.177-0.531,0.486-0.797,0.884-0.664c0.354,0.133,0.84,0.266,1.06,0.266c0.707,0,0.442,2.033-0.397,2.783
		C48.758,141.979,45.753,141.893,44.782,140.83z"/>
	<path fill="#FFFFFF" d="M53.618,140.697c-1.017-1.633-1.237-2.961-0.928-5.08c0.353-2.563,1.502-3.666,3.711-3.666
		c1.369,0,1.943,0.264,2.65,1.148c1.547,1.943,1.149,7.068-0.574,8.217c-0.266,0.178-1.326,0.354-2.342,0.354
		C54.677,141.67,54.103,141.449,53.618,140.697z M57.064,138.754c0.706-1.855,0-5.037-1.016-4.418
		c-0.531,0.354-0.664,4.33-0.177,4.814C56.357,139.637,56.755,139.504,57.064,138.754z"/>
	<path fill="#FFFFFF" d="M62.188,136.811v-4.859h1.723c1.722,0,1.767,0.045,2.164,1.898l0.398,1.855l0.531-1.855
		c0.485-1.813,0.573-1.898,2.252-1.898h1.767v4.859v4.859h-1.325c-1.282,0-1.325-0.043-1.369-2.299l-0.045-2.34l-0.486,2.207
		c-0.441,1.77-0.751,2.256-1.501,2.344c-0.752,0.133-1.06-0.133-1.282-1.104c-0.442-2.123-0.53-2.166-0.574-0.443
		c-0.044,1.459-0.177,1.635-1.149,1.635h-1.104V136.811z"/>
	<path fill="#FFFFFF" d="M73.674,136.811v-4.859h2.208c2.74,0,4.374,0.75,4.728,2.164c0.398,1.68-0.707,3.27-2.651,3.754
		c-1.545,0.398-1.634,0.531-1.634,2.123c0,1.59-0.089,1.678-1.325,1.678h-1.326V136.811z M77.43,135.043
		c0-0.309-0.265-0.662-0.53-0.75c-0.353-0.133-0.574,0.176-0.574,0.75s0.222,0.885,0.574,0.795
		C77.165,135.705,77.43,135.352,77.43,135.043z"/>
	<path fill="#FFFFFF" d="M81.185,141.494c0-0.266,1.768-7.777,2.032-8.748c0.177-0.576,0.707-0.795,1.899-0.795h1.68l0.971,4.416
		c0.486,2.477,0.928,4.641,0.928,4.861c0,0.266-0.572,0.441-1.28,0.441c-0.929,0-1.414-0.266-1.591-0.885
		c-0.133-0.484-0.662-0.883-1.148-0.883c-0.53,0-0.84,0.311-0.84,0.883c0,0.709-0.309,0.885-1.325,0.885
		C81.804,141.67,81.185,141.582,81.185,141.494z M85.161,136.811c0-0.484-0.088-0.883-0.178-0.883c-0.087,0-0.265,0.398-0.397,0.883
		c-0.132,0.486-0.044,0.885,0.177,0.885S85.161,137.297,85.161,136.811z"/>
	<path fill="#FFFFFF" d="M90.903,136.811v-4.859h1.105c0.84,0,1.324,0.441,2.164,2.119l1.105,2.078l0.044-2.078
		c0-1.943,0.088-2.119,1.104-2.119h1.104v4.859v4.859h-1.104c-0.84,0-1.326-0.441-2.076-1.855l-1.018-1.9l-0.132,1.9
		c-0.133,1.635-0.265,1.855-1.237,1.855C90.903,141.67,90.903,141.67,90.903,136.811z"/>
	<path fill="#FFFFFF" d="M101.507,140.08c0-0.842-0.574-2.961-1.324-4.684c-0.707-1.68-1.326-3.182-1.326-3.27
		c0-0.09,0.662-0.176,1.502-0.176c1.281,0,1.59,0.219,2.031,1.459l0.531,1.41l0.619-1.41c0.484-1.107,0.883-1.459,1.721-1.459
		c1.371,0,1.371,0.484,0,3.445c-0.662,1.414-1.104,3.182-1.104,4.33c0,1.855-0.043,1.943-1.324,1.943
		C101.597,141.67,101.507,141.537,101.507,140.08z"/>
	<path fill="#FFFFFF" d="M44.915,127.135c-1.325-1.369-1.37-1.502-1.192-4.727c0.131-3.047,0.264-3.445,1.458-4.461
		c2.34-2.033,6.405-0.531,6.405,2.34c0,0.928-0.22,1.061-1.545,1.061c-1.238,0-1.547-0.178-1.547-0.883
		c0-1.063-1.104-1.193-1.502-0.178c-0.397,1.016-0.309,4.285,0.133,4.992c0.486,0.752,1.811,0.309,1.811-0.617
		c0-0.443,0.442-0.664,1.325-0.664c1.105,0,1.325,0.178,1.325,1.063c0,1.676-1.325,2.957-3.401,3.223
		C46.549,128.504,46.195,128.371,44.915,127.135z"/>
	<path fill="#FFFFFF" d="M57.197,127.93c-1.989-1.148-2.784-6.141-1.415-8.834c1.369-2.65,5.301-2.783,6.848-0.266
		c1.678,2.695,0.884,7.951-1.281,9.145C60.244,128.549,58.211,128.504,57.197,127.93z M60.156,125.061
		c0.133-0.398,0.265-1.461,0.265-2.389c0-2.119-0.354-3.092-1.148-3.092c-0.751,0-1.238,2.605-0.884,4.639
		C58.698,125.811,59.669,126.297,60.156,125.061z"/>
	<path fill="#FFFFFF" d="M67.49,122.672v-5.301h3.313c3.225,0,3.313,0.045,3.313,1.105c0,1.016-0.176,1.104-1.767,1.104
		c-1.458,0-1.767,0.133-1.767,0.885c0,0.705,0.309,0.883,1.326,0.883c1.192,0,1.325,0.133,1.325,1.324
		c0,1.193-0.133,1.326-1.325,1.326c-1.282,0-1.326,0.088-1.326,1.988c0,1.988,0,1.988-1.546,1.988H67.49V122.672z"/>
	<path fill="#FFFFFF" d="M78.092,122.672v-5.301h3.314c3.225,0,3.313,0.045,3.313,1.105c0,1.016-0.177,1.104-1.767,1.104
		c-1.459,0-1.768,0.133-1.768,0.885c0,0.705,0.309,0.883,1.325,0.883c1.192,0,1.325,0.133,1.325,1.324
		c0,1.193-0.133,1.326-1.325,1.326c-1.281,0-1.325,0.088-1.325,1.988c0,1.988,0,1.988-1.546,1.988h-1.547V122.672z"/>
	<path fill="#FFFFFF" d="M88.694,122.672v-5.301h3.535c3.49,0,3.535,0,3.535,1.105c0,1.016-0.178,1.104-1.989,1.104
		c-1.679,0-1.987,0.133-1.987,0.885c0,0.705,0.309,0.883,1.325,0.883c1.192,0,1.325,0.133,1.325,1.324
		c0,1.193-0.133,1.326-1.325,1.326c-1.017,0-1.325,0.178-1.325,0.885c0,0.75,0.309,0.883,1.987,0.883
		c1.812,0,1.989,0.088,1.989,1.104c0,1.105-0.045,1.105-3.535,1.105h-3.535V122.672z"/>
	<path fill="#FFFFFF" d="M99.298,122.672v-5.301h3.535c3.49,0,3.533,0,3.533,1.105c0,1.016-0.176,1.104-1.988,1.104
		c-1.678,0-1.988,0.133-1.988,0.885c0,0.705,0.311,0.883,1.326,0.883c1.193,0,1.326,0.133,1.326,1.324
		c0,1.193-0.133,1.326-1.326,1.326c-1.016,0-1.326,0.178-1.326,0.885c0,0.75,0.311,0.883,1.988,0.883
		c1.813,0,1.988,0.088,1.988,1.104c0,1.105-0.043,1.105-3.533,1.105h-3.535V122.672z"/>
	<path fill="#FFFFFF" d="M45.622,112.91c-1.105-0.617-1.988-1.725-1.988-2.43c0-0.93,2.209-1.193,3.136-0.354
		c0.707,0.619,0.972,0.662,1.414,0.221c0.309-0.354,0.353-0.664,0.089-0.752c-0.222-0.131-1.238-0.662-2.209-1.193
		c-1.547-0.883-1.767-1.191-1.899-2.826c-0.133-1.502,0.043-1.943,1.06-2.74c0.662-0.484,1.723-0.926,2.385-0.926
		c1.325,0,3.534,1.502,3.534,2.428c0,0.797-2.165,1.281-2.915,0.621c-0.443-0.355-0.796-0.398-1.105-0.09
		c-0.265,0.266,0.177,0.707,1.369,1.236c3.136,1.414,3.932,3.623,2.121,5.744C49.465,113.131,46.991,113.662,45.622,112.91z"/>
	<path fill="#FFFFFF" d="M53.352,107.652v-5.301h3.534c3.49,0,3.535,0,3.535,1.104c0,1.016-0.177,1.105-1.988,1.105
		c-1.678,0-1.989,0.133-1.989,0.883c0,0.707,0.311,0.885,1.326,0.885c1.193,0,1.326,0.133,1.326,1.324
		c0,1.193-0.133,1.326-1.326,1.326c-0.884,0-1.326,0.221-1.326,0.664c0,0.484,0.531,0.66,1.989,0.66
		c1.899,0,1.988,0.045,1.988,1.326v1.324h-3.535h-3.534V107.652z"/>
	<path fill="#FFFFFF" d="M62.63,112.334c0-0.572,1.502-7.42,2.031-9.188c0.178-0.617,0.707-0.795,2.165-0.795
		c1.679,0,1.988,0.133,2.209,1.016c0.398,1.813,1.988,9.32,1.988,9.453c0,0.09-0.707,0.133-1.547,0.133
		c-1.281,0-1.589-0.176-1.811-1.148c-0.354-1.412-2.076-1.324-2.298,0.178c-0.131,0.75-0.442,0.971-1.457,0.971
		C63.116,112.953,62.63,112.732,62.63,112.334z M67.048,108.227c0-0.221-0.221-0.662-0.441-1.016
		c-0.354-0.529-0.442-0.484-0.442,0.354c0,0.531,0.22,0.971,0.442,0.971C66.871,108.535,67.048,108.402,67.048,108.227z"/>
	<path fill="#FFFFFF" d="M74.116,108.756c0-4.195,0-4.195-1.105-4.195c-0.883,0-1.104-0.223-1.104-1.105
		c0-1.104,0.043-1.104,3.755-1.104c3.71,0,3.755,0,3.755,1.104c0,0.883-0.221,1.105-1.104,1.105c-1.104,0-1.104,0-1.104,4.195v4.197
		h-1.546h-1.547V108.756z"/>
	<path fill="#FFFFFF" d="M83.394,108.756c0-4.195,0-4.195-1.104-4.195c-0.884,0-1.105-0.223-1.105-1.105
		c0-1.104,0.044-1.104,3.756-1.104c3.711,0,3.754,0,3.754,1.104c0,0.883-0.221,1.105-1.104,1.105c-1.105,0-1.105,0-1.105,4.195
		v4.197H84.94h-1.547V108.756z"/>
	<path fill="#FFFFFF" d="M90.903,107.652v-5.301h1.547h1.547v4.197v4.197h1.768c1.588,0,1.766,0.133,1.766,1.104
		c0,1.061-0.088,1.104-3.313,1.104h-3.314V107.652z"/>
	<path fill="#FFFFFF" d="M99.298,107.652v-5.301h3.535c3.49,0,3.533,0,3.533,1.104c0,1.016-0.176,1.105-1.988,1.105
		c-1.678,0-1.988,0.133-1.988,0.883c0,0.707,0.311,0.885,1.326,0.885c1.193,0,1.326,0.133,1.326,1.324
		c0,1.193-0.133,1.326-1.326,1.326c-0.883,0-1.326,0.221-1.326,0.664c0,0.484,0.531,0.66,1.988,0.66c1.9,0,1.988,0.045,1.988,1.326
		v1.324h-3.533h-3.535V107.652z"/>
	<path fill="#FFFFFF" d="M52.292,95.635c-0.132-1.059-0.574-5.256-0.927-9.408c-0.354-4.109-0.751-8.041-0.883-8.704l-0.178-1.236
		h5.92c3.269,0,5.964,0.132,5.964,0.353c0,0.178-0.398,4.947-0.972,10.604l-0.972,10.25h-3.843h-3.888L52.292,95.635z"/>
	<path fill="#FFFFFF" d="M62.188,97.182c0-0.219,0.486-5.213,1.104-11.178c0.619-5.962,1.105-10.955,1.105-11.132
		c0-0.221-0.574-0.353-1.325-0.353h-1.325V49.117c0-13.961,0.131-25.403,0.264-25.403c0.132,0,0.663,0.222,1.148,0.487
		c0.664,0.353,1.149,0.353,1.944-0.045c0.839-0.485,1.149-0.485,1.723,0c0.531,0.442,0.927,0.442,2.032,0
		c1.149-0.485,1.458-0.485,2.032,0.089c0.619,0.618,0.795,0.618,1.9,0c1.149-0.663,1.325-0.663,2.12,0.044
		c0.752,0.707,0.929,0.707,1.414,0.089c0.31-0.354,0.884-0.664,1.325-0.664s1.016,0.309,1.325,0.664
		c0.485,0.618,0.663,0.618,1.414-0.089c0.795-0.707,0.973-0.707,2.12-0.044c1.104,0.618,1.282,0.618,1.899,0
		c0.574-0.574,0.884-0.574,2.033-0.089c1.104,0.442,1.502,0.442,2.031,0c0.575-0.485,0.885-0.485,1.725,0
		c0.794,0.398,1.279,0.398,1.943,0.045c0.484-0.265,1.016-0.487,1.148-0.487s0.266,4.859,0.266,10.824v10.824h-9.543h-9.543
		l0.265,1.105c0.266,0.971,0.133,1.104-0.839,1.104c-0.971,0-1.104,0.177-1.104,1.547c0,1.413,0.089,1.546,1.325,1.546
		c1.104,0,1.325,0.176,1.325,1.105c0,1.016-0.132,1.104-2.208,1.104c-2.165,0-2.165,0.045-1.989,1.238
		c0.84,4.771,1.856,15.285,1.68,17.052c-0.177,1.413-0.089,2.253,0.265,2.474c0.309,0.177,0.662,1.149,0.795,2.165
		c0.221,1.459,0.132,1.813-0.486,1.813c-0.531,0-0.707,0.44-0.707,1.767c0,1.457,0.176,1.768,0.84,1.768
		c0.971,0,1.369,0.838,1.369,2.916c0,1.324-0.133,1.502-1.105,1.502c-0.971,0-1.104,0.178-1.104,1.502
		c0,1.414,0.133,1.545,1.458,1.678c1.369,0.133,1.414,0.176,1.724,2.783c0.176,1.457,0.441,3.402,0.574,4.328l0.221,1.637h-7.291
		C65.458,97.492,62.188,97.359,62.188,97.182z M69.699,87.111c0-1.461-0.089-1.547-1.547-1.547s-1.545,0.086-1.545,1.547
		c0,1.455,0.087,1.543,1.545,1.543S69.699,88.566,69.699,87.111z M69.699,79.379c0-1.724-0.044-1.767-1.547-1.767
		c-1.502,0-1.545,0.043-1.545,1.767c0,1.723,0.043,1.768,1.545,1.768C69.655,81.146,69.699,81.102,69.699,79.379z M69.699,71.868
		c0-1.723-0.044-1.767-1.547-1.767c-1.502,0-1.545,0.044-1.545,1.767c0,1.724,0.043,1.767,1.545,1.767
		C69.655,73.635,69.699,73.592,69.699,71.868z M69.699,64.137c0-1.458-0.089-1.545-1.547-1.545s-1.545,0.087-1.545,1.545
		s0.087,1.547,1.545,1.547S69.699,65.595,69.699,64.137z M69.699,56.627c0-1.458-0.089-1.547-1.547-1.547s-1.545,0.089-1.545,1.547
		s0.087,1.545,1.545,1.545S69.699,58.085,69.699,56.627z M69.699,49.117c0-1.458-0.089-1.547-1.547-1.547s-1.545,0.089-1.545,1.547
		c0,1.457,0.087,1.546,1.545,1.546S69.699,50.574,69.699,49.117z M69.699,41.605c0-1.458-0.089-1.545-1.547-1.545
		s-1.545,0.088-1.545,1.545c0,1.458,0.087,1.547,1.545,1.547S69.699,43.063,69.699,41.605z M75.883,41.605
		c0-1.458-0.088-1.545-1.546-1.545c-1.457,0-1.545,0.088-1.545,1.545c0,1.458,0.089,1.547,1.545,1.547
		C75.795,43.152,75.883,43.063,75.883,41.605z M82.068,41.605c0-1.458-0.088-1.545-1.546-1.545s-1.547,0.088-1.547,1.545
		c0,1.458,0.089,1.547,1.547,1.547S82.068,43.063,82.068,41.605z M88.694,41.605c0-1.458-0.088-1.545-1.545-1.545
		c-1.459,0-1.547,0.088-1.547,1.545c0,1.458,0.088,1.547,1.547,1.547C88.606,43.152,88.694,43.063,88.694,41.605z M69.699,34.096
		c0-1.458-0.089-1.546-1.547-1.546s-1.545,0.088-1.545,1.546s0.087,1.547,1.545,1.547S69.699,35.554,69.699,34.096z M75.883,34.096
		c0-1.458-0.088-1.546-1.546-1.546c-1.457,0-1.545,0.088-1.545,1.546s0.089,1.547,1.545,1.547
		C75.795,35.643,75.883,35.554,75.883,34.096z M82.068,34.096c0-1.458-0.088-1.546-1.546-1.546s-1.547,0.088-1.547,1.546
		s0.089,1.547,1.547,1.547S82.068,35.554,82.068,34.096z M88.694,34.096c0-1.458-0.088-1.546-1.545-1.546
		c-1.459,0-1.547,0.088-1.547,1.546s0.088,1.547,1.547,1.547C88.606,35.643,88.694,35.554,88.694,34.096z"/>
	<path fill="#FFFFFF" d="M92.539,81.719c-0.929-8.702-1.68-16.256-1.636-16.787c0-1.015,0-1.015,7.732-1.015h7.73v16.787v16.789
		h-6.098h-6.096L92.539,81.719z"/>
	<path fill="#FFFFFF" d="M43.633,61.884V26.718l1.458-1.458c0.883-0.883,2.12-1.59,3.092-1.767l1.634-0.309v-4.815v-4.816h1.105
		c0.884,0,1.104-0.221,1.104-1.06c0-1.37-0.795-3.446-1.458-3.932c-0.309-0.177,0.354-0.266,1.458-0.222l1.988,0.133l0.619,2.563
		c0.441,1.943,0.75,2.518,1.414,2.518c0.751,0,0.838,0.398,0.838,4.816v4.859l1.238,0.132c1.149,0.133,1.192,0.266,1.325,2.784
		c0.133,2.518,0.133,2.606-0.707,1.855c-0.795-0.707-0.884-0.707-1.545,0.044c-0.664,0.751-0.752,2.96-0.752,23.414v22.62h-4.108
		h-4.107l0.175,2.651l0.178,2.65h-1.37c-1.326,0-1.413,0.088-1.193,1.457c0.133,0.75,0.575,4.197,0.929,7.6
		c0.396,3.4,0.794,6.715,0.927,7.42c0.265,1.193,0.22,1.193-1.989,1.193h-2.252V61.884z"/>
	<path fill="#FFFFFF" d="M79.903,73.988c-1.28-12.237-2.429-23.149-2.562-24.298l-0.266-2.12h12.325h12.369l-0.529,5.655
		c-0.309,3.093-0.574,6.272-0.574,7.068l-0.043,1.413h-6.009h-6.052l0.309,3.094l0.309,3.092h-1.812h-1.854l0.266,1.678
		c0.133,0.883,0.883,6.627,1.589,12.679c0.707,6.098,1.414,11.709,1.547,12.502l0.265,1.414h-3.445h-3.49L79.903,73.988z"/>
	<path fill="#FFFFFF" d="M67.932,20.621v-2.209h1.987h1.989v2.209c0,2.298-0.353,2.696-1.326,1.547c-0.53-0.618-0.663-0.618-1.325,0
		C68.108,23.184,67.932,23.006,67.932,20.621z"/>
	<path fill="#FFFFFF" d="M83.394,20.621v-2.209h1.988h1.987v2.209c0,2.298-0.353,2.696-1.325,1.547
		c-0.529-0.618-0.662-0.618-1.325,0C83.571,23.184,83.394,23.006,83.394,20.621z"/>
	<path fill="#FFFFFF" d="M67.932,16.689c0-0.22,0.751-1.016,1.634-1.767l1.678-1.369h6.495h6.494l1.59,1.369
		c0.84,0.751,1.546,1.547,1.546,1.767c0,0.222-4.284,0.398-9.719,0.398C71.996,17.087,67.932,16.911,67.932,16.689z"/>
</g>
</svg>
