<?xml version="1.0" encoding="utf-8"?>
<!-- Generator: Adobe Illustrator 16.0.0, SVG Export Plug-In . SVG Version: 6.00 Build 0)  -->
<!DOCTYPE svg PUBLIC "-//W3C//DTD SVG 1.0//EN" "http://www.w3.org/TR/2001/REC-SVG-20010904/DTD/svg10.dtd">
<svg version="1.0" id="Layer_1" xmlns="http://www.w3.org/2000/svg" xmlns:xlink="http://www.w3.org/1999/xlink" x="0px" y="0px"
	 width="150px" height="150px" viewBox="0 0 150 150" enable-background="new 0 0 150 150" xml:space="preserve">
<g id="layer1">
	<path fill="#FFFFFF" d="M17.033,102.794c-0.149-0.148-1.045-0.223-1.941-0.148c-1.344,0.037-1.866-0.113-2.612-0.859
		c-0.821-0.82-0.934-1.27-0.934-3.582c0-2.314,0.112-2.764,0.934-3.547c1.493-1.529,3.919-1.232,4.853,0.598
		c0.634,1.156,0.746,4.703,0.187,5.561c-0.187,0.336-0.187,0.709,0.074,1.045C18.041,102.384,17.48,103.28,17.033,102.794z
		 M14.98,101.302c-0.374-0.15-0.374-0.299-0.038-0.709c0.336-0.412,0.561-0.412,0.934-0.113c0.448,0.373,0.522,0,0.522-2.164
		c0-2.725-0.373-3.471-1.68-3.471s-1.68,0.746-1.68,3.359c0,2.611,0.373,3.396,1.68,3.32
		C15.13,101.524,15.241,101.413,14.98,101.302z"/>
	<path fill="#FFFFFF" d="M20.504,101.937c-0.634-0.635-0.746-1.232-0.746-4.48c0-3.471,0.037-3.732,0.746-3.732
		c0.672,0,0.747,0.299,0.821,3.846l0.112,3.807h1.307h1.306l0.188-3.732c0.148-3.174,0.298-3.732,0.858-3.844
		c0.56-0.113,0.634,0.26,0.634,3.619c0,4.441-0.447,5.264-2.985,5.264C21.736,102.683,20.989,102.421,20.504,101.937z"/>
	<path fill="#FFFFFF" d="M26.999,102.048c0.112-0.373,0.784-2.352,1.456-4.404c1.082-3.359,1.269-3.732,2.09-3.732
		c0.858,0,1.008,0.336,2.165,4.105c1.418,4.74,1.418,4.666,0.672,4.666c-0.299,0-0.784-0.598-1.12-1.344
		c-0.485-1.232-0.635-1.307-1.94-1.195c-1.232,0.113-1.456,0.262-1.755,1.344c-0.224,0.822-0.56,1.195-1.045,1.195
		C26.999,102.683,26.85,102.495,26.999,102.048z M31.143,97.569c-0.299-1.008-0.561-1.867-0.598-1.979
		c-0.037-0.373-1.008,2.426-1.045,3.098c-0.037,0.447,0.261,0.635,1.082,0.635h1.083L31.143,97.569z"/>
	<path fill="#FFFFFF" d="M35.435,98.167c0-4.367,0.037-4.48,0.784-4.367c0.597,0.074,1.157,0.932,2.239,3.283l1.418,3.174
		l0.112-3.174c0.112-2.65,0.224-3.172,0.784-3.283c0.56-0.113,0.635,0.297,0.635,4.367c0,4.479,0,4.516-0.896,4.516
		c-0.746,0-1.082-0.523-2.389-3.434l-1.53-3.473l-0.037,3.473c0,2.799-0.112,3.434-0.561,3.434
		C35.51,102.683,35.435,101.937,35.435,98.167z"/>
	<path fill="#FFFFFF" d="M45.513,98.763v-3.918h-1.307c-0.896,0-1.307-0.188-1.307-0.561c0-0.447,0.598-0.561,3.173-0.561
		s3.173,0.113,3.173,0.561c0,0.373-0.41,0.561-1.307,0.561h-1.306v3.918c0,3.248-0.112,3.92-0.561,3.92
		S45.513,102.011,45.513,98.763z"/>
	<path fill="#FFFFFF" d="M50.738,98.204c0-3.734,0.112-4.48,0.56-4.48c0.485,0,0.561,0.746,0.561,4.48
		c0,3.732-0.075,4.479-0.561,4.479C50.851,102.683,50.738,101.937,50.738,98.204z"/>
	<path fill="#FFFFFF" d="M55.964,98.763v-3.918h-1.307c-0.896,0-1.307-0.188-1.307-0.561c0-0.447,0.598-0.561,3.173-0.561
		c2.576,0,3.173,0.113,3.173,0.561c0,0.373-0.41,0.561-1.307,0.561h-1.306v3.918c0,3.248-0.112,3.92-0.561,3.92
		C56.076,102.683,55.964,102.011,55.964,98.763z"/>
	<path fill="#FFFFFF" d="M63.056,101.003c0-1.195-0.373-2.463-1.307-4.293c-0.709-1.418-1.306-2.688-1.306-2.799
		s0.298-0.188,0.709-0.188c0.485,0,0.933,0.561,1.455,1.904c0.448,1.045,0.934,1.791,1.12,1.68s0.635-0.971,0.971-1.904
		c0.485-1.193,0.858-1.68,1.381-1.68c0.373,0,0.709,0.076,0.709,0.188s-0.597,1.381-1.307,2.799
		c-0.933,1.83-1.306,3.098-1.306,4.293c0,1.23-0.149,1.68-0.561,1.68C63.205,102.683,63.056,102.233,63.056,101.003z"/>
	<path fill="#FFFFFF" d="M72.91,102.384c-0.635-0.41-1.344-1.904-1.083-2.314c0.448-0.709,1.232-0.373,1.456,0.598
		c0.224,0.82,0.411,0.934,1.642,0.82c1.195-0.111,1.382-0.223,1.382-1.045c0-0.896-0.373-1.193-2.985-2.314
		c-0.859-0.373-1.158-0.746-1.232-1.754c-0.187-1.754,0.746-2.65,2.725-2.65c1.643,0,2.799,0.822,2.799,1.979
		c0,0.896-1.156,0.785-1.381-0.148c-0.148-0.598-0.447-0.709-1.381-0.635s-1.193,0.299-1.269,1.119
		c-0.112,0.859,0.075,1.045,1.792,1.605c2.612,0.857,3.434,2.725,1.865,4.293C76.493,102.683,73.769,102.981,72.91,102.384z"/>
	<path fill="#FFFFFF" d="M80.376,102.159c-0.635-0.484-0.71-1.008-0.71-4.367s0.075-3.881,0.635-3.992
		c0.56-0.113,0.671,0.334,0.746,3.732l0.112,3.844h1.307h1.307l0.186-3.732c0.15-3.174,0.299-3.732,0.859-3.844
		c0.56-0.113,0.635,0.26,0.635,3.619c0,3.285-0.113,3.883-0.747,4.518C83.81,102.831,81.458,102.944,80.376,102.159z"/>
	<path fill="#FFFFFF" d="M87.468,102.196c-0.075-0.26-0.113-2.238-0.075-4.404l0.112-3.881l1.978-0.111
		c2.612-0.15,3.808,0.559,3.808,2.275c0,0.672-0.188,1.418-0.41,1.643c-0.262,0.262-0.299,0.635-0.038,1.082
		c0.187,0.412,0.448,1.42,0.56,2.314c0.15,1.344,0.112,1.568-0.521,1.568c-0.673,0-0.934-0.561-1.158-2.613
		c-0.111-0.783-0.336-0.934-1.492-1.045l-1.419-0.111v1.865c0,1.455-0.149,1.904-0.56,1.904
		C87.915,102.683,87.579,102.458,87.468,102.196z M91.087,97.456c0.859-0.484,0.934-2.053,0.113-2.389
		c-0.336-0.111-1.008-0.223-1.494-0.223c-0.783,0-0.896,0.148-0.896,1.492c0,1.27,0.112,1.492,0.784,1.492
		C90.005,97.829,90.677,97.644,91.087,97.456z"/>
	<path fill="#FFFFFF" d="M96.911,102.421c-0.112-0.148-0.635-1.941-1.158-3.92c-0.56-2.014-1.082-3.918-1.193-4.217
		c-0.15-0.373,0-0.561,0.521-0.561c0.822,0,1.045,0.561,1.979,4.74c0.262,1.082,0.561,1.979,0.709,1.979
		c0.15,0,0.561-1.344,0.934-2.949c0.783-3.434,1.008-3.881,1.754-3.693c0.485,0.074,0.41,0.783-0.598,4.404
		c-1.007,3.582-1.343,4.291-1.978,4.404C97.433,102.683,97.022,102.608,96.911,102.421z"/>
	<path fill="#FFFFFF" d="M102.248,98.204v-4.48h2.612c2.091,0,2.613,0.113,2.613,0.561c0,0.41-0.447,0.561-1.866,0.561h-1.866v1.305
		v1.307h1.866c1.419,0,1.866,0.15,1.866,0.561s-0.447,0.561-1.866,0.561h-1.866v1.492v1.494h2.09c1.493,0,2.053,0.111,1.941,0.484
		c-0.112,0.299-1.12,0.484-2.837,0.561l-2.688,0.111V98.204z"/>
	<path fill="#FFFFFF" d="M111.206,101.003c0-1.195-0.373-2.463-1.307-4.293c-0.709-1.418-1.307-2.688-1.307-2.799
		s0.299-0.188,0.672-0.188c0.449,0,1.008,0.672,1.643,1.941l0.934,1.979l1.008-1.979c0.522-1.045,1.232-1.941,1.53-1.941
		c0.71,0,0.747-0.111-0.448,2.463c-0.56,1.232-1.082,3.137-1.194,4.256c-0.187,1.531-0.373,2.09-0.858,2.166
		C111.318,102.72,111.206,102.458,111.206,101.003z"/>
	<path fill="#FFFFFF" d="M117.216,101.712c-0.635-0.783-0.784-1.531-0.784-3.508c0-3.174,0.858-4.48,2.837-4.48
		c1.792,0,2.613,0.523,3.098,1.904c0.859,2.426,0.262,5.973-1.082,6.682C119.94,103.056,118.036,102.757,117.216,101.712z
		 M120.911,100.853c0.187-0.41,0.373-1.604,0.373-2.648c0-2.502-0.485-3.359-1.866-3.359c-0.933,0-1.12,0.186-1.456,1.418
		c-0.224,0.746-0.41,1.643-0.41,1.941c0,0.297,0.187,1.193,0.41,1.977c0.336,1.195,0.523,1.383,1.456,1.383
		C120.128,101.563,120.649,101.302,120.911,100.853z"/>
	<path fill="#FFFFFF" d="M124.644,98.204v-4.48h1.829c1.007,0,2.276,0.15,2.8,0.373c1.269,0.449,1.642,2.053,0.857,3.396
		c-0.298,0.561-0.41,1.084-0.224,1.158s0.485,1.008,0.673,2.09c0.298,1.867,0.26,1.979-0.486,1.867
		c-0.521-0.076-0.82-0.412-0.896-1.045c-0.261-2.391-0.411-2.613-1.755-2.613h-1.306v1.865c0,1.605-0.112,1.867-0.747,1.867
		C124.681,102.683,124.644,102.421,124.644,98.204z M128.413,97.456c1.456-0.783,0.598-2.611-1.231-2.611
		c-0.97,0-1.045,0.111-1.045,1.492c0,1.27,0.112,1.492,0.784,1.492C127.331,97.829,128.003,97.644,128.413,97.456z"/>
	<path fill="#FFFFFF" d="M132.854,101.937c-0.97-0.971-0.97-2.24-0.037-2.24c0.486,0,0.784,0.299,0.859,0.857
		c0.148,1.047,2.164,1.383,2.911,0.449c0.747-0.896,0.075-1.754-1.903-2.426c-2.203-0.785-2.986-2.24-1.941-3.695
		c1.157-1.531,4.143-1.531,5.002,0c0.299,0.596,0.299,0.895-0.037,1.23c-0.336,0.299-0.598,0.225-1.008-0.41
		c-0.672-1.008-2.539-1.156-2.875-0.299c-0.373,0.971,0.188,1.643,1.68,2.09c2.838,0.859,3.771,2.801,2.091,4.367
		C136.438,102.944,133.9,102.981,132.854,101.937z"/>
	<path fill="#FFFFFF" d="M11.546,67.036v-19.97h16.722h16.686l-0.112,5.562l-0.112,5.524l-8.473,0.187
		c-8.137,0.149-8.548,0.187-10.563,1.12c-2.575,1.194-3.919,2.874-4.479,5.636c-0.821,4.068,0.858,6.42,6.979,9.556
		c3.658,1.866,4.815,2.986,4.479,4.255c-0.299,1.232-1.046,1.381-6.831,1.381h-4.964v3.359v3.359h-4.666h-4.666V67.036z"/>
	<path fill="#FFFFFF" d="M35.733,86.521c2.127-0.672,4.441-3.061,5.15-5.264c1.493-4.703-0.335-7.503-7.391-11.235
		c-3.657-1.94-4.217-2.389-4.329-3.284l-0.112-1.008h7.839h7.875v4.068c0,2.202,0.188,4.927,0.374,6.01
		c0.821,4.367,3.359,8.1,6.905,10.115l1.866,1.082l-9.705-0.037C36.853,86.931,34.8,86.819,35.733,86.521z"/>
	<path fill="#FFFFFF" d="M66.639,85.886c2.352-1.344,4.405-3.621,5.712-6.346c0.857-1.829,0.971-2.501,0.971-6.346
		c0-3.882-0.113-4.517-1.009-6.42c-1.269-2.688-3.808-5.449-6.346-6.868c-1.791-0.971-2.352-1.082-6.345-1.194l-4.404-0.149v3.396
		v3.397h1.53c5.113,0,9.294,3.583,9.294,7.987c0,4.031-2.8,6.942-6.682,6.942c-2.501,0-4.853-1.344-6.121-3.546
		c-0.299-0.522-0.522-5.188-0.635-15.229l-0.187-14.445H75h22.583l-0.188,14.445c-0.111,10.04-0.336,14.706-0.635,15.229
		c-1.269,2.165-3.62,3.546-6.084,3.546c-2.799,0-4.814-1.307-6.009-3.919c-2.353-5.039,1.493-10.414,7.764-10.937l2.351-0.187
		v-3.322v-3.359l-4.367,0.149c-3.657,0.112-4.665,0.299-6.009,0.971c-4.927,2.575-7.913,7.727-7.913,13.549
		c0,5.674,2.837,10.564,7.652,13.139c1.045,0.561,0.484,0.598-9.146,0.635H64.735L66.639,85.886z"/>
	<path fill="#FFFFFF" d="M124.271,86.222c2.053-0.934,3.209-1.979,4.105-3.695c2.501-5.002,0.448-8.847-6.756-12.43
		c-3.882-1.904-5.039-2.874-4.703-3.808c0.187-0.485,1.194-0.56,6.42-0.56h6.159v-3.771v-3.807l-6.794,0.224
		c-3.77,0.112-7.465,0.373-8.248,0.635c-3.023,0.896-5.45,4.181-5.487,7.391c0,3.434,1.493,5.15,7.465,8.436
		c4.031,2.239,5.114,3.472,3.994,4.592c-0.598,0.598-1.604,0.672-8.659,0.783c-4.815,0.074-8.025-0.037-8.025-0.223
		c0-0.188,0.299-1.01,0.672-1.793c0.56-1.307,0.635-2.949,0.635-16.274V47.066h16.722h16.685v19.97v19.969h-7.913h-7.95
		L124.271,86.222z"/>
</g>
</svg>
