<?xml version="1.0" encoding="utf-8"?>
<!-- Generator: Adobe Illustrator 16.0.0, SVG Export Plug-In . SVG Version: 6.00 Build 0)  -->
<!DOCTYPE svg PUBLIC "-//W3C//DTD SVG 1.0//EN" "http://www.w3.org/TR/2001/REC-SVG-20010904/DTD/svg10.dtd">
<svg version="1.0" id="Layer_1" xmlns="http://www.w3.org/2000/svg" xmlns:xlink="http://www.w3.org/1999/xlink" x="0px" y="0px"
	 width="150px" height="150px" viewBox="0 0 150 150" enable-background="new 0 0 150 150" xml:space="preserve">
<g>
	<g id="layer1">
		<path fill="#FFFFFF" d="M100.822,87.862c0-0.272-0.598-0.544-1.305-0.544c-0.815,0-1.413-0.381-1.576-0.924
			c-0.218-0.925-0.272-0.925-0.327,0c-0.054,1.195-1.032,1.195-1.25,0c-0.162-0.87-0.217-0.87-1.087,0
			c-1.251,1.305-1.522,1.142-1.522-0.707c0-1.196,0.271-1.631,0.979-1.631c0.544,0,1.196,0.218,1.522,0.544
			c0.271,0.271,2.664,0.543,5.272,0.598c4.24,0.055,4.73,0.163,4.73,1.087c0,0.815-0.381,0.979-2.012,0.925
			c-1.088-0.055-2.119,0.218-2.229,0.543C101.747,88.568,100.822,88.623,100.822,87.862z"/>
		<path fill="#FFFFFF" d="M109.955,87.047c0.163-0.87,0-1.359-0.435-1.359c-0.381,0-0.544,0.381-0.326,0.815
			c0.163,0.435,0.055,0.815-0.218,0.815c-0.325,0-0.544-0.381-0.544-0.815c0-1.142-0.979-1.033-1.25,0.163
			c-0.217,0.707-0.271,0.599-0.326-0.271c-0.055-1.196,0.815-1.631,2.393-1.251c0.326,0.055,1.087,0.109,1.793,0.109
			c1.414,0.054,1.359,0,0.544,1.794S109.575,88.841,109.955,87.047z"/>
		<path fill="#FFFFFF" d="M113.924,85.851c-0.054-1.468,0.163-1.794,1.032-1.794c0.707,0,1.088,0.381,1.088,1.087
			c0,0.599-0.326,1.088-0.762,1.088c-0.435,0-0.924,0.326-1.032,0.706C114.087,87.265,113.924,86.774,113.924,85.851z"/>
		<path fill="#FFFFFF" d="M116.642,86.122c0-1.195,0.055-1.195,0.49-0.163c0.38,0.925,0.488,0.925,0.488,0.163
			c0.055-1.358,1.143-1.25,1.143,0.109c0,0.706-0.381,1.087-1.088,1.087C116.913,87.318,116.587,86.992,116.642,86.122z"/>
		<path fill="#FFFFFF" d="M119.36,86.34c-0.055-1.033,0.217-1.196,1.686-1.087c0.979,0.054,1.793-0.163,1.957-0.544
			c0.38-1.25,1.195-0.652,1.195,0.979c0,1.468-0.163,1.577-1.902,1.522c-1.305-0.055-1.902-0.326-1.957-0.925
			c0-0.651-0.164-0.598-0.49,0.218C119.415,87.536,119.36,87.536,119.36,86.34z"/>
		<path fill="#FFFFFF" d="M125.829,85.688c0-0.869,0.271-1.631,0.544-1.631c0.325,0,0.544,0.598,0.544,1.359
			c0,0.869,0.325,1.358,0.814,1.358c0.49,0,0.816-0.489,0.816-1.358c0-0.762,0.271-1.359,0.543-1.359
			c0.326,0,0.544,0.271,0.544,0.544c0,0.815,3.643,0.652,3.968-0.109c0.218-0.543,0.436-0.543,0.815,0
			c0.272,0.436,0.707,0.652,0.925,0.544c0.271-0.054,0.489,0.381,0.544,1.087c0.108,1.414-0.653,1.631-0.979,0.272
			c-0.218-0.925-0.272-0.925-0.327,0c-0.054,0.543-0.488,0.924-1.141,0.924c-0.653,0-1.088-0.381-1.142-0.924
			c0-0.815-0.109-0.815-0.436,0.108l-0.435,1.087l-0.271-1.087c-0.272-0.869-0.326-0.924-0.381-0.108
			c-0.055,0.706-0.544,0.924-2.501,0.924C125.938,87.318,125.829,87.265,125.829,85.688z"/>
		<path fill="#FFFFFF" d="M136.43,86.774c-0.489-0.815,0.218-1.631,1.413-1.631c0.652,0,1.033,0.381,1.033,1.088
			C138.876,87.373,137.082,87.808,136.43,86.774z"/>
		<path fill="#FFFFFF" d="M139.42,86.449c0-0.815,1.25-2.393,1.849-2.393c0.163,0,0.326,0.762,0.326,1.631
			c0,1.25-0.218,1.631-1.088,1.631C139.854,87.318,139.42,86.938,139.42,86.449z"/>
		<path fill="#FFFFFF" d="M35.805,79.871c-0.598-1.414-0.815-3.316-0.652-6.469c0.163-3.914,0.38-4.729,1.794-6.795
			c2.99-4.295,9.188-6.088,14.569-4.349c2.609,0.87,6.143,4.838,6.904,7.774c0.761,2.718,0.435,8.154-0.543,10.382
			c-0.652,1.306-1.033,1.468-3.371,1.468h-2.664l1.087-1.521c2.392-3.371,2.392-8.752,0.055-12.068
			c-1.359-1.957-5.11-3.425-7.394-2.99c-3.534,0.652-6.687,4.783-6.741,8.861c0,2.01,1.25,5.272,2.555,6.741
			c0.815,0.924,0.707,0.978-1.957,0.978C36.674,81.882,36.62,81.828,35.805,79.871z"/>
	</g>
	<g id="layer2">
		<path fill="#FFFFFF" d="M10.037,81.72c-1.522-0.49-1.957-0.979-2.065-2.229c-0.272-2.283,0.598-2.881,2.392-1.468
			c1.685,1.305,4.675,1.522,5.653,0.326s-0.054-2.229-3.425-3.316c-4.023-1.305-4.729-2.065-4.729-5.219
			c0-2.392,0.163-2.718,1.794-3.696c2.12-1.305,5.165-1.414,7.72-0.163c2.065,0.979,2.283,1.576,1.142,3.153
			c-0.707,0.978-0.815,0.978-2.12,0.108c-1.74-1.142-4.349-1.196-5.219-0.163c-0.815,0.979,0.652,2.065,4.186,3.099
			c2.609,0.761,4.458,2.664,4.458,4.674C19.822,81.229,15.31,83.513,10.037,81.72z"/>
		<path fill="#FFFFFF" d="M26.346,75.087v-6.795h-2.446c-2.229,0-2.446-0.109-2.446-1.359v-1.359h6.523H34.5v1.359
			c0,1.25-0.217,1.359-2.446,1.359h-2.446v6.795v6.794h-1.631h-1.631V75.087z"/>
		<path fill="#FFFFFF" d="M61.138,73.728v-8.154h1.794c1.577,0,2.066,0.435,5.436,5.273l3.643,5.218v-5.218v-5.273h1.631h1.631
			v8.154v8.154h-1.74c-1.631-0.054-2.12-0.489-5.436-5.272l-3.697-5.273v5.273v5.272h-1.631h-1.631V73.728z"/>
		<path fill="#FFFFFF" d="M79.077,73.728v-8.154h5.437h5.437v1.359c0,1.305-0.109,1.359-3.806,1.359h-3.806v1.902v1.902h3.806
			c3.696,0,3.806,0.055,3.806,1.359s-0.109,1.359-3.806,1.359h-3.806v2.173v2.175h3.806c3.696,0,3.806,0.054,3.806,1.359v1.358
			h-5.437h-5.437V73.728z"/>
		<path fill="#FFFFFF" d="M93.755,73.728v-8.154h1.631h1.631v3.262v3.262h3.534h3.533v-3.262v-3.262h1.631h1.631v8.154v8.154h-1.631
			h-1.631v-3.533v-3.533h-3.533h-3.534v3.533v3.533h-1.631h-1.631V73.728z"/>
		<path fill="#FFFFFF" d="M111.694,73.728v-8.154h1.631h1.631v8.154v8.154h-1.631h-1.631V73.728z"/>
		<path fill="#FFFFFF" d="M118.763,73.728v-8.154h1.631h1.631v6.796v6.794h3.262c3.098,0,3.262,0.054,3.262,1.359
			c0,1.358-0.055,1.358-4.893,1.358h-4.893V73.728z"/>
		<path fill="#FFFFFF" d="M131.81,73.728v-8.154h1.631h1.631v6.796v6.794h3.533c3.425,0,3.533,0.054,3.533,1.359
			c0,1.358,0,1.358-5.164,1.358h-5.164V73.728z"/>
	</g>
</g>
</svg>
