<?xml version="1.0" encoding="utf-8"?>
<!-- Generator: Adobe Illustrator 16.0.0, SVG Export Plug-In . SVG Version: 6.00 Build 0)  -->
<!DOCTYPE svg PUBLIC "-//W3C//DTD SVG 1.0//EN" "http://www.w3.org/TR/2001/REC-SVG-20010904/DTD/svg10.dtd">
<svg version="1.0" id="Layer_1" xmlns="http://www.w3.org/2000/svg" xmlns:xlink="http://www.w3.org/1999/xlink" x="0px" y="0px"
	 width="150px" height="150px" viewBox="0 0 150 150" enable-background="new 0 0 150 150" xml:space="preserve">
<g>
	<polygon fill="#FFFFFF" points="38.676,131.211 36.288,131.211 34.621,125.805 33.021,131.211 30.605,131.211 27.468,121.736 
		30.075,121.736 31.923,127.492 33.653,121.736 35.668,121.736 37.41,127.492 39.181,121.736 41.763,121.736 	"/>
	<polygon fill="#FFFFFF" points="65.163,121.736 65.163,128.98 68.018,128.98 68.018,131.211 62.566,131.211 62.566,121.736 	"/>
	<polygon fill="#FFFFFF" points="78.207,131.211 75.816,131.211 74.151,125.805 72.55,131.211 70.135,131.211 66.998,121.736 
		69.606,121.736 71.453,127.492 73.182,121.736 75.197,121.736 76.94,127.492 78.709,121.736 81.294,121.736 	"/>
	<path fill="#FFFFFF" d="M94.07,125.936h0.438c0.273,0,1.229,0.055,1.229-1.045c0-0.994-0.813-0.982-1.086-0.982H94.07V125.936z
		 M94.988,121.736c1.057,0,1.458,0.094,1.963,0.352c0.09,0.053,0.349,0.188,0.566,0.4c0.337,0.322,0.764,0.992,0.764,2.135
		c0,0.389-0.026,1.273-0.674,2.066c-0.075,0.078-0.255,0.309-0.514,0.48c-0.104,0.068-0.221,0.135-0.468,0.244l2.687,3.797h-3.062
		l-2.181-3.248v3.248h-2.439v-9.475H94.988z"/>
	<polygon fill="#FFFFFF" points="105.56,121.736 105.56,123.938 103.66,123.938 103.66,131.211 101.09,131.211 101.09,123.938 
		99.182,123.938 99.182,121.736 	"/>
	<polygon fill="#FFFFFF" points="109.248,121.736 109.248,125.279 112.167,125.279 112.167,121.736 114.749,121.736 
		114.749,131.211 112.167,131.211 112.167,127.48 109.248,127.48 109.248,131.211 106.651,131.211 106.651,121.736 	"/>
	<path fill="#FFFFFF" d="M121.333,124.354c-0.156-0.121-0.311-0.24-0.468-0.35c-0.102-0.053-0.749-0.469-1.353-0.469
		c-0.712,0-0.956,0.459-0.956,0.777c0,0.242,0.14,0.457,0.311,0.578c0.203,0.133,0.578,0.24,1.098,0.389
		c0.151,0.027,1.136,0.254,1.729,0.752c0.39,0.322,0.839,0.939,0.839,2.119c0,0.846-0.218,1.572-0.772,2.201
		c-0.711,0.832-1.603,1.1-2.637,1.1c-1.731,0-2.736-0.764-3.291-1.182l0.889-1.973c0.105,0.082,0.221,0.178,0.326,0.256
		c0.787,0.564,1.394,0.779,1.82,0.779c0.607,0,1.133-0.352,1.133-1.006c0-0.229-0.049-0.416-0.191-0.578
		c-0.259-0.334-0.738-0.416-1.112-0.521c-0.357-0.096-0.993-0.271-1.342-0.43c-0.491-0.242-1.33-0.82-1.33-2.256
		c0-0.656,0.156-1.127,0.258-1.354c0.337-0.766,1.139-1.691,2.972-1.691c1.098,0,1.873,0.334,2.26,0.537
		c0.246,0.133,0.464,0.279,0.696,0.428L121.333,124.354z"/>
	<path fill="#FFFFFF" d="M56.793,128.838c-1.234,0-2.236-1.041-2.236-2.324s1.002-2.324,2.236-2.324
		c1.237,0,2.236,1.041,2.236,2.324S58.03,128.838,56.793,128.838 M56.784,121.514c-2.652,0-4.803,2.234-4.803,4.992
		c0,2.756,2.15,4.99,4.803,4.99c2.654,0,4.805-2.234,4.805-4.99C61.589,123.748,59.438,121.514,56.784,121.514"/>
	<path fill="#FFFFFF" d="M85.97,128.838c-1.234,0-2.236-1.041-2.236-2.324s1.002-2.324,2.236-2.324s2.239,1.041,2.239,2.324
		S87.204,128.838,85.97,128.838 M85.961,121.514c-2.651,0-4.804,2.234-4.804,4.992c0,2.756,2.152,4.99,4.804,4.99
		c2.655,0,4.807-2.234,4.807-4.99C90.768,123.748,88.616,121.514,85.961,121.514"/>
	<path fill="#FFFFFF" d="M46.366,128.838c-1.237,0-2.236-1.041-2.236-2.324s0.999-2.324,2.236-2.324
		c1.234,0,2.236,1.041,2.236,2.324S47.601,128.838,46.366,128.838 M46.357,121.514c-2.654,0-4.804,2.234-4.804,4.992
		c0,2.756,2.149,4.99,4.804,4.99s4.805-2.234,4.805-4.99C51.162,123.748,49.012,121.514,46.357,121.514"/>
	<path fill="#FFFFFF" d="M27.468,18.503v95.063h95.064V18.503H27.468z M92.525,84.27h-9.562l-6.671-20.82l-6.395,20.82h-9.652
		l-12.55-36.466h10.437l7.38,22.157l6.908-22.157h8.065l6.965,22.157l7.087-22.157h10.333L92.525,84.27z"/>
</g>
</svg>
