<?xml version="1.0" encoding="utf-8"?>
<!-- Generator: Adobe Illustrator 16.0.0, SVG Export Plug-In . SVG Version: 6.00 Build 0)  -->
<!DOCTYPE svg PUBLIC "-//W3C//DTD SVG 1.0//EN" "http://www.w3.org/TR/2001/REC-SVG-20010904/DTD/svg10.dtd">
<svg version="1.0" id="Layer_1" xmlns="http://www.w3.org/2000/svg" xmlns:xlink="http://www.w3.org/1999/xlink" x="0px" y="0px"
	 width="17.209px" height="285.505px" viewBox="0 0 17.209 285.505" enable-background="new 0 0 17.209 285.505"
	 xml:space="preserve">
<path fill="#FFFFFF" d="M3.276,285.505H3.259c-1.773,0-3.259-1.44-3.259-3.268c0-1.828,1.467-3.25,3.24-3.25h0.019
	c1.773,0,3.259,1.439,3.259,3.268S5.05,285.505,3.276,285.505z M3.259,279.284H3.24c-1.629,0-2.962,1.27-2.962,2.953
	c0,1.691,1.351,2.971,2.98,2.971h0.018c1.63,0,2.962-1.27,2.962-2.953C6.238,280.563,4.888,279.284,3.259,279.284z M3.223,283.884
	H3.204c-0.936,0-1.719-0.72-1.719-1.691c0-0.604,0.225-0.964,0.54-1.297l0.359,0.333c-0.252,0.261-0.449,0.576-0.449,0.972
	c0,0.676,0.576,1.18,1.26,1.18h0.019c0.692,0,1.269-0.521,1.269-1.188c0-0.424-0.171-0.693-0.449-0.99l0.314-0.324
	c0.36,0.351,0.595,0.729,0.595,1.332C4.942,283.164,4.168,283.884,3.223,283.884z"/>
<path fill="#FFFFFF" d="M5.86,278.08l-2.017-2.286c-0.864-0.964-1.351-1.314-1.98-1.314c-0.738,0-1.207,0.584-1.207,1.27
	c0,0.72,0.379,1.188,1.081,1.691l-0.378,0.522c-0.847-0.567-1.342-1.161-1.342-2.269c0-1.135,0.756-1.953,1.782-1.953h0.019
	c0.918,0,1.485,0.486,2.448,1.594l1.495,1.683v-3.34h0.647v4.402H5.86z"/>
<path fill="#FFFFFF" d="M3.276,272.563H3.259C1.494,272.563,0,271.51,0,269.89c0-1.621,1.476-2.647,3.24-2.647h0.019
	c1.765,0,3.259,1.044,3.259,2.665C6.518,271.536,5.041,272.563,3.276,272.563z M3.276,267.98H3.259
	c-1.378,0-2.611,0.757-2.611,1.927c0,1.18,1.207,1.918,2.593,1.918h0.019c1.377,0,2.61-0.757,2.61-1.936
	C5.869,268.71,4.654,267.98,3.276,267.98z"/>
<path fill="#FFFFFF" d="M0.801,265.12l0.369,1.188l-0.576,0.172l-0.531-1.54v-0.522h6.347v0.703H0.801z"/>
<path fill="#FFFFFF" d="M5.878,262.168c-0.504,0.504-1.152,0.792-2.439,0.792H3.421c-1.918,0-3.421-0.972-3.421-2.619
	c0-0.757,0.27-1.314,0.72-1.864l0.549,0.414c-0.396,0.469-0.621,0.909-0.621,1.485c0,1.144,1.152,1.854,2.782,1.846
	c-0.504-0.342-0.964-0.873-0.964-1.791c0-1.171,0.757-2.179,1.936-2.179H4.42c1.215,0,2.098,0.981,2.098,2.26
	C6.518,261.204,6.274,261.771,5.878,262.168z M4.447,258.98H4.429c-0.774,0-1.351,0.631-1.351,1.54c0,0.945,0.676,1.575,1.378,1.575
	h0.018c0.802,0,1.414-0.666,1.414-1.594C5.888,259.575,5.248,258.98,4.447,258.98z"/>
<path fill="#FFFFFF" d="M3.276,254.374H3.259c-1.783,0-3.259-1.332-3.259-3.187c0-1.144,0.404-1.828,0.999-2.458l0.521,0.486
	c-0.504,0.531-0.864,1.125-0.864,1.98c0,1.396,1.135,2.439,2.584,2.439h0.019c1.458,0,2.602-1.053,2.602-2.439
	c0-0.864-0.333-1.432-0.909-2.035l0.459-0.468c0.666,0.657,1.107,1.378,1.107,2.521C6.518,253.033,5.086,254.374,3.276,254.374z"/>
<path fill="#FFFFFF" d="M3.276,247.912H3.259c-1.738,0-3.259-1.306-3.259-3.223c0-1.918,1.503-3.205,3.24-3.205h0.019
	c1.737,0,3.259,1.306,3.259,3.223C6.518,246.625,5.014,247.912,3.276,247.912z M3.276,242.223H3.259
	c-1.432,0-2.603,1.044-2.603,2.484s1.152,2.467,2.584,2.467h0.019c1.431,0,2.602-1.044,2.602-2.484S4.708,242.223,3.276,242.223z"/>
<path fill="#FFFFFF" d="M0.107,239.982v-2.358c0-1.423,0.757-2.358,1.999-2.358h0.018c1.359,0,2.062,1.134,2.062,2.476v1.53h2.224
	v0.711H0.107z M3.537,237.714c0-1.044-0.558-1.729-1.386-1.729H2.133c-0.9,0-1.368,0.676-1.368,1.692v1.594h2.772V237.714z"/>
<path fill="#FFFFFF" d="M3.916,232.089l-3.809,2.62v-0.864l3.151-2.125l-3.151-2.143v-0.828l3.799,2.62h2.503v0.72H3.916z"/>
<path fill="#FFFFFF" d="M0.107,227.617v-2.71c0-0.773,0.234-1.395,0.63-1.791c0.307-0.306,0.748-0.486,1.243-0.486h0.018
	c1.044,0,1.656,0.721,1.837,1.711l2.574-1.936v0.873l-2.448,1.827v1.801h2.448v0.711H0.107z M3.321,224.971
	c0-0.945-0.486-1.62-1.296-1.62H2.007c-0.774,0-1.242,0.594-1.242,1.611v1.944h2.557V224.971z"/>
<path fill="#FFFFFF" d="M0.107,221.048v-0.711H6.41l-0.001,0.711H0.107z"/>
<path fill="#FFFFFF" d="M3.277,218.771H3.259c-1.729,0-3.259-1.27-3.259-3.16c0-1.062,0.306-1.719,0.837-2.35l0.54,0.459
	c-0.423,0.486-0.721,1.026-0.721,1.918c0,1.396,1.18,2.395,2.584,2.395h0.019c1.503,0,2.62-0.963,2.62-2.493
	c0-0.721-0.279-1.387-0.631-1.819H3.682v1.918H3.043v-2.602h2.512c0.521,0.585,0.963,1.467,0.963,2.529
	C6.518,217.546,5.077,218.771,3.277,218.771z"/>
<path fill="#FFFFFF" d="M0.107,211.436v-0.711h2.801v-3.637H0.107v-0.712H6.41v0.712H3.574v3.637H6.41v0.711H0.107z"/>
<path fill="#FFFFFF" d="M0.766,202.93v2.115H0.107v-4.951h0.658v2.115H6.41v0.721H0.766z"/>
<path fill="#FFFFFF" d="M5.491,196.478l-0.522-0.44c0.595-0.657,0.892-1.288,0.892-2.161c0-0.846-0.45-1.404-1.071-1.404H4.771
	c-0.586,0-0.918,0.315-1.197,1.639c-0.315,1.449-0.783,2.115-1.818,2.115H1.737c-0.99,0-1.72-0.873-1.72-2.07
	c0-0.918,0.262-1.575,0.774-2.215l0.55,0.414c-0.478,0.585-0.686,1.171-0.686,1.818c0,0.819,0.451,1.342,1.018,1.342h0.019
	c0.595,0,0.927-0.324,1.224-1.711c0.307-1.404,0.82-2.052,1.783-2.052h0.018c1.08,0,1.783,0.899,1.783,2.151
	C6.5,194.902,6.166,195.722,5.491,196.478z"/>
<path fill="#FFFFFF" d="M3.277,183.977H3.259c-1.729,0-3.259-1.27-3.259-3.16c0-1.062,0.306-1.719,0.837-2.35l0.54,0.459
	c-0.423,0.486-0.721,1.026-0.721,1.918c0,1.396,1.18,2.395,2.584,2.395h0.019c1.503,0,2.62-0.963,2.62-2.493
	c0-0.721-0.279-1.387-0.631-1.819H3.682v1.918H3.043v-2.602h2.512c0.521,0.585,0.963,1.467,0.963,2.529
	C6.518,182.752,5.077,183.977,3.277,183.977z"/>
<path fill="#FFFFFF" d="M0.107,176.642v-4.555h0.648v3.844h2.152v-3.439h0.647v3.439h2.206v-3.889H6.41v4.6H0.107z"/>
<path fill="#FFFFFF" d="M0.107,160.802v-0.711h5.645v-3.547H6.41v4.258H0.107z"/>
<path fill="#FFFFFF" d="M3.771,155.51H0.107v-0.712h3.619c1.359,0,2.125-0.72,2.125-1.926c0-1.162-0.702-1.9-2.08-1.9H0.107v-0.711
	h3.61c1.837,0,2.791,1.054,2.791,2.629C6.509,154.447,5.555,155.51,3.771,155.51z"/>
<path fill="#FFFFFF" d="M0.107,148.579v-0.72l3.439-2.296l-3.439-2.296v-0.72H6.41v0.711H1.305l3.377,2.296v0.036l-3.367,2.295H6.41
	v0.693H0.107z"/>
<path fill="#FFFFFF" d="M0.107,140.705v-0.711H6.41v0.711H0.107z"/>
<path fill="#FFFFFF" d="M0.107,138.148v-0.666l5.051-3.97H0.107v-0.693H6.41v0.567l-5.168,4.069H6.41v0.692H0.107z"/>
<path fill="#FFFFFF" d="M0.107,130.977v-0.711H6.41v0.711H0.107z"/>
<path fill="#FFFFFF" d="M3.771,128.52H0.107v-0.712h3.619c1.359,0,2.125-0.72,2.125-1.926c0-1.162-0.702-1.9-2.08-1.9H0.107v-0.711
	h3.61c1.837,0,2.791,1.054,2.791,2.629C6.509,127.457,5.555,128.52,3.771,128.52z"/>
<path fill="#FFFFFF" d="M0.107,121.589v-0.72l3.439-2.296l-3.439-2.296v-0.72H6.41v0.711H1.305l3.377,2.296v0.036l-3.367,2.295H6.41
	v0.693H0.107z"/>
<path fill="#FFFFFF" d="M5.465,113.976v-0.828H6.41v0.828H5.465z"/>
<path fill="#FFFFFF" d="M0.107,101.763v-0.711h5.645v-3.547H6.41v4.258H0.107z"/>
<path fill="#FFFFFF" d="M0.107,96.191V95.48h5.645v-3.547H6.41v4.258H0.107z"/>
<path fill="#FFFFFF" d="M0.107,87.921v-2.709c0-0.774,0.234-1.396,0.631-1.792c0.306-0.306,0.747-0.486,1.242-0.486h0.018
	c1.045,0,1.656,0.721,1.837,1.711l2.575-1.936v0.873l-2.449,1.827v1.801H6.41v0.711H0.107z M3.322,85.274
	c0-0.945-0.486-1.62-1.297-1.62H2.008c-0.775,0-1.242,0.594-1.242,1.611v1.944h2.557V85.274z"/>
<path fill="#FFFFFF" d="M0.107,81.352v-0.711H6.41v0.711H0.107z"/>
<path fill="#FFFFFF" d="M3.277,79.074H3.259C1.53,79.074,0,77.805,0,75.914c0-1.062,0.306-1.719,0.837-2.35l0.54,0.459
	c-0.423,0.486-0.721,1.026-0.721,1.918c0,1.396,1.18,2.395,2.584,2.395h0.019c1.503,0,2.62-0.963,2.62-2.493
	c0-0.721-0.279-1.387-0.631-1.819H3.682v1.918H3.043V73.34h2.512c0.521,0.585,0.963,1.467,0.963,2.529
	C6.518,77.85,5.077,79.074,3.277,79.074z"/>
<path fill="#FFFFFF" d="M0.107,71.739v-0.711h2.801v-3.637H0.107l0.001-0.712H6.41v0.712H3.574v3.637H6.41v0.711H0.107z"/>
<path fill="#FFFFFF" d="M0.766,63.233v2.115H0.108v-4.951h0.657v2.115H6.41v0.721H0.766z"/>
<path fill="#FFFFFF" d="M5.491,59.616l-0.521-0.44c0.594-0.657,0.891-1.288,0.891-2.161c0-0.846-0.45-1.404-1.071-1.404H4.771
	c-0.585,0-0.918,0.315-1.197,1.639c-0.315,1.449-0.783,2.115-1.818,2.115H1.737c-0.99,0-1.72-0.873-1.72-2.07
	c0-0.918,0.262-1.575,0.774-2.215l0.55,0.414c-0.478,0.585-0.685,1.171-0.685,1.818c0,0.819,0.45,1.342,1.018,1.342h0.018
	c0.595,0,0.928-0.324,1.225-1.711c0.306-1.404,0.819-2.052,1.782-2.052h0.019c1.08,0,1.782,0.899,1.782,2.151
	C6.5,58.041,6.167,58.86,5.491,59.616z"/>
<path fill="#FFFFFF" d="M0.108,50.742v-2.71c0-0.773,0.233-1.395,0.63-1.791c0.306-0.306,0.747-0.486,1.242-0.486h0.019
	c1.044,0,1.656,0.721,1.836,1.711L6.41,45.53v0.873L3.961,48.23v1.801H6.41v0.711H0.108z M3.322,48.096
	c0-0.945-0.486-1.62-1.297-1.62H2.008c-0.774,0-1.242,0.594-1.242,1.611v1.944h2.557V48.096z"/>
<path fill="#FFFFFF" d="M0.108,44.235v-4.555h0.647v3.844h2.152v-3.439h0.647v3.439h2.206v-3.889H6.41v4.6H0.108z"/>
<path fill="#FFFFFF" d="M5.491,38.619l-0.521-0.44c0.594-0.657,0.891-1.288,0.891-2.161c0-0.846-0.45-1.404-1.071-1.404H4.771
	c-0.585,0-0.918,0.315-1.197,1.639c-0.315,1.449-0.783,2.115-1.818,2.115H1.737c-0.99,0-1.72-0.873-1.72-2.07
	c0-0.918,0.262-1.575,0.774-2.215l0.55,0.414c-0.478,0.585-0.685,1.171-0.685,1.818c0,0.819,0.45,1.342,1.018,1.342h0.018
	c0.595,0,0.928-0.324,1.225-1.711c0.306-1.404,0.819-2.052,1.782-2.052h0.019c1.08,0,1.782,0.899,1.782,2.151
	C6.5,37.044,6.167,37.863,5.491,38.619z"/>
<path fill="#FFFFFF" d="M0.108,32.445v-4.555h0.647v3.844h2.152v-3.438h0.647v3.438h2.206v-3.889H6.41v4.6H0.108z"/>
<path fill="#FFFFFF" d="M0.108,26.415v-2.709c0-0.774,0.233-1.396,0.63-1.792c0.306-0.306,0.747-0.486,1.242-0.486h0.019
	c1.044,0,1.656,0.721,1.836,1.711l2.575-1.936v0.873l-2.449,1.827v1.801H6.41v0.711H0.108z M3.322,23.769
	c0-0.945-0.486-1.62-1.297-1.62H2.008c-0.774,0-1.242,0.594-1.242,1.611v1.944h2.557V23.769z"/>
<path fill="#FFFFFF" d="M0.108,20.628v-0.792l5.429-2.241l-5.429-2.251v-0.766l6.347,2.71v0.631L0.108,20.628z"/>
<path fill="#FFFFFF" d="M0.108,13.338V8.783h0.647v3.844h2.152V9.188h0.647v3.438h2.206V8.738H6.41v4.6H0.108z"/>
<path fill="#FFFFFF" d="M0.108,7.309V5.121c0-1.98,1.359-3.349,3.133-3.349h0.018c1.773,0,3.151,1.368,3.151,3.349v2.188H0.108z
	 M5.753,5.121c0-1.594-1.08-2.61-2.476-2.61H3.259c-1.396,0-2.493,1.017-2.493,2.61v1.477h4.987V5.121z"/>
<path fill="#FFFFFF" d="M5.465,0.828V0H6.41v0.828H5.465z"/>
<path fill="#FFFFFF" d="M16.291,285.505l-0.522-0.441c0.595-0.657,0.892-1.287,0.892-2.16c0-0.847-0.45-1.404-1.071-1.404H15.57
	c-0.585,0-0.918,0.314-1.197,1.639c-0.314,1.449-0.783,2.115-1.818,2.115h-0.018c-0.99,0-1.72-0.873-1.72-2.07
	c0-0.919,0.261-1.576,0.774-2.215l0.549,0.414c-0.477,0.585-0.685,1.17-0.685,1.818c0,0.819,0.45,1.342,1.018,1.342h0.019
	c0.594,0,0.927-0.324,1.224-1.711c0.307-1.404,0.819-2.053,1.783-2.053h0.018c1.08,0,1.782,0.9,1.782,2.152
	C17.299,283.929,16.966,284.749,16.291,285.505z"/>
<path fill="#FFFFFF" d="M14.076,273.003h-0.018c-1.729,0-3.259-1.269-3.259-3.159c0-1.063,0.306-1.72,0.837-2.35l0.54,0.459
	c-0.423,0.485-0.721,1.026-0.721,1.917c0,1.396,1.18,2.395,2.584,2.395h0.019c1.503,0,2.619-0.963,2.619-2.493
	c0-0.72-0.278-1.386-0.63-1.818h-1.566v1.917h-0.64v-2.602h2.512c0.522,0.586,0.964,1.468,0.964,2.53
	C17.317,271.779,15.877,273.003,14.076,273.003z"/>
<path fill="#FFFFFF" d="M10.907,265.669v-4.556h0.648v3.845h2.151v-3.439h0.648v3.439h2.206v-3.89h0.647v4.601H10.907z"/>
<path fill="#FFFFFF" d="M10.907,249.828v-0.711h5.645v-3.547h0.657v4.258H10.907z"/>
<path fill="#FFFFFF" d="M14.571,244.537h-3.664v-0.712h3.619c1.359,0,2.125-0.72,2.125-1.926c0-1.162-0.702-1.9-2.08-1.9h-3.664
	v-0.711h3.61c1.836,0,2.791,1.054,2.791,2.629C17.309,243.475,16.354,244.537,14.571,244.537z"/>
<path fill="#FFFFFF" d="M10.907,237.606v-0.72l3.439-2.296l-3.439-2.296v-0.72h6.302v0.711h-5.104l3.376,2.296v0.036l-3.367,2.295
	h5.096v0.693H10.907z"/>
<path fill="#FFFFFF" d="M10.907,229.732v-0.711h6.302v0.711H10.907z"/>
<path fill="#FFFFFF" d="M10.907,227.176v-0.666l5.051-3.97h-5.05v-0.693h6.301v0.567l-5.167,4.069h5.167v0.692H10.907z"/>
<path fill="#FFFFFF" d="M10.908,220.003v-0.711h6.301v0.711H10.908z"/>
<path fill="#FFFFFF" d="M14.572,217.547h-3.664v-0.712h3.619c1.359,0,2.124-0.72,2.124-1.926c0-1.162-0.702-1.9-2.079-1.9h-3.664
	v-0.711h3.609c1.836,0,2.791,1.054,2.791,2.629C17.309,216.484,16.354,217.547,14.572,217.547z"/>
<path fill="#FFFFFF" d="M10.908,210.616v-0.72l3.438-2.296l-3.438-2.296v-0.72h6.301v0.711h-5.104l3.375,2.296v0.036l-3.367,2.295
	h5.096v0.693H10.908z"/>
<path fill="#FFFFFF" d="M10.908,200.591v-0.774l5.248-1.8l-5.267-1.729v-0.586l5.267-1.729l-5.248-1.8v-0.748l6.346,2.251v0.604
	l-5.113,1.729l5.113,1.737v0.594L10.908,200.591z"/>
<path fill="#FFFFFF" d="M16.291,184.381l-0.521-0.44c0.594-0.657,0.891-1.288,0.891-2.161c0-0.846-0.45-1.404-1.071-1.404H15.57
	c-0.584,0-0.918,0.315-1.197,1.639c-0.314,1.449-0.783,2.115-1.818,2.115h-0.018c-0.99,0-1.72-0.873-1.72-2.07
	c0-0.918,0.261-1.575,0.774-2.215l0.549,0.414c-0.477,0.585-0.684,1.171-0.684,1.818c0,0.819,0.449,1.342,1.018,1.342h0.018
	c0.594,0,0.928-0.324,1.225-1.711c0.306-1.404,0.818-2.052,1.782-2.052h0.019c1.08,0,1.781,0.899,1.781,2.151
	C17.299,182.806,16.967,183.625,16.291,184.381z"/>
<path fill="#FFFFFF" d="M10.908,175.508v-4.555h0.647v3.844h2.151v-3.438h0.648v3.438h2.206v-3.889h0.647v4.6H10.908z"/>
<path fill="#FFFFFF" d="M16.291,169.892l-0.521-0.44c0.594-0.657,0.891-1.288,0.891-2.161c0-0.846-0.45-1.404-1.071-1.404H15.57
	c-0.584,0-0.918,0.315-1.197,1.639c-0.314,1.449-0.783,2.115-1.818,2.115h-0.018c-0.99,0-1.72-0.873-1.72-2.07
	c0-0.918,0.261-1.575,0.774-2.215l0.549,0.414c-0.477,0.585-0.684,1.171-0.684,1.818c0,0.819,0.449,1.342,1.018,1.342h0.018
	c0.594,0,0.928-0.324,1.225-1.711c0.306-1.404,0.818-2.052,1.782-2.052h0.019c1.08,0,1.781,0.899,1.781,2.151
	C17.299,168.316,16.967,169.136,16.291,169.892z"/>
<path fill="#FFFFFF" d="M11.564,162.188v2.115h-0.656v-4.951h0.656v2.115h5.645v0.721H11.564z"/>
<path fill="#FFFFFF" d="M10.908,151.721v-2.683c0-0.72,0.207-1.287,0.558-1.647c0.271-0.261,0.603-0.405,1.009-0.405h0.018
	c0.819,0,1.242,0.505,1.459,1c0.225-0.748,0.656-1.351,1.521-1.351h0.018c1.08,0,1.719,0.909,1.719,2.286v2.8H10.908z
	 M13.717,149.155c0-0.855-0.388-1.449-1.125-1.449h-0.019c-0.621,0-1.026,0.495-1.026,1.396v1.917h2.17V149.155z M16.57,148.903
	c0-0.954-0.424-1.549-1.125-1.549h-0.019c-0.685,0-1.08,0.576-1.08,1.675v1.989h2.224V148.903z"/>
<path fill="#FFFFFF" d="M10.908,145.223v-0.711h5.645v-3.547h0.656v4.258H10.908z"/>
<path fill="#FFFFFF" d="M10.908,139.589v-0.711h6.301v0.711H10.908z"/>
<path fill="#FFFFFF" d="M16.291,137.447l-0.521-0.44c0.594-0.657,0.891-1.288,0.891-2.161c0-0.846-0.45-1.404-1.071-1.404H15.57
	c-0.584,0-0.918,0.315-1.197,1.639c-0.314,1.449-0.783,2.115-1.818,2.115h-0.018c-0.99,0-1.72-0.873-1.72-2.07
	c0-0.918,0.261-1.575,0.774-2.215l0.549,0.414c-0.477,0.585-0.684,1.171-0.684,1.818c0,0.819,0.449,1.342,1.018,1.342h0.018
	c0.594,0,0.928-0.324,1.225-1.711c0.306-1.404,0.818-2.052,1.782-2.052h0.019c1.08,0,1.781,0.899,1.781,2.151
	C17.299,135.872,16.967,136.691,16.291,137.447z"/>
<path fill="#FFFFFF" d="M10.908,131.272v-0.711h2.799v-3.637h-2.799v-0.712h6.301v0.712h-2.836v3.637h2.836v0.711H10.908z"/>
<path fill="#FFFFFF" d="M10.908,124.433v-4.555h0.647v3.844h2.151v-3.439h0.648v3.439h2.206v-3.889h0.647v4.6H10.908z"/>
<path fill="#FFFFFF" d="M10.908,118.403v-2.188c0-1.98,1.359-3.349,3.133-3.349h0.018c1.773,0,3.15,1.368,3.15,3.349v2.188H10.908z
	 M16.553,116.216c0-1.594-1.08-2.61-2.477-2.61h-0.018c-1.396,0-2.494,1.017-2.494,2.61v1.477h4.988V116.216z"/>
<path fill="#FFFFFF" d="M10.908,108.603v-0.711h6.301v0.711H10.908z"/>
<path fill="#FFFFFF" d="M10.908,106.046v-0.666l5.05-3.97h-5.05v-0.693h6.301v0.567l-5.167,4.068h5.167v0.693H10.908z"/>
<path fill="#FFFFFF" d="M11.601,95.517l0.369,1.188l-0.576,0.171l-0.53-1.54v-0.521h6.346v0.702H11.601z"/>
<path fill="#FFFFFF" d="M16.543,93.195l-0.549-0.414c0.45-0.514,0.676-0.99,0.676-1.549c0-1.135-1.152-1.899-2.765-1.872
	c0.55,0.342,1.009,0.909,1.009,1.782c0,1.296-0.819,2.196-1.954,2.196h-0.018c-1.198,0-2.143-0.927-2.143-2.269
	c0-0.72,0.243-1.251,0.647-1.656c0.478-0.478,1.18-0.783,2.44-0.783h0.018c1.999,0,3.412,1.063,3.412,2.619
	C17.317,92.069,16.984,92.664,16.543,93.195z M12.879,89.495h-0.018c-0.801,0-1.432,0.657-1.432,1.603s0.693,1.513,1.477,1.513
	h0.018c0.802,0,1.378-0.631,1.378-1.549C14.302,90.098,13.6,89.495,12.879,89.495z"/>
<path fill="#FFFFFF" d="M16.543,87.372l-0.549-0.414c0.45-0.514,0.676-0.99,0.676-1.549c0-1.135-1.152-1.899-2.765-1.872
	c0.55,0.342,1.009,0.909,1.009,1.782c0,1.296-0.819,2.196-1.954,2.196h-0.018c-1.198,0-2.143-0.927-2.143-2.269
	c0-0.72,0.243-1.251,0.647-1.656c0.478-0.478,1.18-0.783,2.44-0.783h0.018c1.999,0,3.412,1.063,3.412,2.619
	C17.317,86.246,16.984,86.841,16.543,87.372z M12.879,83.672h-0.018c-0.801,0-1.432,0.657-1.432,1.603s0.693,1.512,1.477,1.512
	h0.018c0.802,0,1.378-0.63,1.378-1.548C14.302,84.274,13.6,83.672,12.879,83.672z"/>
<path fill="#FFFFFF" d="M16.318,81.827l-0.514-0.468c0.531-0.549,0.865-1.152,0.865-1.792c0-0.899-0.595-1.521-1.396-1.521h-0.018
	c-0.783,0-1.323,0.647-1.323,1.566c0,0.53,0.162,0.954,0.36,1.323l-0.315,0.477l-3.069-0.18v-3.628h0.656v3.007l2.018,0.135
	c-0.162-0.369-0.279-0.72-0.279-1.242c0-1.225,0.729-2.179,1.926-2.179h0.019c1.233,0,2.07,0.937,2.07,2.251
	C17.317,80.478,16.885,81.261,16.318,81.827z"/>
<path fill="#FFFFFF" d="M16.264,76.104v-0.828h0.945v0.828H16.264z"/>
<polygon fill="#FFFFFF" points="0.063,105.874 0.063,106.541 6.41,109.412 6.41,108.684 4.744,107.937 4.105,107.657 0.891,106.217 
	4.105,104.785 4.744,104.506 6.41,103.768 6.41,103.003 "/>
<polygon fill="#FFFFFF" points="0.063,187.44 0.063,188.107 6.41,190.979 6.41,190.25 4.744,189.503 4.105,189.224 0.891,187.783 
	4.105,186.352 4.744,186.072 6.41,185.334 6.41,184.569 "/>
<polygon fill="#FFFFFF" points="0.063,164.913 0.063,165.58 6.41,168.451 6.41,167.723 4.744,166.976 4.105,166.696 0.891,165.256 
	4.105,163.824 4.744,163.545 6.41,162.807 6.41,162.042 "/>
<polygon fill="#FFFFFF" points="10.863,155.833 10.863,156.499 17.209,159.37 17.209,158.642 15.544,157.895 14.904,157.615 
	11.691,156.175 14.904,154.743 15.544,154.464 17.209,153.726 17.209,152.961 "/>
<polygon fill="#FFFFFF" points="10.863,187.954 10.863,188.62 17.209,191.491 17.209,190.763 15.544,190.016 14.904,189.736 
	11.691,188.296 14.904,186.864 15.544,186.585 17.209,185.847 17.209,185.082 "/>
<polygon fill="#FFFFFF" points="10.862,253.94 10.862,254.607 17.209,257.479 17.209,256.75 15.544,256.003 14.904,255.724 
	11.69,254.283 14.904,252.852 15.544,252.572 17.209,251.834 17.209,251.069 "/>
<polygon fill="#FFFFFF" points="10.862,276.468 10.862,277.134 17.209,280.006 17.209,279.276 15.544,278.529 14.904,278.251 
	11.69,276.81 14.904,275.378 15.544,275.1 17.209,274.361 17.209,273.596 "/>
</svg>
