<?xml version="1.0" encoding="utf-8"?>
<!-- Generator: Adobe Illustrator 19.0.0, SVG Export Plug-In . SVG Version: 6.00 Build 0)  -->
<svg version="1.1" id="Layer_1" xmlns="http://www.w3.org/2000/svg" xmlns:xlink="http://www.w3.org/1999/xlink" x="0px" y="0px"
	 viewBox="0 0 15.3 183.1" style="enable-background:new 0 0 15.3 183.1;" xml:space="preserve">
<style type="text/css">
	.st0{fill:#fefefe;}
</style>
<g id="XMLID_1_">
	<path id="XMLID_159_" class="st0" d="M11.5,178c0,1.1-0.4,2.1-1.2,2.8c-0.8,0.8-1.7,1.2-2.8,1.2c-1.1,0-2.1-0.4-2.8-1.2
		c-0.8-0.8-1.2-1.7-1.2-2.8c0-1.1,0.4-2.1,1.2-2.8c0.8-0.8,1.7-1.2,2.8-1.2c1.1,0,2.1,0.4,2.8,1.2C11.1,176,11.5,176.9,11.5,178z
		 M3.9,178c0,1,0.3,1.8,1,2.5c0.7,0.7,1.5,1,2.5,1c1,0,1.8-0.3,2.5-1c0.7-0.7,1-1.5,1-2.5c0-1-0.3-1.8-1-2.5c-0.7-0.7-1.5-1-2.5-1
		c-1,0-1.8,0.3-2.5,1C4.3,176.2,3.9,177,3.9,178z M9.9,176.4c0.2,0.4,0.4,0.9,0.4,1.4c0,0.7-0.3,1.4-0.8,1.9
		c-0.5,0.5-1.1,0.8-1.9,0.8c-0.9,0-1.6-0.3-2.1-0.8s-0.8-1.2-0.8-2c0-0.5,0.1-0.9,0.3-1.3h0.8c-0.3,0.3-0.4,0.8-0.4,1.4
		c0,0.6,0.2,1,0.6,1.4c0.4,0.4,0.9,0.5,1.5,0.5c0.6,0,1.1-0.2,1.5-0.6c0.4-0.4,0.6-0.8,0.6-1.4c0-0.5-0.1-1-0.4-1.3H9.9z"/>
	<path id="XMLID_163_" class="st0" d="M11,166.9c0.3,0.6,0.5,1.3,0.5,2.1c0,1.1-0.4,2-1.1,2.6c-0.7,0.7-1.6,1-2.8,1
		c-1.2,0-2.2-0.4-3-1.1c-0.8-0.7-1.1-1.7-1.1-2.8c0-0.7,0.1-1.3,0.3-1.8h1c-0.3,0.6-0.5,1.2-0.5,1.8c0,0.9,0.3,1.6,0.9,2.2
		s1.4,0.8,2.4,0.8c0.9,0,1.7-0.3,2.2-0.8s0.8-1.2,0.8-2c0-0.8-0.2-1.4-0.5-2H11z"/>
	<path id="XMLID_165_" class="st0" d="M11.5,163.1c0,0.8-0.3,1.5-0.8,1.9c-0.5,0.5-1.2,0.7-2,0.7c-0.9,0-1.6-0.3-2.2-0.8
		c-0.5-0.5-0.8-1.2-0.8-2c0-0.8,0.3-1.5,0.8-1.9s1.2-0.7,2.1-0.7c0.9,0,1.6,0.2,2.1,0.7C11.2,161.6,11.5,162.3,11.5,163.1z
		 M6.4,163.1c0,0.6,0.2,1,0.6,1.3s0.9,0.5,1.6,0.5c0.7,0,1.2-0.2,1.5-0.5c0.4-0.3,0.6-0.8,0.6-1.3c0-0.6-0.2-1-0.6-1.3
		c-0.4-0.3-0.9-0.5-1.6-0.5c-0.7,0-1.2,0.2-1.6,0.5C6.6,162.1,6.4,162.5,6.4,163.1z"/>
	<path id="XMLID_168_" class="st0" d="M10.5,158.1L10.5,158.1l3.3,0v0.9h-8v-0.9h1v0c-0.7-0.4-1.1-1.1-1.1-1.9
		c0-0.7,0.2-1.3,0.7-1.7c0.5-0.4,1.2-0.6,2-0.6c0.9,0,1.7,0.2,2.2,0.7c0.6,0.4,0.8,1.1,0.8,1.8C11.5,157.1,11.2,157.7,10.5,158.1z
		 M8.3,158.1h0.8c0.5,0,0.8-0.1,1.2-0.4c0.3-0.3,0.5-0.7,0.5-1.1c0-0.5-0.2-1-0.6-1.3c-0.4-0.3-1-0.5-1.7-0.5
		c-0.6,0-1.1,0.1-1.4,0.4c-0.3,0.3-0.5,0.7-0.5,1.2c0,0.5,0.2,0.9,0.5,1.2C7.3,157.9,7.8,158.1,8.3,158.1z"/>
	<path id="XMLID_171_" class="st0" d="M5.8,148.1l6.4,2.5c1.1,0.5,1.7,1.1,1.7,1.9c0,0.2,0,0.4-0.1,0.6h-0.8
		c0.1-0.2,0.1-0.4,0.1-0.5c0-0.4-0.3-0.8-0.8-1l-1-0.4l-5.5,2.1v-1l4.2-1.5c0.1,0,0.2-0.1,0.4-0.1v0c-0.1,0-0.2-0.1-0.4-0.1L5.8,149
		V148.1z"/>
	<path id="XMLID_173_" class="st0" d="M6.7,144.3c-0.1,0.2-0.2,0.4-0.2,0.7c0,0.4,0.2,0.7,0.5,0.9c0.4,0.3,0.8,0.4,1.5,0.4h2.8v0.9
		H5.8v-0.9H7v0c-0.4-0.1-0.7-0.3-0.9-0.6c-0.2-0.3-0.3-0.5-0.3-0.9c0-0.2,0-0.4,0.1-0.5H6.7z"/>
	<path id="XMLID_175_" class="st0" d="M4.4,142.9c0,0.2-0.1,0.3-0.2,0.4s-0.2,0.2-0.4,0.2c-0.2,0-0.3-0.1-0.4-0.2s-0.2-0.2-0.2-0.4
		c0-0.2,0.1-0.3,0.2-0.4s0.2-0.2,0.4-0.2c0.2,0,0.3,0.1,0.4,0.2C4.4,142.6,4.4,142.8,4.4,142.9z M11.3,142.5v0.9H5.8v-0.9H11.3z"/>
	<path id="XMLID_178_" class="st0" d="M10.9,136c2,0,3,1,3,2.9c0,0.7-0.1,1.3-0.4,1.8h-0.9c0.3-0.6,0.5-1.2,0.5-1.8
		c0-1.4-0.7-2-2.2-2h-0.6v0c0.7,0.4,1.1,1,1.1,1.9c0,0.7-0.2,1.2-0.7,1.7c-0.5,0.4-1.1,0.6-2,0.6c-0.9,0-1.7-0.2-2.2-0.7
		c-0.6-0.5-0.8-1.1-0.8-1.8c0-0.7,0.3-1.3,0.9-1.6v0H5.8V136H10.9z M8.8,136.9H8c-0.4,0-0.8,0.1-1.1,0.4c-0.3,0.3-0.5,0.7-0.5,1.1
		c0,0.5,0.2,1,0.6,1.3c0.4,0.3,0.9,0.5,1.7,0.5c0.6,0,1.1-0.1,1.5-0.4s0.6-0.7,0.6-1.2c0-0.5-0.2-0.9-0.5-1.2
		C9.8,137,9.4,136.9,8.8,136.9z"/>
	<path id="XMLID_181_" class="st0" d="M11.3,129.7v0.9H8.2c-1.1,0-1.7,0.4-1.7,1.3c0,0.4,0.2,0.8,0.5,1.1c0.3,0.3,0.8,0.4,1.3,0.4
		h3.1v0.9H3.2v-0.9h3.6v0c-0.7-0.4-1-1-1-1.8c0-1.2,0.7-1.9,2.2-1.9H11.3z"/>
	<path id="XMLID_183_" class="st0" d="M11.3,125.4c0.1,0.2,0.2,0.5,0.2,0.8c0,1-0.5,1.4-1.6,1.4H6.6v0.9H5.8v-0.9H4.5l-0.3-0.9h1.6
		v-1.4h0.8v1.4h3.1c0.4,0,0.6-0.1,0.8-0.2c0.2-0.1,0.2-0.3,0.2-0.6c0-0.2-0.1-0.4-0.2-0.6H11.3z"/>
	<path id="XMLID_185_" class="st0" d="M11.3,117.1v4.1H3.6v-3.9h0.8v3H7v-2.8h0.8v2.8h2.7v-3.2H11.3z"/>
	<path id="XMLID_187_" class="st0" d="M11.3,109.4v1.1l-6.1,4c-0.2,0.1-0.3,0.2-0.5,0.2v0c0.2,0,0.5,0,1.1,0h5.6v0.9H3.6v-1.2l6-3.9
		c0.3-0.2,0.4-0.3,0.5-0.3v0c-0.2,0-0.6,0.1-1.1,0.1H3.6v-0.9H11.3z"/>
	<path id="XMLID_189_" class="st0" d="M3.6,102.3l4.9,2.5h2.8v0.9H8.5l-4.9,2.5v-1l3.5-1.7c0,0,0.2-0.1,0.5-0.2v0
		c-0.1,0-0.3-0.1-0.5-0.2l-3.5-1.8V102.3z"/>
	<path id="XMLID_191_" class="st0" d="M11.5,98.4c0,1.1-0.4,2-1.1,2.6s-1.7,1-2.8,1c-1.2,0-2.2-0.3-3-1c-0.7-0.7-1.1-1.6-1.1-2.7
		c0-1.1,0.4-1.9,1.1-2.6c0.7-0.6,1.7-1,2.8-1c1.3,0,2.3,0.3,3,1S11.5,97.3,11.5,98.4z M4.3,98.3c0,0.8,0.3,1.5,0.9,2
		c0.6,0.5,1.4,0.8,2.3,0.8c0.9,0,1.7-0.2,2.3-0.7s0.9-1.1,0.9-1.9c0-0.8-0.3-1.5-0.8-2c-0.6-0.5-1.3-0.7-2.3-0.7
		c-1,0-1.8,0.2-2.4,0.7C4.6,96.9,4.3,97.5,4.3,98.3z"/>
	<path id="XMLID_194_" class="st0" d="M10.1,93l2.6,0.9v0.6l-2.6-0.6V93z"/>
	<path id="XMLID_196_" class="st0" d="M11.3,82.3v1l-2.2,0.8v3.3l2.2,0.8v1l-7.7-3v-0.9L11.3,82.3z M8.4,84.5l-3.3,1.2
		c-0.1,0-0.3,0.1-0.5,0.1v0c0.2,0,0.4,0.1,0.5,0.1l3.3,1.2V84.5z"/>
	<path id="XMLID_199_" class="st0" d="M11.3,80.5v0.9H3.2v-0.9H11.3z"/>
	<path id="XMLID_201_" class="st0" d="M11.3,77.8v0.9H3.2v-0.9H11.3z"/>
	<path id="XMLID_203_" class="st0" d="M6.7,70.1c-0.1,0.2-0.2,0.4-0.2,0.7c0,0.4,0.2,0.7,0.5,0.9c0.4,0.3,0.8,0.4,1.5,0.4h2.8V73
		H5.8v-0.9H7v0c-0.4-0.1-0.7-0.3-0.9-0.6c-0.2-0.3-0.3-0.5-0.3-0.9c0-0.2,0-0.4,0.1-0.5H6.7z"/>
	<path id="XMLID_205_" class="st0" d="M4.4,68.7c0,0.2-0.1,0.3-0.2,0.4c-0.1,0.1-0.2,0.2-0.4,0.2c-0.2,0-0.3-0.1-0.4-0.2
		c-0.1-0.1-0.2-0.2-0.2-0.4c0-0.2,0.1-0.3,0.2-0.4c0.1-0.1,0.2-0.2,0.4-0.2c0.2,0,0.3,0.1,0.4,0.2C4.4,68.4,4.4,68.6,4.4,68.7z
		 M11.3,68.3v0.9H5.8v-0.9H11.3z"/>
	<path id="XMLID_208_" class="st0" d="M10.9,61.8c2,0,3,1,3,2.9c0,0.7-0.1,1.3-0.4,1.8h-0.9c0.3-0.6,0.5-1.2,0.5-1.8
		c0-1.4-0.7-2-2.2-2h-0.6v0c0.7,0.4,1.1,1,1.1,1.9c0,0.7-0.2,1.2-0.7,1.7c-0.5,0.4-1.1,0.6-2,0.6c-0.9,0-1.7-0.2-2.2-0.7
		c-0.6-0.4-0.8-1.1-0.8-1.8c0-0.7,0.3-1.3,0.9-1.6v0H5.8v-0.9H10.9z M8.8,62.7H8c-0.4,0-0.8,0.1-1.1,0.4c-0.3,0.3-0.5,0.7-0.5,1.1
		c0,0.5,0.2,1,0.6,1.3C7.4,65.8,8,66,8.7,66c0.6,0,1.1-0.1,1.5-0.4c0.4-0.3,0.6-0.7,0.6-1.2c0-0.5-0.2-0.9-0.5-1.2
		C9.8,62.8,9.4,62.7,8.8,62.7z"/>
	<path id="XMLID_211_" class="st0" d="M11.3,55.5v0.9H8.2c-1.1,0-1.7,0.4-1.7,1.3c0,0.4,0.2,0.8,0.5,1.1c0.3,0.3,0.8,0.4,1.3,0.4
		h3.1V60H3.2v-0.9h3.6v0c-0.7-0.4-1-1-1-1.8c0-1.2,0.7-1.9,2.2-1.9H11.3z"/>
	<path id="XMLID_213_" class="st0" d="M11.3,51.2c0.1,0.2,0.2,0.5,0.2,0.8c0,1-0.5,1.4-1.6,1.4H6.6v0.9H5.8v-0.9H4.5l-0.3-0.9h1.6
		v-1.4h0.8v1.4h3.1c0.4,0,0.6-0.1,0.8-0.2c0.2-0.1,0.2-0.3,0.2-0.6c0-0.2-0.1-0.4-0.2-0.6H11.3z"/>
	<path id="XMLID_215_" class="st0" d="M11.3,41.4v1.1l-2.2,1.3C9,43.9,8.8,44,8.7,44.1c-0.1,0.1-0.3,0.2-0.3,0.3
		c-0.1,0.1-0.2,0.2-0.2,0.4c0,0.1-0.1,0.3-0.1,0.5V46h3.3v0.9H3.6v-2.3c0-0.3,0-0.6,0.1-0.9C3.8,43.4,4,43.2,4.1,43
		c0.2-0.2,0.4-0.4,0.6-0.5c0.3-0.1,0.6-0.2,0.9-0.2c0.3,0,0.5,0,0.7,0.1c0.2,0.1,0.4,0.2,0.6,0.3c0.2,0.1,0.3,0.3,0.4,0.5
		c0.1,0.2,0.2,0.4,0.3,0.7h0c0.1-0.1,0.1-0.2,0.2-0.3c0.1-0.1,0.2-0.2,0.3-0.3c0.1-0.1,0.2-0.2,0.3-0.3C8.7,43.1,8.9,43,9,42.9
		L11.3,41.4z M4.4,46h2.8v-1.2c0-0.2,0-0.4-0.1-0.6C7.1,44,7,43.8,6.8,43.7c-0.1-0.1-0.3-0.2-0.5-0.3S6,43.2,5.8,43.2
		c-0.4,0-0.7,0.1-1,0.4c-0.2,0.3-0.3,0.7-0.3,1.2V46z"/>
	<path id="XMLID_218_" class="st0" d="M8.8,36.4v3.9c0.6,0,1.1-0.2,1.4-0.5s0.5-0.7,0.5-1.3c0-0.6-0.2-1.2-0.6-1.7h0.8
		c0.4,0.5,0.5,1.1,0.5,1.9c0,0.8-0.3,1.4-0.7,1.8c-0.5,0.4-1.2,0.7-2.1,0.7c-0.9,0-1.6-0.2-2.1-0.7c-0.5-0.5-0.8-1.1-0.8-1.8
		s0.2-1.3,0.7-1.7c0.5-0.4,1.1-0.6,1.9-0.6H8.8z M8.1,37.3c-0.5,0-0.9,0.1-1.2,0.4c-0.3,0.2-0.4,0.6-0.4,1c0,0.4,0.1,0.8,0.4,1.1
		c0.3,0.3,0.7,0.5,1.2,0.5V37.3z"/>
	<path id="XMLID_221_" class="st0" d="M11.1,35.4h-0.9c0.4-0.5,0.5-1,0.5-1.6c0-0.8-0.3-1.2-0.8-1.2c-0.1,0-0.3,0-0.4,0.1
		c-0.1,0.1-0.2,0.2-0.3,0.3c-0.1,0.1-0.1,0.2-0.2,0.4C9,33.5,9,33.7,8.9,33.9c-0.1,0.2-0.2,0.5-0.3,0.6S8.4,34.9,8.3,35
		c-0.1,0.1-0.3,0.2-0.4,0.3c-0.2,0.1-0.3,0.1-0.6,0.1c-0.3,0-0.5-0.1-0.7-0.2c-0.2-0.1-0.4-0.3-0.5-0.5C6,34.5,5.9,34.3,5.8,34
		c-0.1-0.3-0.1-0.5-0.1-0.8c0-0.5,0.1-0.9,0.2-1.3h0.9c-0.3,0.4-0.4,0.9-0.4,1.4c0,0.2,0,0.3,0.1,0.4c0,0.1,0.1,0.2,0.2,0.3
		c0.1,0.1,0.1,0.2,0.2,0.2s0.2,0.1,0.3,0.1c0.1,0,0.3,0,0.4-0.1s0.2-0.1,0.3-0.2C7.9,34,8,33.9,8,33.8c0.1-0.1,0.1-0.3,0.2-0.5
		c0.1-0.2,0.2-0.5,0.3-0.7s0.2-0.4,0.3-0.5C9,32,9.1,31.9,9.3,31.8s0.4-0.1,0.6-0.1c0.3,0,0.5,0.1,0.7,0.2c0.2,0.1,0.4,0.3,0.5,0.5
		c0.1,0.2,0.2,0.4,0.3,0.7c0.1,0.3,0.1,0.5,0.1,0.8C11.5,34.5,11.4,35,11.1,35.4z"/>
	<path id="XMLID_223_" class="st0" d="M8.8,25.9v3.9c0.6,0,1.1-0.2,1.4-0.5s0.5-0.7,0.5-1.3c0-0.6-0.2-1.2-0.6-1.7h0.8
		c0.4,0.5,0.5,1.1,0.5,1.9c0,0.8-0.3,1.4-0.7,1.8c-0.5,0.4-1.2,0.7-2.1,0.7c-0.9,0-1.6-0.2-2.1-0.7c-0.5-0.5-0.8-1.1-0.8-1.8
		s0.2-1.3,0.7-1.7c0.5-0.4,1.1-0.6,1.9-0.6H8.8z M8.1,26.8c-0.5,0-0.9,0.1-1.2,0.4c-0.3,0.2-0.4,0.6-0.4,1c0,0.4,0.1,0.8,0.4,1.1
		c0.3,0.3,0.7,0.5,1.2,0.5V26.8z"/>
	<path id="XMLID_226_" class="st0" d="M6.7,21.7c-0.1,0.2-0.2,0.4-0.2,0.7c0,0.4,0.2,0.7,0.5,0.9c0.4,0.3,0.8,0.4,1.5,0.4h2.8v0.9
		H5.8v-0.9H7v0c-0.4-0.1-0.7-0.3-0.9-0.6c-0.2-0.3-0.3-0.5-0.3-0.9c0-0.2,0-0.4,0.1-0.5H6.7z"/>
	<path id="XMLID_228_" class="st0" d="M5.8,16l5.5,2.2v0.9l-5.5,2.1v-1l4-1.4c0.3-0.1,0.5-0.2,0.8-0.2v0c-0.3,0-0.5-0.1-0.7-0.2
		l-4-1.5V16z"/>
	<path id="XMLID_230_" class="st0" d="M8.8,10.7v3.9c0.6,0,1.1-0.2,1.4-0.5s0.5-0.7,0.5-1.3c0-0.6-0.2-1.2-0.6-1.7h0.8
		c0.4,0.5,0.5,1.1,0.5,1.9c0,0.8-0.3,1.4-0.7,1.8c-0.5,0.4-1.2,0.7-2.1,0.7c-0.9,0-1.6-0.2-2.1-0.7C6,14.3,5.7,13.7,5.7,13
		s0.2-1.3,0.7-1.7c0.5-0.4,1.1-0.6,1.9-0.6H8.8z M8.1,11.6c-0.5,0-0.9,0.1-1.2,0.4c-0.3,0.2-0.4,0.6-0.4,1c0,0.4,0.1,0.8,0.4,1.1
		c0.3,0.3,0.7,0.5,1.2,0.5V11.6z"/>
	<path id="XMLID_233_" class="st0" d="M11.3,4.7v0.9h-0.9v0c0.7,0.4,1.1,1,1.1,1.9c0,0.7-0.2,1.2-0.7,1.7c-0.5,0.4-1.2,0.6-2,0.6
		c-0.9,0-1.6-0.2-2.2-0.7S5.7,8,5.7,7.2c0-0.8,0.3-1.3,0.9-1.6v0H3.2V4.7H11.3z M8.8,5.6H8C7.6,5.6,7.2,5.7,6.9,6
		C6.6,6.3,6.4,6.7,6.4,7.1c0,0.5,0.2,1,0.6,1.3C7.4,8.7,8,8.9,8.7,8.9c0.6,0,1.1-0.1,1.5-0.4c0.4-0.3,0.6-0.7,0.6-1.2
		c0-0.5-0.2-0.9-0.5-1.2C9.8,5.7,9.4,5.6,8.8,5.6z"/>
	<path id="XMLID_236_" class="st0" d="M11.5,2.4c0,0.2-0.1,0.3-0.2,0.4S11,3,10.9,3c-0.2,0-0.3-0.1-0.4-0.2
		c-0.1-0.1-0.2-0.3-0.2-0.4c0-0.2,0.1-0.3,0.2-0.4c0.1-0.1,0.3-0.2,0.4-0.2c0.2,0,0.3,0.1,0.4,0.2C11.4,2.1,11.5,2.2,11.5,2.4z"/>
</g>
<g id="XMLID_158_">
</g>
<g id="XMLID_238_">
</g>
<g id="XMLID_239_">
</g>
<g id="XMLID_240_">
</g>
<g id="XMLID_241_">
</g>
<g id="XMLID_242_">
</g>
</svg>
