<?xml version="1.0" encoding="utf-8"?>
<!-- Generator: Adobe Illustrator 16.0.0, SVG Export Plug-In . SVG Version: 6.00 Build 0)  -->
<!DOCTYPE svg PUBLIC "-//W3C//DTD SVG 1.1//EN" "http://www.w3.org/Graphics/SVG/1.1/DTD/svg11.dtd">
<svg version="1.1" id="Layer_1" xmlns="http://www.w3.org/2000/svg" xmlns:xlink="http://www.w3.org/1999/xlink" x="0px" y="0px"
	 width="130.044px" height="10.674px" viewBox="0.579 0 130.044 10.674" enable-background="new 0.579 0 130.044 10.674"
	 xml:space="preserve">
<g>
	<path fill="#F1F2F2" d="M4.414,4.854C2.338,4.133,1.958,3.545,1.958,2.646V2.617c0-1.008,0.878-1.736,2.086-1.736
		c0.929,0,1.713,0.313,2.471,0.988l0.083,0.074l0.579-0.748L7.102,1.131C6.187,0.35,5.254,0.002,4.075,0.002
		c-1.738,0-3.05,1.148-3.05,2.674v0.027c0,1.416,0.809,2.232,2.985,3.016C6.013,6.42,6.393,7.024,6.393,7.896v0.031
		c0,1.074-0.927,1.852-2.202,1.852c-1.09,0-1.962-0.379-2.918-1.274L1.194,8.429L0.579,9.156l0.074,0.065
		c1.081,0.992,2.167,1.437,3.522,1.437c1.818,0,3.138-1.166,3.138-2.775V7.854C7.313,6.459,6.5,5.619,4.414,4.854z"/>
	<path fill="#F1F2F2" d="M24.933,5.929h2.814v3.094C27.1,9.506,26.227,9.797,25.4,9.797c-2.228,0-3.667-1.75-3.667-4.453V5.287
		c0-2.555,1.5-4.406,3.565-4.406c0.996,0,1.789,0.299,2.498,0.941L27.88,1.9l0.581-0.752l-0.079-0.064
		c-0.944-0.77-1.834-1.082-3.068-1.082c-2.625,0-4.53,2.229-4.53,5.299v0.086c0,3.152,1.844,5.271,4.588,5.271
		c1.63,0,2.812-0.828,3.244-1.187l0.038-0.031v-4.39h-3.721V5.929z"/>
	<polygon fill="#F1F2F2" points="33.208,5.725 38.026,5.725 38.026,4.848 33.208,4.848 33.208,1.023 38.562,1.023 38.562,0.146 
		32.274,0.146 32.274,10.515 38.634,10.515 38.634,9.638 33.208,9.638 	"/>
	<polygon fill="#F1F2F2" points="58.988,0.146 58.052,0.146 58.052,10.515 63.907,10.515 63.907,9.638 58.988,9.638 	"/>
	<path fill="#F1F2F2" d="M73.054,6.679c0,1.981-0.992,3.118-2.723,3.118c-1.76,0-2.77-1.151-2.77-3.159V0.147H66.64v6.532
		c0,2.465,1.403,3.993,3.661,3.993c2.275,0,3.689-1.553,3.689-4.051V0.146h-0.938v6.533H73.054z"/>
	<polygon fill="#F1F2F2" points="81.925,5.978 78.604,0.199 78.576,0.146 77.685,0.146 77.685,10.515 78.589,10.515 78.589,1.977 
		81.835,7.58 82.015,7.58 85.246,1.979 85.246,10.515 86.179,10.515 86.179,0.146 85.291,0.146 	"/>
	<rect x="90.106" y="0.146" fill="#F1F2F2" width="0.937" height="10.367"/>
	<polygon fill="#F1F2F2" points="101.509,8.656 95.824,0.146 94.966,0.146 94.966,10.515 95.873,10.515 95.873,1.803 
		101.646,10.467 101.677,10.515 102.417,10.515 102.417,0.146 101.509,0.146 	"/>
	<rect x="106.341" y="0.146" fill="#F1F2F2" width="0.938" height="10.367"/>
	<path fill="#F1F2F2" d="M117.5,6.679c0,1.981-0.99,3.118-2.722,3.118c-1.762,0-2.77-1.151-2.77-3.159V0.147h-0.922v6.532
		c0,2.465,1.402,3.993,3.66,3.993c2.275,0,3.688-1.553,3.688-4.051V0.146H117.5V6.679z"/>
	<polygon fill="#F1F2F2" points="129.731,0.146 126.369,5.978 123.048,0.199 123.019,0.146 122.13,0.146 122.13,10.515 
		123.035,10.515 123.035,1.977 126.248,7.528 126.278,7.58 126.457,7.58 129.688,1.979 129.688,10.515 130.623,10.515 
		130.623,0.146 	"/>
	<polygon fill="#F1F2F2" points="13.751,0.074 9.709,10.515 10.674,10.515 14.171,1.357 17.655,10.515 18.663,10.515 14.621,0.074 	
		"/>
	<polygon fill="#F1F2F2" points="50.093,0.074 46.052,10.515 47.015,10.515 50.512,1.357 53.996,10.515 55.003,10.515 50.961,0.074 
			"/>
</g>
</svg>
