<?xml version="1.0" encoding="utf-8"?>
<!-- Generator: Adobe Illustrator 16.0.0, SVG Export Plug-In . SVG Version: 6.00 Build 0)  -->
<!DOCTYPE svg PUBLIC "-//W3C//DTD SVG 1.0//EN" "http://www.w3.org/TR/2001/REC-SVG-20010904/DTD/svg10.dtd">
<svg version="1.0" id="Layer_1" xmlns="http://www.w3.org/2000/svg" xmlns:xlink="http://www.w3.org/1999/xlink" x="0px" y="0px"
	 width="44.848px" height="50px" viewBox="0 0 44.848 50" enable-background="new 0 0 44.848 50" xml:space="preserve">
<g>
	<path fill="#F1F2F2" d="M7.577,16.688c-2.772-1.35-2.872-2.08-2.872-2.656c0-0.563,0.245-1.496,2.948-2.716l14.972-6.613V0
		L5.976,7.356c-4.601,1.864-5.572,4.661-5.572,6.675c0,3.081,1.274,4.493,5.489,6.614L44.848,37.81v-4.7L7.577,16.688z"/>
	<path fill="#F1F2F2" d="M22.625,6.114L8.184,12.493c-1.794,0.809-2.187,1.385-2.187,1.539c0,0.03-0.003,0.062-0.001,0.083
		c0.009,0.02,0.221,0.475,2.101,1.392l1.938,0.854l12.589-5.562V6.114z"/>
	<path fill="#F1F2F2" d="M5.372,21.826l-0.03-0.014l-0.03-0.013c-2.121-1.068-3.677-2.033-4.702-3.232
		c-0.148,0.549-0.207,1.079-0.207,1.562c0,3.08,1.274,4.494,5.489,6.614l38.955,17.16v-4.684l-0.521-0.229L5.372,21.826z"/>
	<polygon fill="#F1F2F2" points="22.625,16.896 22.625,12.193 11.618,17.058 16.947,19.406 	"/>
	<path fill="#F1F2F2" d="M5.372,27.923l-0.03-0.014l-0.03-0.015c-2.115-1.064-3.669-2.026-4.695-3.222
		c-0.145,0.546-0.213,1.072-0.213,1.552c0,3.082,1.274,4.492,5.489,6.611L44.848,50v-4.685l-0.521-0.23L5.372,27.923z"/>
	<path fill="#F1F2F2" d="M5.372,34.016l-0.03-0.015l-0.03-0.015c-1.169-0.587-2.148-1.146-2.981-1.727l-1.928,0.85v4.7l6.791-2.995
		L5.372,34.016z"/>
	<polygon fill="#F1F2F2" points="8.793,35.522 0.923,38.99 0.403,39.219 0.403,43.902 14.108,37.863 	"/>
	<polygon fill="#F1F2F2" points="0.923,45.085 0.403,45.315 0.403,50 21.024,40.913 15.709,38.57 	"/>
</g>
</svg>
