<?xml version="1.0" encoding="utf-8"?>
<!-- Generator: Adobe Illustrator 16.0.0, SVG Export Plug-In . SVG Version: 6.00 Build 0)  -->
<!DOCTYPE svg PUBLIC "-//W3C//DTD SVG 1.0//EN" "http://www.w3.org/TR/2001/REC-SVG-20010904/DTD/svg10.dtd">
<svg version="1.0" id="Layer_1" xmlns="http://www.w3.org/2000/svg" xmlns:xlink="http://www.w3.org/1999/xlink" x="0px" y="0px"
	 width="140.998px" height="10.674px" viewBox="0 0 140.998 10.674" enable-background="new 0 0 140.998 10.674"
	 xml:space="preserve">
<g>
	<path fill="#F1F2F2" d="M0,0.359h6.225v1.319H1.476v2.183h4.21v1.319h-4.21v2.255h4.81v1.319H0V0.359z"/>
	<path fill="#F1F2F2" d="M9.647,5.541L7.404,2.423h1.584l1.463,2.086l1.463-2.086h1.547l-2.242,3.082l2.339,3.25h-1.583l-1.56-2.219
		L8.868,8.755H7.32L9.647,5.541z"/>
	<path fill="#F1F2F2" d="M14.832,2.423h1.451v1.055c0.468-0.659,1.128-1.188,2.147-1.188c1.499,0,2.95,1.188,2.95,3.286v0.024
		c0,2.099-1.439,3.286-2.95,3.286c-1.044,0-1.703-0.527-2.147-1.115v2.902h-1.451V2.423z M19.905,5.601V5.576
		c0-1.223-0.827-2.026-1.811-2.026s-1.847,0.815-1.847,2.026v0.024c0,1.224,0.863,2.027,1.847,2.027
		C19.09,7.628,19.905,6.848,19.905,5.601z"/>
	<path fill="#F1F2F2" d="M22.524,5.612V5.589c0-1.812,1.283-3.299,3.095-3.299c2.015,0,3.034,1.584,3.034,3.406
		c0,0.132-0.012,0.264-0.024,0.408h-4.653c0.156,1.031,0.888,1.607,1.823,1.607c0.708,0,1.211-0.265,1.715-0.756l0.852,0.756
		c-0.6,0.719-1.427,1.187-2.591,1.187C23.939,8.898,22.524,7.567,22.524,5.612z M27.214,5.145c-0.096-0.936-0.647-1.667-1.607-1.667
		c-0.887,0-1.511,0.684-1.643,1.667H27.214z"/>
	<path fill="#F1F2F2" d="M30.12,2.423h1.451V3.85c0.396-0.947,1.128-1.595,2.243-1.547v1.535H33.73
		c-1.271,0-2.159,0.827-2.159,2.506v2.411H30.12V2.423z"/>
	<path fill="#F1F2F2" d="M35.1,0.071h1.56v1.38H35.1V0.071z M35.159,2.423h1.451v6.332h-1.451V2.423z"/>
	<path fill="#F1F2F2" d="M38.16,5.612V5.589c0-1.812,1.283-3.299,3.095-3.299c2.015,0,3.034,1.584,3.034,3.406
		c0,0.132-0.012,0.264-0.024,0.408h-4.653c0.156,1.031,0.888,1.607,1.823,1.607c0.708,0,1.211-0.265,1.715-0.756l0.852,0.756
		c-0.6,0.719-1.427,1.187-2.591,1.187C39.575,8.898,38.16,7.567,38.16,5.612z M42.85,5.145c-0.096-0.936-0.647-1.667-1.606-1.667
		c-0.888,0-1.512,0.684-1.644,1.667H42.85z"/>
	<path fill="#F1F2F2" d="M45.756,2.423h1.451v0.983c0.408-0.601,0.996-1.116,1.979-1.116c1.427,0,2.255,0.96,2.255,2.436v4.029
		H49.99V5.157c0-0.983-0.492-1.548-1.355-1.548c-0.84,0-1.428,0.588-1.428,1.571v3.574h-1.451V2.423z"/>
	<path fill="#F1F2F2" d="M52.848,5.625V5.601c0-1.799,1.392-3.311,3.286-3.311c1.199,0,1.943,0.444,2.531,1.092l-0.899,0.972
		c-0.444-0.468-0.912-0.792-1.644-0.792c-1.056,0-1.823,0.912-1.823,2.015v0.024c0,1.127,0.78,2.039,1.896,2.039
		c0.684,0,1.188-0.324,1.643-0.792l0.876,0.864c-0.624,0.695-1.355,1.187-2.591,1.187C54.239,8.898,52.848,7.424,52.848,5.625z"/>
	<path fill="#F1F2F2" d="M59.52,5.612V5.589c0-1.812,1.283-3.299,3.095-3.299c2.015,0,3.034,1.584,3.034,3.406
		c0,0.132-0.012,0.264-0.024,0.408h-4.653c0.156,1.031,0.888,1.607,1.823,1.607c0.708,0,1.211-0.265,1.715-0.756l0.852,0.756
		c-0.6,0.719-1.427,1.187-2.591,1.187C60.935,8.898,59.52,7.567,59.52,5.612z M64.209,5.145c-0.096-0.936-0.647-1.667-1.606-1.667
		c-0.888,0-1.512,0.684-1.644,1.667H64.209z"/>
	<path fill="#F1F2F2" d="M66.899,7.111h1.596v1.644h-1.596V7.111z"/>
	<path fill="#F1F2F2" d="M82.679,5.601V5.576c0-2.099,1.428-3.286,2.939-3.286c1.043,0,1.703,0.528,2.158,1.116V0h1.451v8.755
		h-1.451V7.699c-0.469,0.66-1.127,1.188-2.158,1.188C84.13,8.887,82.679,7.699,82.679,5.601z M87.8,5.601V5.576
		c0-1.223-0.863-2.026-1.834-2.026c-0.996,0-1.824,0.768-1.824,2.026v0.024c0,1.224,0.84,2.027,1.824,2.027
		C86.937,7.628,87.8,6.812,87.8,5.601z"/>
	<path fill="#F1F2F2" d="M90.443,2.423h1.561l1.703,4.653l1.715-4.653h1.523l-2.592,6.38h-1.307L90.443,2.423z"/>
	<path fill="#F1F2F2" d="M101.757,8.755V7.976c-0.432,0.516-1.092,0.911-2.051,0.911c-1.199,0-2.256-0.684-2.256-1.955V6.908
		c0-1.403,1.092-2.075,2.566-2.075c0.768,0,1.26,0.108,1.752,0.264v-0.12c0-0.875-0.551-1.354-1.559-1.354
		c-0.709,0-1.236,0.155-1.813,0.396l-0.395-1.163c0.695-0.313,1.379-0.528,2.41-0.528c1.871,0,2.783,0.983,2.783,2.675v3.754
		H101.757z M101.792,6.104c-0.371-0.145-0.887-0.252-1.451-0.252c-0.91,0-1.451,0.372-1.451,0.983V6.86
		c0,0.6,0.541,0.936,1.225,0.936c0.959,0,1.678-0.54,1.678-1.332V6.104z"/>
	<path fill="#F1F2F2" d="M104.927,2.423h1.451v0.983c0.408-0.601,0.996-1.116,1.979-1.116c1.428,0,2.256,0.96,2.256,2.436v4.029
		h-1.451V5.157c0-0.983-0.492-1.548-1.355-1.548c-0.84,0-1.428,0.588-1.428,1.571v3.574h-1.451V2.423z"/>
	<path fill="#F1F2F2" d="M112.667,7.004V3.67h-0.803V2.423h0.803V0.684h1.451v1.739h1.703V3.67h-1.703v3.106
		c0,0.563,0.287,0.791,0.779,0.791c0.324,0,0.611-0.072,0.9-0.216v1.188c-0.361,0.204-0.768,0.324-1.309,0.324
		C113.423,8.863,112.667,8.396,112.667,7.004z"/>
	<path fill="#F1F2F2" d="M121.162,8.755V7.976c-0.432,0.516-1.092,0.911-2.051,0.911c-1.199,0-2.256-0.684-2.256-1.955V6.908
		c0-1.403,1.092-2.075,2.566-2.075c0.768,0,1.26,0.108,1.752,0.264v-0.12c0-0.875-0.551-1.354-1.559-1.354
		c-0.709,0-1.236,0.155-1.813,0.396l-0.395-1.163c0.695-0.313,1.379-0.528,2.41-0.528c1.871,0,2.783,0.983,2.783,2.675v3.754
		H121.162z M121.197,6.104c-0.371-0.145-0.887-0.252-1.451-0.252c-0.91,0-1.451,0.372-1.451,0.983V6.86
		c0,0.6,0.541,0.936,1.225,0.936c0.959,0,1.678-0.54,1.678-1.332V6.104z"/>
	<path fill="#F1F2F2" d="M124.318,9.942l0.541-1.092c0.672,0.42,1.391,0.672,2.254,0.672c1.295,0,2.004-0.672,2.004-1.943V7.088
		c-0.529,0.684-1.188,1.163-2.232,1.163c-1.486,0-2.877-1.104-2.877-2.962V5.265c0-1.871,1.402-2.975,2.877-2.975
		c1.068,0,1.729,0.492,2.219,1.08V2.423h1.451V7.46c0,1.067-0.275,1.858-0.803,2.387c-0.576,0.575-1.463,0.852-2.604,0.852
		C126.105,10.698,125.134,10.434,124.318,9.942z M129.128,5.289V5.265c0-1.043-0.852-1.751-1.859-1.751s-1.799,0.695-1.799,1.739
		v0.023c0,1.044,0.803,1.752,1.799,1.752C128.277,7.028,129.128,6.309,129.128,5.289z"/>
	<path fill="#F1F2F2" d="M132.023,5.612V5.589c0-1.812,1.283-3.299,3.094-3.299c2.016,0,3.035,1.584,3.035,3.406
		c0,0.132-0.012,0.264-0.025,0.408h-4.652c0.156,1.031,0.887,1.607,1.822,1.607c0.709,0,1.211-0.265,1.715-0.756l0.852,0.756
		c-0.6,0.719-1.426,1.187-2.59,1.187C133.437,8.898,132.023,7.567,132.023,5.612z M136.712,5.145
		c-0.096-0.936-0.648-1.667-1.607-1.667c-0.887,0-1.512,0.684-1.643,1.667H136.712z"/>
	<path fill="#F1F2F2" d="M139.402,7.111h1.596v1.644h-1.596V7.111z"/>
	<polygon fill="#F1F2F2" points="78.333,0.3 76.966,0.3 73.271,8.755 74.783,8.755 77.626,2.063 80.468,8.755 82.027,8.755 	"/>
</g>
</svg>
