<?xml version="1.0" encoding="utf-8"?>
<!-- Generator: Adobe Illustrator 16.0.0, SVG Export Plug-In . SVG Version: 6.00 Build 0)  -->
<!DOCTYPE svg PUBLIC "-//W3C//DTD SVG 1.0//EN" "http://www.w3.org/TR/2001/REC-SVG-20010904/DTD/svg10.dtd">
<svg version="1.0" id="Layer_1" xmlns="http://www.w3.org/2000/svg" xmlns:xlink="http://www.w3.org/1999/xlink" x="0px" y="0px"
	 width="44.848px" height="50px" viewBox="0 0 44.848 50" enable-background="new 0 0 44.848 50" xml:space="preserve">
<g>
	<path fill="#F1F2F2" d="M22.375,0.384V4.54L7.55,11.088c-2.743,1.239-3.094,2.224-3.094,2.944c0,0.745,0.23,1.526,3.021,2.885
		l37.121,16.355v4.154L6.005,20.422c-4.201-2.114-5.352-3.488-5.352-6.391c0-1.938,0.939-4.629,5.423-6.447L22.375,0.384 M22.625,0
		L5.976,7.356c-4.601,1.864-5.572,4.661-5.572,6.675c0,3.081,1.274,4.493,5.489,6.614l38.955,17.166v-4.701L7.577,16.688
		c-2.772-1.35-2.872-2.08-2.872-2.656c0-0.563,0.245-1.496,2.947-2.716l14.973-6.613V0L22.625,0z"/>
	<path fill="#F1F2F2" d="M22.374,6.499v4.137l-12.339,5.452l-1.829-0.805c-1.451-0.708-1.859-1.117-1.956-1.234
		c0.046-0.087,0.371-0.577,2.034-1.327L22.374,6.499 M22.625,6.114L22.625,6.114L22.625,6.114L22.625,6.114L22.625,6.114z
		 M22.624,6.115l-14.44,6.378c-1.794,0.809-2.187,1.385-2.187,1.539c0,0.03-0.003,0.062-0.001,0.083
		c0.009,0.02,0.221,0.475,2.101,1.392l1.938,0.854l12.589-5.562V6.115L22.624,6.115z"/>
	<path fill="#F1F2F2" d="M0.748,19.089c0.934,0.959,2.271,1.835,4.452,2.933l0.066,0.03l0.006,0.003l38.954,17.164l0.371,0.163
		v4.137L6.004,26.52c-4.201-2.113-5.352-3.487-5.352-6.391C0.653,19.781,0.684,19.433,0.748,19.089 M0.61,18.567
		c-0.147,0.549-0.207,1.079-0.207,1.562c0,3.08,1.274,4.494,5.489,6.614l38.955,17.159v-4.684l-0.521-0.229L5.372,21.826
		l-0.03-0.014l-0.03-0.013C3.191,20.731,1.635,19.766,0.61,18.567L0.61,18.567z"/>
	<path fill="#F1F2F2" d="M22.375,12.577v4.157l-5.429,2.399l-4.709-2.075L22.375,12.577 M22.625,12.193l-11.007,4.865l5.328,2.348
		l5.679-2.51V12.193L22.625,12.193z"/>
	<path fill="#F1F2F2" d="M0.755,25.192c0.933,0.957,2.268,1.831,4.445,2.926l0.066,0.031l0.006,0.002l38.955,17.162l0.371,0.164
		v4.139L6.005,32.611c-4.201-2.112-5.352-3.485-5.352-6.387C0.654,25.891,0.688,25.545,0.755,25.192 M0.617,24.672
		c-0.146,0.546-0.214,1.072-0.214,1.553c0,3.082,1.274,4.491,5.489,6.61L44.848,50v-4.686l-0.521-0.229L5.372,27.923l-0.03-0.014
		l-0.03-0.015C3.197,26.83,1.643,25.868,0.617,24.672L0.617,24.672z"/>
	<path fill="#F1F2F2" d="M2.304,32.544c0.786,0.538,1.711,1.07,2.895,1.666l0.066,0.032l0.006,0.002l1.301,0.571l-5.92,2.609v-4.152
		L2.304,32.544 M2.331,32.259l-1.929,0.851v4.699l6.791-2.994l-1.821-0.799l-0.03-0.015l-0.03-0.015
		C4.143,33.398,3.164,32.84,2.331,32.259L2.331,32.259z"/>
	<path fill="#F1F2F2" d="M8.793,35.795l4.694,2.068L0.653,43.519v-4.137l0.372-0.163L8.793,35.795 M8.793,35.521l-7.87,3.469
		l-0.521,0.229v4.684l13.705-6.039L8.793,35.521L8.793,35.521z"/>
	<path fill="#F1F2F2" d="M15.709,38.844l4.695,2.069L0.653,49.616v-4.139l0.371-0.164L15.709,38.844 M15.709,38.57L0.923,45.085
		l-0.521,0.229V50l20.621-9.087L15.709,38.57L15.709,38.57z"/>
</g>
</svg>
